<svg version="1.0" xmlns="http://www.w3.org/2000/svg" width="1497.333" height="526.667" viewBox="0 0 1123 395"><path d="M947.2 42.7c-1.9.9-5.4 4.1-7.9 7.2-11.7 14.4-18 40.6-14.1 59.3.9 4.6.9 6.7 0 10.1-2.7 9.4-5.4 28.3-5 35.8.5 8.3 3.2 13.9 6.8 13.9 2.8 0 3.3 1.6 1.9 6.9-1.8 7-.7 9.8 4.1 11.1l4 1.1v7.9c0 8.4-.7 12.2-4.7 25.9-2.1 7.3-3.2 9.2-7.9 14.1-3 3.1-5.4 6.4-5.4 7.3 0 2.2 4.1 2.2 8.1.1 1.7-.8 3.3-1.3 3.7-1 .3.3-.1 3.1-.8 6.1-.9 3.9-1 5.9-.3 6.6 2 2 4.6.4 6.7-3.8 1.2-2.3 2.4-4.2 2.8-4.3.4 0 .8 1.7 1 3.7.5 5.8 3.3 5.7 5.9-.1 1.1-2.6 1.8-5.4 1.5-6.4-.9-2.8 1-4.9 3.1-3.6 1.6 1 1.8 2.5 1.5 12.5-.7 30.4-7.7 51.5-20.7 63.1-4.9 4.3-14.5 8.8-19 8.8-1.8 0-5.2.7-7.5 1.5-6.2 2.2-7 2-7-1.9 0-10-4.7-22.3-13.4-34.9-2.5-3.7-4.6-6.9-4.6-7.2 0-.3 1.1-.5 2.4-.5 1.3 0 2.6-.6 2.9-1.3.2-.6 1.9-1.2 3.8-1.2h3.4l-.2-4.6c-.2-3.4.2-4.9 1.2-5.3 4.2-1.6-.5-8.9-6.8-10.7-5.7-1.7-7.2-3.2-8.7-8.5-1-3.4-1-5.4-.2-8.2 1.6-5.4 3.4-22.8 2.8-26-.3-1.5-.8-6.1-1.1-10.1-.3-4.5-1.1-8.1-2-9.1-3.4-3.8-.7-9.6 4-8.7 4.1.7 5.5-.1 5.5-3.3 0-2.2 1-3.4 5.2-6.1 7.6-4.9 14.4-13.9 17-22.3 1.7-5.7 2-8.4 1.5-16-.3-5-1.3-10.5-2.2-12.2-4.6-9.2-16.3-17.6-27.2-19.4-6.3-1.1-22.2.3-30.1 2.6-8.3 2.4-15.6 6.9-20.2 12.4-4.3 5.1-11 17.1-11 19.6 0 .8-.5 1.4-1 1.4-1.9 0-9.6 11.7-11.9 18-1.8 4.9-2.2 7.6-1.8 11.6.5 5.1 4.2 12.9 7.2 15.4 2.2 1.9 1.8 5.4-1 8-3.5 3.3-5.9 10.1-5.1 14.4.4 2 1.8 4.9 3.2 6.5l2.5 3-2.4.6c-3.2.9-9.5-2.4-14.1-7.2-2-2.1-6.6-9.8-10.4-17.1-3.7-7.3-7.2-14.3-7.9-15.5-3.1-5.8-5.5-18.4-5.6-29.7-.1-14.7 1.3-19.4 6-19.8 3.5-.3 6.3-3.3 6.3-6.6 0-1.1 1.3-3.4 2.9-5.1 1.6-1.6 3.2-4.7 3.5-6.8.8-4.1.8-4.1-2.8-2.7-1.7.6-3.5.6-5.1 0-2.3-.9-2.5-1.5-2.5-6.5 0-3-.9-8.8-2-12.8-3-10.9-8.8-15-16.4-11.6-2.1 1-3.4.8-8.2-1.5-11.3-5.4-22.9-5.7-33.2-1-12.9 5.9-17.9 13.4-19.2 28.9-.5 5.3-1.4 10.2-2 11-1.9 2.3.6 7.2 5.1 10 3 2 3.6 2.9 3.2 4.7-.8 3.2-2.9 5.4-6.6 6.9-1.8.7-4 1.9-4.9 2.7-4 3.4-.8 11.1 5.5 13.1l3.2 1.1-.3 7.5c-.5 8.8 1.3 13.1 5 11.9 2.5-.8 3.9 1.2 3.1 4.4-.4 1.7.2 3.1 2 5 1.3 1.5 2.8 3.7 3.1 4.9.4 1.2 1.6 2.5 2.6 2.8 2.8.9 9.4-1.2 14.4-4.5 6.5-4.4 8-4.1 10.1 2.5.9 3 2.1 5.7 2.6 6.1.5.3.9 3.8.9 7.7.1 10.4 1.7 27 3.5 35.1 1.9 8.7 3.4 32.3 2.4 38-2.2 12.8-4.9 20-10.4 27.8-1.4 2.2-9.1 7.8-10.5 7.8-1.6 0-9 7.1-9 8.6 0 1.7-5.2 1.9-8.3.2-1.2-.6-4.9-1.4-8.2-1.7l-5.9-.6-1.2-6c-1.5-7.4-4.1-14-10.2-26.5-5.2-10.6-5.5-13.2-3.8-31.7.8-8.1 1.1-9.3 2.8-9.3 1 0 3.5-.7 5.5-1.5s3.8-1.4 4-1.2c.2.2-.2 1.8-.8 3.6-1.2 3.4-.8 6.6 1.3 9.4 2 2.7 4.5 1.2 5.3-3.1 1-5.9 1.5-7.2 3.1-7.2.9 0 1.4 1.1 1.4 3 0 3.5 4.1 8.3 6.3 7.4 1.7-.6 2.7-4.8 2.7-11.1 0-3.7.3-4.4 1.8-4.1 1 .2 1.8 1.4 2 3 .4 3.3 2.4 5.1 5.4 4.6 2.1-.3 2.3-.8 2.3-6.2-.1-5.5-.3-6-3.9-9.4l-3.9-3.5 2.6-1.9c2.8-2.1 3.6-6.1 1.5-7.4-.6-.4-4-.9-7.5-1.1-11.5-.6-20-7.2-27.6-21.6-2.5-4.7-10.1-17.3-14.6-24.2-4.5-6.9-17.2-21.5-18.7-21.5-2 0-2.9-2.7-1.4-4.5 1.5-1.8 5.5-1.9 9.9-.4 2.8 1 3.4.9 4.6-.7.8-1.1 1.5-3.2 1.5-4.8 0-1.6 1.6-6.8 3.5-11.6 3.4-8.5 3.5-8.9 2.5-16.5-.5-4.3-1.7-9-2.6-10.4-2.4-3.8-6.6-8.1-7.9-8.1-.7 0-2-.9-3.1-2.1-3-3.3-5-4-13.8-4.6-22.5-1.4-40.1 6.5-47.1 21.1-1.6 3.5-3.6 7.6-4.3 9.2-.7 1.6-3 4.1-5.2 5.6-2.1 1.5-4.7 4.2-5.6 6-2.2 4.1-3.6 14.6-2.3 17 1.2 2.2 6.1 4.8 9 4.8 2.5 0 4.8 2.6 4.9 5.6 0 4.7 4 5.5 11.7 2.5 2.6-1 6.4-2.1 8.4-2.5 7.1-1.3 11.2 4.7 22.4 33 9.7 24.3 14 42.4 15.6 65.1l1.1 16.1-2.5 5.4c-4.7 10-12.2 14.9-20.4 13.3-7.4-1.4-8.5-2.6-13.7-14.8-1.8-4.3-4.2-4.8-7.4-1.4-3.6 3.8-2.7 10.5 3.8 29.3 3.2 9.5 5.6 12.7 10.3 13.8 2.2.5 3.4 0 7-3.3 3.3-3.1 5.5-4.1 10.1-5 3.2-.6 8.3-2.4 11.4-4.1 3.1-1.6 6-3 6.6-3 .6 0 2.4 1.4 4 3 1.5 1.7 4.1 3.7 5.7 4.6 4 2 3.6 4-1.1 6.4-2.2 1.1-4.1 2.7-4.1 3.5-.1.8-.2 2.1-.3 2.7-.1 1.6-7.2 3.4-22.3 5.6-7.3 1.1-11.8 2.3-12.1 3.1-.5 1.6 10.6.7 23.3-2 5-1.1 12.6-2.2 17-2.5 4.4-.3 12.3-1.4 17.7-2.5 13-2.6 15.1-2.5 27.5 1.7 11.6 3.9 14.2 4 28.3 1.4 13.3-2.4 35.5.3 41.9 5.2 2.9 2.2 4.7 2.3 5.5.2.3-.8 2.5-2.4 4.9-3.4 7.3-3.2 10.7-8.6 10.7-16.9 0-8.5-2.6-13.8-10.7-21.9-4-4-10.8-11.8-14.9-17.3-6.4-8.3-8-9.9-10.3-9.9-1.5 0-3.5.8-4.3 1.7-7.4 8.9-11.9 31.1-9.4 47.3 1.2 8.2-.4 9.7-11.9 11.6-16.3 2.6-19.9 2.8-21.3 1.1-2-2.4-.4-4.5 7.2-9.6 4-2.7 9-7.3 11.3-10.2 9.8-12.7 13.7-38.2 9.3-60.1-3.4-16.8-4.3-27.5-2.9-32.5 1.3-4.7 7.7-11.3 11-11.3 1 0 3.3 2.4 5.5 5.7 2.1 3.2 5.2 7.3 7 9.3 4.7 5.2 6.2 10.1 6.8 22.5.4 8.4 1.1 12.6 3 17.8 4.3 11.3 6 13.8 16.8 24.7 11 11.2 14.1 16.2 15.8 25 .6 3.3 2.1 6.7 3.5 8.4 2.6 3 3.4 8.7 1.6 11.4-.5.8-3.7 2-7.2 2.7-7.9 1.7-16.9 4.7-16.9 5.8 0 .9 7.8.2 12.2-1.2 11-3.3 16.3-4.1 23.2-3.5 4.3.4 10.2.1 14.6-.6 4-.7 10.1-1.3 13.6-1.4 5.6-.1 6.4.2 8.3 2.6 2.1 2.6 2.1 2.6 14.9 2.4 7-.1 13.3-.6 14-1 .7-.4 4.2-1.6 7.8-2.6l6.5-1.9 5 2.5c4.5 2.3 5.7 2.5 12.7 1.9 4.2-.4 9.7-1.1 12.1-1.6 3-.7 4.8-.6 5.5.1.5.5 1.7 1 2.6 1 .8 0 2.1.9 2.8 2 1 1.6 2.3 2 7.1 2 3.2 0 7.8-.7 10.2-1.5 3.1-1.1 5.1-1.3 7.3-.6 1.7.5 9.6 1.2 17.6 1.5 31.8 1.4 50.1 3.2 57.5 5.8 5 1.7 8.5 2.1 8.5.9 0-1.7-4.1-3.8-10-5-7.3-1.5-30-4.9-32.5-4.9-1.1 0-9-.3-17.6-.7l-15.7-.8-2.6-7.6c-6.8-20-9.2-37.2-10.1-74.1-.6-21.5-1.2-29.8-3.1-41.8-.9-5.9 1.2-5.6 7.1 1 11.6 12.9 17.7 25.9 17.8 37.8 0 5.9.8 7.9 2.9 8 .9 0 6.9-6.4 8.3-8.8.5-1 1.2-3.7 1.5-6.2.5-4.8 1.3-5.2 7.1-3.6 4.8 1.4 7.9-4.6 4.3-8.5-1.2-1.4-1.3-2.1-.3-3.7.7-1.1.9-2.7.6-3.6-.9-2.3-7.2-4.8-10.2-4-3.5.9-3.1-.6 1.1-4.2 3.4-2.8 3.6-3.2 2.3-5.3-1.1-1.8-2-2.1-4.4-1.6-10.1 2.1-8.8 2.6-18.8-7.6-5.1-5.2-12.4-12.1-16.2-15.4l-6.9-6.1.2-6.4c.2-6.3 2.4-20.7 4.3-28.2.5-2 1.7-3.9 2.7-4.3 6.1-2.1 11.2-12.5 16.8-34 2.7-10.1 2.9-13.2 1.3-20.5-.9-4.1-1.7-5.3-4.1-6.6-1.6-.8-4.4-1.5-6.1-1.4-5.4.3-5.7.1-5.7-3.3 0-4.9-4.4-15.3-8.6-20.4-3.9-4.8-11.9-9.3-16.4-9.3-1.4 0-4 .8-5.8 1.7zm-8.8 21.6c1 5.1 6.6 11 14 14.5 7.1 3.4 8.6 5.3 8.6 10.6 0 3.9 1.3 4.5 4.2 1.9 1-.9 2.1-1.3 2.5-1 .3.4.1 6.1-.5 12.8-.7 6.6-1 12.5-.7 13 1.3 1.9 2.3.7 2.8-3.4 1.5-11.3 2.6-16.6 4.1-20.1.9-2.1 1.6-4.5 1.6-5.2 0-2.5 5.2-9.4 7.6-10 5.2-1.3 9.9 4.9 9.1 12-1.3 10.4-4.7 20.4-11.7 34.1-2.9 5.8-6.6 8.2-9.1 6-.8-.8-2.1-1.5-2.7-1.5-1.5 0-2.4 3.3-1.7 6.2.3 1.2.1 5.7-.5 9.8-.6 4.1-1.5 11.2-1.9 15.8-.9 9.1-1.6 10.6-3.6 7.8-1.9-2.5-4-1.5-6.1 2.9-1.9 4.1-8.4 10-13.3 12.1-4.4 1.8-9 1.8-9.7-.1-.8-2 1.4-7.2 3.7-8.9 1-.7 2.2-2.1 2.6-3.2.4-1.1 3.5-5.2 6.8-9.1 4.4-5.2 6.9-7.3 9.2-7.8 3.4-.7 6-3 4.5-3.9-.5-.3-2.5 0-4.4.6-4.8 1.4-9.7.4-13.7-3-3-2.4-3.3-3.4-3.8-9.3-.5-5.6-.2-7.3 2-11.9 1.5-3 2.4-5.6 2.2-5.9-1.2-1.1-4.7 3.8-6.1 8.6-1.8 6.2-1.1 17.5 1.2 19.4 3.3 2.7-.6 15.5-5.2 17.3-3 1.2-6.2-2-6.9-6.9-1.3-8.2 2.4-31.9 6.5-42.8l2-5.1-2.4-3.6c-2.3-3.2-2.4-4.2-2-12.5.8-13.4 6.3-33.5 9.2-33.5.6 0 1.3 1.5 1.6 3.3zm22.6 3.5c0 .5-.7 1.7-1.5 2.8-1.4 1.8-1.4 1.7-.4-.9 1.2-2.7 1.9-3.4 1.9-1.9zM770.7 85.6c4.1 1.1 6.9 16 4.8 25.9-3.4 16.1-5 19.5-9.5 19.5-3.3 0-3.4.5-2.4 8.4.4 2.9 1.2 4.6 2 4.6 1.1 0 1.4 1.9 1.4 8 0 4.4.5 11.1 1.2 15 1.3 7.7.8 9-3.9 9-3.3 0-7.6 4.2-11.2 11-1.8 3.3-3.6 5.8-4.1 5.5-.4-.3-1.5-2.6-2.4-5.2-1.4-4.1-1.4-4.9-.1-6.9.8-1.3 1.5-2.6 1.5-2.9 0-.6-6.1 3.8-9.4 6.7-2.5 2.2-11.8 5.8-15.2 5.8-1.9 0-2.8-.7-3.5-2.9-.6-1.6-1.8-3.2-2.6-3.6-1.3-.5-.9-1.4 2.4-4.8 2.7-2.7 6.2-8.4 9.8-16.2 7.4-15.7 7.7-16.3 6.3-17.1-1.1-.7-3.7 1.8-8.8 8.6-4.6 6-17.3 19-18.7 19-.9 0-1.3-1.7-1.3-5.9 0-7.5 1.3-10.9 4.5-12.1 2.7-1 3.4-4.1 1.3-5.7-1.9-1.5-6.4-2.4-8.2-1.7-2.2.9-1 2.4 2 2.4 2.6 0 3.1.9 1.2 2.8-1.8 1.8-4.2 1.5-7.2-.9-3.8-3-3.5-6.6.7-8.4 10.6-4.7 13.2-13.8 5.1-18.1-3.3-1.8-3.5-2.2-3-5.4.4-1.9 1-7.8 1.5-13.2.6-7.1 1.4-10.6 3-13.2 3-4.8 6-6.9 7.8-5.4 1 .8 4.1.8 10.6.2 20.8-1.9 25.8-.7 25.4 6.4-.3 5.2 1.4 4.8 4.8-1.1 1.9-3.3 4.2-5.8 6.5-6.9 3.8-2 4.4-2.1 7.7-1.2zm-150.1 15.9c2.1 1.2 5.5 1.5 12.9 1.4 15.5-.2 14.6-.4 14.3 3.6-.4 4.6 1.3 4.6 3.7 0 2.6-4.9 4.3-5.9 7.8-4.6 2.5 1 2.7 1.5 2.7 6.5 0 3-.4 6.5-.9 7.8-1 2.7-5.1 7.3-7.2 8.1-1.1.4-1.1.7-.2 1.4 1 .7.9 2-.4 6-1.5 4.9-1.5 5.2.4 9l2 3.9-3.1 3.6c-1.7 2-4.7 4.1-6.7 4.7-2 .6-5.7 2.5-8.3 4.1-5.3 3.4-6.2 3.6-7.3 1.6-.4-.7-2.4-1.8-4.4-2.5-3.1-1-4.4-.9-9.3.9-5.7 2.2-12.6 3.3-12.6 2.2 0-.4 2-1.9 4.3-3.4 9.5-6.2 20.7-17.3 20.7-20.5 0-1.9-.1-1.8-5.7 3.6-6.8 6.5-16.9 11.2-25.4 11.9-7.8.5-7.7.6-8.1-9.8-.2-7.5 1.1-10.3 7.2-14.5 3-2.1 4.3-3.9 5.6-7.9 2.3-7.1 5.8-13 9.6-16 3.9-3 4.6-3.1 8.4-1.1zm226 22.3c-.1 6.5.1 7.1 3.4 10.9 1.9 2.1 5.3 5.2 7.5 6.8 6.3 4.6 12.5 10.7 14.1 13.6 1.6 3.2 1.9 10.5.4 11.4-2.1 1.3-1 3.5 1.9 3.5 2.8 0 2.8 0 2.4 5.2-.7 7.8-1 8.4-3.3 6.3-1.9-1.7-2-1.7-2.6 0-.7 1.7 1.1 3.8 3.8 4.7.5.2.4 2.4-.3 5.1-1 3.4-1.8 4.7-3.1 4.7-2.9 0-9 3.5-12.2 6.9-3.4 3.6-4.6 3.9-4.6 1.1 0-1.1 1.1-2.5 2.4-3.2 3.3-1.8 9.1-7.1 11.1-10.2 2.6-3.9.4-3.2-2.9 1-2.9 3.7-11.4 8.4-15.3 8.4-1.2 0-3-1-4-2.3-4.8-6-12.6-8.9-20.7-7.7-3.2.5-4.6.4-4.3-.4.2-.6 2.7-1.3 5.5-1.6 3.2-.3 5.9-1.3 7.4-2.6 5.8-5.3 14.4-10.2 17-9.7 1.4.3 2.9 0 3.2-.6.4-.6 0-1.1-.9-1.1-1 0-1.5-.7-1.3-1.8.4-2.4-2.9-2.1-12.2 1.1-11.5 3.9-20.6 5.2-25.5 3.5l-4-1.3.1-6c.1-7.7 3-13.8 9.4-20.2 3.5-3.5 5.3-6.3 6.2-9.7 1.5-5.5 8.2-14.4 14.6-19.3 6.3-4.8 6.9-4.5 6.8 3.5zM866 138c-.6 1.2-1.4 1.9-1.7 1.7-.2-.3.1-1.5.7-2.7.6-1.2 1.4-1.9 1.7-1.7.2.3-.1 1.5-.7 2.7zm-98.3 2.2c-.3.8-.6.5-.6-.6-.1-1.1.2-1.7.5-1.3.3.3.4 1.2.1 1.9zm176.7 13.4c.9.3 1.6 1 1.6 1.5 0 1-9.9 12.2-11.2 12.7-.5.2.5-2.2 2.1-5.5 1.7-3.2 3.3-6.6 3.5-7.6.6-1.8 1.5-2.1 4-1.1zm-290 1.8c1.8.8 4.6 3.1 6.2 5.2 1.6 2.2 4.4 5.5 6.2 7.4 1.8 1.9 6.4 8.9 10.3 15.5 21.8 36.7 25.5 40.5 39.4 40.6 6.7.1 8.7 1.4 3.8 2.5-4.8 1-5.3 1.3-5.3 3.2 0 1.2 1.6 2.6 4.5 4 4.3 2.1 7.6 6.4 6.1 7.9-.4.4-1 .3-1.4-.3-1.4-2-10.2-7.3-10.7-6.4-.3.5 0 3.9.7 7.7 1.1 6.8.7 11-1.1 9.9-.4-.3-1.1-3.2-1.5-6.5-.4-3.3-1.3-6.5-2.2-7.2-.8-.6-1.6-1-1.7-.8-.2.2-1.4 2.8-2.7 5.6-1.3 2.9-2.7 5.3-3.2 5.3-1.1 0-1-1.1.7-5.9 2.4-6.8-.9-10.2-4-4.1-1.6 3.1-4.3 5-6.9 5-2.4 0-1.9-1.5 1.4-4.8 1.7-1.8 3-4.1 3-5.5 0-1.4.2-3.1.5-3.9.3-.7-1.7-4-4.5-7.3s-9.6-12-15.1-19.2c-11.1-14.8-24.3-29-25.4-27.3-.4.7 2.2 4 5.9 7.8 3.7 3.6 10.5 11.9 15.2 18.4 7.6 10.5 8.5 12.3 8.3 15.6-.2 2 .3 6.2 1.1 9.2 1.4 5.6 1.7 17.4 1 41-.4 11.8-.2 12.9 2.3 19 1.5 3.6 4.3 9 6.2 12.1 4.4 7.2 7.2 17 5.8 20.2-1 2.1-2.1 2.5-9 3.2-12.7 1.3-14.7 1.2-15.1-.7-.2-1.1.8-2 3.2-2.8 7.5-2.4 7.1-6.4-1-11.6-3.4-2.2-6.1-4.8-7.1-7-.9-1.9-2.1-3.4-2.5-3.4-.5 0-3.9 1.8-7.5 4-6.1 3.6-11.8 5.9-18.5 7.4-1.7.4-3.4 1.8-4.3 3.6-1.2 2.3-2.2 3-4.5 3-3.5 0-6-3.2-8.5-11-.9-3-2.8-8.3-4.1-11.7-2.4-6.2-2.9-9.8-1.8-12.7 1.2-3 3.2-1.6 4.8 3.2 3.4 10 12 14.2 23 11.1 4.7-1.3 14.7-10.4 17.2-15.7 1.5-3.1 1.6-5.5 1-17.2-.6-14.3-3.3-33.1-6-42.1-.9-3-2.5-8.3-3.5-11.9-2.3-7.9-8.5-23.3-14.1-35.5l-4.1-9 3.1-2.6c2.4-2 8.9-5 12.8-5.8.1-.1 1.8.5 3.6 1.3zm73.6 2.2c0 1.5-2.2 4.4-3.4 4.4-.9 0-1.6 1.7-2 4.4-.6 3.6-1.2 4.5-3.1 5-1.4.4-2.5 1.1-2.5 1.6 0 .6-.7 1-1.5 1-2.9 0-1.5-3 4.3-9.1 3.1-3.3 5.9-6.5 6-7 .4-1 2.2-1.3 2.2-.3zm165 .9c-.7.8-1.7 1.5-2.2 1.5-.6 0-.5-.7.2-1.5s1.7-1.5 2.2-1.5c.6 0 .5.7-.2 1.5zm76.2 22.7c3.7 3.5 10.1 9.4 14.3 13.3 4.2 3.8 8.9 8.6 10.3 10.7 2.6 3.7 2.9 3.8 9.1 3.8h6.3l-3.1 2.9c-4.9 4.6-3.8 6.1 4.3 6.1 2.3 0 5.1.6 6.1 1.4 1.9 1.4 1.9 1.5.2 3.4-1.7 1.8-1.6 2 .4 4.6 2.8 3.5 1.9 5.9-1.6 4.6-6.4-2.4-9.5-.4-9.5 6.2 0 3.1-1.4 5.8-3.1 5.8-.4 0-1.3-2.4-1.9-5.3-3.6-15.2-9.9-24.6-29.2-43.7-8.1-8.1-14.8-15.4-14.8-16.2 0-1.9 2-3.8 4-3.8.9 0 4.6 2.8 8.2 6.2zm-133.7-.6c-4.5 3.6-9.9 4.8-17.4 3.8-9.7-1.3-8.9-3 1.9-3.9 4.9-.4 10.9-1.3 13.3-2 5.3-1.6 6-1 2.2 2.1zm-62.1 4c2.5 3.1 4.6 6.1 4.6 6.6 0 1.9 9.2 19.3 12.4 23.3 4.2 5.4 6.4 7.3 11.1 9.5 6.4 3.1 9.3 2.6 14.8-2.5 4.8-4.5 7.7-5.2 5.7-1.4-1.7 3.1 1.4 2.4 6.6-1.6 2.5-1.9 5-3.5 5.5-3.5 1.9 0 .8 2.6-2.3 5.2-4.2 3.4-3.1 4.4 2.6 2.5 7.7-2.6 7.1 1.9-.7 5-2.5 1.1-3.6 2-3.3 3 1 2.4-3.4 7.1-8.8 9.3-6.5 2.8-8.6 4.7-8.7 7.9 0 2-.3 1.6-1.4-1.8-1.5-4.9-4.4-8.3-9.5-11.3-9.3-5.5-14.2-9.2-17-12.6-12.1-14.8-15.1-19-22.7-32.5-2-3.4-1.7-9.5.5-10 4.7-1.2 6-.6 10.6 4.9zm-13.6 7.1c2.4 5.1 2.8 7.3 1.3 7.3-.5 0-2.6 1.6-4.7 3.5-2 1.9-3.8 3.5-4 3.5-.2 0-.4-2.1-.4-4.6 0-4.2 3.4-14.4 4.9-14.4.3 0 1.6 2.1 2.9 4.7zm182.9-1c-.3 1-.5.4-.5-1.2 0-1.7.2-2.4.5-1.8.2.7.2 2.1 0 3zm-107.3 4.1c2.7 1.5 5.8 3.9 7 5.4 4 5.5 1.5 17.6-3.8 18.6-1.5.3-1.6.1-.6-1.7 2.2-4.2-1.9-5.5-7.9-2.5-2.4 1.2-3.6 1.3-4.4.5-1.7-1.7-5.2-1.3-8.1 1-2.5 2-2.8 2-5.1.5-3.2-2.1-4-5.7-2.5-11.1 1.5-5.4 5.8-9.9 11.3-11.9 6-2.1 8.6-1.9 14.1 1.2zm110 5.6l2 5.7-2.2 10.7c-2.9 13.9-2.9 13.9 1.1 14.7 5.8 1.3 7.9 4.5 2.8 4.5-3.9 0-5.5 2.3-5.2 7.6.3 5.5-.5 5.7-1.9.4-.6-2.4-1.7-4-2.6-4-1.4 0-1.8.7-4.4 7.7-2 5.2-3 3.8-1.4-2 1.6-6.1 1.7-6.7.5-8.6-.8-1.2-1.6-1-4.5 1.2-5.4 4.2-6.3 3.2-1.6-1.9 6.7-7.3 11-19.5 12.6-35.2.4-4.3 1.1-7.1 1.7-6.9.6.2 1.9 2.9 3.1 6.1zm20.2-.4c3.1 6.4 4.5 14.7 5.3 31.7.5 10.6.5 18.5 0 19.5-1 1.9-.1 23.7 1.1 25.3.4.5 1 4.6 1.4 9 .4 4.4 1.4 11.4 2.3 15.5.9 4.1 1.7 8.8 1.8 10.5.2 3.7.9 5.7 4.1 11.8 2.6 5.1 2.4 7.2-.6 6.2-1-.3-5.2.5-9.3 2-4 1.4-8.3 2.5-9.5 2.5-3.2 0-2.6-2.3 1.1-4.1 5.8-2.8 9.6-13.9 7.7-22.5-1.2-5.4-5.9-15.4-7.2-15.4-2.6 0-8.1 5.9-11 11.8-2.5 4.9-3.4 8.3-3.6 13.4-.4 6-.8 7.1-3.2 9.2-5 4.1-24 4.5-24.8.5-.2-.9 1.2-2 3.5-2.8 4.5-1.7 14.1-10.6 18.2-17 5.1-7.8 9.7-22.3 11.6-36.4 2.4-17.2 1.7-45-1.4-58.1-1.2-4.9-2-9-1.9-9.1.2-.1 2.2-1.2 4.5-2.4 2.3-1.1 4.5-2.6 4.8-3.1 1.1-1.8 3.8-.7 5.1 2zm-93.6 2c.6 1 1.2 7.9 1.5 15.2 1.4 37.9 2.3 41.5 10.9 44 4.4 1.2 6.6 2.5 6.6 3.9 0 .5-.9.9-2 .9-2.3 0-2.6 1.7-.6 4.5.7 1.1 1.6 3 2 4.2 1.1 3.3-1.1 2.9-6.9-1.1-3.8-2.7-5.2-3.3-6.7-2.5-2.4 1.3-2.3 4 .2 4.6 2.7.7 2.6 2.3-.1 2.3-1.2 0-3.6-1.6-5.5-3.5-1.8-1.9-3.7-3.5-4.2-3.5-.6 0-2 1.6-3.1 3.6-3 5.1-3.7 3.5-1.5-3.3 1.5-4.6 1.9-8.6 1.8-19.3 0-7.4-.6-15.3-1.2-17.5-1.9-6.4-2.7-25.8-1.3-29.3 2-4.8 8.2-6.8 10.1-3.2zm-21.9 8.2c0 1.8.2 4 .4 4.8.3 1.8-2.2 20.7-2.9 21.9-.3.4-1.3 4.3-2.3 8.7-1.6 7.6-1.9 22.3-1 60.5.2 6.5-.1 8-2.3 11.1-1.3 2-3.8 4.4-5.5 5.4-1.6 1-3.2 2.1-3.5 2.5-.3.4-1.4.9-2.5 1.1-1.7.3-2.1-.4-2.5-4.7-.3-2.8-1.3-6.1-2.2-7.5-1-1.4-2.6-5.5-3.7-9.1-2.8-8.8-8.2-16.9-17.6-25.9-6.5-6.4-8.4-9-12.7-17.7-4.7-9.7-4.9-10.7-5.5-20.8-.4-7.5-.3-10.5.5-10.5.7 0 3.6 1.6 6.6 3.5 3 1.9 5.9 3.5 6.3 3.5.4 0 2.4 1.3 4.2 2.9 3.1 2.5 3.5 3.5 3.7 8.1.4 8.8 6.1 9.7 8.3 1.3.5-2.1 1.7-3.1 4.7-4.1 4.8-1.6 13.1-9.5 13.9-13.4.4-1.5 1-2.8 1.5-2.8 1.9 0 7-5.3 7-7.3 0-1.1.9-3.1 2.1-4.3 1.1-1.2 2.3-4 2.6-6.3.7-4.9 2.3-5.5 2.4-.9zm7.9 4.6c0 5-.4 5.8-3.4 8.2-1.9 1.5-1.9 1.3-1.2-5 1.1-9.9 4.6-12.3 4.6-3.2zm19.9 4.4c.1 2.6-.3 5-.9 5.3-.6.4-1-2.1-.9-6.7 0-8.1 1.7-6.9 1.8 1.4zm73.1 5c0 3.6-.4 4.8-1.5 4.8s-1.5-1.3-1.5-5.3c0-3 .3-5.7.7-6 1.2-1.3 2.3 1.7 2.3 6.5zm-261 1c4 5.4 4.1 11 .5 13.4-1.4.9-2.7 1.5-2.9 1.3-.2-.2-.8-3.6-1.4-7.4-.5-3.9-1.3-8-1.7-9.3-1.2-3.8 2.2-2.6 5.5 2zm169.1 5.4c3.4 25.7 3.2 36.3-.8 44.1-1.4 2.6-1.5 3.4-.4 4.7 1.8 2.1 2.4 2 5.9-.9 3.8-3.2 4.5-3.2 9.4.7 4.1 3.4 15.8 21.7 15.8 24.9 0 .9.6 2.2 1.4 2.8 3.3 2.7 5.8 15.8 4 20.5-.4.9-1.8 1.6-3.4 1.6-1.6 0-4.1.7-5.7 1.7-3.4 1.9-8.3 1.1-8.3-1.3 0-.8 1.1-3 2.5-4.8 1.4-1.8 2.5-4.5 2.5-6 0-3.4-4.2-11.6-8.3-16.4-4.4-4.9-9.4-12.7-10.9-16.9-.7-1.8-1.7-3.2-2.3-3-3 1-3.2 18.1-.3 31 1.2 5.3 1.9 10 1.6 10.3-.3.3-3.2.9-6.4 1.4-3.3.4-7.2 1.3-8.7 1.9-3.5 1.3-9.7 1.4-9.7.2 0-.5 1.4-2 3.1-3.2 3.9-2.8 8-11.4 8.1-17.1 0-2.4-.5-10.6-1.2-18.3-1.4-15.6-.2-35.7 2.7-47.5 1.9-7.9 6-16.3 7.6-15.7.7.2 1.5 2.6 1.8 5.3zm-82.5 37.2c.6.4 3.6 4.3 6.7 8.7 3.1 4.4 8.8 11.1 12.7 14.9 7.8 7.4 10.4 12 11.4 20.3.9 7.2-1.6 12.1-8.1 15.8-4.7 2.7-4.9 2.7-9.3 1.2-4.7-1.6-13-3.3-21.3-4.3l-4.8-.5.7-4.8c.3-2.6.1-7.3-.6-10.4-1.8-8.8 1.1-27.9 5.7-37 2.2-4.5 4.3-5.7 6.9-3.9zm89.9 29.7c2 3.6 4 6.5 4.6 6.5.5 0 2.5 2.5 4.4 5.5 6.2 9.6 3.9 18.5-4.3 17-5.4-1-5.1-.4-8.7-16.5-1.7-7.2-2-19-.6-19 .5 0 2.6 2.9 4.6 6.5zm99.3 5.5c2.6 5.2 3 13.6.8 17.8-.8 1.5-2.8 4-4.4 5.6-2.8 2.6-3.3 2.7-6.5 1.7l-3.4-1.2.2-7.7c.2-8.3 2.5-15.2 6.5-19.2 2.8-2.8 4.1-2.3 6.8 3z"/><path d="M939.1 88.7l-4.3 2.6.6 5.6c.4 3 .9 5.7 1.2 6 .9 1 2.4-2.4 2.4-5.6 0-3.5 2.2-6.3 5-6.3 2.3 0 3.2-1.3 2.4-3.4-.8-2.2-2.2-2-7.3 1.1zM943.5 99.2c-.2.7-.3 3.1-.2 5.3.2 3.3.6 4 2.2 4 3 0 3.3-4.3.4-5.4l-2.3-.8 2.2-1.2c1.2-.6 2.2-1.6 2.2-2.1 0-1.5-4-1.2-4.5.2zM762.7 89.8c-2.4 2.6-4.7 8.7-4.7 12.2 0 4.8 1.6 7 5.1 7 2.8 0 3-.2 2.4-2.9-.4-2.1-.2-3 .9-3.4 2.5-1 1.8-2.4-1.4-3.1-3.9-.7-3.9-3.4 0-4.7 4.5-1.6 5.4-6.9 1.1-6.9-1 0-2.5.8-3.4 1.8zM733.2 105.8c-4 2.6-8.2 12.2-5.2 12.2.6 0 1-1.1 1-2.4 0-2.6 4.2-7.6 6.4-7.6.8 0 1.7.8 2.1 1.8.3 1.1 1.7 2.4 3 3 3 1.4 3.2 3.7.5 5.4-2.3 1.5-2.6 2.8-.7 2.8 2.1 0 5.7-4.4 5.7-6.9 0-3-2.5-7.7-4.5-8.5-2.3-.8-6.7-.7-8.3.2zM763.5 150c-.3.5-.1 1 .4 1 .6 0 1.1-.5 1.1-1 0-.6-.2-1-.4-1-.3 0-.8.4-1.1 1zM760.7 156.7c-2 3.9-1.5 5.5.9 3.1.9-.8 1.4-2.7 1.2-4.1-.3-2.4-.4-2.4-2.1 1zM757 164.5c0 .8.5 1.5 1 1.5.6 0 1-.7 1-1.5s-.4-1.5-1-1.5c-.5 0-1 .7-1 1.5zM621.3 109.2c-2.7 1.3-3.2 3.4-.5 2.2.9-.4 3.4-.9 5.5-1.2 3.4-.4 3.7-.2 3.7 2 0 1.3.5 2.9 1.1 3.5.7.7.5 1.5-.7 2.7-.9.9-1.3 2-.9 2.4.9 1 5.5-4.5 5.5-6.6 0-3.8-2.9-6.2-7.3-6.1-2.3 0-5.2.5-6.4 1.1zM843.1 140.8c-1.2 2.2-.6 3.2 2.1 3.2 1.4 0 1.9-.6 1.6-2.2-.4-2.9-2.4-3.4-3.7-1zM822 157.5c0 2.8 2.5 4.4 4.2 2.7 1.5-1.5-.1-5.2-2.3-5.2-1.4 0-1.9.7-1.9 2.5zM815 158c0 .5.5 1 1 1 .6 0 1-.5 1-1 0-.6-.4-1-1-1-.5 0-1 .4-1 1zM647.5 167.9c-.3.5-.1 1.2.5 1.6.5.3 1-.1 1-.9 0-1.8-.6-2.1-1.5-.7zM853 278c0 .5.4 1 .9 1 .6 0 1.3-.5 1.6-1 .3-.6-.1-1-.9-1-.9 0-1.6.4-1.6 1zM276.7 53.7c.6 4.6-1.7 7.5-6.9 9-4 1.1-5.1 2-6.8 5.3-2.3 4.4-2.8 4.7-7 2.5-3.6-1.9-4.4-4.3-3.5-11.1.8-7-.6-7-4.2-.2-2.3 4.4-2.8 6.6-2.8 13 0 6.6.3 8 2.3 10 2.8 3.1 2.8 4.2-.3 6.2-2.9 1.9-7.9 11.4-8.9 16.7-.3 2-.2 4.8.3 6.3.6 1.4.8 3.2.5 4-.9 2.5-8.2 5.6-12.8 5.6-6.3 0-9.2 2.6-10 9.1-.4 2.9-2.1 7.8-3.8 11.1-2.6 5.1-3 6.6-2.6 11.8.3 4.4 1 6.6 2.6 8.3 1.3 1.4 2.2 3.6 2.2 5.5 0 1.7.5 3.4 1 3.7 1.8 1.1 5 8.3 5 11.2 0 3.8 2.5 7.2 6.5 8.9 3.2 1.3 4.6 1.2 22.7-1.3 2.7-.4 4.7.1 7 1.5 1.8 1.1 5 2.3 7 2.6 2.1.4 4 1.1 4.3 1.6.8 1.3-3 10.7-6 14.6-3.3 4.4-16.9 15.2-21.2 17.1-2.8 1.1-3.8 1.1-7-.2-4.2-1.8-5.3-3-5.3-6.3 0-1.2-.4-3-.9-4-.5-.9-1.2-2.5-1.5-3.5-.7-2.2-3.4-2.2-5.9 0-1.8 1.7-2 1.7-3.6-.3-2.4-3-7.4-5.4-11.3-5.4-5.5 0-12 3.9-14.7 8.8-3.2 5.9-3.9 15.3-1.7 20.7 1.7 4 1.7 4-.7 6.1-4.7 4-6 9-3.2 11.4 1.3 1.1 2 .9 4.3-1.2 3.8-3.6 6.5-4.2 10.4-2.2 2.5 1.3 4.7 1.5 10.4 1.1 8.4-.8 13.7-2.4 25.4-7.9 12.5-6 20.6-11.7 28.8-20.3 5.1-5.3 7.7-7.4 8.4-6.7 1.1 1.1-.4 21-2.3 30.7-3.3 17.1-11 38-16.5 45.2-.8 1-2.6 3.7-4.2 6-4.1 6.3-12.1 14.2-16 15.8-2.1.9-6.8 1.5-11.9 1.5-7.6 0-8.6.2-10.8 2.5-2.7 2.6-3.1 4.5-1.4 6.2.9.9-.2 1.8-4.1 3.8-2.8 1.4-7.2 4.1-9.8 6-6.7 4.8-23.1 12.4-27.2 12.7-1.9.1-7.3-.7-11.9-1.7-5.1-1-10.3-1.5-13.2-1.2-6.4.8-14.7 5-15.1 7.8-.2 1.6-1.6 2.6-5 3.7-4.7 1.4-6.4 3.2-3.3 3.2 2.8 0 7.9-3.1 11.5-7 3.1-3.3 4.4-3.9 9.5-4.5 3.5-.5 7.1-.4 8.9.3 1.7.6 7.4 1.4 12.6 1.7l9.6.7 12.9-6.7c7.2-3.6 13.9-7.4 15-8.4 2.6-2.4 7.2-4.7 11.2-5.5 3.8-.9 10.7 1 19.1 5.3 6.9 3.5 9.6 3.7 16.8 1.7 2.7-.8 7.8-1.7 11.4-2.1 3.6-.3 11.5-1.5 17.5-2.7 12.3-2.3 18.8-1.7 28 2.3 4 1.8 5.8 2 11.9 1.4 4.3-.5 9-1.7 11.9-3.2 6.7-3.3 12.9-4.3 20.1-3.1 6.3 1 24.2 0 37.1-2.1 11.4-1.9 30.1-2.5 36.5-1.1 5.9 1.3 8.6 3 6.1 3.8-1.6.5-3.2 4.8-2.5 6.7.4.8 1.5 1.5 2.5 1.5 1.5 0 1.7-.5 1.3-2.8-.5-2.4 0-3.4 2.6-5.5 1.7-1.5 3.5-2.7 4-2.7.4 0 1.8-1.6 3-3.7 2.1-3.6 2.1-3.7.4-12.7-2.2-12.2-7.3-32.5-8.9-35.6-2-3.9-9.2-12.2-11.7-13.7-8.6-4.7-19.3 3.9-29.2 23.5-3.9 7.6-6.8 20.4-6.5 28.2.1 3.6.1 7.3 0 8.2-.2 3.2-5.1 4.5-18.8 5.3-11.8.6-13.4.5-13.9-.9-.9-2.3 2.1-5.3 6-6 5.9-1.1 12.2-9.4 17.8-23.6 5.5-13.9 16.4-35.4 23.5-46.6 7.4-11.6 11.3-19.4 11.3-22.5 0-7.8 25-15.9 35.4-11.5 3.3 1.4 3.4 1.5 2.6 5.3-.5 2.1-2 6.6-3.4 10-1.4 3.4-2.8 7.9-3.2 10.1-.7 4.6 1.5 17 5.3 28.7 1.9 6.1 2.7 11.4 3.3 22 .8 15.2 3.1 23.8 6.9 26.4 1.2.7 2.1 1.9 2.1 2.5 0 1.7-4 5.2-6.8 6.1-3.4 1-14.2 7.6-14.2 8.6 0 1.5 3 1 5.8-1.1 1.5-1.1 6.5-3.6 11.2-5.6 10-4.2 17.5-4.8 33.7-2.9 7.6.9 12.2 1 17.6.2 6.9-1 7.6-.9 11 1.1 3.1 2 4 2.1 7.9 1.2 5.6-1.5 6.4-1.6 19.3-3.6 11-1.7 22.7-1.5 29 .5 10.9 3.4 16.9 4.9 17.7 4.4 1.2-.7 8.8-1.4 19.8-1.9 7.6-.3 9.1 0 13.7 2.3 4.9 2.4 8.3 2.6 8.3.3 0-1.4-9.4-6-12.4-6-3.2 0-5.6-2.5-5.6-5.9 0-3.7-5.1-11.5-11-16.8-2.6-2.4-8.7-9.5-13.5-15.9-15.8-20.8-21.6-32.7-19.6-40 1.2-4.6 3.5-4.1 7.7 1.5 2.1 2.8 4.2 5.1 4.6 5.1 2.1 0 .3-4.3-3.9-9.2-19-21.9-24.2-30.2-26.3-41.5-.9-5.4-.8-6.7.7-10 2.2-4.7 6.2-5.4 7.4-1.3.3 1.4 3.2 7.7 6.3 13.9 4.9 10.1 6.6 12.4 13.4 18.8 8.3 7.9 16.3 13.7 21.3 15.5 1.9.7 6.7.9 12.3.5l9.1-.6-6 2.1c-3.3 1.1-6.3 2.3-6.7 2.7-.5.4.1 2.5 1.2 4.6 3.6 7.1 1.8 10.6-2.1 4.1-2-3.5-4.4-5.1-6-4-1.6.9-1 7.3 1.1 11.4 2.5 4.9 2.5 5.9.1 2.9-2.8-3.5-5.1-1.2-5.2 5.5l-.1 5.1-1-4.5c-.6-2.5-1.5-5.1-2-5.8-1.4-1.7-5.7-1.5-6.4.3-.8 2.1-2.4 1.9-2.4-.3 0-.9-.8-3.5-1.8-5.6l-1.8-3.9.2 8.9c.2 4.9.3 9.5.3 10.1.2 2.5 4 1.3 5.8-1.7 2.4-4.2 4-3.8 4.7 1.2.4 2.4 1.3 5.3 1.9 6.6 2.1 3.6 4.8.8 5.5-5.6.5-5.5 1.9-6.6 4-3.2 1.7 2.7 4 2.5 4.8-.5.4-1.7-.3-4-2.5-7.8-1.7-3-3.1-5.7-3.1-6.1 0-1.6 1.7-.3 3.3 2.4 2 3.3 5.6 4 7.7 1.5 1-1.2 1-2.7-.2-7.5-1.7-6.9-1.6-7 7.2-7.9 6.3-.7 7.2-2.1 4.6-7.5l-1.5-3.2-7.3 1.2c-8.2 1.5-16.5.6-22-2.2-9.4-4.8-21.7-17.1-26.3-26.4-6.8-13.7-8.8-19.9-8.7-27.8.1-8.6 1.1-10.4 5.3-9.5 3.2.6 3.6-.2 1.4-3.1-1.8-2.4-1.9-7.3 0-14.9 1.6-7.1 2.6-8.3 7-9.1 3.9-.8 4.7-3.4 1.6-5.3-2.3-1.4-2.9-4.9-3.3-17.2l-.2-9.4 4.3-1.9c4.8-2 4.7-3.4-.6-4.4-2-.4-5.2-2.2-7.3-4-4.3-3.9-14.8-8.9-20.7-9.9-4.7-.7-17.7 2-25.8 5.5-10.4 4.5-24.1 19.6-27.1 29.9l-1.6 5.4 2.8 2.2 2.8 2.3-4.3 9.2c-2.6 5.4-4.6 11.2-4.9 14-.4 4.4-.1 5.2 2.4 7.8 1.6 1.6 3.5 3.1 4.3 3.3.8.3 1.4 2.1 1.5 4.2.1 3.7 0 3.8-5.4 5.7-3.7 1.2-6.7 3.2-9.3 6-3.9 4.1-3.9 4.2-3.5 11 .3 6 .8 7.3 3.3 10 1.6 1.6 3.5 3 4.3 3 2 0 8.5 5.9 9.8 8.9 1.2 2.8 3.3 4.9 6.8 6.6 1.6.9 2 1.8 1.8 4.5-1.1 11.1-.5 40.3 1 49.5.9 5.5 2 14.1 2.4 19.1.8 11.5-.6 14.6-7.6 16.9-5.8 1.9-8.9 4.1-10 7-.8 2.2-1 2.2-15.2 1.8l-14.3-.5-3-3.3c-5.3-5.9-7.6-13.4-8.5-28.5-.6-10.2-1.6-16-3.8-23.7-1.7-5.6-3.6-13.3-4.2-17.1l-1.3-7 4.2-11.7c2.2-6.4 4.1-12.7 4.1-14.1 0-3.3 2.5-3.1 5.8.5 2.7 2.9 3.2 3.8 9.3 16.9 3.6 7.9 9.8 14.6 14.4 15.8 1.5.4 4.7.4 7.2 0 2.8-.4 5.1-.2 5.9.5 1.9 1.6 3.4.2 3.4-3.1 0-2.7.2-2.8 3.5-2.3s3.5.4 3.5-2.4c0-3.9-3.7-7.3-7.8-7.3-3.5 0-3.9-.6-1.8-2.9.8-.9 1.7-2.8 2.1-4.3.9-3.6-1.9-5.2-6.3-3.6-2.7 1.1-3.8.9-7.6-1-5.5-2.6-9.9-8.4-14.5-18.9-6.6-15.3-9.1-20.9-11.4-25.3-2.8-5.5-2.6-7.4 3.5-27.3 3.9-13 4.4-13.9 7.3-15.2 6-2.4 10.4-11.8 10.6-22.7.2-7.8-1.7-11.2-6.2-11.6-3.1-.3-4.2-1.1-7.4-5.7-4.1-6.1-6.9-8.1-16.5-11.9-9.1-3.7-23-4-35-.6-4.7 1.3-9.9 3.4-11.7 4.7-1.7 1.2-3.6 2.3-4.2 2.3-.5 0-4.3 3.7-8.5 8.2-7.7 8.4-11.9 16.2-13.6 25.3-.5 2.2-2 6.7-3.4 10-3.1 7.2-3.2 11.7-.6 20.4 2.3 7.8 5.4 11.6 14.1 16.9 3.5 2.1 6.5 4.5 6.7 5.3.2.9-1.3 2-4 2.9-7.6 2.7-11.4 13.1-8.3 22.4 1.5 4.5 1.5 5 .1 5.8-.9.5-1.6 2-1.6 3.3 0 2.1.5 2.5 3 2.5 2.7 0 3 .3 2.4 2.4-.4 1.7 0 2.8 1.6 3.9 1.3.9 2.8 2.6 3.4 3.9.6 1.3 2.3 2.5 3.6 2.6 1.4.2 3.3 1.1 4.2 1.9 2.5 2.2 4.1 1.2 5.8-3.7 1.7-5 4-6.5 4-2.7 0 4.1-3.8 15.1-6.6 19.3-6.1 9-13.5 21.5-14.8 25.1-.8 2.1-2.8 6.9-4.5 10.8-1.8 3.8-4.4 9.9-5.8 13.5-5.8 14.9-13 24.5-19.1 25.6-1.9.4-4.9 2.1-6.7 4-3.1 3.1-7.9 4.9-21.4 8.1l-2.4.6.7-14.6c.7-13.9.6-14.6-1.3-15.6-1.1-.6-3.6-1.1-5.5-1.1-2.8 0-4-.7-5.9-3.3-6.2-8.4-7.1-14.8-7.2-49.4 0-33.8-.5-32 7.1-28 8.5 4.5 15.2 9.6 17.5 13.3 2.1 3.4 2.4 5.1 2.4 12.9v9l3.3.3c2.6.3 3.9-.3 6.1-2.7 1.6-1.7 3.4-3.1 4-3.1.6 0 1.7 2.4 2.6 5.3.9 3.2 2.8 6.5 4.5 8.2 2.8 2.7 3.2 2.8 4.6 1.3 1.4-1.4 1.5-2.3.4-6.8-.7-2.8-.9-5.4-.6-5.8.4-.3 2.1 0 3.9.7 5.3 2.3 12.1 2.5 13.7.6 2.1-2.5 0-4.9-5.3-5.9-4.3-.9-6.4-2.7-5.2-4.6.3-.4 3.2-1.1 6.5-1.5 6.6-.8 8.3-2.1 7.8-6.2-.3-2.7-.6-2.8-6.7-3.3-3.6-.3-6.6-1-6.8-1.6-.2-.5 1.3-2.9 3.3-5.2 3.7-4.4 4.1-6.8 1.2-8.6-1.4-.8-3-.4-7.7 2.2-7.5 4.1-10.6 4.1-16.7-.1-33.4-22.9-41.6-29.7-46.2-38.1-1.5-2.7-3.3-5.8-3.9-7-.7-1.2-1.3-4.6-1.3-7.6.1-5 .2-5.3 1.5-3.6.8 1 1.2 2.3.9 2.7-.6 1.1 1.4 4.9 2.6 4.9.5 0 .7-1.3.4-3-.6-2.6-.3-3 2.2-3.5 1.6-.4 4.8-1.4 7.1-2.2 3.9-1.4 4.3-1.4 7.1.7 2.5 1.9 3.7 2.1 7.9 1.5 7.5-1 8.1-1.7 4.9-5.5-3.6-4.4-3.1-6.3 2.1-7.2 7.6-1.3 9.8-3.4 6.9-6.7-2.8-3.4-4.6-11.9-4.6-22.4 0-7.3-.5-12.1-1.9-16.3-1-3.2-2.3-7.7-2.9-10-1.6-5.4-5.6-11.1-11.8-16.6l-5-4.4-13.5-.3c-7.4-.1-14.4-.5-15.6-.8-2.9-.7-3.9-5.2-2.3-10.8.9-3.2.9-4.8.1-6.4-1.7-3.1-3.8-2.7-3.4.6zm-.1 32.8c6.8 5.2 8.1 12.5 4.3 25-3.7 12.4-3.7 17.2.2 21.3 2.8 3.1 3.7 2.8 4.9-1.9.6-2.2 1.9-4.3 2.8-4.6.9-.3 3.6-2.4 5.9-4.6 2.4-2.3 4.6-3.8 5-3.4.4.4-1 2.1-3 3.8-3.3 2.7-7.7 10-7.7 12.8 0 1.7 1.7 1.3 2.4-.6.5-1.2.9-1.4 1.8-.5.7.7 2.7 1.2 4.6 1.2 2.6 0 3.3-.4 3-1.8-.2-1-1.4-1.8-3.1-2-4.9-.6-3.1-7 2.5-8.8 1.5-.4 2.6 0 3.7 1.5 2 2.6 3.1 1.8 3.1-2.2 0-2-.6-3-2-3.4-2.7-.7-2.5-2.5.2-2.1 3.5.5 5.2 5.2 5.2 14.8.1 14.6-4.2 23-11.7 23-3.8 0-5.3-1.3-5.9-5-.1-1.4-.7-2.5-1.3-2.5-1.7 0-1.7 4.5-.1 7 2.3 3.6.5 8.1-4 9.5-1.9.7-4.8 2.3-6.4 3.7-3.8 3.1-9.5 12.8-11.3 19.1-1.2 4.2-1.7 4.7-4.5 5-2.5.3-5.6-.9-9.1-3.5-.3-.2.8-1.7 2.4-3.3 3.3-3.5 2.1-3.8-3.4-1-5.9 3-19.9 6.3-23.9 5.6-4.8-.7-6.9-3-8.2-8.8-.5-2.8-1.9-6.2-3-7.5-2-2.5-2.7-6.3-1.2-6.3.4 0 1.7-.3 3-.6 1.8-.5 2.2-.2 2.2 1.5s.6 2.1 3.4 2.1 3.8-.6 5.2-2.9c1.7-2.9 1.8-2.9 9-2.4 6.1.5 8.2.2 12.3-1.6 5.6-2.4 9.1-2.7 11-.9 1.1 1.1 1.3 1 .9-.2-.7-2.4-4.6-2.4-12.6 0-6.7 2-8 2.1-12.6 1-5.7-1.4-7.9-2.6-8.9-5.3-1-2.6-2.8-2.1-2.2.6.7 2.8-.9 4.4-5.3 5.3-2.5.5-3.3.3-3.9-1.2-.5-1.3.5-2.8 3.8-5.8 4.4-4 4.4-4.2 3.8-9.1-.6-4.6.1-10.7 1.7-14.9.6-1.6.5-1.7-1.6-.4-1.8 1-2.4 1-2.7 0-.6-1.7-3.3-1.5-3.3.3 0 .8.6 3.4 1.4 5.7.8 2.4 1.6 6.9 1.8 10 .4 5.5.3 5.8-1.8 5.8-1.5 0-2.9 1.2-4.3 3.6-1.7 2.9-2.4 3.4-3.5 2.4-3.8-3.1-2.1-17.1 2.5-21.2 1.2-1 1.9-2.9 1.9-5.3 0-5.7 1.4-7.3 6.8-8 6-.8 11.5-3.1 14.2-6.1 1.9-1.9 2.1-3 1.5-7.2-1.4-10.4 3.7-19.6 13.6-24.8 5.5-2.9 7.1-3.3 11.7-3 3.8.3 6.4 1.3 8.8 3.1zM428 87c0 .5-.5 1-1.1 1-.5 0-.7-.5-.4-1 .3-.6.8-1 1.1-1 .2 0 .4.4.4 1zm10.6 7c4.3 1.1 10.8 2 14.5 2 6.3 0 6.9.2 8.8 2.9 1.2 1.6 2.1 4.1 2.1 5.6 0 2.4.3 2.6 2.3 2 6.3-2 7.6-1.8 8.3 1 1.2 4.7-.2 15.2-2.7 20.2-2.2 4.3-2.8 4.8-6.1 5.1-3.5.3-3.8.6-3.9 3.5 0 1.8-2.2 10.2-4.8 18.7-3.5 11.6-5.1 15.4-6.2 15.1-.8-.3-3.6-.7-6.2-.9l-4.8-.4 4.4-4.7c5.3-5.7 10-13.4 9.5-15.8-.2-1.2-1.3.3-3.2 4.1-4.6 9.3-17.4 20.6-23.4 20.6-1.1 0-4.1 1-6.8 2.1-4.1 1.9-6 2.1-13.4 1.6-7.7-.6-9.4-1.1-17-5.2-4.6-2.5-9.5-5.5-10.8-6.8-4.1-3.7-6.3-10-6.4-18 0-7.6 1-11.5 3.5-13.6 1.4-1.1 1.5-.5 1.4 4.3-.1 3 .5 6.6 1.3 8 1.9 3.7 7.6 5.2 13.2 3.7 9.5-2.7 11.5-3.1 15.6-3.1 3.1 0 4.2.4 4 1.2-.9 2.5-14.1 9-20.6 10.1-6.4 1.1-6.4 1.1-8.7-1.7-1.5-1.9-2.5-2.4-3-1.6-1 1.6 2.1 9.3 4.9 11.9 2.1 1.9 2.6 2 5.2.9 5.1-2.2 30.8-17 33.1-19.1 1.8-1.6 3.1-1.9 6.8-1.4 3.5.5 4.5.4 4.5-.8 0-.7-.3-1.6-.8-1.8-.4-.3-7-.8-14.7-1.2-10.8-.5-15-1.1-18.2-2.7-4.6-2.1-6.7-1.7-5.8 1.2 1.3 4-8.5 6.9-11.9 3.4-1.9-1.8-2.1-8.2-.5-13.3 3.1-9.7 4.5-13 7.6-17.4 3.4-4.8 3.3-5.9-.3-3.2-2.4 1.8-5.4 1.9-5.4.2 0-1.8 4.7-8.5 8.4-11.8 1.7-1.6 5.4-4 8.1-5.5 4.9-2.5 5.4-2.6 17.7-2 7.3.4 16 1.5 20.4 2.6zM547 96.5c-.7.9-1.5 1.3-1.9 1-.3-.3.1-1 .9-1.5 2.1-1.4 2.4-1.2 1 .5zm8-.8c-.1 1-5 4.6-5.6 4.1-.6-.7 3-4.8 4.4-4.8.6 0 1.2.3 1.2.7zm-28.6 4.2c1.7 1 6.4 2.6 10.5 3.5 8.9 1.9 13.9 4.8 14.7 8.4.3 1.5.7 3.2.9 3.9.2.7-.3 1.9-1.1 2.8-1 .9-1.7 3.5-1.7 6.5-.2 4.1.2 5.2 2.1 6.5 1.6 1.2 2.2 2.6 2.2 5.3 0 2 .7 4.5 1.5 5.5 1.3 1.8 1.4 1.8 2.4-.2 1.7-3 1.4-9.6-.5-11.2-1.1-.9-1.4-2.2-1-4.3.6-2.9.6-2.9-1.4-1.1-2.5 2.3-2.8 0-.3-2.7 6.1-6.8 9.6 7.1 5.9 24.1-.8 4.1-1.7 7.5-1.8 7.5-.2.1-1.4.7-2.8 1.3-2.5 1.2-2.5 1.2-.3 1.8 3.8 1.2 4.9 5.8 3.1 12.9-.9 3.3-1.4 7.6-1.1 9.3.4 2.8.2 3.4-1.9 4.2-1.3.5-3 1.6-3.7 2.5-1.5 1.7-7.1 2.2-7.1.6 0-.5-2.1.6-4.6 2.5-2.5 1.9-5.4 3.5-6.5 3.5-2.7 0-3.5-2.7-1.7-5.9 2.7-4.5 6.7-15.5 6.6-18.1 0-1.4.5-4.5 1.1-6.9 2.1-7.8.7-7.8-3.5-.1-3.1 5.7-5.6 8.7-10.5 12.7-8.3 6.8-12.5 8.8-15.7 7.7-3.2-1.1-6.2-6.8-6.2-11.5 0-3.2.6-4.2 4.2-6.8 2.3-1.7 5.4-3.1 6.9-3.1 2.8 0 3.9-1.5 3.9-5.5 0-3.1-3.2-4.8-7.1-4-4.1.9-3.6 2.2.9 2.1 3-.1 3.7.2 3.7 1.8 0 1.3-1 2.2-2.8 2.7-1.5.4-4.6 2.1-6.9 3.8-9.8 7.2-15.6.8-11.1-12.5 1.6-4.9 9.7-17.8 12.7-20.3 2-1.7 2-2.6-.1-5.1-1.1-1.2-3-2-5-2-1.8 0-3.3-.2-3.3-.5 0-1.2 3-6.2 5.8-9.8 2.6-3.3 15.5-13.7 17-13.7.2 0 1.9.8 3.6 1.9zm35.9 4.1c-.5 1.9-2.3 2.9-2.3 1.2 0-.7 2-3.2 2.6-3.2.1 0 0 .9-.3 2zm-178.7 10.7c-.3 1-.8 3.4-1.1 5.3-.6 3.8-3.2 10-4.2 10s.5-9.6 2.1-13.4c1.5-3.6 4.2-5.2 3.2-1.9zM303 157c0 .5-.9 1-2.1 1-1.1 0-1.7-.5-1.4-1 .3-.6 1.3-1 2.1-1s1.4.4 1.4 1zm-13 9.5c0 .3-1.1 2.3-2.5 4.4-1.3 2.2-3.4 6.8-4.5 10.3-2.7 7.9-3.6 8.9-5 5.4-2.5-6.6 0-14.4 5.9-18.3 3.2-2.1 6.1-3 6.1-1.8zm157.7 6.3c2.7 1.7 12.3 19.1 12.3 22.3 0 .4 2.4 5.6 5.3 11.6 7.8 16 15.3 22.5 24.3 20.9 1.9-.4 3.4-.3 3.4.1 0 1.4-1.4 2.9-3.2 3.6-3 1.1-2.2 4.4 1.3 5.6 1.8.6 4 1.1 5 1.1 1.1 0 1.9.4 1.9 1 0 .5-1.3 1-3 1-2.6 0-3 .3-3 2.9 0 4.7-6.9 5.7-13 2-4.7-2.9-5.3-3.8-11.5-16.4-3.8-7.7-7.4-13.1-11.7-18-10.2-11.3-18.9-19.6-19.9-18.9-1 .6 4.5 7.6 10 12.8 4.3 4.1 4.1 6-.4 5.2-1.9-.4-5.9-.1-9.2.8-3.2.8-8.2 1.7-11.2 2.1-3 .4-6.9 1.4-8.8 2.1-1.8.8-3.3 1-3.3.5 0-1.5 6.9-20 9.1-24.4 5.6-10.9 10.9-15.9 10.9-10.2 0 3.8 1.8 3 3-1.5.6-2.1 2-4.6 3.3-5.5 2.3-1.6 6.4-2 8.4-.7zm-152.3 6.6c4.8 6.6 10.4 12 19.9 19.3 7.9 6 28.4 20.6 31.5 22.2 3.6 2 10.7 1.5 15.9-1.1 2.3-1.2 4.5-1.9 4.9-1.6.3.4-1.1 2.4-3 4.6-3.7 4-4.6 7.5-2.4 8.8.7.5 3.7.7 6.7.7 3.1-.1 5.9.1 6.4.4 1.8 1.1-1.8 3.3-5.4 3.3-4.8 0-8.4 1.4-9.3 3.5-.9 2.3 4.5 7.5 7.8 7.5 1.4 0 2.6.4 2.6 1 0 1.8-6 1-10-1.3-3.7-2.1-4-2.1-5.6-.5-1.4 1.4-1.5 2.3-.5 6.2 1.4 5.5 1.4 6.6.1 6.6-1.3 0-3.6-4.7-4.4-9-.3-1.9-1.5-5-2.6-6.8-1.8-3-2.3-3.2-5.8-2.6l-3.9.6-1.3-4.7c-1.8-6.5-9.3-14.3-19.5-20.5-4.5-2.7-8.7-5-9.2-5-2 0-16-9.4-19.1-12.8-3-3.5-5.2-8.6-5.2-12.3 0-3.2 4.9-12.9 6.5-12.9.1 0 2.3 2.9 4.9 6.4zm131.2-1.2c-1.7 2.5-9.3 15.6-9.9 17.3-.3.5-.8.7-1.2.3-1-.9 1.3-10.3 3.6-15 2-3.9 3-4.6 6.8-4.7 2.2-.1 2.3 0 .7 2.1zm105.4 5.4c-2.4 3.9-6.9 8.4-8.4 8.4-.5 0 .3-1.5 1.8-3.3 1.4-1.7 3.8-5 5.3-7.2 3.2-4.9 4.4-3 1.3 2.1zm-118.1 2.6c-1.1 3.4-2.1 6.4-2.4 6.6-.2.2-.9-1.5-1.6-3.7-.7-2.3-1.8-4.6-2.6-5.2-2.7-2.3-1.6-2.9 6.8-3.7 1.5-.2 1.5.4-.2 6zm90.3-4c1.2 1.3 3.6 3 5.2 3.8 3.1 1.5 4.2 3.9 3.2 6.6-.5 1.2-1.1 1.1-3.6-.7-3-2.2-3-2.2-4.5-.3-1.1 1.3-1.4 3.4-1.2 6.7.4 4.4.2 4.9-2.4 6.2-4.1 2.2-10.1 1.9-13.2-.5-3.2-2.5-4.5-9.4-2.8-14.8 2.2-7.6 14.4-11.9 19.3-7zm19.3-.2c-1 1.1-2.3 2-2.8 2-.6 0-.2-.9.8-2s2.3-2 2.8-2c.6 0 .2.9-.8 2zm-123.1.4c1.8.8 4.1 2.4 5 3.7 1.7 2.5 2.1 9.5.6 11.9-1 1.6-1.1 1.5-2.8-2.3-1-2.3-1.8-2.8-4-2.5-2.5.3-2.8.8-3.7 6.5-.5 3.4-1.3 6.5-1.7 6.8-1.2 1.2-7.8-.5-9.9-2.6-2.7-2.7-2.7-12.2.1-16.7 3.4-5.5 10-7.5 16.4-4.8zM276.9 192c2.2 5.3 3.1 6.5 4.9 6.4 1.2 0 2.2.4 2.2 1 0 1.2-5.5 4.6-7.4 4.6-1.8 0-5.8-13.3-5-16.5.9-3.8 2.2-2.7 5.3 4.5zm271.7 2.7c-.3 2.1-.6 4.8-.6 6 0 2.1-.5 2.3-4.8 2.3-5.9 0-14.3 2.4-20 5.7-2.4 1.4-4.5 2.3-4.8 2-.9-.8 2.3-6.8 5.7-11 2.5-3 3.7-3.7 6.7-3.7 2-.1 5.7-1.2 8.2-2.5 2.5-1.3 5.8-2.4 7.4-2.5 2.8 0 2.8.1 2.2 3.7zm-36.5 5.2c4.7 4.4 5 5 3.8 7-.8 1.1-1.9 2.1-2.5 2.1-1.3 0-4.7-3.6-6.3-6.7-1.1-2.2-1.5-7.3-.6-7.3.3 0 2.9 2.2 5.6 4.9zm9.1-1.6c-2.6 2.6-3.3 2.8-4.6 1.7-.9-.7-1.6-2-1.6-3 0-1.3.9-1.7 4.6-1.8h4.7l-3.1 3.1zm-110.6 10.4c-.8.8-4.6-1.7-4.6-3.2 0-.7 1-2.9 2.3-4.8l2.2-3.4.3 5.5c.2 3 .1 5.6-.2 5.9zm-9.6-7.4c0 3.1 3.6 8.5 6.5 9.9 1.9.9 2.4 1.6 1.9 3.2-.9 2.8-.9 2.8-5.1 3.5-3.5.6-3.8.9-4.3 4.4-.6 4.6-2.3 4.9-3 .6l-.5-3.1-1.9 2.1c-2.4 2.7-3.8 1.7-3.4-2.2.3-2.9 0-3.2-2.1-2.9-1.7.3-2.2 0-1.8-1 2.1-5.2 2.2-5-1.6-4.3-2 .4-3.7.3-4.1-.3-.7-1.2 3.2-2.1 9.7-2.1h4.8l-.7 3.4c-.7 3.8 0 4.2 3 2 1.8-1.3 1.8-1.8.6-5.4-.7-2.3-1-5.4-.6-7.5.7-3.8 2.6-4 2.6-.3zm-106.2 5.6c2.3 1.7 2.3 2.1 1.4 7.7-.5 3.2-1.5 7.2-2 8.9-.6 1.6-2.1 6.8-3.3 11.5-3.1 12-7.9 23.7-16.3 39.7-7.2 13.7-9 16.7-21.4 35.8-5.7 8.6-6.6 10.8-7 15.5-.7 8.9-3.7 9.9-14.2 4.9-3.6-1.7-8.5-3.7-11-4.3-3.4-.9-4.5-1.7-4.5-3.2 0-1.7 1-2 8-2.5 4.4-.3 9.6-1.3 11.6-2.2 6.7-3 15.7-14.2 24-29.8 9.6-18.1 11.2-22.7 13.9-38.4.5-2.8 1.4-7.7 1.9-11.1.6-3.3 1.2-11.5 1.4-18.1.2-6.6.7-12.6 1.2-13.2.4-.7 2.6-2.1 4.8-3.1 4.3-2 7.2-1.5 11.5 1.9zm-23.4-1.3c1.4 3.6.3 6-5.5 12.5-7.6 8.6-20.1 17.7-30.6 22.3-7.8 3.5-19.7 6.6-25 6.6h-2.6l2.7-2.1c1.5-1.1 4.7-5.2 7.1-8.9 4.3-6.5 4.5-7.3 4.5-13.9 0-3.9.4-7.1.9-7.1.4 0 1.6 2.5 2.5 5.5 1.3 4.1 2.6 5.9 5.1 7.5 4.7 2.9 11.2 2.7 16.1-.6 7.2-4.8 16.3-13.5 19.5-18.5 3.5-5.2 4.3-5.8 5.3-3.3zm277.3.2c.6.4 1.9 2.7 2.9 5.2 2.4 6 7.5 13.9 12.9 20 2.5 2.8 4.5 5.2 4.5 5.4 0 .2-.7 2.3-1.5 4.6-1.8 5-1.8 11.3-.2 15.5 4.1 10.5 20.2 33.2 32.6 46 7.9 8.2 9.7 10.9 10.6 15.8.7 3.3.5 3.8-1.9 4.7-4 1.5-19.3 3-21.7 2.2-1.9-.7-1.8-.9 1.1-3.7 4.7-4.5 4.2-8.1-2.2-14.1-9.9-9.4-19-18.9-21.4-22.4-3.2-4.7-19.6-19.7-22.9-21-4.6-1.8-7.5-1.2-10.5 2.2-6.3 6.8-7 14.2-3.5 38.1 1.2 8.8.8 14.5-1.6 18.8-1.1 2.1-6.3 2.6-7.5.8-.4-.7-4.2-1-11.3-.8l-10.6.4-.3-2.5c-.2-1.9.4-3 2.7-4.3 1.6-.9 3.8-1.7 5-1.7 1.1 0 3.5-1.3 5.3-2.9 2.8-2.5 3.2-3.5 3.6-9.2.2-3.5-.6-13.3-1.7-21.8-3.7-26.9-2.4-51.7 3-60.7 3.8-6.3 14.4-13.1 22.9-14.7 4.1-.7 10.4-.7 11.7.1zm-41.2 2.2c.3.5.1 1-.4 1-.6 0-1.1-.5-1.1-1 0-.6.2-1 .4-1 .3 0 .8.4 1.1 1zm-4.5 2c0 1.5-.7 2-2.9 2-3.4 0-5.1-1.8-3-3.1 2.6-1.7 5.9-1 5.9 1.1zm-290.3 2c2.2 1.3 3.5 3.1 4.3 5.9.6 2.2 1.5 4.3 2 4.6 3 1.9-1.6 11.9-9.3 20.2-3 3.4-8.3 3.1-12.8-.7-6.3-5.1-8.3-12.4-5.9-21.1 2.5-8.8 14.1-13.6 21.7-8.9zm231.3 0c0 .5-.4 1-.9 1-.6 0-1.3-.5-1.6-1-.3-.6.1-1 .9-1 .9 0 1.6.4 1.6 1zm66.5 3.3c-.4 1.4-1.7 3.3-3 4.1-2 1.3-2.5 1.3-4.4 0-3.2-2.3-2.6-4.1 2.2-6.3 4.7-2.2 6.1-1.6 5.2 2.2zM301.4 242c-1 26.2-.8 30.3 1.7 39.8 3.7 13.3 8.9 20.6 14.5 20.2 5.9-.4 5.7-.7 5 9.2-1.5 20.7-3 22.9-13.7 19.6-4.6-1.3-4.8-2-1.1-3.4 3.2-1.2 4.2-4.2 4.2-12.3 0-3.8-.6-5.2-3.4-8.4-1.9-2.1-4.9-6.6-6.6-10-1.8-3.4-4.1-7.3-5-8.7-3.3-5.1-5.4-17.6-5.2-32.1.2-12.5.5-14.5 3.8-25 4.8-15.6 4.4-14.8 5.6-11.9.7 1.6.7 9.7.2 23zM196 246c0 .6-.6 1-1.4 1-.8 0-2.8 1.2-4.5 2.6l-3.1 2.6v-2.4c0-2.7 1.7-5.3 4-6 1.8-.6 5 .9 5 2.2zm92 15.4c0 13 7 35 13.3 41.7 6.1 6.5 7.7 9.2 7.7 13.3 0 4.6-1 6.3-5.5 9.1-2.3 1.5-4.6 1.8-9.5 1.6-3.6-.1-10.8.5-16 1.4-11.9 2-26 3.4-27.7 2.8-1.9-.7-1.6-8.8.5-12.6.9-1.7 3.3-5.4 5.2-8.2 5.7-8.1 21.2-34.5 26-44.3 2.5-5 4.8-9.2 5.3-9.2.4 0 .7 2 .7 4.4zm132.1 5.3c2.2 2 4.9 5.4 6 7.5 2.4 4.6 8.1 27 10 38.6 1.2 8 1.2 8.3-.9 10.4l-2.1 2.1-11.5-1.8c-11.2-1.7-27.6-1.7-33.2 0-2.1.7-2.1.5-1.9-11.2.4-14.4 1.8-19.5 8.6-31.9 9.5-17.2 16.7-21.2 25-13.7zm128.8 7.5c3.8 3.5 11.2 11.3 16.4 17.4 5.2 6.1 10.7 11.8 12.2 12.8 7.2 4.7 10.5 11.7 7 14.6-1.1.9-7.8 1.3-23.2 1.6-12 .2-23.6.5-25.8.6l-4 .3.3-5c.2-2.8-.4-10.2-1.3-16.5-1.9-12.7-1.6-23.1.9-27.8 1.8-3.4 2.8-4 7.3-4.1 2.6-.1 4.6 1.1 10.2 6.1z"/><path d="M254 95.1c0 5.4-.2 5.2 4.8 3.2 1.9-.8 1.4 1.1-.8 3s-2.5 4.2-1 8.3c.9 2.3 1.2 2.5 2.3 1.2.7-.9 2.4-1.8 4-2 2.2-.4 2.7-.2 2.7 1.6 0 2 .1 2 2-.4 2.7-3.5 2.5-5.7-1-8.7-1.6-1.3-3-3.1-3-3.8 0-.7-1.4-1.6-3.1-2-1.8-.4-3.5-1.6-4.1-3.1-1.8-3.8-2.8-2.8-2.8 2.7zM420.2 100.7c-1.6.6-4.6 6.3-3.7 7.1.3.3 1.9-.9 3.5-2.6 2-2.3 3.8-3.2 5.9-3.2 3.4 0 4 1.6 1.5 3.4-.8.7-1.6 2.7-1.7 4.6-.2 2.8.2 3.6 1.8 3.8 1.2.2 3.1-.8 4.4-2.2 3.1-3.3 2.3-8.7-1.5-10.4-2.5-1.2-7.8-1.5-10.2-.5zM531 112.7c-2.5.9-6 4.6-5.9 6.2 0 1.2.4 1 1.6-.7.8-1.2 2.1-2.2 2.7-2.2 1.8.1 5.6 3.7 5.6 5.4 0 2.2 1.7 2 3-.3 3.1-5.8-.9-10.6-7-8.4zM547.5 177c-.4 1.2-.5 2.4-.2 2.7.3.2.8-.5 1.2-1.7.4-1.2.5-2.4.2-2.7-.3-.2-.8.5-1.2 1.7zM111 356c0 .5.9 1 2.1 1 1.1 0 1.7-.5 1.4-1-.3-.6-1.3-1-2.1-1s-1.4.4-1.4 1z"/></svg>