<svg xmlns="http://www.w3.org/2000/svg" viewBox="0 0 667.9 465" height="620.1" width="890.5" version="1">
  <path d="M166.8 0c-7.5 0-15.7.3-21.3 1-27.6 3.3-49.5 13.4-66 30.6A89.8 89.8 0 0 0 57.1 66c-9.9 25.6-11.4 50.1-9.8 156.8.4 28.5.9 52.1 1.1 52.5.4.6 2.1 107.6 1.9 115.4a9.8 9.8 0 0 1-2.1 6c-1.1 1.2-6.8 8.5-12.5 16.2l-14.8 19.8-7.2 9.3A121 121 0 0 0 0 461.2c0 1.2 19.7 1.3 118.8 1 116.4-.3 256.2.4 436.2 2.1 49.8.5 92.3.8 94.5.7l11.3-.4c7.4-.2 8.3-.8 5.8-3.9a640.6 640.6 0 0 1-34.2-49.3l-8.2-12.5-.7-56c-.4-30.8-.9-85.9-1-122.5-.3-89.9-1.4-101.2-12.1-133.5a188.1 188.1 0 0 0-14.2-34c-8.2-14-27.4-34.7-35.1-37.7l-6.2-2.9c-9.8-5-26.3-6.9-43.9-4.9l-17.9 2A313.1 313.1 0 0 0 416 30 297.5 297.5 0 0 1 375.5 43c-8.5 2.1-13.3 2.6-31.8 3.1-15 .4-24 .2-29-.6-26.1-4.4-34.4-6.5-47-12.5l-16.2-7.6a368.1 368.1 0 0 0-32-14C214 9.4 204.3 6.5 198 5l-14.6-3.7A84 84 0 0 0 166.8 0zm-2.7 3.6c7.2 0 13.7.4 18.3 1.4 20.9 4.5 26 6 38.5 11.1 7.5 3.1 20.1 8.6 28.2 12.3a295.4 295.4 0 0 0 20.5 9.1A165 165 0 0 0 306.1 48c13.6 2 45 2.1 57 .5 10.2-1.4 35.9-8 35.9-9 0-.6 1.1-1 2.6-1 1.4 0 4.4-.8 6.7-1.9A317.6 317.6 0 0 1 485 13.8c13.8-2.6 17.7-2.9 36-2.9 17.2.1 21.1.3 24.4 1.8 2.1 1 4.8 1.7 6.1 1.7 5.8 0 26.4 18.2 35 31 4.5 6.7 7.3 12.3 17.6 36 3.3 7.4 8.3 24.7 9.8 33.5 3.7 21.7 3.9 31.1 4.6 148.5.2 54.2.8 106.3 1.1 116 .5 14 .4 17.4-.7 18.1-.8.5-14.1 1-29.5 1-26 0-28.5-.3-32.5-2-2.4-1.2-5.6-2-7.1-2-3.7 0-17.9-4.7-23.5-7.7-5.7-3-13.3-9-13.3-10.7 0-.7-1.6-6.2-3.6-12.2l-7.4-24-8-26.5a828 828 0 0 1-7.2-25 121 121 0 0 0-3.8-13c-.5-.9-5.3-4.4-10.7-7.9l-19.2-12.3c-12.6-8-30.1-17.6-30.1-16.4 0 .2 7.3 4.7 16.3 10a690.7 690.7 0 0 1 35.8 22.3l4.6 3.2 4.8 18.3a692 692 0 0 0 8.6 30.3c2.1 6.6 4.7 15.4 5.8 19.5a401 401 0 0 0 6.5 19.5c2.5 6.6 4.7 13.1 5 14.5.4 1.8 3 4.3 8.8 8.2 9 6.1 19.7 10.3 29 11.3 3.2.4 6 1.1 6.3 1.6.7 1.1-5.3 1.1-31.7.2l-19.5-.6-.5-9.3c-.5-8.8-.7-9.6-4.7-15.9a735.2 735.2 0 0 1-22.1-37.5 112 112 0 0 1-8.6-36.2l-.7-10.6-9.6-.7c-12.8-.9-36.4-4.9-43.9-7.4-4.3-1.5-8.1-2-13.3-1.8-8.6.2-12.6-1.3-19-7.5a28.4 28.4 0 0 1-8.3-17.8c-.5-3-.9-21-1.1-40-.3-32.7-1.7-61-3.5-69.3-.4-2-.4-4 .1-4.2.4-.3 2.7.6 5 2 2.2 1.5 4.3 2.4 4.7 2.1.3-.3 0-.6-.6-.6-2.5 0-.9-2.3 6.3-9.4 4.7-4.6 7.5-8 7.5-9.5 0-1 .3-2 .8-2 .4 0 1.2-1 1.7-2.3 1.6-3.4 3.9-4.3 8.2-3.2l3.8 1 1.8-8c3.4-15.9 3.6-14.3-1.9-15-2.7-.5-5.7-1-6.6-1.3-1-.2-1.8 0-1.8.5 0 .6 2.1 1.4 4.8 2 5.3.8 5.2.5 3.6 13.5-.6 5.7-.7 5.8-3.4 5.2a12 12 0 0 0-6.5 1 20 20 0 0 1-6 1.5c-3.7 0-5 2.5-3.8 7.2 1 4 .9 4.2-2.4 8-3.8 4.1-6.2 5-6.4 2 0-1-.7-.2-1.6 1.8-2 4.6-1.8 4.5-4.9 2.1-5.1-4-5.2-3.5-2.3 18.4.5 4.4 1.2 26.2 1.4 48.5.2 22.3.7 42.6 1 45.2l.7 4.8h-3.9a17 17 0 0 0-7 2c-4.2 2.5-4.6 5.7-3.9 29l.6 18.5h10.5l.7 7c.4 3.8.9 25 1 46.8l.3 39.7h-24l.2-36.3c.4-53.9.4-273.7.1-292.6-.2-12-.6-16.5-1.5-16.9-1.6-.5-1.6-2.4-1.2 50.3.2 23.6.1 82.1-.1 130-.3 47.8-.5 104.7-.5 126.3v39.2H334l.4-3.8a7249 7249 0 0 0 1.4-192.2v-93.9c.2-14-.1-25.2-.5-24.8-.4.4-.8 50.4-1 111-.2 60.6-.5 122.8-.7 138.2-.2 15.4-.5 36.2-.5 46.2l-.1 18.3h-13.7l-.7-40.5c-.6-31.6-1.1-41.7-2.2-45.6-2-6.7-1.5-7.9 3-7.2 3.4.5 5.2-1 2.4-2-1-.3-1-.7.1-2 1-1.3 1.2-4.4.7-14.4a139 139 0 0 0-1.6-16.3 15.6 15.6 0 0 0-10.3-10c-3.6-1-3.8-1.4-3.1-4.3 1-4.6.8-28.5-.5-48.7a1089 1089 0 0 1-1.5-41.9c-.4-25.6-.5-26-5-26-1.8 0-1.9-.7-1.3-8.6.5-7.7 1-9.2 5.8-18a45.6 45.6 0 0 0 6.5-19.3c.7-5.3 1.4-11.8 1.4-14.3 0-4 .5-5 4.5-9.2 2.6-2.8 4.5-5.7 4.5-7 0-6.5-7.9-9.2-11.9-4a17.8 17.8 0 0 0-2.6 4.3c-.3 1-2.8 2.7-5.4 4-10 4.2-19.3 16-28.1 35.5-1.7 3.8-4.9 9.7-7.1 13.1-3.8 5.8-4.9 9.7-3 10.8.4.3 1.9 3.7 3.1 7.6l2.3 7h5.9c5.8 0 5.9 0 7.4 3.6.8 2 1.4 4.3 1.2 5.2-.2 1-3.9 3.5-8.3 5.7l-8 4.1-.6 6c-.4 3.2-.7 10.8-.8 17-.1 6-.5 11.5-1 12.2-.6 1-3.4 1.2-12.1.8-10.8-.4-11.4-.6-14.2-3.3-2.5-2.6-3-4-3.8-11.9-.5-4.9-1.2-14.8-1.6-21.9-.5-10-1-13.4-2.3-15a62.2 62.2 0 0 1-8.8-14.3c-1-4.3 1.4-9.8 5.1-11.6 5.5-2.6 8.2-2 9.5 1.6 2.5 7 4.7 10.3 7.9 12.2 2.8 1.6 3.5 1.7 4.3.5.6-1-.2-2.4-2.6-4.7a16.8 16.8 0 0 1-4-6c-.3-1.6-1.9-4.3-3.5-6-2.4-2.7-3.6-3.2-7.5-3.2-6.1 0-9.5 2-12.4 7-3.3 6-2.5 12.3 2.6 19.6 6.9 10 7 10.5 8.4 30.1.7 10.1 1 18.5.7 18.8-1.9 2-4.1-2-8.3-15.3a411 411 0 0 0-14.9-42.9c-.4-.4-12.4 22.3-14.8 28-1.6 3.7.2 1.3 4.3-5.8 2.3-4.2 4.8-7.4 5.3-7.2.6.2 1.9-.8 2.9-2.2l1.9-2.6-.6 3c-1.1 6.5-27.8 81.8-29.8 84.2-1.1 1.4-7.8 1.7-15.2.7l-4.6-.7 5.2-9.6 8.5-15.6a253.4 253.4 0 0 0 11.3-22.2c0-1-2.9 3.8-9.2 15.7-3 5.8-8.5 15.6-12.2 22-3.6 6.1-6.6 11.7-6.6 12.1 0 .5 3.5 1 7.8 1 4.2 0 10 .2 12.8.5l5.1.6 2.7-8.8a896 896 0 0 1 8.6-25.4c6.9-19.4 13.1-38 15.5-46.8 1-3.5 2.1-5.9 2.6-5.5.4.4 3.1 8 5.9 16.8a308 308 0 0 0 8.7 25.1c.2.7-1.3 1.4-3.6 1.8-4.5.7-4.8 1.2-2.7 4.1 1 1.5 2.7 2 6.3 2.1 9.5.2 9 0 9.7 5.1l1.2 7.5c.5 2.7.4 2.8-4 2.8-3.4 0-4.6-.4-4.6-1.5 0-.9 1-1.6 2.3-1.6 1.7 0 1.6-.3-.7-.8-4.3-.9-4.5-3-.4-3.3h3.3l-3.2-.5c-3.3-.4-4.8-3.3-1.7-3.3 2.3 0 .8-1.7-2.1-2.2-1.8-.4-2.5 0-2.5 1 0 3 3.5 12.4 4.7 13 2.3.8 1.4 2.1-1.9 2.4-3.8.4-5.1 3.4-2.2 5.5.9.7 2.8 4.5 4 8.4 1.6 5 3.3 8.1 5.5 10.1 3.5 3.3 6.3 3.3 6.7.1.3-1.7 1.4-2.4 5.3-3.2 2.8-.6 6.8-1 8.9-1 3.8 0 4 0 4 3.1 0 6.5-.9 7.7-6.4 9.3-6.1 1.8-25.6 6.3-34.6 8-11.9 2.3-36.6 9.3-35.7 10.1.5.5 16.6-3.2 27.2-6a483 483 0 0 1 19-4.6 616 616 0 0 0 22.5-5.2c9.6-2.6 8.4-.5 11.5-19.3.9-5.5 3-15.4 4.6-22 2.4-9.6 3.1-15 3.6-27 .3-8.3.9-16 1.4-17.2.4-1.2 2.7-3 5.2-4 5.5-2.6 19-11.4 18.3-12-.3-.4-1.5.2-2.5 1.1-2.7 2.5-4.1 1.7-6.1-3.4-1.7-4.5-1.8-4.5-7.1-4.8-4.6-.2-5.6-.6-6.6-2.8-1.1-2.3-.9-2.5 1.8-3 4-.9 3.6-2.2-.8-2.6-4.1-.3-5.7-2.6-2.4-3.5 2.9-.7 2.6-2.3-.4-2.3-3.3 0-4.3-2.6-2.2-5.9a115 115 0 0 0 4.2-7.4c2.6-4.8 4.1-5.5 7.8-3.6 4.7 2.4 6.7 5.4 9.2 13.4 1.3 4.5 3.6 9.7 5 11.6 4.4 6.1 5 7.8 3.6 10.1-1.2 2-1.2 2 1 .4a8.9 8.9 0 0 1 4.1-1.6c1.7 0 1.8 1.5 1.8 20.2 0 11.2.7 32.7 1.4 47.8 1.6 31.8 1.6 29 .5 40.3-1.3 12.6-4.6 18.5-15 26.5-3.2 2.4-20.9 4.1-54.5 5.1l-39.5 1.1h-5.5l-1.2 13.3a95.4 95.4 0 0 1-12.2 41.7c-13.3 26.5-13.4 26.7-16 45.8-.6 4.6-1.4 9-1.7 9.8-.3.8.1 1.4 1 1.4 1.8 0 2.3-1.8 3.7-13.5 1.5-12.4 4-19.4 13.8-38.5 4.6-9 9.1-18.3 9.9-20.5 1.6-4.5 4.3-18.5 4.3-22.8 0-1.5.5-2.7 1.1-2.7.8 0 1 1.3.6 3.7-.4 2.1-1 24.4-1.3 49.5-.6 34.5-.4 45.8.4 45.8.9 0 1.2-8 1.3-30.3 0-38.3 1.3-77.5 2.6-78.8.5-.5 13.7-1 29.9-1.4 40.5-.8 55.6-2 61.7-5 7.2-3.7 11.3-7 15.2-13 3.8-5.7 4.8-6.2 8.9-4.4 4.4 2 6 7.1 6.6 21 .8 16.4.6 17-3.7 17h-3.5l.5 4.1c2.1 17.5 2.7 29.5 3 59.1l.4 33.7-59.1-.5a6846 6846 0 0 0-138.4-.6c-14.5.1-26.6 0-27-.3-1.2-1.3 1.7-2.7 6.9-3.3 6.9-.7 20.5-4.4 28.9-7.8 14.5-5.8 21-8.8 22-10 .6-.8 2.3-6.2 3.7-12.2 5.3-22.7 10.4-43.4 14.7-59.7 2.7-10 4.8-20.5 5.2-25.9.6-7.6 1.1-9.5 3-11.4 1.9-1.9 2-2.3.6-2.3-3.7 0-4.5 1.7-5.2 11.2a303 303 0 0 1-8.3 39.8L151.8 358l-3.3 14-8.5 4.2c-13.8 6.8-33.9 13.3-41 13.3-5.2 0-11 2-11 3.5 0 .8-.3 1.5-.7 1.5-8.3.5-31.7 0-32.4-.7-.5-.5-1.1-20-1.4-46.4l-1.7-129.8c-1.2-93.2-1-101 4.3-129.3a86.5 86.5 0 0 1 7.8-26 96.7 96.7 0 0 1 28.6-37.5c6-4.5 28.1-15 35.5-17 10.3-2.6 24.2-4 36.1-4zm-20.4 28.9c-1.9 0-3.5 1-5.1 3.1a69 69 0 0 0-7.6 24.8c-1.2 8-2 9.6-4.4 8.7-1.2-.5-1.6-3-1.8-12.9-.2-7.2-.7-12-1.2-11.8-.6.3-.8 2.5-.6 5 .8 8.5.5 14.3-.8 14.8-.6.2-1.2 1.1-1.2 2 0 1-1 2.6-2.1 3.8-1.2 1.3-1.9 3-1.6 3.8.8 2 5.6 2.1 6.3.1.4-.8 1.2-1.5 2-1.5 1 0 1.4 1.3 1.4 4.7 0 6-.9 7.3-4.9 8.1-2.8.6-4.7 3-2.1 2.6l10-.3h9v-5c0-3.6.4-5 1.3-5 1.5 0 4.7 3 4.7 4.3 0 .5 1.4 2.5 3 4.6 4.1 5.2 12 7.7 12 4a63 63 0 0 0-10.1-14.6c-3.2-2.9-6.4-3.8-8.8-2.5-1.6 1-2.5.7-4.6-1.2l-2.7-2.3 8.9-5.8c4.8-3.3 10.5-7.5 12.5-9.4 9.6-9 5.3-19.2-4.7-11.2-2.1 1.7-4 2.8-4.3 2.6-.2-.3.1-1.9.7-3.7 1.6-4.6 1.4-8.6-.5-9.3-1-.4-1.9-.5-2.7-.5zM96 43a3 3 0 0 0-.8.1c-2.3.8-1.4 2.1 1.8 2.8 1.9.4 3.4 1.6 4 3.2a63 63 0 0 1 .3 19.3c-.3 0-1.9-1.4-3.5-3-1.6-1.9-3.2-3-3.4-2.8-.3.3 1.1 2.2 3 4.2 3.8 4 5.2 8.4 1.7 5.3-2.8-2.5-3.9-2-1.4.6 1.2 1.3 2.9 4.5 3.8 7.1 1.9 5.5 4.8 6.1 5 1.1.2-5.3.4-5.7 3.5-8.6 3.8-3.5 2.5-3.9-1.5-.4a11.4 11.4 0 0 1-3.8 2.5c-1.3 0-.9-2.7.7-4 1.9-1.5 1.9-3 .2-3-1 0-1.2-1.5-.9-6 .5-6.2-.3-13.6-1.6-15.8-.9-1.3-4.9-2.7-7-2.6zm19.3 2.5c-.3 0-.4.2-.3.5a250 250 0 0 1 4.8 13.4c1 3.3 1 3.3.5-1.3-.7-6.2-2.7-12-4.4-12.5l-.6-.1zm460 2.4c-.4 0-1 0-1.4.2-2.9 1-6.9 5.6-7.5 8.7-.4 1.7-1.7 5-3 7.1a81.4 81.4 0 0 0-4.9 12.5c-2.7 8.3-5 12-13.4 21-4.2 4.5-5.7 7-4.1 7 .7 0 2.1-.7 3.1-1.7 2.3-2 3.6-.9 1.6 1.4-2.5 2.8-4.8 8-4.8 10.6 0 2.8 1.6 3.7 6.5 3.7 3.3 0 3.3 0 5.4-8.3 3.4-12.6 4.2-14.2 3.5-7-.6 6.4.2 7.7 2.6 4.8 1.8-2 2.8-.8 3.2 4 .3 3.6.1 4-3 4.7-3.7 1-4.6 4.2-.9 3.3 1.2-.3 8.3-.7 15.7-.9 7.4-.2 13.4-.5 13.3-.7l-.8-2c-.5-1.3-1.7-1.8-4.3-1.6-3.3.2-3.8 0-4.9-3.3-2.7-7.8-.8-26.7 3.8-37.2 3.4-7.8 3.5-9.3.9-13.3s-2.5-5.2.5-5.9c3.1-.8 3.1-1.7.3-4.3-2-1.8-5-2.9-7.3-2.8zM413.2 50a6 6 0 0 0-3.6 1.5c-1.4 1.1-2.5 3-2.5 4.3 0 2.2 2.3 5.5 3.9 5.5 1.5 0 4.6-2.9 3.9-3.6-.4-.4-1.4-.2-2.1.5-2.1 1.6-4.5-1.4-3-3.7 2.6-4.3 9.3-.9 9.3 4.8 0 5.2-2.1 7.8-12.6 15.5a47 47 0 0 0-13 12.1c-1.4 2.4-3.1 4.4-3.7 4.4-2 0-9.1-3.6-10.3-5-2.2-2.8-8.7-16.3-10.8-22.3-1.8-5.4-2.5-6.2-4.8-6.5-2.5-.3-2.8 0-2.8 2.4 0 2.6.1 2.7 1.4 1 1.6-2.3.9-3.5 8.6 14.4C376.3 88 378.1 90 385.5 92c7.9 2 8.1 2 9.4-1.7 1.4-4 7.5-9.8 16.1-15.4 11.4-7.4 14.5-15 8.6-21.3-2.3-2.3-4.4-3.4-6.5-3.4zm-78.4 2.5c-.4 0-.6 2.4-.6 7.1-.1 5.6.3 8.6.9 8.2 1.2-.7 1.2-12.2 0-15l-.3-.3zm-19 3a6 6 0 0 1 1.7.4c1.8.7 2.2 5.5.6 8.4-.5 1-2.5 2.8-4.4 4l-3.4 2-.5 9.8c-.7 15-2.2 21.2-7.8 32-4.9 9.2-5.1 10-4.5 15.4.4 4.5.3 5.8-.8 5.8-2.6 0-4.9-4-7.7-13.6-3-10.4-4.4-12.6-10.2-15.5-3.7-1.9-3.7-2-2.3-5.2.7-1.9 2.4-5 3.7-7.3l4.3-7.6A49 49 0 0 1 302.7 67c3.4-1.6 5.7-3.3 6.7-5.3 2.3-4.4 4-6 6.3-6zm47.7 14c-.2 0-.4.6-.3 1.4 0 1.1.3 1.4.6.6.3-.7.2-1.6-.1-1.9l-.2-.1zm-28 7.3s-.2.5-.2 1.5c0 1.4.2 2 .5 1.2.2-.6.2-1.8 0-2.5l-.2-.2zm30.2 2c-.2 0-.1.6.1 1.6.4 1.3.8 1.8 1.1 1 .2-.7-.1-1.8-.6-2.3l-.6-.4zm-229.4.5c.5 0 .8 1.2.6 2.7-.4 3.4-2.8 4.3-2.8 1 0-2.5.7-3.7 2.2-3.7zm-5.2 0c.5 0 1 .9 1 2.4 0 1.3-.7 2.6-1.5 3-1.6.6-2-1-.9-3.8.4-1 .9-1.5 1.4-1.5zm237 6.1l1.5 5c.8 2.4 1.8 9 2.4 14.6.5 5.6 1.5 11 2.1 12 .9 1.5 1 1.1.4-1.7-.4-1.9-.8-7.3-.9-12-.2-6.9-.8-9.5-2.9-13.5a17.8 17.8 0 0 0-2.6-4.4zm-262.3 3c-1.2 0-3.2.5-4.4 1.2-2.8 1.6-6.6 6.4-5.8 7.6.3.5 1.8.8 3.3.6 1.5-.2 5.5-.4 9-.4 5.4 0 6.2-.3 6.2-2 0-2.5-5.5-7-8.3-7zm36.6 3c-1.2 0-2.5.4-3.8 1.1-2.4 1.4-5.5 5.1-4.8 5.8.7.7 17.3.7 17.3 0 0-.3-1.3-2-2.9-3.8-2-2.1-3.8-3.1-5.8-3.1zm-23.1 8.7c-1.8 0-3.5.3-5.3.7a29.7 29.7 0 0 0-14.4 9c-.9 1.2-2.5 4.7-3.5 7.6-1.8 5-2 8.1-2 36 0 36.4.4 38.7 8.1 46.2a56 56 0 0 1 4.9 5c0 .1-2.8.2-6.2.2-5.6 0-6.3.2-6.3 2s.9 2 26 1.6a249 249 0 0 0 26.8-1c1.7-1.7-2.4-4-7.1-4h-4.6l4.1-3.6c7.4-6.3 7.6-7.7 7.1-45.8l-.4-33.3-2.8-4.9c-6-10.3-15-15.9-24.4-15.7zm446.6 1.7h.2c.5.3 1 1.7 1 3.1 0 3.1 1.5 3.1 3.7-.2l1.7-2.7 1.3 5c.7 2.6 1.3 5.8 1.3 7.1 0 2.1-.4 2.3-4.7 2l-4.8-.3-.3-7.3c-.2-4.4 0-6.6.6-6.7zm-446 2.6c3 0 6 .6 8.7 1.8 4.4 2 7.1 4.7 10.3 10.3 3.8 6.7 4.4 13.7 4 43.4-.3 26-.5 28.2-2.5 32-2.6 5-4.8 6.8-9.8 8.4-10.4 3.4-23.9 0-28.3-7.2-3.5-5.6-4.1-11.9-4.2-40.5-.1-28.9.4-32.8 5.4-40.4 3.3-5 9.8-7.8 16.4-7.8zm347.5 2.1c-1 0-2.2.4-4.3 1-4.9 1.4-6.9 3.5-7.7 8-.5 3.2-1.3 4.4-4.4 6.4-5.4 3.4-5.2 5 .6 4.5 2.4-.2 7.5-5.5 7.5-7.7 0-.8.7-2.8 1.5-4.4 2.2-4.2 7.9-4.3 11.8-.2 3.1 3.2 3.3 5 1.3 9.7-1.2 2.7-2.2 3.5-5.1 4.1-1.9.3-4 1.4-4.4 2.3-1 1.7-2.6 12.2-6.1 39.6-2.9 22.2-3.1 22.8-8.2 24.8-2.3 1-3.9 2-3.6 2.2.3.3 2.3 0 4.4-.9a93 93 0 0 1 14.9-3.6c1.2 0 .2 2.1-2.3 4.8a12.6 12.6 0 0 1-7 3.7c-5.6 1-5.6-1 .1-2.3 4-.9 4.1-1 .9-1a8.2 8.2 0 0 0-8.2 8.3c0 3.4-.1 3.5-4.1 3.5a50 50 0 0 0-10.3 1.6c-9 2.4-22 4.3-22.9 3.5-.4-.4-1-3-1.4-5.9l-.6-5.2h15.5c14 0 15.8-.2 17.9-2 2.7-2.2 1.9-2.6-1.4-.8-1.3.7-7.9 1.2-17.2 1.2l-15.1.1-3.2-11.7a149 149 0 0 1-6.2-28.5c0-2.9-2.1-6.3-3.9-6.3-2.1 0-5.1-4-5.1-6.7 0-4 1.7-5.3 9.2-6l6.3-.8 1-4.7c.5-2.6 1.8-5.3 2.9-6 1.7-1.4 1.8-1.6.2-4.4-1.3-2.2-1.5-2.3-1.1-.7.6 2 .3 2.3-2.4 2.3-1.6 0-3.3.4-3.6 1-.3.5.1 1 .9 1 2.1 0 2.8 1.6 1.4 3.2-.7.7-1.3 2.4-1.3 3.8 0 2.3-.5 2.6-5.5 3.2-4.4.5-5.9 1.2-7.7 3.5l-3.7 4.5c-1.2 1.4-.9 2 3.1 4.8 5 3.6 5.7 5.1 7.3 14.2 1.4 8.3 2.7 13.4 6.1 24.4 4 13 6.9 27.6 6.9 35v6.4l4.4 2c3.9 1.7 4.8 1.8 7 .6a56.5 56.5 0 0 1 23.6-.3c2.3.8 3.6 2 4 3.6.7 3.1 2.8 4 3.7 1.4.4-1 1.9-3 3.5-4.6 1.5-1.5 3.3-4.5 3.9-6.5a9 9 0 0 1 4-5.4c3.6-2 3.9-4.8.5-4.8-4.8 0-8.9-1.3-9.3-3-.6-2-4-1.5-6.3 1.1-2.6 3-10.1 4.8-22.7 5.4l-12.3.6-1.2-2.5c-.6-1.5-.9-2.8-.7-3 .2-.2 6.5-1.5 13.9-3 10-1.9 16.2-2.6 23.7-2.4 12.7.2 13.3-.2 13.3-8.7 0-4.9.4-6.6 2-8 2.6-2.4 2.6-4.5-.1-4.5-1.3 0-1.9-.5-1.6-1.3a641.5 641.5 0 0 0 16.4-40.6c1.7-5 3.2-7.5 4.4-7.8 2.2-.6 2.6-2.3.5-2.3-1.1 0-1.1-.8.2-4.6 1.1-3.2 1.8-4.2 2.6-3.4.7.7.7 1.6-.2 3.1-1.1 1.7-1.1 2.3.1 3.2.8.7 1.8 3 2.1 5.2.4 2.2 3.6 15.7 7.1 30 9.4 38 9.7 39.5 8.4 41.1a27.6 27.6 0 0 1-13.4 3.1c-.8-.4-1.5-3.4-2-8.9l-1.1-13.8a187.4 187.4 0 0 0-3-26.9c-.4-.3-.4 2.3-.1 6 .4 3.5 1.1 14.3 1.7 24 1.2 20 1.5 21.5 3.4 22.2 1.9.7 14.4-1.9 16.2-3.4a4 4 0 0 0 1.4-2.8c0-2.2-5.9-27.3-10.9-46.3-4.2-16.2-6.1-25-8.1-37.6-1.6-9.5-2.7-9.6-4.5-.2-.4 2-1.2 4.1-1.8 4.8a51.4 51.4 0 0 0-5.7 15c0 1.1-.4 2.2-.8 2.4-1.2.4-7.6 15.1-11.9 27.3-3.6 10.2-4.8 12.4-5.9 11.2-1-1 5.6-46.8 7.7-53.4.7-2.3 2.2-3.8 5.3-5.4 10.4-5.2 10.2-17.5-.4-22.9-2.5-1.2-3.5-1.8-4.7-1.8zm-347.2 4a8 8 0 0 0-5.5 2.3c-5.5 5.1-2 13.5 5.6 13.5 2.8 0 4.2-.7 6.2-3 3.5-4.2 3.3-7.2-.5-10.4a9.2 9.2 0 0 0-5.8-2.5zm155.7.9c-.5 0-.8.3-.8.8 0 1.1 3.1 2.4 3.9 1.6.3-.3-.1-1-.9-1.5a5 5 0 0 0-2.2-.9zm-1.3 2.5c-.7 0-1.2.5-1.9 1.3-1.6 1.7-1.5 2 .6 2.5 1.3.3 3.9.6 5.8.6 2.9 0 3.2-.2 2-1.3-.8-.7-2.7-1.8-4.2-2.5a6.7 6.7 0 0 0-2.3-.6zm114.5 4.4c.4 0 1 .2 1.4.7.8 1-1.1 4.4-2.3 4.4-.6 0-1-1-1-2.5 0-1.6.9-2.6 1.9-2.6zm12 .2c-.7 0-1.6.4-3.2 1-1.6.5-2.8 1.4-2.8 1.8 0 1.2 6.6 2.4 8.6 1.6 1.5-.6 1.5-.8-.1-2.6-1.1-1.2-1.6-1.8-2.5-1.8zm-25.8 1.4l-.1.4c0 .8.6 3.7 1.4 6.5.8 3 1.4 4 1.4 2.5 0-2.4-2-9.3-2.7-9.4zm32 .5s0 .4.4 1.2c.3 1 .9 1.5 1.2 1.2.3-.3 0-1-.7-1.8a3 3 0 0 0-.8-.6zm68.4 5c.8 0 1.2.3.9 1-.3.4-1 1-1.6 1-.5 0-.9-.6-.9-1 0-.7.7-1 1.6-1zm-372.5 1.1c-.7 0-1.1.3-1.1 1 .1.7 2.2 3 4.8 5 2.6 2.1 8.8 7.1 13.7 11.3 5 4.1 9.3 7.4 9.8 7.5 2.3.1 0-3.2-4.8-6.6-5.9-4.2-6.7-6.4-3.2-8.3 1.8-.9 3.1-.9 6.6.4 5.3 1.8 5.1 1.8 5.1.2 0-1-10.2-4.6-30.2-10.4a3 3 0 0 0-.7-.1zm4.6 3.9c2 0 7.4 1 9.8 2.1 2.9 1.3 3.3 3.3.9 4.2-1.5.6-11.4-4.8-11.4-6 0-.2.3-.3.7-.3zm441.2 0c-1.5 0-1.8.3-1.3 1 1.5 1.4 11 2.6 29.2 3.5 7.8.4 14.5 1 14.7 1.4 1 1.6-16 6.8-18.8 5.7-.8-.3-2.1-1.9-2.8-3.6-.8-1.7-1.8-3-2.3-3-.8 0-.6.7 1 6.6.6 2.3.3 2.4-11.3 5.3-2.8.7-4.3 1.6-4.3 2.7 0 1.8.4 1.8 15.5-2.7 17.6-5.2 27.5-9.2 27.5-11.2 0-2.3-1.3-2.6-20-3.8a2081 2081 0 0 1-23-1.6l-4.1-.3zm-346 14.4c-.4-.1-1.6 1.6-2.9 4.7a127.5 127.5 0 0 0-8.4 20.8c.5 0 7.9-15.5 10.4-21.8 1-2.4 1.2-3.6.9-3.7zm283.5.7c-.2 0-.4.6-.3 1.4 0 1.1.3 1.4.6.6.3-.7.2-1.6-.1-1.9l-.2-.1zm2.8 2.3v2.5c-.1 1.4.3 4.3.7 6.5l.9 4v-4c0-2.2-.4-5-.8-6.5zm-2.7 4.5c-.1.1-.2 1.5-.2 4 0 3.6.2 5 .4 3.2a35.3 35.3 0 0 0-.2-7.2zm-378.3 2c-1.1.1-1.7 1.6-1.7 4.3 0 2.3-.9 8.5-1.9 13.8a43.8 43.8 0 0 0-1.3 11.2c.4 1 1.8 1.7 3.5 1.7 3.9 0 5.2 1.7 5.2 6.7 0 2.4.5 4.3 1.1 4.3.7 0 .9-6 .7-18.9-.3-16.9-.5-19-2.2-21-1.4-1.5-2.6-2.2-3.4-2.1zm473.3 2.1c-.8 0-1.8.6-3.1 2-1.7 2-1.9 4.1-2.2 22.5-.4 20.1-.3 20.4 1.7 20.4 1.9 0 2.1-.6 2.1-6.6 0-6.4.1-6.5 3.3-7.9 1.7-.7 4.4-1 6-.8 2.2.4 2.7.2 2.7-1.3a11 11 0 0 0-1.4-4.5c-1.5-2.9-4.9-12.9-6.6-19.7-.7-2.6-1.4-4-2.5-4zm-454.3 1c-.6 0-1.2.5-1.6 1.5a94.4 94.4 0 0 1-3.1 16c-3.1 12.4-3.1 13.2-.2 12.7 3.1-.5 4.4.7 5 4.5.7 4.1 1.5 5.1 2.7 3.2.9-1.3 1.5-14.9 1.4-29.2 0-4.6-2.4-8.7-4.2-8.7zm434.2 0c-.8 0-1.8.7-3 2-1.7 2-1.9 4.1-2.2 22.1-.3 18.8-.2 20 1.5 19.6 1.5-.3 1.9-1.5 2.1-6.8.2-3.6.8-6.8 1.5-7.2.7-.4 2.9-.8 5-.8 2.3 0 3.7-.5 3.7-1.3 0-.6-1.3-5.5-2.9-10.7a113 113 0 0 1-3.6-13.3c-.4-2.3-1-3.5-2-3.6zm-373.8 9c-.2 0-1 1-1.8 2.1-.8 1.3-1.8 3.2-2.2 4.3-.6 1.7-.5 1.8.7.5 1.4-1.5 4-7 3.3-7zm1.7 9.1c-.2 0-.4.2-.6.5a63.5 63.5 0 0 0-4.3 12c.2.2 1.5-2.4 3-5.8 1.5-3.3 2.6-6.3 2.3-6.5a.5.5 0 0 0-.4-.2zm304.9 4.3l-.1 2.5a9 9 0 0 0 .9 4c.9 1.3 1 1.3.9 0l-.9-4zm-273.8 8.7l1.2.1c1.4.2 2.6.7 2.6 1.3 0 .5-1.2 1.1-2.6 1.3-1.8.2-2.5 0-2.5-1.3 0-.9.4-1.3 1.3-1.4zm-36.8 1c-.3 0-1.3 1.4-2.1 3.4l-3.5 8.4a422 422 0 0 1-5.9 13.3c-4.5 9.8-4.5 9.7-3.2 9.7.5 0 1.4-1.5 2.1-3.3l7.2-17a82.6 82.6 0 0 0 5.4-14.4zm52.7 2c.6.1 1.6.8 3.1 2 2.2 1.6 4 2 13.7 2h11.2l-.7 4.6a20 20 0 0 1-1.3 5.4c-.4.4-6 .4-12.5.1-13.3-.5-12.8-.2-14.2-9.5-.5-3.3-.4-4.7.7-4.5zm259.9.3v3.5c0 2 .3 5.5.7 8l.8 4.5.1-5c0-2.8-.4-6.4-.8-8zm-36 9.7c.5 0 .8.4.8.8 0 .5-1.7 1.2-3.7 1.5-6.1 1-6.1 1.3-.5 1.4 3.3.1 5.1.5 4.7 1.1-1.1 1.7-9.2 1.2-9.9-.6-1.1-2.8-.7-3.3 3.2-3.7l5-.5h.4zm-216 6c2.2 0 5.1.2 9.2.5 8.4.8 8.9 1.3 6.6 7.1-.6 1.5-1.3 4.7-1.5 7.1-.2 2.4-.6 4.7-.8 5.1-.3.5-3 1.1-6 1.5a93 93 0 0 0-11.3 2.1c-9.1 2.4-9.6 2.2-12.2-4-3.2-7.6-2.7-9 2.8-8.6 2.9.2 4.1 0 3.7-.8-.4-.6-2.2-1-4.1-1-4.3 0-8.8-1.8-8-3 .3-.6 3.2-1 6.4-1 4.8 0 6.5.4 11.1 3.4 4.3 2.7 6.5 3.4 10 3.4h4.5l-4.5-1c-2.5-.7-6.7-2.7-9.3-4.7-4.3-3.3-4.6-3.8-3-4.9 1.2-1 2.7-1.3 6.4-1.3zm214.5 1c1.4 0 2.3.3 2.3.7 0 1-4.7 2.1-8.1 2.1-2.7 0-2.4-1.8.4-2.3 2-.4 4-.6 5.4-.5zm126.7 2a6 6 0 0 0-.6 0l-16.2.8c-9.9.3-14.1 1-14.4 1.7-.3 1 3.4 1.3 16.2 1.3 15.9 0 16.6 0 16.6-2 0-1.3-.5-1.8-1.6-1.8zM109 216.3c-.5 0-1 .7-1.2 2.3-.3 2-1.2 2.4-5.8 3.1-3 .4-5.8 1.1-6.2 1.5-.4.4-.4 2.6-.1 5l.6 4.2h12l-.7 24c-.5 21.2-.4 23.8 1 24.4l2.2.6c.9 0 1.5-53 .7-59.8-.4-3.4-1.5-5.4-2.5-5.3zm19.1.2c-.6-.1-1.1.5-1.1 1.7 0 1.1-1.2 2.4-2.6 3-2.8 1.3-2.4 3.2.7 3.2 1 0 1.9.7 1.9 1.5 0 1-1 1.5-2.6 1.5-3.3 0-2.7 2.4.7 2.8 2.4.3 2.4.4 2.7 12.6l.2 12.2-3.4 3.6-3.4 3.5 1.7 7.4c1.3 5.7 2.1 7.4 3.4 7.3 6.5-.3 6.6-.3 7.6-4.2 2-7.4 1.7-10.9-1.2-14-2.6-2.7-2.7-3-2.7-15s0-12.3 2.5-13.2c3.1-1.2 3.2-2.8.3-3.2-3.2-.5-3.5-2.8-.4-2.8 3.2 0 3.4-1.8.2-2.9a5.3 5.3 0 0 1-2.9-3c-.3-1.3-1-2-1.6-2zm442.9 1c-15.8 0-17.1 0-16.8 1.6.3 1.6 1.8 1.8 13.3 1.8 14.7.1 19.7-.5 20.3-2.3.3-.9-3.5-1.2-16.8-1.2zm-113.9 2c2.7 0 2.9.4 2.9 3 0 3.2-1.9 8.2-4.2 11.2-1.3 1.8-1.6 1.8-7.3 0-5.7-2-6.6-2-18.9-.7-14.5 1.6-15.6 1.3-15.6-4.2 0-4 .2-4 16-4.8a47 47 0 0 0 16.5-2.5 30.5 30.5 0 0 1 10.6-2zm7.5 1.4l.3.1c.3.3-.1 1-.9 1.4-.8.5-1.7.7-1.9.4-.3-.3.1-.9.9-1.4a3 3 0 0 1 1.6-.5zm107.2 5.9c-2.5 0-5.1.1-7.9.5-5.7.8-11.3 3.6-10.3 5.2.3.5.2 1-.3.8a6 6 0 0 0-1.9 0c-1.8.2-6.5 7.6-7.5 11.8-1.1 4.7-1.1 47.4 0 60 1 11.3 4 17.1 11.6 22l5 3.3h-5.3c-5 0-5.3.2-5 2.2l.3 2.3h22c21.9 0 22 0 22.3-2.2.3-1.9-.2-2.2-4-2.5l-4.3-.3 4.2-2.3c7.5-3.9 8.7-7.6 9.1-28.2.4-19.5-1.2-50.4-2.9-56.4-3-10.5-11.8-16.2-25.1-16.2zm-1 3.7c4.3 0 8.7.5 11.8 1.5 2.7 1 5.5 2.1 6.2 2.7 5 4 7.1 19.2 7.2 52 .1 30.5-.2 31.8-9.7 37.4a32.7 32.7 0 0 1-23.6 2 31.8 31.8 0 0 1-13.9-12.7c-2.4-6-3.1-60.2-.9-68a23.6 23.6 0 0 1 13.7-13.8c2.6-.7 6-1 9.3-1zm3.2 11.1a64 64 0 0 0-8.9.7l-4.5.6.3 7c.1 3.8.4 7.2.6 7.5.2.3 4.3.3 9.1 0l8.8-.5-.3-7c-.1-3.8-.5-7.3-.7-7.7-.3-.5-2-.6-4.3-.6zm-207.3 15.1v.1h.9c3.5.2 4 .5 4.6 3.4a33 33 0 0 0 5 9.2c6 8.2 11.1 10.7 24.9 12 5.8.6 14.6 2 19.5 3.2 5 1.1 14.4 2.7 21 3.5l16.5 2.2 4.5.7 1.1 17a3671 3671 0 0 1 4.1 75 43 43 0 0 0 1.7 13.7c.6.4.8.8.6 1-.3.2-7.9.1-17-.2-9.1-.4-31.3-.6-49.5-.6l-33 .1-.3-40.5c-.3-51.4-1.2-82.2-2.3-83.5-.5-.5-.9 5-.9 13.3v14.1h-3.7c-2.1 0-4.3-.4-5-.8-.9-.6-1.2-6-1.1-20.5l.1-19.8 2.6-1.4c1.2-.7 3.7-1.2 5.7-1.2zm213.1 7.7l-3.1.2-9.3.5-6.2.4-.4 6.2c-.8 10-1 9.8 9.5 9.5l9.1-.3.2-8.3zm-5.7 7c.6.1.9.4.6.6-.3.3-1.2.4-1.9.1-.8-.3-.5-.6.6-.6h.7zm-12.7 16.3c-.4 0-1.1.5-1.8 1.2-1 1-1.6 3.4-1.6 6.3 0 2.6-.3 8.8-.6 13.7-.5 7.6-.4 9.3 1 10.4 1.4 1.2 1.6 1 1.6-2.2 0-5.7.8-6.7 5.1-6.7 2.5 0 3.9-.5 3.9-1.3 0-1.4-6.6-20.6-7.3-21.3h-.3zm15.4.8c-.5 0-1 .5-1.6 1.2-1.5 1.7-1.8 28.5-.4 30 1.1 1 1.8-.8 2.4-6.3.2-2 .9-2.6 3.6-2.8 1.7-.2 3.2-.6 3.2-1l-2.6-11c-2-7.4-3.2-10.3-4.6-10zm-452.6 3c-10.1 0-23.8.3-25.1.7-2 .6-1.2 3.8 1.7 6.4 4.2 4 6.6 4.8 13.5 4.8 8.3 0 16.9-3.6 19.2-7.9a23 23 0 0 0 1.5-3.6c0-.2-4.8-.3-10.8-.3zm9.2 18l-.6.1c-1.3.1-10.3.4-20 .5l-17.8.3v5.1l18.8-.6c10.3-.4 19.3-.8 20-1 .6-.3 1.2-1.4 1.2-2.5 0-1.3-.5-1.8-1.6-1.8zM469 320.8c.4.1 1.3 2 2.1 4.6 1 3 3 8.4 4.7 12a375 375 0 0 0 20.3 34.7 38 38 0 0 1 5.2 21l-.4 4.3h-13.3c-9.5 0-13.6-.4-14.1-1.2a164 164 0 0 1-1.6-22.2c-.5-11.5-1.5-27.9-2.2-36.5a130.4 130.4 0 0 1-.7-16.7zm-340.4.1l-16.6.4c-15.6.6-16.5.7-16.5 2.6 0 2.2-2.1 2.1 24.1 1.7 14.5-.2 14.5-.2 14.2-2.5-.2-1.6 0-2.2-5.2-2.2zm420.8 18.5c-1.5 0-1.6 1-1 7.7.3 4.2.6 9.8.6 12.5 0 4 .3 4.8 1.9 4.8 1.5 0 1.9 1.1 2.4 6.7.4 3.8.7 10 .7 14 0 6.1.3 7.4 1.9 8.3 2.7 1.4 3.6 1.3 2.1-.4-.6-.8-1-2.5-.8-3.8.2-1.9 1-2.4 4.1-2.6 4.2-.4 4.2-.4 2.3-4a70.1 70.1 0 0 1-5.1-16.5c-.5-3-.9-3.7-2.5-3.2-2.7 1-4.2-2.5-3.8-8.7.3-5 .4-5.3 4.1-6 3-.8 3.7-1.5 3.7-3.4 0-1.8-.7-2.5-2.7-2.9-1.6-.4-3.6-1-4.5-1.6a9 9 0 0 0-3.4-.9zm18.5 0c-1.9 0-1.9.6-1.7 11.2.2 9.3.6 11.3 1.8 11.3 1.1 0 1.6-1.5 1.8-6.5.2-3.6.8-6.8 1.5-7.2.7-.4 2.9-.8 5-.8 2.9 0 3.7-.4 3.7-1.8 0-2.7-2-4.2-5.6-4.2-1.8 0-3.6-.5-3.9-1-.3-.6-1.5-1-2.6-1zm22.2 0c-1.7 0-1.8.7-1.5 10.2l.4 11.5c0 .7.9 1.3 2.1 1.3 1.9 0 2-.4 1.4-6.5-.7-6.3-.7-6.4 1.9-7 1.5-.4 3.2-.2 4 .4 1.8 1.5 2.6.4 2.6-3.5 0-2.9-.4-3.5-2.7-3.9-1.6-.4-3.6-1-4.5-1.6-1-.5-2.6-.9-3.7-.9zm-13 21.1c-.5 0-1.5.7-2.9 2.2-2.1 2.2-2.2 3.3-2.2 17.5v15.2h3.1c2.6 0 2.9-.2 2-1.4-.7-.8-1.1-2.7-.9-4.3.2-2.2.9-2.9 3.3-3.3 3.7-.7 3.7-2.2.7-13.2A62.1 62.1 0 0 1 578 363c0-1.6-.2-2.4-.8-2.4zm29.8 1.5c-.2-.2-4.2 4-8.9 9.1-8.7 9.8-13 15.2-13 16.5 0 .4.7.8 1.5.8s1.5-.4 1.5-.8c0-1.8 4.2-5.2 6.6-5.2 2.2 0 2.4.3 1.8 2.7-.4 1.6-1.1 3.6-1.5 4.5-1.3 2.4-1.1 2.8.9 2.8 1.3 0 2.8-3.4 6.6-15 2.7-8.3 4.7-15.2 4.5-15.4zm-7.3 11.4c.2 0 .4.6.4 1.4 0 2-3.7 6.3-4.5 5.4-.7-.6 3.1-6.8 4.1-6.8zM77.3 398c42.4 0 131.1.4 181.3 1 58.3.6 201.4 1.7 294.5 2.2 33.8.2 62.9.5 64.7.8a8 8 0 0 1 4.9 3.3c.9 1.5 4.7 6.7 8.4 11.7 3.7 5 9.5 13.3 13.1 18.5 3.5 5.2 9 13 12.1 17.1 3.2 4.2 5.8 8.2 5.8 9 0 1.1-42.1 1-155-.5-64-.9-286.4-2-392.8-2-59.5 0-108.1-.3-108-.6L18.6 442l18.3-24.5c11.5-15.8 14.2-19 16.5-19.4.7 0 9.7-.2 23.9-.2zm82.6 7c-4.4 0-7.8 0-9.1.2l-3.8.4V420c0 12.1.2 14.4 1.5 14.4 1.2 0 1.5-1.8 1.7-9.8l-.1-12.4c-.2-2.2.3-2.8 2.3-3.3l5-1c3.3-.7 7.2 1 10.8 4.5 2.8 2.8 2.9 3.5 3.1 11.4.2 7.7.4 8.5 2.2 9 2 .2 2.1-.2 2-8.3-.1-7.5.2-8.9 2-10.6 5-4.7 6.6-5.5 11-5.5 3.6 0 4.5.4 4.6 1.7l.4 13.6a81 81 0 0 0 .9 12.4c.3.3 1-.6 1.6-2 1.3-3.7 1.3-27.4 0-28.2-1-.6-23-1-36.1-1zm70 .5c-2.7 0-5.2.5-7.1 1.7-3.8 2.4-4.6 5-5.3 16.5-.5 7.8-1.2 11-2.6 13-1 1.5-1.9 3.2-1.9 3.8 0 .7 10.3 1 33.5 1 35.1 0 36.2-.3 31.6-4.4-1.4-1.3-2-3.8-2.5-10.8-1.1-14.6-3.9-18.8-12.9-19.6-4-.3-6.5.2-11 2.2l-5.7 2.6-5.4-3c-3.4-2-7.2-3-10.7-3zm62.3.5c-2 0-3.5 0-3.7.3-1.3 1.4 1.3 2.2 7.1 2.2 4.1 0 6.3.4 5.9 1-.3.5-4.1 1-8.4 1-9 0-11.4 1.2-10.9 5.5.2 2.3.9 3.1 3.8 3.8 6 1.5 19 .4 24.3-2.2 4-1.9 5.6-2.2 10.7-1.6l6 .7v-9.4l-7.5.7c-4.6.4-8.1.3-8.8-.3-.9-.8-12.4-1.7-18.5-1.7zm-123.1.7l.1.1 1.7.1c1.4.2 3.9.5 5.5.5 2.8.1 2.9.1 1.1 2.1-2.2 2.5-3.6 2.5-7.5.2-2.8-1.7-3-2.9-.9-3zm61.5.4c2.5 0 5 .8 8.4 2.7 1.9 1 4.1 2.4 4.8 3 1.3 1 1.7 12.1.6 17.6l-.7 3.2-6.6-.3c-6.6-.3-6.6-.3-6.6-3.3 0-2.5.5-3 3-3.5 2.6-.4 3-1 3.3-4.3.4-4.5-1.1-6.7-4.4-6.7-1.7 0-2.4.6-2.4 2 0 2.1-1.5 3.3-4.2 3.5-2.5.2-2.5.3-3 7.2l-.4 6.3 19.5.1c28 .3 30.5.4 31.9 1.2 3.4 2.2-1.8 2.7-29.1 2.7-27.7 0-29.1-.2-27.2-1.8 1.8-1.5 2-2.9 2-11.9 0-11.6 1.5-14.9 7.6-17 1.2-.4 2.3-.6 3.5-.7zm30.2 1.5h1.2c2.6 0 4 .8 6.6 3.1 4.1 3.8 5.5 8.8 4.7 16-.5 4.2-.9 4.8-2.9 4.8-1.9 0-2.4-.7-2.9-3.8-1-5.8-1.3-6.2-4-6.2-1.8 0-2.5-.5-2.5-1.9 0-2.5-2.4-4.3-5.2-3.9-2.1.3-2.3.8-2.3 5.8 0 5.4 0 5.5 3 5.5 2.4 0 3.1.5 3.3 2.3.4 3-1.5 3.6-8.4 2.7l-5.6-.7.5-8c.3-4.6.8-9 1.2-9.9.9-2.4 8.5-5.8 13.3-5.8zm96.8 1c-1.7 0-3.6.3-4.8 1-1.5.8-1.8 2.5-1.8 10 0 5 .4 9 .8 9 2.2 0 3.2-3 3.2-9.3 0-5.4.3-6.8 1.5-6.8l1.6.2.6 18.8a145 145 0 0 0 1.3 19.4c.5.4 1.3.5 1.9.2 1.6-1 1.5-39.8-.1-41.4-.7-.8-2.4-1-4.2-1zm37 1c-1.4 0-2.8.3-4.3 1-2.2.8-5 4.8-3.6 5l3.3.2c1.8.2 2.5.8 2.5 2.2 0 1.6-.8 2.1-3.7 2.3-2.1.2-3.8.6-3.8 1l2 8.2 3.6 14.5c1.5 7 2 8.2 2.9 7.4.2-.3 2.4-7.3 4.8-15.6l4.3-15.2-3-.3c-2-.2-3.2-.9-3.4-2-.3-1.5.4-1.8 3.7-1.8 4.9 0 5.1-1 1-4.4-2-1.7-4-2.5-6.3-2.5zM99.7 413c-16 0-33.4.1-38.4.3-5.1.1-9.3.7-9.3 1.2 0 2.7 10.9 11 20.2 15.4a43.9 43.9 0 0 0 39.3-.4c6.6-3 17.5-12.3 17.5-15 0-1.3-4.4-1.5-29.3-1.5zm346.1 2.6l-4.6 1.1c-10.7 2.4-11.1 18.3-.6 23.3 3.6 1.7 4 1.7 9.2.1 4.5-1.5 5.6-2.3 6.8-5 2.2-5.5 1.8-10-1.3-13.7-2-2.3-7.6-5.8-9.2-5.8zm-157.8 1c.6 0 1 .1 1 .3 0 .3-.4.8-1 1.1-.5.3-1 .1-1-.4 0-.6.5-1 1-1zm-199.4 1.1c.8 0 1.7.7 3.1 2 2.9 2.8 2.9 5-.1 8.5l-2.5 2.8-3.2-3.2-3.2-3.2 2.4-3.5c1.6-2.4 2.5-3.4 3.5-3.4zm215.1 11.2c-6 0-11.3.3-12.7.6-4.2.8-8 2.7-8 4a210 210 0 0 0 40.5 0c1.7-.7 2.5-1.6 2.3-2.8-.3-1.5-1.9-1.7-15.8-1.8z"/>
</svg>
