<svg xmlns="http://www.w3.org/2000/svg" version="1" width="1589.3" height="1250.7" viewBox="0 0 1192 938">
  <path d="M715.5 95.7l4.3.9c1.3.3 2.2 1.2 2.2 2.3 0 1.1.4 2.1 1 2.3.5.1-5.8.3-14.2.3a148 148 0 0 0-21.7 1.1c-18.8 3.3-29.3 6.8-34.6 11.4a67.5 67.5 0 0 1-8.3 5.9 52.9 52.9 0 0 0-9.6 8.3 155 155 0 0 0-19.3 35.8c-3.2 9.1-7.5 30.4-7.1 35.3.3 3.8.5 4.1 4.9 5.3 4 1.2 5.1 2.1 8.2 7.3 4.5 7.2 4.6 10.2.7 17.6-1.6 3.1-3 6.8-3 8 0 1.3 1.8 4.4 4 7 2.3 2.6 4 5.7 4 7 0 3.1 5.1 7.9 11.3 10.7 3.7 1.7 5 2.9 5.4 5.1.4 2.1 1.7 3.3 5.2 5 3.3 1.6 5.2 3.4 6.7 6.2l2.1 4 8-.3c4.4-.2 9.1.2 10.6.7 1.9.7 4 .6 7.7-.5 7.4-2.2 11.2-1.6 12.5 1.9.8 2.3.6 3-.7 3.8-6.9 3.9-10.2 7.6-12 13.4a44 44 0 0 0-1.8 10.2c0 3.5-.5 4.5-3 6.3a79.5 79.5 0 0 0-15.2 16.3c-1.1 2-1.5 4.4-1.2 6.3.7 3.6-.6 4.9-5.9 5.7-2.6.4-5.1 0-8-1.3-5.1-2.4-14.1-2.6-18.1-.5-4.6 2.4-6.1 1.8-9.7-3.5-2.1-3.1-4.3-5.2-5.9-5.5l-6-1.7c-1.9-.7-5.7-1.2-8.5-1.3h-5l-.3-3.7c-.2-2.9.1-3.9 1.8-4.8 1.1-.6 2.6-.8 3.2-.4a21 21 0 0 0 5.8 1.5c5.7.9 10.3-.9 12.3-4.8 1.7-3.2 1.1-5-3-9.5l-2.5-2.6 2.8-1.4c3.6-1.7 3.9-3.5 1.4-7.5a15 15 0 0 0-14.6-6.7c-2.7.4-4.9.2-5.7-.4-.7-.6-4-1.1-7.3-1-3.2 0-7.9-.2-10.4-.6-3.6-.6-5.1-.3-7.8 1.4-2.9 1.8-3.2 2.4-2.7 5.3l.7 3.3-6.2 1.7c-9.2 2.6-14 8.7-9.9 12.8 2 2 2.7 2 10.7.2 1.9-.4 2.2-.1 2.2 2.4 0 5.1 2 6.6 9.4 7.1l6.6.4v4.3c0 2.4.3 5.1.7 6.1.6 1.5.1 1.7-4.9 1.1-4.9-.5-5.8-.3-8.2 1.9-1.4 1.4-2.7 3-2.7 3.7l-.5 8.4a22 22 0 0 1-4.6 14.4c-1.6 2.3 2.3 8.5 6 9.3 1.5.4 5.1 1.6 8 2.8l5.2 2-.7 25.2a741 741 0 0 0 0 68.1c2.1 28.7 2.9 35.8 4.7 39.7 1 2.3 1.7 4.6 1.5 5.2a316.6 316.6 0 0 0-8.9 33.6l-3.4 17a132 132 0 0 0-1.7 25.7c0 16.2-.2 18.3-1.6 18.3-1.2 0-1.9-1.6-2.8-5.6-2.1-10.7-7.2-15.7-16.3-15.9-3.7-.1-4.5.1-3.7 1.1 1.5 1.9-9.3 13.8-20.6 22.9a77.7 77.7 0 0 0-10.9 9.8c-1.2 1.8-1.3 4-.6 11.7a61 61 0 0 0 2 12.2c1.1 2.3 1 3.1-.3 5.2a32.6 32.6 0 0 1-11.6 8.6c-1.8 0-2.2-5.6-2.3-27.2 0-16.4.4-22.8 1.7-27.8 2.4-9.9 4.5-39.6 3.3-48.3l-1.7-13.7-.8-6.5 3.7-3.8 3.7-3.9 12.3 2.9c12 2.7 12.2 2.9 14.9 6.8 2.6 3.9 2.9 4 8.1 4h5.5l.3-5.2c.4-6.4-1.5-10.4-7.5-15.6-4.1-3.7-5.6-6.7-3.2-6.7 2.8 0 7.4-4.8 10.1-10.6 2.7-5.8 2.9-6.8 2-12.1-1.2-7.2-5.2-22.5-6.2-23.8-.5-.6-3-1.6-5.7-2.3-2.6-.7-9.1-2.9-14.4-4.8-10.9-4-14.2-3.7-16.2 1.6-.6 1.7-1.7 3-2.4 3-2.4 0-11.9-4-16.3-7a16 16 0 0 0-8.1-3c-4.8 0-10.1 3.7-11.5 8-1.3 4 .2 3.8-18.5 2.6-9.5-.6-11.7-.5-12.7.7-.7.8-1.5 5.2-1.8 9.8-.4 5.6-1.2 9.7-2.6 12.2-3.4 6.4 0 15.5 6.8 18.3 3.3 1.4 3.9 3.4.9 3.4-.7 0-2.8 1.4-4.5 3.1-2.8 2.8-3.4 3-5.6 2-4-1.8-7-1.3-12.5 2.1-4.4 2.7-6 3.1-11 2.9-5.1-.2-6.2.1-8.4 2.3a8.2 8.2 0 0 0-2.5 5.4c0 2.2-.6 3.1-2.2 3.6-5.4 1.4-5.8 1-5.8-5.2 0-3.2.4-9.3.9-13.7a358 358 0 0 0 1.6-20.4c.3-6.8.8-13.4 1-14.5a466 466 0 0 0 3.5-30.1l2.8-24.4 1.7-14.4 4.8-1.5c6.2-2 10.7-6.9 10.7-11.9 0-3.2.2-3.5 2.3-2.9 5.1 1.6 9.5 1.7 15.2.3 8-1.8 8.4-4 1.9-10l-4.6-4.4 1.6-3.1c3.3-6.5-2.4-10.6-14.4-10.4-5.4 0-7.9-.3-9.2-1.4-1.3-1.3-3.4-1.4-10.5-1-4.8.3-12.9.6-18 .5-9-.1-9.2 0-12.8 3.3-4.2 3.8-4 6 .6 8.4 4.5 2.3 3.9 3.4-4.8 9.5-4.8 3.3-5.6 6.4-2.3 9.4 2.6 2.3 2.5 4.2-.1 5-1.6.5-3.1-.3-6.3-3.4-3.1-3-5-4.1-7.3-4.1-5.2 0-8 1.6-8.8 4.8-.6 2.8-.8 3-8.2 3.6a35 35 0 0 0-10.2 2.2l-5.3 2.4c-3.5 1.2-3.6 3.6-.3 7.9l2.4 3.4-4.4 5a19.9 19.9 0 0 0-4.5 6.3c0 2.6 4.1 4.4 8.8 3.7 4-.5 4.5-.4 3.9 1.1-1.1 2.9.4 6.6 3.4 8.1 3.2 1.7 6.3.9 9.3-2.4 2.5-2.8 4.4-2.7 6.8.4 1.8 2.3 2.4 2.4 7.4 1.9 6.3-.8 6.4-.6 3.8 9.1-1.2 4.6-1.6 10.8-1.6 26.7v20.7l-3.2.3c-2.3.2-3.1.8-3.1 2.3 0 1.6 1.3 2.7 6.3 5.2.6.2 3 12.8 2.6 13.2-.2.2-2-1.2-3.9-3.2-6-6.2-7-4.8-3 4.8 2.8 6.9 3.4 15.5 1 15.5-2.3 0-5.6-7.7-6.3-14.9-.4-3.6-1.1-6.5-1.7-6.4-.5.1-1.3 2.8-1.7 6-.9 7-2.3 10.3-4.3 10.3s-2-5.8 0-10.7c3.7-8.8.6-8.4-3.9.6-4.9 9.5-8.6 10.5-8.6 2.1 0-4.3 2.7-8.9 7.4-12.6 5.8-4.7 3.8-6.1-3.4-2.4-4.4 2.3-11 2.7-11 .7.1-2.2 7.3-6.1 12.5-6.6 5.5-.7 6.5-2.4 2.5-4.4-3.2-1.6-4.1-7.3-1.4-8.4 1.3-.5 2.9.6 6.1 4.1 3.9 4.4 6.3 5.2 6.3 2.2 0-.7.9-2.2 2-3.4 1.5-1.6 2.8-2 4.6-1.6 1.9.5 2.3.3 1.8-.9-1.1-3.1-4.9-2.9-9.6.5-1.4 1-2.3.6-5.7-2.5-6-5.4-9.6-4.8-11.1 1.8a12 12 0 0 0 0 6c1.1 2.9.3 3.7-5 5.5-8.1 2.7-10.5 12-3 12 5.6 0 6.1.7 3.9 5.3-1 2.3-1.9 5-1.9 5.9 0 1.4-.9 1.8-3.9 1.8-2.2 0-4.3.4-4.6 1-1.3 2.1-5 .9-7-2.3-2-3.1-2.3-3.2-8-2.9-3.3.2-7 1-8.2 1.8-1.4.8-4.3 1.4-7.2 1.3-5.3-.2-11.2 2.6-13.1 6.2-.6 1-2.4 2.5-3.9 3.4-1.6.8-5.4 4.5-8.4 8.1-4.7 5.7-5.5 7.2-5 9.6.4 1.9-.2 4.2-1.7 7.1-2.5 4.7-2.3 8.3.7 11.3 1.3 1.3 2.8 1.5 7 1.1 2.9-.3 5.3-.3 5.3.1s-.9 3.2-1.9 6.2c-1.5 4.6-2.2 5.6-4.4 5.8-2.3.3-2.6-.1-3.4-5-1-6.7-3.2-7.5-5.7-2-3.3 7.2.8 12 9 10.7 3.8-.5 4.8-.3 5.9 1.2 2 2.7 13.4 2.6 16.4-.1 3.2-2.9 1.1-4.1-6.5-3.7l-6.6.3.7-4.4c.4-2.3 1.8-6.2 3.1-8.5 2.5-4.3 11.7-11.9 13.3-10.9 1.7 1.1 2.1 7.2.6 12.6-3.3 12.3-.6 15.1 3.3 3.4 1.6-4.7 2.2-8.4 1.9-11.7-.6-6.9 1.9-5.9 6.1 2.3 2.8 5.7 3.2 7.2 2.8 12-.4 4-1.1 6-2.7 7.2-2.3 2-6.4 2.4-7.4.8-.3-.6-1.5-1-2.6-1-2.7 0-2.5 3.8.4 6.1 2.6 2 4.3 8 7.7 27.9 2.1 12.5 5 24.2 7.8 31.7 1.6 4.3 2.1 4.8 5.1 5.1 2.6.3 3.5.9 4.3 3.3 1.2 3.5 2.5 3.7 3.9.6.9-1.9.4-5-2.1-14.8-5.6-21.6-11.6-55.1-10.3-57.3.3-.4 2.6-.6 5-.2 7 .9 11.9-2.6 16.8-12.3 1.6-3.3 1.6-3.5-.6-8.3l-2.3-4.8 2.7-2.8c5.6-5.9 6-10.8 1.2-16.1-3.5-3.9-3.5-3.9-2-7.3 1.1-2.1 3-3.9 5.4-4.9 3.6-1.5 3.7-1.5 5.4.8a6.2 6.2 0 0 0 4.4 2.3c2.2 0 2.4.3 1.9 2.2a72 72 0 0 0-3.3 29.3c1 24.9 9.1 76.8 12.4 79.2 4.4 3.3 5 .4 2.3-11.9-6-28.5-10.4-61.9-10.2-78.7 0-6 3.1-20.1 4.3-20.1 1.8 0 1.9 2.4.4 9.4-2.9 14.3-1.3 41.6 4 69.1 5.2 26.6 7.6 33.7 10.6 30.7 1.1-1 .9-3.2-.9-11.5l-3.7-16.7c-6-28-8.2-55.9-5.7-72.5.6-4.3 1.1-5 3.2-5.3 4.2-.6 5-2 5-8.5 0-9.7 1.7-5.5 3.5 8.8a199 199 0 0 0 6.4 32.9c.6 1.5 1.6 6 2.1 9.9.6 3.9 1.7 7.8 2.5 8.7.8.9 1.8 3.8 2.2 6.5.4 3.2 1.4 5.6 3 7.1 2.5 2.3 3.1 6 1.1 6.7-1 .3-1 .7 0 1.9.9 1.1 1 2.8.2 6.8-.8 4.3-.7 5.7.7 8.1 2.9 4.9 6.7 4.8 6.3-.2-.4-4.5.1-54.3.5-54.7.2-.3 1.1 0 1.8.7 1.1.8 1.5 6.7 2 26 .5 24.5 1.3 29.8 4 28.8.7-.2 1.1-1.8.9-3.8-.7-7.6-1.3-42.5-.7-44.6.9-3.6 7.4-3.2 11.3.6 3.1 3.2 8.6 5.1 14.5 5.1 2.8 0 3.7.4 3.7 1.7.4 11.8 2.3 36.8 3.5 44.3a286 286 0 0 1 2.4 24.2c1 16.1.8 15 5.6 36.3l4 18.7c.6 3.6 2 5.6 3.2 4.4.4-.3-.1-5.9-1-12.4L439 683l-2.5-20a596.7 596.7 0 0 1-5.1-43.6c-.4-7.1-.3-10.3.5-10.8.7-.5 1.1.5 1.1 3.1 0 4.8 1.6 16.8 4 30.3 3.3 18 4.9 27.3 5.5 33 .3 3 1.3 8.9 2.1 13 .8 4.2 1.8 12.2 2.3 17.8.5 5.9 1.6 11.2 2.4 12.5a20 20 0 0 1 2.2 5.7c1 4.9 3.5 9.4 4.5 8.4 1.1-1.1-2.3-24.7-6.1-41.9-.4-2.2-1.3-8.1-1.9-13-.9-7.9-2.6-17.9-6-35-3-15.4-5.7-50.7-4.1-53.4.3-.5 2.6-1.2 5-1.6 2.6-.4 6.2-2.1 8.8-4.1 3.5-2.7 5.5-3.4 9.1-3.5 7.3-.2 10.6-1.2 11.6-3.5a7.5 7.5 0 0 1 3.6-3.1c3-1.1 8-10 8-14.3 0-1.4-.9-4.3-1.9-6.4-1.9-3.7-1.9-3.8.1-7.2 2.9-4.9 2.1-11-2.3-16.8-3.8-5-6.6-6.1-13.3-5.1-4.2.7-4.6.5-5.5-1.7a30 30 0 0 0-3.7-5.8c-2.8-3.2-2.8-3.3-.4-2 1.5.8 5.3 1.3 9.3 1.3 5.6-.1 7.2.3 9.5 2.1a70 70 0 0 0 6.7 4.6c5 3 5.1 3.2 5.9 9 .5 3.6 1.5 5.5 4.2 8.3 4.4 4.4 5.1 7.2 6 25.8.7 13.7-.2 28.1-3.2 50.3a65 65 0 0 0-.9 12.5c.2.9.9 9.2 1.5 18.6.6 9.3 1.6 19.6 2.2 22.8l1.2 5.7-4.7 4.8a21.9 21.9 0 0 0-4.7 5.9c0 .5 1 3.3 2.1 6.2 2 4.6 2.6 5.3 7.1 6.9 2.8.9 5.4 2.4 5.9 3.3 3 5.7 1.7 30.5-2.2 39.5-2 4.7-2 6.2 0 4.9 3-1.8 7-16.4 7.2-26 0-2.2.4-4.9.9-6 1.4-3.4 1.1 10-.5 20.5-1.8 11.9-1.9 16.3-.3 15.8.7-.3 1.6-1.8 2-3.4 1.8-7.9 3.8-29.4 3.8-41.6 0-12.9.1-13.8 2.1-14.8 1.5-.9 2.4-.8 3.6.2 1.5 1.2 6.8 2 24.1 3.4 7.4.6 7.4.6 8.9 4.3 1.8 4.2 1.2 18.1-1.2 29.8a148 148 0 0 0-2.1 15.6c-.6 7.6-.5 8.7.9 8.7 2.2 0 4-3.7 3.3-6.6A84.7 84.7 0 0 1 560 723c.7 0 .4 4-1.6 18.3-1.6 11.2-1.2 17.8 1.1 19.7 1.9 1.6 2.3.3 2.6-7.5.1-3.9.9-11.7 1.9-17.5l3-18c.7-4.1 1.6-9.1 2.1-11 .5-1.9.9-5.6.9-8.2 0-3.9.4-5 2.4-6.4 1.4-.8 3.4-3.1 4.5-5 2.3-3.8 5-4.4 6.9-1.4.8 1.3 2.3 2 4.5 2 4.8 0 8.3-4 9.9-11.5 1.3-5.8 1.4-5.9 5.5-7 4.9-1.2 10.3-5.9 10.3-9.1 0-2.6 1.3-3.8 6.2-5.3 6.7-2.2 9.9-11.2 7.4-21-1.4-5.5-5-12.9-6.4-13.3-1.9-.4-7.6-.8-15.4-.9-7.7-.1-8.8-.3-8.8-1.9 0-1-.8-2.8-1.8-4-1.5-1.9-2.9-2.2-9.2-2.4l-7.5-.2-.3-4.4a362 362 0 0 1 4.7-48c2.3-13.2 8-34.4 11.4-42.2 1.3-3 2.7-7 3.1-9a9 9 0 0 1 2.3-4.9c.9-.8 3.9-6.1 6.6-11.9a98.7 98.7 0 0 1 6.3-12.1 19 19 0 0 0 2.4-7.5c2.5-14 3.3-17.4 5.7-25.4 4.1-13.5 9.2-24 18.8-39a141 141 0 0 0 8.4-14.5c1.2-2.8 3.5-6.7 5.1-8.7 3-3.7 12-21.3 12-23.5 0-3.6 20-26.3 23.2-26.3 3 0 2.2 4.3-4.2 23.3-3.3 9.8-6 18.7-6 19.8 0 1-1.5 5.8-3.4 10.7-4.7 12.3-4.8 12.4-3.4 12 1.5-.5 6.8-13.5 15.8-38.3 10.8-30.1 15.2-39.6 18.3-39.5.7.1 2.3 1 3.6 2.1l2.5 2 .3 53.7c.2 50.2.4 54.2 2.3 60.6 1.1 3.8 3.1 8.6 4.6 10.7 2.4 3.5 2.6 4.4 1.9 9.4-.3 3-.3 8.1.1 11.2.6 4.9 1.2 6.3 4.3 9.3 9.3 8.9 11.3 14.7 11.8 35 .5 22.4 3.2 36.1 8.8 45 4.2 6.7 14 16 16.8 16 1.4 0 3 .6 3.4 1.3.4.7 2.9 1.8 5.4 2.4 8.1 2.1 15-1.4 13.6-6.9-.4-1.2.1-2.1 1.1-2.5 6.3-2.2 6.9-7.2 1.3-10.9-4.8-3.1-5.8-5.7-6.4-15.5-.4-8.1-3.5-16.2-6.9-18-1.1-.6-1.8-2.1-1.8-4 0-2.7.6-3.3 5.7-5.6 3.2-1.5 7.7-4 10-5.7 4.2-2.9 4.3-3.1 4.4-9 .3-13.9.6-15.6 3.5-19.7 1.6-2.3 3.8-4.8 5-5.6 3.8-2.4 9.6-23.6 11.3-40.8l1.6-15.5c.3-2.5.8-9.8 1.1-16.3.6-10.8 1-12.5 4-18.8 1.9-3.8 3.4-7.4 3.4-8 0-2.7 3.2-11.9 4-11.4 1.3.8 4.7 16.8 6 28a307.7 307.7 0 0 1 3.5 27.6c1.8 19.7 2.4 22.4 12 59.4 4 15.4 5.5 28.2 5.5 48.1 0 12.7.4 19.5 1.4 23 2.9 9.8 3.9 21.4 3.3 37.4-.6 13.8-1 16.7-4 26.5-5 16.3-7.5 20.5-12.2 20.5-.7 0-1.9-1.9-2.7-4.2-1.2-3.9-1.7-4.4-5.6-5.2-3.5-.7-4.6-.6-6.2.9-1.7 1.6-2.6 1.6-8.3.5-5.3-1-7.3-.9-12.3.4-3.3.8-6.9 1.3-8.1 1-3-.8-11.5 4-13.6 7.6-2.2 3.6-7.6 7-11.2 7a63 63 0 0 0-22.9 7.3 107 107 0 0 1-11.6 5.2c-3 1-3.5 1.5-3.4 4.1.1 1.6 1.9 6.7 4.1 11.4l5.6 12c1.9 4.4 4.9 7.1 10.7 10.2 3.7 1.9 6.1 2.3 14.1 2.4 8.6.1 10 .4 13.5 2.7 2.1 1.5 4.4 2.7 5.1 2.7 2 0 5.3 5.7 5.3 9.2 0 1.9-1.8 8-4 13.6-2.2 5.5-4 10.8-4 11.7 0 1.5-3.7 9.8-14.3 32.5a191 191 0 0 0-6.2 15c-1 3-2.7 7.3-3.9 9.5-1.3 2.6-2.1 6-2.1 9.5-.1 3-.5 8.3-.9 11.8-.8 5.4-.6 6.2.8 6.2 1.2 0 1.6-.9 1.6-3.6a168 168 0 0 1 7.9-29.9c3.2-8.4 9.9-23.3 16.7-36.8a251 251 0 0 0 11.9-29.1c4.7-13.9 5.5-17.3 5.5-23.7 0-7.2-.1-7.6-3-9.7-4.5-3.3-3.8-4.3 2.8-4l5.7.3-.3 4c-.5 7-4.3 23.6-7.9 34.3A507.2 507.2 0 0 1 782 768l-8 18-4 10c-5.6 13.4-10.2 36.5-8 40 .8 1.3 3-5 5-14.3 2-9.1 13.8-40.4 20.1-52.9a201 201 0 0 0 5.3-11.5c3.2-8.9 11.8-31 13.1-33.8a73 73 0 0 0 3-8.8c1-3.6 2.1-5.7 2.8-5.4 1.2.4 1.8 1.4 6.2 10.7 1.4 3 3.4 7.1 4.5 9 1.1 1.9 2.2 5.2 2.6 7.4.4 2.1 2.1 5.9 3.8 8.5 2.7 3.9 3.6 4.6 6.1 4.4 3.7-.3 5.9-2.7 7.4-8.1.8-2.7 3.3-6.5 6.9-10.6 6.3-6.9 15.7-20.2 17.7-24.9 1-2.5 1-3.9-.3-8.4-1.4-4.9-1.4-5.5.2-7.2a9 9 0 0 1 3.7-2.4c1.7-.4 1.9 0 1.9 3.8 0 4.7 1.9 7.2 3.8 5.3.7-.7 1.2-3.9 1.2-7.1 0-4.1.6-7 1.9-9.1 4.6-7.6 4.8-12 1.5-34.3-.5-3.2-4.6-6.6-9.7-7.8-1.9-.5-2.2-1.3-2.2-6.3 0-4.6.3-5.7 1.8-6 1.2-.3 1.7.3 1.7 2 0 4.2 2 9.8 3.5 9.8.8 0 1.5-.6 1.5-1.3l.6-11c.7-10.9.2-11.6-4.8-6.6-2.2 2.1-3.8 2.9-5.7 2.7-2.2-.3-2.6-.8-2.9-4.1-.2-2.5-.8-3.7-1.9-3.7-1.2 0-1.4-.6-.8-2.8.3-1.5 1-5.9 1.5-9.9.9-8.2 1.4-9.3 3.9-9.3.9 0 3.3-1.4 5.2-3.1 7.8-7.1 12.8-9.1 17-6.9 2.8 1.5 2.4 2.2-2.6 4.9-5.1 2.7-6.3 5.8-1.7 4.6 9.5-2.4 15.2-1.4 15.2 2.9 0 2.2-.6 2.5-6.2 3.2a288 288 0 0 0-10 1.2c-1 .1-1.8.9-1.8 1.8 0 1.3.9 1.5 6.4.9 5.7-.6 6.6-.5 8.5 1.4 5.2 5.2.1 12.6-5.6 8.1a9.3 9.3 0 0 0-4.4-2c-1 0-2.1-.5-2.4-1-1-1.6-2.7-1.1-2.3.7.2.9 1.6 2.4 3.2 3.2 3.4 1.9 4.7 4.7 3.5 7.8-.9 2.4-3.3 3.1-4.4 1.3-.9-1.5-2.5-1.2-2.5.5 0 .8 1.1 2.1 2.3 3 2.1 1.4 2.8 1.4 5.9.1 3.6-1.5 4.8-3.2 4.8-6.7 0-1.3.7-1.9 2.4-1.9 4 0 8-4.1 7.7-7.8-.4-5.5-.3-8.6.4-11.8.5-2.4.1-3.7-1.9-6.1a12.8 12.8 0 0 0-5.4-3.8c-2.3-.5-2.7-1-2.7-4.3 0-3.5-.2-3.8-4.3-5.1-3.9-1.2-4.8-1.1-8.5.5-4.5 2.1-5.4 2-4.9-.2.2-.9-.4-2.6-1.3-4-1.8-2.8-5.9-3.2-8.9-.9-2.7 2.1-3.6 1-3.6-4.5 0-2.7-.8-8.7-1.9-13.2-1.4-6.1-2-14.1-2.5-29.8-.5-20.8-2.9-39.9-5.5-44.9-1-1.8-3.3-11-7.2-29.1-2-9-3.9-23.6-6.3-46.6-2-19.2-5.6-33.2-13-50.9-9.2-22-8.4-19.6-16.8-51.5a64.5 64.5 0 0 0-22.4-37.2 257.8 257.8 0 0 0-16.8-14.8c-5.3-4-6.5-6.2-4.8-8.5a72.8 72.8 0 0 1 17.9-9c1.8-.3 5.5-2.7 8.3-5.2a35.7 35.7 0 0 0 11.7-22.8c.7-7.2-.4-10.9-4.7-16.5-4-5.3-20.6-33.1-23.5-39.2a45 45 0 0 0-5-7.8l-8.4-11.5a86 86 0 0 0-23.4-21.9 50.5 50.5 0 0 0-13.4-6.6c-2.3 0-1.4-2 1.3-3 4.4-1.7 1.6-3-6.4-2.9-4.2.1-6.8.3-5.7.6z" fill="none" stroke="#ffffff"/>
  <path d="M640 188.6c0 4.8-1.4 4.3-1.8-.7-.2-2.6.1-3.8.8-3.4.5.3 1 2.2 1 4.1zM666.3 195.3c3.2 4.7 2.8 5.9-1.1 3-3.2-2.3-7.2-8.9-7.2-11.8 0-1.7.5-1.4 2.8 1.4l5.5 7.4zM646 200.2a66 66 0 0 1 6.8 10.7c2.2 4.8 2.7 5.3 5.2 4.8 3.8-.8 8.9 2.5 9.7 6.3.6 3.2 3.8 4.8 6.9 3.6 1.4-.5 1.5-1.6.9-6.4-.4-3.1-1.5-7.1-2.6-8.8-1-1.7-1.9-4-1.9-5 0-1.5.7-1.2 3.1 1.6a68.9 68.9 0 0 1 9.2 22c1.6 6.1 4.2 6.1 8.3-.3 3.8-5.7 7.4-9.7 8.8-9.7 1.7 0 6.6 5.2 6.6 7 0 2.2-3.1 4.9-6.6 5.9-3.1.8-3.8 1.9-2.5 4 .6.9 3.1 1.3 9.1 1.2l8.2-.1 3.5 3.7a74 74 0 0 1 5.9 7.5c1.4 2.2 3.2 3.8 4.3 3.8 1 0 4.5-1.3 7.7-3 6.8-3.4 8-3.6 8.8-1.4.5 1.2 1.4 1.4 4.6.9 3.6-.6 4-.5 4 1.4 0 1.4-1.1 2.5-3.7 3.6a85 85 0 0 0-22.3 16.1c-5.5 5.2-9.4 8-14.7 10.3a60.2 60.2 0 0 1-8.1 3.1c-.5 0-2.1-1.7-3.6-3.9l-2.7-3.9 2.6-3.8c1.4-2 2.8-4.8 3.1-6.1.7-2.6-.6-4.7-1.4-2.3a34 34 0 0 1-10.9 10c-.8 0-2.8 1.1-4.3 2.4-2.7 2.2-3.6 2.4-14.2 2.2l-11.2-.1-2.8-4.2a25.3 25.3 0 0 0-6.7-6.4 16.3 16.3 0 0 1-5.6-5.1 15.2 15.2 0 0 0-6.9-5.3c-6.3-2.8-7.5-4.2-8.3-9.2a9.5 9.5 0 0 0-3.6-6.4l-3-2.6 2.9-5.9c2.4-5 2.9-7.1 2.9-13.5 0-5.6-.5-8.3-1.8-10.3-1.5-2.2-1.6-3-.6-4.2.6-.8 1.7-1.4 2.4-1.4s2.8-1.8 4.5-4c1.7-2.2 3.7-4 4.4-4 .7 0 3.2 2.4 5.6 5.2zM774.9 259.6c2.8 2.5 5.1 5 5.1 5.6 0 .5-2.1.9-4.7.7-8-.4-19 2.4-27.3 6.9a90 90 0 0 0-30 28.6 18.5 18.5 0 0 1-10.2 9.1 85.5 85.5 0 0 0-10.3 5.6c-5.9 3.8-15.7 9-16.2 8.6-.7-.8 5.8-6.7 11.1-10.2 2.8-1.8 6.5-4.8 8.3-6.7a548 548 0 0 1 8.6-8.8c3-3 7.2-8.3 9.4-11.7 5.5-8.5 19-20.6 27.9-24.9a26 26 0 0 1 12.6-3.4c4.2 0 5.9-.5 7.3-2 1-1.1 2.1-2 2.5-2 .5 0 3.1 2.1 5.9 4.6z" fill="none" stroke="#ffffff"/>
  <path d="M785.2 273.2c2.2.6 5.7 2.8 7.8 4.9 3.4 3.4 3.9 4.4 4.6 10.6.4 3.7.8 9.7.8 13.3l.1 6.5-4.2.9c-3.5.7-5.3.5-10-1.3a38.5 38.5 0 0 1-7.3-3.5c-2-1.7-9.6-4.3-14.5-5-5.8-.9-15 1.6-18 4.8-2.8 3-5.9 3.5-5.1.8.3-.9 1.2-5.9 2-11 1.7-10.8 3-13.2 9-16.7 8.1-4.8 25.9-7 34.8-4.3zM709.3 291.4a97 97 0 0 1-20.6 19.6c-1.4 0-.6-3.6 1.7-8.6s7.8-10.4 10.7-10.4c.8-.1 3-.9 4.9-2 3.5-1.8 4.9-1.3 3.3 1.4zM737 291.2c0 .7-.7 3.8-1.5 6.8a53 53 0 0 0-1.5 11.3c0 4.2-.7 7.1-2.5 10.8-2.7 5.2-12.9 17.1-13.9 16.1-.3-.3-.6-5-.6-10.5 0-9 .2-10.3 2.4-13.1 1.3-1.7 3.6-5.6 5.1-8.6 2.5-5.2 10-14 11.7-14 .4 0 .8.6.8 1.2z" fill="none" stroke="#ffffff"/>
  <path d="M584.4 296.3c2.3 2 2.7 3.1 2.4 6.3-.3 3.4-.7 3.9-2.9 4.2-3 .4-4.9 3.6-4.2 7.3.7 3.6-1.3 7.9-3.6 7.9-6.5 0-6.7-3.6-.6-10.1 2.5-2.6 4.5-5.5 4.5-6.4 0-.9-1.2-3.2-2.6-5.1-2.2-2.8-2.4-3.7-1.4-4.9 1.8-2.2 5.3-1.8 8.4.8zM611 299.5c3.2 1.6 3.8 3 1.8 3.7-1.9.7-19.3 0-19.3-.8 0-.4 1.6-1.5 3.5-2.5a16 16 0 0 1 14-.4z" fill="none" stroke="#fe0000"/>
  <path d="M771.5 306.5c13.1 6 17.5 7.5 22.5 7.5 2.1 0 4.3.6 4.9 1.4.6.8 1.6 5.1 2.2 9.7.5 4.6 1.4 11.1 1.9 14.4 2.5 16.2 3 20.9 3.6 37.3 1.3 32.4 1.2 60.2-.2 67.7a46.6 46.6 0 0 1-4.9 16.5c-.8.8-1.8 3.3-2.3 5.5-1.8 7.9-8 15.4-17.7 21.5l-10.5 6.8a59 59 0 0 1-23.6 8.4c-4.4.3-4.9.1-6.2-2.5-1-2-1.1-3.2-.4-3.9A54.3 54.3 0 0 1 757 491c9.8-1.9 13.2-3.4 15.5-7 1.3-1.9 3.7-4.9 5.5-6.5 1.7-1.7 4.2-5 5.5-7.5 2.5-4.9 4.9-14.6 3.9-16.1-.9-1.6-2.1-.1-2.8 3.6a52.7 52.7 0 0 1-19.1 24.6c-7.4 4.6-21.6 8.2-23 5.9-.4-.6-3.7-3-7.5-5.5a28.1 28.1 0 0 1-7.4-6.2c-2.2-8.1-1.6-16.3 1.2-16.3 1.8 0 6.2 3.8 6.2 5.4 0 .5-1 2-2.1 3.2-2.2 2.4-2 5.9.4 5.2 1.9-.7 5.7-6.8 5.7-9.3 0-1.3-.7-2.8-1.5-3.5a68.1 68.1 0 0 0-10.6-14.2 54.6 54.6 0 0 1-8.5-11.4c-.4-1.5-.4-16.3 0-32.8.6-26.6.9-31.4 3.1-41.6l4.1-19.5c1.4-6.9 4.4-12.9 5.7-11.4.2.2-.7 6.5-2 13.9s-2.7 16.4-3.2 20l-3.1 19c-2.6 15.1-2.4 26.5.8 32.5a45.5 45.5 0 0 0 12.1 13.6c1.9 1.2 2.6 2.7 3 6.4.9 7 3.1 7.2 3.1.2 0-4.9-.3-5.8-2.7-7.7a99.6 99.6 0 0 1-13.4-24.4c-.5-1.8-.4-5.7.2-10l2.4-16.6c1.5-10.7 7.9-43.9 9.4-48.5a594 594 0 0 1 3.2-10.5c3.2-10.7 5.5-12.9 14.4-14.1 6.4-.8 9.8-.3 16 2.6z" fill="none" stroke="#ffffff"/>
  <path d="M576 306c0 1.4-1.2 1.8-10.3 3.9-4.8 1-8.7 1.5-8.7 1 0-1.6 5.1-4.2 10.8-5.4 5.7-1.2 8.2-1 8.2.5z" fill="none" stroke="#fe0000"/>
  <path d="M806.6 305.7c1.6 2.2 1.9 11.6.3 11.1-2.4-.8-4.2-5.5-3.5-9.1.8-4.2 1.3-4.5 3.2-2z" fill="none" stroke="#ffffff"/>
  <path d="M606.2 310.3c6.7 3 8 4.5 7.2 8.6-.7 3.5-.8 3.5-6.9 2-3.1-.8-5.5-2.4-8.4-5.6-4.4-4.7-4.8-5.8-2.8-6.6 2.6-1.1 5.8-.6 10.9 1.6zM590.7 313.6c3.9 3 4.2 6.7.6 7.2-2.4.4-4.6-2.4-5.7-7.1-.8-3.5.7-3.5 5.1-.1z" fill="none" stroke="#fe0000"/>
  <path d="M589 329.3c0 1.8-.6 4.1-1.2 5-1.1 1.5-1.2.9-1-3.3.4-5.5 2.2-6.9 2.2-1.7zM813.5 339.4l3.2 13.5c1.8 7.4.8 18.8-2.2 25.6l-1.8 4-.8-6-2.5-22.5-2.1-21.5-.6-5 2.6 2.4c1.8 1.7 3.1 4.4 4.2 9.5zM674.5 333.9c.6 1-2.1 4.1-3.6 4.1-1.3 0-1.1-2.4.3-3.8 1.4-1.4 2.5-1.5 3.3-.3zM606.6 337.6c3.9.6 10.8 5.9 13.5 10.3 2.7 4.5 6.8 8 10.2 8.8 1.6.3 3.1 1.2 3.4 1.9.7 2-2.7 18.6-4.4 21.3-1.2 1.9-2 2.2-4.6 1.7-1.8-.4-7.7-.8-13.2-1-12.3-.4-17.6-2.1-18.7-6.1-.6-2.5-.1-9.7 1.9-24.8.7-4.8 2.8-4.8 5 0 1.7 3.4 4.7 6.3 5.6 5.3.2-.3.1-3.4-.2-7l-.6-6.5-5.5-.3c-6-.3-7.6-1.2-6.7-3.6.6-1.5 4.4-1.5 14.3 0zM587.4 341.3c.9 2.4 1.6 7.2 1.6 10.9v6.7l-4.2 2.8c-2.3 1.5-5.3 4-6.7 5.5-2.9 3.2-8 3.8-10.1 1.3-1-1.2-1-2.1 0-4.6.8-1.7 1.5-4.3 1.7-5.8l1.1-8.7c1-8.2 2.2-9.4 8.8-9.4 4.3 0 5.2-.3 4.8-1.5-.4-.8-.2-1.5.4-1.5.5 0 1.7 1.9 2.6 4.3zM647.9 350.9a12 12 0 0 1 2.6 5.8l1.6 7.3c1.7 6.6 1 9.3-4.7 19.5-7.4 13.1-7.4 13.1-11.2 11.1a16 16 0 0 1-3.7-2.5c-.3-.5.4-3.4 1.6-6.3a95.5 95.5 0 0 0 4.5-27.6l.7-9.2h3.3c2 0 4.2.8 5.3 1.9zM664 352.6c0 1.2-5.2 9.4-6 9.4-.4 0-1-1.5-1.4-3.3-.5-2.6-.2-3.5 1.5-5 2-1.6 5.9-2.4 5.9-1.1z" fill="none" stroke="#ffffff"/>
  <path d="M410 370.4c0 .7-1.1 2.1-2.5 3-5.7 3.7-1 4.9 5.8 1.5 4.9-2.6 15.4-3.7 18.5-2 3.6 1.9 2.5 3-2.8 2.9-6.1 0-14.7 2.8-16.3 5.3-.9 1.4-2.3 1.9-5.7 1.9-2.5 0-5.4.6-6.5 1.4a21 21 0 0 1-6 2 54 54 0 0 0-10.8 4.2c-6.9 3.5-11 4.3-12.3 2.2-1-1.7 3-4.5 8.9-6.3 5.4-1.6 6.7-2.7 6.7-6.1 0-1.6-.8-2.3-2.9-2.7-3.3-.7-6.4-3.4-5.8-5.1.2-.7 2.9-1.1 6.7-1.1 5.9 0 6.5.2 7.9 2.7 1.4 2.5 1.4 2.8-.9 4.7-2.5 2.1-2.5 2.1-.6 3.6 3 2.3 8.3 1.9 9.7-.6.8-1.5.8-2.4 0-3.2-1.2-1.2-1.5-8-.4-9 .3-.4 2.6-.7 5-.7 3 0 4.3.4 4.3 1.4zM427.1 384.8c8.7 2.3 11.8 4.4 10.3 6.9-1.8 3-6 2.8-11.1-.6a20.1 20.1 0 0 0-6.3-3.1c-2.4 0-5.4-2.5-4.6-3.8 1-1.6 3.9-1.5 11.7.6z" fill="none" stroke="#f70000"/>
  <path d="M610 386.1c12 1.2 16 2.6 16 5.8 0 2.1 5.3 7.1 7.5 7.1.7 0 1.8.6 2.4 1.4.9 1.1 0 3.1-4.4 9.5a104.1 104.1 0 0 0-7.4 11.9 156.5 156.5 0 0 0-15 44.5c-2 11-5.6 19.7-12.4 29.6-3.8 5.6-4 5.1-5.5-13.4-2.2-26.5-1.5-92.1 1-96.8.7-1.4 1.7-1.7 3.6-1.3 1.5.3 7.9 1.1 14.2 1.7z" fill="none" stroke="#ffffff"/>
  <path d="M414.2 390.1c1.1 1.4 2.2 4.4 2.5 6.7.5 3.4.2 4.4-2 6.6-3.7 3.6-7.8 3.5-11.1-.5a12.6 12.6 0 0 1-2.6-4.2c0-.7-.3-2.1-.6-3.3-.4-1.4.4-3.1 2.2-5.3 2.2-2.7 3.3-3.2 6.2-2.9 2.4.2 4.1 1.1 5.4 2.9zM394.3 391.7c.3.5.8 3.7 1.1 7.3.6 5.9.5 6.6-1.4 7.8-3 1.9-5-.1-5-4.9 0-5.7 3.7-12.8 5.3-10.2zM384.4 397.7c-.4 1-.9 3.5-1.2 5.5-.3 3.2.1 4.2 2.6 6.8 1.7 1.6 3.8 3 4.6 3 1.3 0 1.6 1.3 1.6 6.7 0 9.5-.8 10.2-5.4 4.8-2-2.5-5.9-6-8.6-7.8l-4.9-3.3 3.1-4.7c2.9-4.6 3-4.8 1.3-7.3-.9-1.4-1.5-2.7-1.3-2.8 1-.6 6.5-2.4 7.7-2.5.9-.1 1.1.5.5 1.6zM357 400.2c2.7 2.2 5 6.1 5 8.5 0 3.1-.9 2.9-5-1.3-1.9-2-4.5-4-5.7-4.5-2.7-1-3-3.4-.6-4.8 1.7-.9 3.2-.4 6.3 2.1z" fill="none" stroke="#f70000"/>
  <path d="M585.6 432.2c-.4 32.7.3 48.2 3 66.2 1.3 8.9 1.3 11.8 0 10.5a402.5 402.5 0 0 1-5-71.9c-.1-30.6.2-37 1.9-37 .3 0 .4 14.5.1 32.2z" fill="none" stroke="#ffffff"/>
  <path d="M374 404.2c0 2.6-2.5 7.8-3.7 7.8-1.6 0-1.7-4.3-.3-7.1 1.2-2.1 4-2.6 4-.7zM342 407.4c0 .8-17 5.9-17.7 5.3-.3-.4-.1-1.8.5-3.2 1.1-2.4 1.6-2.5 9.2-2.5 4.4 0 8 .2 8 .4zM350.4 407.6c.9.3 1.6 1 1.6 1.5 0 1.4-2.4 1.1-4.6-.6-1.6-1.2-1.7-1.4-.2-1.5.9 0 2.3.3 3.2.6z" fill="none" stroke="#f70000"/>
  <path d="M400.6 412.2c-.4 1.8-1.3 10.3-2.1 18.8l-3 29a923 923 0 0 0-3.5 66.3c0 7.9-.3 9.9-1.5 10.4-.9.3-1.8.3-2.2 0-.3-.3 0-11.1.6-23.9 1.3-27.4 1.4-28.3 2.9-41.3 2.9-24.3 5.2-47.3 5.2-51 0-6.8 1.1-11.5 2.8-11.5 1.1 0 1.3.7.8 3.2z" fill="none" stroke="#ffffff"/>
  <path d="M344.5 412c.3.5 1.7 1 3.1 1 3.1 0 4.1 2.3 2.2 5.3a39 39 0 0 0-3.1 6.9c-1.7 5.1-9.3 13.8-12.1 13.8-1.1 0-1.6-.9-1.6-2.9 0-5 3.5-11.4 8.4-15.4 4.3-3.6 6-6.7 3.6-6.7-2 0-6.5 2.8-9 5.5-4 4.3-11.6 9.5-13.9 9.5-6 0 1.7-8.4 14.3-15.6 4.4-2.5 7.1-3 8.1-1.4zM357.8 418.2c3.1 3.1.3 15.7-4.3 19-2.3 1.7-2.4 1.7-3-1-1-4.6 3.1-19.2 5.3-19.2.5 0 1.3.5 2 1.2zM372.1 428c2.3 11.5 1 14.2-3 6.2-2-4-3.6-13.4-2.4-14.6.4-.3 1.4-.5 2.3-.4 1 .2 2 2.8 3.1 8.8zM382.8 426.3c2.6 2.7 6.6 11.6 5.7 12.5-1 1.1-8.5-7.5-8.5-9.7 0-1.1-.4-2.3-1-2.6-.5-.3-1-1-1-1.6 0-1.7 2.6-.9 4.8 1.4z" fill="none" stroke="#f70000"/>
  <path d="M365.5 449.7c-1.6 3.2-1.7 5.9-1.2 22.2a282 282 0 0 0 1.6 25.1l2.6 20.5c2 17.7 6.2 45.3 7.9 52.5 3.5 14.7 4.4 24.5 1.7 20.2a458 458 0 0 1-12.6-68.6 378.9 378.9 0 0 1-4.1-59.3c.4-12.1.9-15.8 3.3-22.3.4-.9 1-.1 1.5 2.3.8 3 .6 4.5-.7 7.4z" fill="none" stroke="#ffffff"/>
  <path d="M377.1 446.8c-1.5 2.8-1.4 3.2.6 3.2 2.3 0 5.3-2.9 5.3-5.3 0-1.6.5-1.8 2.7-1.2 1.5.3 3.1 1.2 3.5 1.8.8 1.3.2 8.7-1.4 17.7-1.4 8.1-2.8 19.7-3.3 26.5L383 510c-.7 8-1.3 17.6-1.5 21.3-.2 3.8-.5 7.1-.9 7.4-1.1 1.1-3.6-.7-4-2.9-1.1-5.7-5.4-40.3-5-40.7.2-.2.9.1 1.7.7.7.6 1.8.7 2.6.3 1.1-.7.9-1.3-.7-2.9a11.7 11.7 0 0 0-3.3-2.4c-1.6-.5-2.6-14.6-1.9-26.8l.5-8.5h4.9c3 0 5.1-.5 5.3-1.3.3-.6-.3-1.2-1.2-1.2-2.1 0-6.5-4.8-6.5-7.1 0-1.8 2.9-3.1 4.3-1.8.5.4.4 1.6-.2 2.7z" fill="none" stroke="#ffffff"/>
  <path d="M493 464.6c2.5 1.4 6.3 3.2 8.5 4 9.7 3.6 18.3 6.3 21.7 6.8a14 14 0 0 1 10.7 9.3c1.2 4.2-1 15.3-3.9 20-2.2 3.6-7.7 4.9-15.2 3.5-2.6-.5-5-.7-5.2-.4-.9.8-9.6-2-9.6-3.1 0-.6 1.6-2.5 3.5-4.3 1.9-1.7 3.5-3.9 3.5-4.8 0-2.5-1.2-1.9-4.3 1.9-1.5 1.9-3.5 3.5-4.4 3.5-1.3 0-1.4-.9-1-5.8.3-3.1.9-6.9 1.3-8.5 1-4.2-1.2-3.2-3 1.4-2.1 5.1-2.9 4.5-2.7-2.1.1-4.9-1.1-6.6-2.3-3.4-.3.9-.6 4-.6 7s-.3 5.4-.7 5.4c-2.6-.1-10.9-6-12.4-8.8-1.5-3-1.6-3.8-.2-9l2-8.2c.6-3 5.1-7 7.8-7 1.1 0 4 1.2 6.5 2.6z" fill="none" stroke="#f80000"/>
  <path d="M526.5 466.8c2.2 1 6.8 2.4 10.3 3.2 3.5.7 7.2 2 8.3 2.9 1.7 1.4 3.4 6.6 6.9 21 1.8 7.1-2.1 17-7.9 20-2.3 1.3-9.1.7-9.1-.7 0-.4 1.6-1.6 3.5-2.6 3.6-1.9 4.3-3.2 2.4-3.8-.7-.2-.7-1.2 0-3.1.6-1.6 1.1-3.5 1.1-4.3 0-2.6-1.8-1.4-2.9 1.9-1 2.8-4.7 6.5-5.7 5.5a29 29 0 0 1 2.3-5.6c3.6-7.3 4.1-13.7 1.4-19-2.5-4.9-7.5-9-12.2-9.8-7.2-1.2-7.9-1.5-7.9-3.2 0-2.2 1.9-4.2 4-4.2.8 0 3.3.9 5.5 1.8zM466.6 474.6c4 1.5 4.4 2 4.4 5.1 0 5.1 4.3 12.8 8 14.3 1.7.7 3.3 2.2 3.6 3.6.7 2.8-.2 4.5-2 3.8-.7-.3-5 .5-9.5 1.6a37.1 37.1 0 0 1-10.7 1.6c-1.8-.5-2.4-.2-2.4.9 0 2.5 2.1 2.6 10.4.5 8.7-2.2 12.6-2.5 12.6-1 0 .5-.4 1-1 1a13 13 0 0 0-4.3 3c-4.7 4-10 4-20.4-.1-9.6-3.8-10-4.2-11.5-9.1-1-3.4-1-4.2.3-5.2.9-.6 1.6-1.8 1.7-2.6.2-2.6 2.4-17.4 2.8-18.8.5-1.8 12.1-.9 18 1.4z" fill="none" stroke="#f80000"/>
  <path d="M784.4 508.1c-.9 1-2.6 2.1-3.8 2.5a72 72 0 0 0-6.3 2.5c-6.6 3-15.2 4.9-21.9 4.9-7.4 0-9.7-1.6-9.2-6.4.3-2.9.6-3.1 5.3-3.9 5.8-.9 22.3-7.4 31-12.1l6-3.2.3 6.9c.2 5.4-.1 7.4-1.4 8.8z" fill="none" stroke="#ffffff"/>
  <path d="M493.9 505.3c2.6 2.4 5.3 4.6 6.1 4.9.8.3 1.2.9.8 1.3-1.1 1.2-8.5-1.5-11.3-4.1-2.6-2.4-3.4-6.4-1.4-6.4.7 0 3.3 2 5.8 4.3z" fill="none" stroke="#f80000"/>
  <path d="M490.7 512c2.4 1 6.8 2.4 10 2.9 5.2 1 5.9.9 7.9-1s2.9-2 10.5-1.3c8.1.7 8.7.9 16.9 6.5 13.4 9.2 16.6 13.7 14.1 20.2-1.5 3.8-4.1 3.2-6.6-1.6-2.2-4.1-3.9-4.8-19.5-8.7-4.7-1.2-9.8-3-11.5-4a43.6 43.6 0 0 0-13.5-3c-10.7-1.3-16-3.2-19.4-6.9-4.2-4.7 3.1-6.8 11.1-3.1z" fill="none" stroke="#f80000"/>
  <path d="M453.7 519c5.4 3.2 5.2 5.6-1.1 17.6-5.6 10.5-6.2 12.9-2.8 10.8 2.6-1.6 10-13.2 10.4-16.2.2-2.2 1-2.8 4.3-3.5 2.2-.4 5-.5 6.2-.2 3.5.8 7.3 7.2 7.3 12.2 0 3.9-.4 4.5-3.9 6.7a28 28 0 0 0-4.6 3.5c-.3.6-3.2 1.8-6.3 2.7-9.2 2.7-14.7 5.3-13.5 6.5.7.7 4.3-.1 11.4-2.6 14.8-5.3 15.3-5.3 16.9-1.5 1.6 3.8.2 9.4-3.4 13.7a20.4 20.4 0 0 0-2.8 4.4c-1.3 3.4-17.8 3.1-17.8-.3 0-1.9-4.1-6.8-5.7-6.8-1.2 0-1.4.6-.8 2.7 2.7 10.6 1.4 13.3-6.5 13.3-5.5 0-10.3-3.2-11.4-7.5-.9-3.7-2.9-3-5.1 1.7-1.8 3.9-2.4 4.3-6.1 4.6-3.2.2-4.8-.2-7-2.1-3.5-3-3.1-4.1 5.1-13.6 6.6-7.7 8.9-8.5 8.9-3.1.1 4.3 2.6 4.8 3.7.7 1.1-3.9 2.8-5.7 5.4-5.7 2.4 0 6.5 4.2 6.5 6.6 0 .8.9 1.4 2 1.4 2.5 0 2.7-3.6.4-6.1-1.4-1.6-1.5-2.3-.4-4.9 1.9-4.5-.4-7.3-7.7-9.3-7.8-2.2-9-2.1-10.9.8a5 5 0 0 1-4.6 2.5c-3.3 0-6.8 1.6-6.8 3 0 .6 1.4 1 3 1 6.3 0 4.2 5.7-5.3 14.7-6.5 6.1-9.2 7.6-12.3 6.9-2.6-.7-6.4-5.9-6.4-8.8 0-2.4 6.7-7.5 12.2-9.4 7.4-2.4 6.3-4.4-2.4-4.5-8.8-.1-12.2-1-12.6-3.1-.4-2.2 4.2-6.3 9.4-8.3 4.2-1.6 4.6-1.6 10.6.5 3.5 1.2 6.7 2.6 7.3 3.1 1.1 1.1 4.5 1.2 4.5.1 0-2.1-3.5-5.3-6.8-6.2-5.9-1.6-6.8-2.5-5.6-5.7a6.2 6.2 0 0 1 8.8-3.4c1.3.8 4.7 4.2 7.6 7.7 2.8 3.5 5.5 6.4 6.1 6.4 1.8 0 .1-5.1-3.2-9.7a19.2 19.2 0 0 1-2.9-5.1c0-1.8 3.8-4.3 7.3-4.9 3.4-.5 3.7-.3 5.1 2.8a119 119 0 0 1 3.3 9.4c1.1 3.9 2.3 6 3.3 6 2.2 0 2.4-4.6.6-10.9-2.1-7-2-7.2.9-10.1 2.9-3 4-3.1 8.2-.5z" fill="none" stroke="#ef5350"/>
  <path d="M767 527.5c7.2 8.5 9 12.7 9 20.8 0 8.3 1.9 12.1 7.2 14.4 4.1 1.8 5.1 4.3 1.8 4.3a13 13 0 0 1-5.1-1.6c-1.7-.8-3.7-1.3-4.5-1-1.9.7-1.8 5.2.3 8.7 2.3 3.9 1.3 4.4-3.6 2a17.5 17.5 0 0 0-6.7-2.1c-2.9 0-10.8-7.6-14.9-14.5-3-5.2-7.4-21.3-7.7-28.9l-.3-6 8.8-.2c4.9-.1 9.1-.5 9.5-.8 1-1.1 1.6-.5 6.2 4.9z" fill="none" stroke="#ffffff"/>
  <path d="M500.9 528.3c.6.8 2.6 1.2 4.5 1.1 3.2-.3 3.4-.1 2.7 1.9a7.8 7.8 0 0 1-3.1 3.4 8.8 8.8 0 0 0-3.2 2.7c-1.3 2.2-3.1 2-6.2-.9a7.4 7.4 0 0 1-2.6-5.5c0-3 1.4-4.1 2.4-1.8.4 1 .9.8 1.8-.5 1.5-2 2.2-2.1 3.7-.4z" fill="none" stroke="#f80000"/>
  <path d="M299.4 528.6c2.3.9 2 2.9-1.6 10.6-2.3 5.1-2.8 7.2-2 8 1.5 1.5 3.4-.1 6.6-5.6 3.4-5.8 13.6-10.9 14.8-7.4.9 2.6-.8 5.8-5.9 11.2-7.3 7.6-7.1 10.1.3 5.1 5.3-3.6 8.4-4.2 10.1-2 1.9 2.8 1.6 5.6-1.2 9.8-1.4 2-2.8 3.7-3 3.7l-5.2-2.9c-5.9-3.6-8.4-4.3-10.3-3.1-1.7 1.1-2 .8 7.8 8.4 9.8 7.6 9.7 15.2-.1 19.4-4.9 2.1-5.3 1.7-6.7-7-.9-5.2-2.2-9.1-3.5-10.7-4.3-5.3-6.3-9.6-5.8-12.3.4-2 0-2.8-1.5-3.2-3.3-1.1-4.3-4.8-2.7-10.8 2.9-11.2 4.7-13.2 9.9-11.2zM283.8 539.2l.3 7.8-3.5 1.7c-4.3 2-5.4 4.7-3.1 7.4 1.7 1.8 1.7 1.9-.1 2.5a46.6 46.6 0 0 1-21.5 8.8c-.5-.3-.9-1.6-.9-3 0-2.2.4-2.4 4.9-2.4 3.8 0 5.6-.6 7.8-2.4 2.2-1.9 2.5-2.7 1.6-3.7-.9-.9-1.9-.9-4.4 0-2.7.9-3.5.8-5.1-.5-2.8-2.6-2.2-6.4 1.7-10.7 1.8-2 4.1-3.7 4.9-3.7 1.6 0 4 2.1 5.5 4.7.5 1 1.5 1.4 2.5 1 1.3-.5 1.5-1.6 1-6-.8-7.2.6-9.9 4.9-9.5l3.2.3z" fill="none" stroke="#ef5350"/>
  <path d="M504.6 560.2c.4 5.9.3 8.8-.4 8.8-1.4 0-2-3.7-2.6-16.5-.5-10.7-.5-10.9.9-6.1.7 2.7 1.7 8.9 2.1 13.8z" fill="none" stroke="#ffffff"/>
  <path d="M431.7 552.6c-.3.3-1.2.4-1.9.1-.8-.3-.5-.6.6-.6 1.1-.1 1.7.2 1.3.5z" fill="none" stroke="#f80000"/>
  <path d="M390.8 556.7a2.4 2.4 0 0 1-4.6 0c-.3-1.3.3-1.7 2.3-1.7 2 0 2.6.4 2.3 1.7z" fill="none" stroke="#ef5350"/>
  <path d="M503.5 593.7c-.4 4-1.1 7.3-1.6 7.3-1.2 0-1.1-4.6.3-17l1.3-10.5.3 6.5c.2 3.6.1 9.8-.3 13.7zM873.3 578.2c.2 1.8.3 3.7.1 4.3-.4.8-4.9 4-7.6 5.3-.5.2-.8-1.5-.8-3.8 0-7.4 7.3-12.5 8.3-5.8z" fill="none" stroke="#ffffff"/>
  <path d="M432.4 588.6c.9 2.5.7 11.9-.3 10.8-1.2-1.3-2.3-12.4-1.2-12.4.5 0 1.2.7 1.5 1.6zM295.4 597.7c1 3.4 1.8 9.3 1.3 9.3a52 52 0 0 1-3.7-10.4c0-1.4 1.9-.4 2.4 1.1zM559.1 598.6c2.4 2.2 5.6 16 4.3 18.2-.6.9-3.1 2.3-5.5 3-16.4 4.8-18.3 5.7-20.2 9-1.7 2.9-1.8 3.8-.7 8.3.7 2.9 2.5 6.6 4.2 8.5 1.6 1.8 2.7 3.8 2.3 4.4-1.5 2.4-16.1.2-18.9-2.9-1-1.1-1.7-4.9-2.1-12.1l-.6-10.5 4.8-4c2.6-2.2 7.4-6 10.5-8.3a70 70 0 0 0 9.6-9c2-2.6 4.2-5 4.7-5.4 1.7-1.3 5.8-.9 7.6.8z" fill="none" stroke="#ef5350"/>
  <path d="M433 604.7c0 1.9-.3 2.4-1 1.7-.6-.6-.8-1.8-.4-2.7.9-2.4 1.4-2.1 1.4 1zM300.5 626.1c1.7 6.2 2 12.4.6 9.9-1-1.8-3.1-13.4-3.6-20.5l-.4-5 1 5c.5 2.7 1.7 7.5 2.4 10.6z" fill="none" stroke="#ffffff"/>
  <path d="M589.6 615.8c.6.4 1.4 4.2 1.7 8.4.7 8.5 0 9.8-5.6 9.8-1.4 0-4.5 1.1-7 2.5-2.6 1.5-4.8 2.2-5.1 1.6-.4-.5.3-1.3 1.4-1.6 1.7-.5 2-1.4 1.8-3.8-.4-3.9-2.6-4.7-3-1-.3 2.7-.5 2.8-6.2 2.8-4.9-.1-6.1-.4-7.7-2.4-1.1-1.3-1.9-2.9-1.9-3.7 0-3.3 13.5-12 17-10.9 1 .3 3.2-.1 4.7-.9 3-1.6 8.1-2 9.9-.8z" fill="none" stroke="#ef5350"/>
  <path d="M616.8 624.9c2.6 1.4 5.5 10.8 5.6 17.8 0 4.2-.5 5.7-2.4 7.8-2.8 3-6 3.2-8.5.5-2.3-2.5-4.1-2.5-12.9.1-6.5 2-7.8 2.1-14.6 1-8.2-1.3-13-2.9-13-4.2 0-.5 1-.9 2.3-.9 2.9 0 4.3-1 5.2-3.8 1-3.5 6.2-6.2 11.7-6.2 5.2 0 6-.7 6.8-6.5.4-3.3 1.1-4.3 4-5.8 3.8-2 12-1.8 15.8.2z" fill="none" stroke="#ef5350"/>
  <path d="M861.3 626.5a7.1 7.1 0 0 1 2.7 5.8c0 1.8-.2 3.6-.5 3.8-.6.7-11.5-1.4-11.5-2.2 0-1.2 5.2-9.9 5.8-9.9.4 0 1.9 1.2 3.5 2.5z" fill="none" stroke="#fb0000"/>
  <path d="M544 632.9c0 6.3-1.5 7.4-3.1 2.2-1.3-4.4-.7-7.1 1.6-7.1 1.1 0 1.5 1.2 1.5 4.9z" fill="none" stroke="#ef5350"/>
  <path d="M834.3 640.4l.8 8.8-4.7 6.9c-4.5 6.6-4.9 6.9-8.7 6.9-2.1 0-6.5.6-9.6 1.4-8.3 2.1-17.7 2.9-20 1.7a46 46 0 0 1-10.1-14.8c0-.8 2.7-4.6 6.1-8.3 5.5-6.2 6.6-7 11.5-8 3-.6 10.3-1.3 16.2-1.4 6-.1 11.6-.7 12.7-1.4 4.1-2.4 5-1.2 5.8 8.2zM864 642.1c4.1.6 8 1.5 8.6 2 .6.5 1.4 4 1.7 7.7l1.3 13.1c.9 8.2-.7 11.4-9 17.7-3.3 2.6-7.8 6.3-9.8 8.2-4.5 4.3-7.4 4.4-12.9.3-4.1-2.9-4.2-3.1-1.7-3.1 4.6 0 8.7-7.3 5.6-9.7-1.1-.8-5.9-3.4-11.8-6.3-.8-.4-1.6-1.7-1.6-2.8-.1-1.2-.7-3.5-1.4-5.2-1.2-3-1.1-3.3 2.8-7.3 3.1-3.3 4.2-5.3 4.7-9 .4-2.6 1.2-5 1.7-5.3 1.5-.9 10.1-2.2 12.3-1.8l9.5 1.5z" fill="none" stroke="#fb0000"/>
  <path d="M549.8 643.6c2.4.7 3.1 2.4.9 2.4-1.5 0-5.7-2.9-4.2-3 .6 0 2 .3 3.3.6zM567 652a50 50 0 0 0 10.7 3.4c6.6 1.4 10.3 3.9 10.3 7 0 .7 1.1 2.3 2.5 3.6 2.8 2.7 3 4.6 1.1 11-1.6 5.4-3.7 6.2-5.3 2-.6-1.6-1.8-3-2.7-3-.9 0-3.8 2.2-6.5 4.9-6.4 6.4-11.4 7.6-31.6 7.5-17.1 0-18.7-.5-21.6-6.7-3.7-8.2-2.4-11.4 6.4-16.7 2.8-1.6 4.7-2.1 7.2-1.7 3.3.5 3.5.4 4.5-3.3.9-3.2 2-4.4 6.3-6.8 6.5-3.7 13-4.1 18.7-1.2z" fill="none" stroke="#fb0000"/>
  <path d="M776.8 652.7l1.7 4.5c.5 1.3-.8 2.3-6.8 5.1-6.2 2.9-7.6 4-8.6 6.7-1.5 4.4-1.4 7.5.4 10.9 1.8 3.6 3.5 4.3 11.8 5 6.8.6 9.4 2.5 3.5 2.7-1.8.1-3.4.6-3.6 1.3-1.3 4-6.6 5.2-13.3 3-5.3-1.8-8.8-5.7-13-14.4-2.1-4.4-4.6-9.2-5.5-10.6-.9-1.5-1.4-3.4-1.1-4.2a81.1 81.1 0 0 1 22.6-11.6c2-.5 5.2-.9 7.3-1 3.1-.1 3.7.3 4.6 2.6z" fill="none" stroke="#fb0000"/>
  <path d="M531 656.9c0 1.2-2.2 3.7-5.7 6.4-9.5 7.3-9.7 7.6-8.9 15.6.7 7.8.6 7.9-6.9 13.1-5 3.4-5.1 3.5-8.8 1.7-3.8-1.8-6.3-7.7-3.2-7.7.9 0 1.8-.8 2.2-1.8.3-.9 1.8-3.3 3.3-5.2a55 55 0 0 0 4.5-7 49 49 0 0 1 12.9-14.1c4.7-3.5 10.6-4.1 10.6-1z" fill="none" stroke="#f70000"/>
  <path d="M607.1 657.7c1.6 4.3.8 5.7-4 6.6-5.2 1-9.1-.3-9.1-3.1 0-3.3 4-5.8 9.8-6.1 1.6-.1 2.5.7 3.3 2.6z" fill="none" stroke="#fb0000"/>
  <path d="M785.3 668.1c2.4 2 5.3 3.3 8 3.6 2.3.3 4.8 1 5.5 1.6.8.7 1.8.5 3-.5 2.6-2.3 8.1-3.1 8.8-1.3a3 3 0 0 0 2.6 1.5c1.5 0 1.8-.5 1.3-2-.9-2.8 3.4-4.3 10.3-3.4 5.1.6 5.3.8 4.7 3.1-.7 3.1.8 5 4.8 5.9 4.6 1 8.7 3.2 8.7 4.9 0 2.1-10.4 3.1-16 1.5-10.4-3-31.3-5.1-43-4.3-10 .6-13.7-.5-14.6-4.3-.9-3.4.4-5.5 4.7-7.6 4.9-2.4 7-2.2 11.2 1.3zM793.2 690.7c2.8 2.7 3.7 6.6 1.7 7.8-1.2.8-8.9-4-8.9-5.5 0-1.6 2.4-5 3.4-5 .6 0 2.3 1.2 3.8 2.7zM831 691l5.3 3.8c1.6.9 4.8 3.2 7.2 4.9 4.7 3.6 9.4 4.3 11.5 1.8 2.1-2.5 5-1.9 5 1 0 4.7-6.2 14.4-15.5 24.4a28.4 28.4 0 0 0-7.5 11.4c-1.1 4.3-3.2 6.8-4.5 5.5a92.7 92.7 0 0 0-8.3-25.3c-3.3-7.2-6.7-15.9-7.6-19.5-1.4-5.8-1.4-6.6 0-8.8 1.5-2.2 2.1-2.4 6.7-1.8 3 .3 6.2 1.4 7.7 2.6z" fill="none" stroke="#fb0000"/>
  <path d="M563.4 693.9c.3.4-.6 1.3-1.9 1.9-2.7 1.3-4.8-.4-2.4-1.9 1.8-1.1 3.6-1.1 4.3 0z" fill="none" stroke="#fb0000"/>
  <path d="M563.8 700.6c-.4 2.3-2.6 3-3.4 1-.8-2 1.5-5.1 2.9-3.7.5.5.7 1.7.5 2.7zM511.8 704.3c.4 2.9-1.2 3.7-2.2 1.1-1-2.6-.7-4.6.7-4.2.6.3 1.3 1.7 1.5 3.1zM562.5 711.7a18 18 0 0 1-1.8 6.8c-.7.7-.8.4-.3-.8.3-1 .6-4.1.6-6.8 0-2.8.5-4.9 1.1-4.9.7 0 .8 1.9.4 5.7z" fill="none" stroke="#ffffff"/>
  <path d="M635.7 217c-1.3 1.9-1.3 2.5 0 5.1 1.6 3.2 4.3 3.8 6.8 1.3 1.4-1.5 1.4-1.9-.3-4.7-2.2-3.9-4.5-4.5-6.5-1.7zM787 446.5c0 .8.5 1.5 1 1.5.6 0 1-.7 1-1.5s-.4-1.5-1-1.5c-.5 0-1 .7-1 1.5zM623 394.4c0 .9.5 1.6 1 1.6.6 0 1-.4 1-.9 0-.6-.4-1.3-1-1.6-.5-.3-1 .1-1 .9z"/>
  <path d="M502 482.1c0 .5.5.7 1 .4.6-.3 1-.8 1-1.1 0-.2-.4-.4-1-.4-.5 0-1 .5-1 1.1zM508.8 502.4c-2.2 1.6-2.3 2.6-.3 2.6.8 0 1.9-.9 2.5-2 1.2-2.3.3-2.5-2.2-.6zM542 492.5c0 .9.5 1.5 1.1 1.3.6-.2 1.1-.8 1.1-1.3s-.5-1.1-1.1-1.3c-.6-.2-1.1.4-1.1 1.3z" stroke="#f80000"/>
  <path d="M451.4 481.5c-2.6 6.6 6.9 18.1 16.4 19.8 3.4.7 4.6-.9 1.5-1.9-9.2-3-14-7.7-14.9-14.6-.7-4.8-1.9-6.2-3-3.3zM464 489.4c0 .7.7 1.9 1.5 2.6 1.3 1.1 1.5.8 1.5-1.4 0-1.6-.5-2.6-1.5-2.6-.8 0-1.5.6-1.5 1.4zM471.5 496c.3.5 1.3 1 2.1 1s1.4-.5 1.4-1c0-.6-.9-1-2.1-1-1.1 0-1.7.4-1.4 1z" fill="none" stroke="#f80000"/>
  <path d="M478.5 498c-.3.6.1 1.3 1 1.6 1.9.8 3 0 2-1.5-.8-1.4-2.2-1.4-3-.1z" stroke="#f80000"/>
  <path d="M819 670.4c0 1.5 4.5 3 6.1 2 1.6-1-1-3.4-3.7-3.4-1.4 0-2.4.6-2.4 1.4z" stroke="#fb0000"/>
  <path d="M697 98c-.8.5-1.1 1.2-.8 1.6 1 .9 5.8-.4 5.8-1.6 0-1.3-3-1.3-5 0z"/>
  <path d="M231.9 397.7c-.8.9-1.3 3.6-1.2 6.5l.1 4.8h-5c-3.9 0-6.4.8-11.4 3.6-9.7 5.4-8.3 9.7 3.3 10 5 .1 6.9.6 8.7 2.3 1.7 1.6 3.5 2.1 7.4 2.1 2.9 0 5.2.4 5.2 1 0 1.5 7.1 9 8.5 9 3.1 0 3.8 2.8 2.2 9.7-1.6 6.8-2.9 16.9-3.3 25.3a175 175 0 0 1-1.2 11.5c-.6 3.8-1.3 11.3-1.7 16.5a176 176 0 0 1-2 17.5c-.8 4.4-1.9 12.5-2.5 18a256 256 0 0 1-2.1 16.4c-1.2 6.8-.9 7.5 3.3 8.5 3.2.7 3 1.2 4.8-12.9.7-5 2-11.5 3-14.5 1.2-3.5 2.3-11 2.9-20.5a2942.4 2942.4 0 0 1 3.5-46c.9-14.1 2.2-26.4 2.9-27.1.4-.4 2.8.1 5.4 1.1 2.7 1.1 5.5 1.9 6.3 2a34 34 0 0 1 16.1 12.7c4 4.8 8.4 5.3 10 1 2.3-5.9 2.2-9.5-.5-13.1-3.9-5.2-3.2-7.7 1.3-4.9 2.4 1.4 4.5.6 6.7-2.7 1.4-2.2 1.5-3.2.5-6.4-.6-2.2-2.3-4.6-3.7-5.6-1.4-.9-4.5-3.6-6.9-5.8-12.9-12.6-14.4-13.7-17.8-13.7-2.2 0-4.1-.8-5.3-2.1-1.7-1.9-2.7-2.1-9.1-1.6-5.2.4-7.6.2-9-.9-2.2-1.6-7.5-1.8-9-.3-.9.9-1.9.6-3.9-1-3.2-2.5-4.7-2.6-6.5-.4z" fill="none" stroke="#ffffff"/>
  <path d="M251.8 404.5c3.9 6.1 2.2 7.6-2.8 2.4-2.9-3.1-3.6-4.9-2.4-6.2 1.1-1 2.9.3 5.2 3.8zM241.6 404.7l3.9 3.8-3.7.3c-5.2.4-7.8-1.2-7.8-4.8 0-4.2 2.6-3.9 7.6.7zM267.2 404.3c1 1.7.1 2.4-3.7 3.1-1.9.4-3.5 1.1-3.5 1.6 0 1.5 6 1.2 10.7-.6 7.3-2.8 11.6-.2 7.6 4.6-2 2.3-6.9 2.6-13.9.9-4.7-1.2-8.4-4.8-8.4-8 0-3.3 9.2-4.6 11.2-1.6zM237.8 413.2c-.8 2.3-9.1 4.7-16 4.7-15.6.2-4-5.2 12.5-5.8 2.7-.1 3.7.3 3.5 1.1zM251 413.6c.8.8-2.4 2.4-5 2.4-1.7.1-3.2 1.1-4.5 3.2-2 3.2-7.3 5.5-10.2 4.4-1.9-.8-.7-2.6 1.7-2.6 2.3 0 8-5.3 8-7.5 0-1.5.7-1.6 4.8-1 2.6.4 4.9.9 5.2 1.1zM286.5 414.2c4.3 1.9 3.2 3.7-1.7 2.6-5.1-1.1-5.7-1.6-3.8-2.8 1.9-1.2 2.4-1.2 5.5.2zM255.6 420.5c.8 3.2.7 3.2-3.6 3.7-3 .3-3.5 0-3.8-2.1-.7-4.5 6.3-6 7.4-1.6zM269 420.2c2.3 2.5 2.2 4.1-.4 4.6-3.6.7-6.6-.7-6.6-3.2 0-1.2.3-2.6.7-2.9 1.3-1.4 4.3-.6 6.3 1.5zM288.4 421.9c6.8 3.2 10.1 6 11.1 9.2 1.2 3.6-.9 4.4-5.7 2a34.1 34.1 0 0 0-5.4-2.1c-1.2 0-9.4-9.5-9.4-10.9 0-1.8 3-1.2 9.4 1.8zM248.3 428.3c2.1.8 2.3 4.7.3 4.7-1.7 0-6.6-6-6.6-8 0-.9.7-.7 2.3.7 1.2 1.1 3 2.3 4 2.6zM255.9 430.1c-1.2 2.1-1.4 2.2-1.7.6-.6-2.8.6-5.3 1.9-4 .8.8.7 1.8-.2 3.4zM281.8 429.7c1.6 2.1 4.3 6.6 6 10a35 35 0 0 0 4.2 6.8c.5.3 1 1.9 1 3.6 0 4.4-3.4 3.9-6.5-1.1a19.5 19.5 0 0 1-2.5-4.9c0-.5-2-4-4.5-7.7a29 29 0 0 1-4.5-8.5c0-3.2 3.6-2.2 6.8 1.8zM261.2 433.2c-.5 1.9-1.1 2.5-2 1.9-1-.6-1.1-1.3-.1-3.5 1.5-3.3 3.1-2.1 2.1 1.6zM272.1 432.6l2.4 2.6-2.4 1.9c-3.7 3-5.5 2.1-5.9-2.9-.3-3.6 0-4.2 1.6-4.2 1 0 2.9 1.2 4.3 2.6zM276.5 441c.3.5.2 1-.4 1-.5 0-1.3-.5-1.6-1-.3-.6-.2-1 .4-1a2 2 0 0 1 1.6 1z" fill="none" stroke="#fb0000"/>
  <path d="M248.1 493.2l-.9 3.3-.1-3.6c-.1-2 .2-3.9.6-4.3 1.3-1.2 1.5 1 .4 4.6z" fill="none" stroke="#ffffff"/>
  <path d="M245.6 528.6c-.9 2.3-2.7 1.6-2.2-.9l1.3-7.2.8-5 .3 5.9c.2 3.2.1 6.5-.2 7.2z" fill="none" stroke="#fb0000"/>
  <path d="M665.2 409.2c-1.8 1.8-1.5 5.1.4 4.4l2-.6c.2 0 .4-1.1.4-2.5 0-2.7-.9-3.2-2.8-1.3z"/>
  <path d="M1026.8 413.1l-4.8 5.2-3.8-2.7a15 15 0 0 0-6.6-2.6c-4 0-8.4 2.6-8.8 5.2-.2 1.7-1.4 2.6-4.5 3.6-3.3 1.1-4.3 1.9-4.8 4.2a8 8 0 0 0 .6 5.1c1 2 .8 2.5-1.5 4.2-1.4 1-2.6 2.5-2.6 3.2 0 2 4.7 5.3 9.1 6.5 3.5 1 3.8 1.3 3.3 3.8-.8 3.8 2.4 6.5 7.9 6.6 3.1.1 4.2-.3 4.2-1.4 0-.9-1.1-1.6-2.8-1.8-4.7-.6-6.2-8.1-1.8-9.2 1.4-.3 2.6-1.1 2.9-1.8.3-1.1-1.1-1.2-6.4-.7-7.7.7-10.6-.3-8.5-2.9 2-2.4 7.9-3.9 13.2-3.4 5.6.6 6.5-.9 2.3-3.7-2-1.3-3.7-1.6-6.8-1-9.4 1.6-11.7.6-7.6-3.5 2.1-2.1 2.7-2.1 12.3-.4 2 .4 2.7.2 2.7-1 0-1-1.2-1.9-3-2.2-4.6-1-5.6-2.9-2.5-5 3.6-2.3 7.3-1 10.4 3.9 3 4.6 4.3 4.7 5.9.4 1.4-3.8 7.9-11 9.3-10.2 1.3.8 1.1 6.2-.3 10.2-.6 1.8-.9 3.5-.6 3.8.3.3 2.5-.4 4.9-1.5 9.3-4.2 18.8-1.1 15 4.9a4 4 0 0 1-2.8 1.6c-4.1.4-9.3 1.8-9.3 2.4 0 .4 2 2.6 4.5 4.9 3.6 3.4 4.5 4.9 4.5 7.7 0 4.3 1.6 5.4 3.2 2 1-2.3.8-3.3-1.2-7l-2.4-4.4 3.8-3.3c3.4-3 3.8-3.7 3.2-6.5-1.2-5.2-3.9-6.8-11.5-6.8h-6.6l-.6-4.2c-.6-4.6-2.3-7.3-4.7-7.3-.9 0-3.8 2.3-6.4 5.1z" stroke="#fb0000" fill="none"/>
  <path d="M661.5 423c-.3.5-.1 1 .4 1 .6 0 1.1-.5 1.1-1 0-.6-.2-1-.4-1-.3 0-.8.4-1.1 1z"/>
  <path d="M1020 430c0 .5.4 1 .9 1 .6 0 1.3-.5 1.6-1 .3-.6-.1-1-.9-1-.9 0-1.6.4-1.6 1z" stroke="#fb0000" fill="none"/>
  <path d="M660 433c0 .5.5 1 1 1 .6 0 1-.5 1-1 0-.6-.4-1-1-1a1 1 0 0 0-1 1z"/>
  <path d="M1021.2 433.3c-1.9.8-2.2 1.6-1.7 3.6.3 1.4.9 5.1 1.2 8.1.3 3 1.4 6.7 2.4 8.2 1.5 2.1 1.9 4.4 1.9 12.4 0 10.9-.7 12.4-1.1 2.4-.2-7-1.3-11.3-3.2-12.9-.9-.7-1.2 5.9-1.2 27.5 0 27.2.6 32.3 2.7 24.8.5-1.6 1.2-9.3 1.5-17.2.3-7.8 1-14.2 1.4-14.2 1.1 0 1 20.4 0 27.8-.8 5.7.4 6.6 2.7 1.9 1.5-3.1 1.9-24.4.7-35.4-1-9.1-.3-11.5 3.6-13.2a9 9 0 0 0 4.5-4.7c1.3-3.1 1.8-3.4 5.9-3.4 5.1 0 6-1.5 1.6-2.5-3.5-.8-7.6-4.6-10.2-9.6-1-2-2.5-3.9-3.4-4.3-2.5-.9-6.7-.6-9.3.7z" stroke="#ffffff" fill="none"/>
  <path d="M1031.1 440.7c1.8 4.7 2.3 11.9.9 12.8-1.9 1.2-5.8-1.5-7-4.8-1.4-4.2-1.3-7.3.6-9.1 2.3-2.4 4.3-1.9 5.5 1.1z" stroke="#fb0000" fill="none"/>
  <path d="M660.5 445c.3.5.8 1 1.1 1 .2 0 .4-.5.4-1 0-.6-.5-1-1.1-1-.5 0-.7.4-.4 1z"/>
  <path d="M173.5 486.5c-2.3 1.9-4.2 2.5-8.3 2.5-2.9 0-6.1.5-7.2 1.2-1.6 1-2.3.9-4.3-1-3.2-3-5.1-2.8-8 1-2.3 2.9-2.7 3-5.4 2-1.5-.6-4.4-1.1-6.3-1.1-1.9 0-5.3-.3-7.5-.6-3.2-.5-4.6-.2-6.8 1.5-2.5 2-2.8 2.7-2.2 6.1.9 5.2-1.6 9.3-6.5 10.8-5.2 1.5-9 4.8-9 7.6 0 3.1.6 3.4 8.2 4.2a26 26 0 0 1 8.3 1.9 8 8 0 0 0 4 1.4c4 0 4.9 1.4 3.1 4.8-3.1 6-1.4 9.1 6 11.1 2.3.6 4.7 1.8 5.4 2.5.6.8 2.6 1.8 4.3 2.2 4.5.9 5 1.4 3.5 3.1-.9 1.2-1.2 9-1 34.1.1 17.9.4 32.8.7 33.1.3.2 1.1-.1 1.8-.8.9-.9 1.2-8.1 1.3-27.5.1-27.8.8-36 2.7-35.3 1.3.5 1.3 1.5-.1 22.7-1 14.9-.9 24.9.3 61.7.6 15.9 1.1 21.3 2 21.3 1.8 0 2.8-16.3 1.5-24.9-1.4-8.8-.6-59.8 1-69.1.7-3.6 1.3-7.8 1.4-9.4 0-1.6.7-3.1 1.4-3.4.7-.2 2.4-2.2 3.8-4.3 1.3-2.1 3.1-3.9 3.8-3.9.8 0 2.3-1.2 3.3-2.6 1.8-2.4 2-2.5 4.8-1 5.1 2.7 8.7 2.1 12.7-2.2 2-2 4.2-5.6 4.8-7.9 1.1-3.7 1-4.6-.8-8.4a14 14 0 0 1-1.8-4.7c.3-.2 2.6-.9 5.2-1.6 3.8-.9 4.9-1.7 5.5-3.7 1-3.9-1.4-8.7-4.8-9.4l-6.8-1.6c-2.3-.6-4.7-.9-5.5-.7-1 .2-1.4-.3-1.1-1.7.7-4 .3-9.6-.9-11-1.7-2-3-1.8-6.5 1z" fill="none" stroke="#ffffff"/>
  <path d="M178 490.5c0 3-3 7.5-5 7.5-1.1 0-2-.4-2-.9s-.3-1.6-.6-2.5c-.4-1 .5-2.2 2.8-3.6 4-2.4 4.8-2.5 4.8-.5zM153.5 493c.4.6.4 1.8.1 2.6-.4 1.2-1 1.3-2.6.4-1.1-.6-2-1.7-2-2.5 0-1.7 3.6-2 4.5-.5zM129.7 494.5c1.2.3 2.8 1.9 3.6 3.4l1.4 2.9-4.7.6c-5.9.8-7.8.1-8.7-3.2-.7-2.8 1.9-5.5 4.6-4.8l3.8 1.1z" fill="none" stroke="#fb0000"/>
  <path d="M165.5 495c.3 1 .3 3.4 0 5.3-1 5.3 1.4 6.5 6.2 3.3a15 15 0 0 1 5.5-2.6c2.1 0 3.1 3 1.9 6.2-.9 2.3-1.2 2.4-9.1 2.2-6.7-.2-8.8-.6-11.2-2.4a34 34 0 0 0-14.5-5c-1.2 0-2.6-.6-3-1.3a4.8 4.8 0 0 0-2.6-2c-2.5-.9-1.1-2.7 2.1-2.7a38 38 0 0 1 15.5 7.2c3.3 2.6 5.6 1.4 3.8-2-.6-1.1-1.1-3.4-1.1-5.1 0-2.8.3-3.1 2.9-3.1 2.1 0 3.2.6 3.6 2zM193.5 504c1.8 1.5 1.9 4 .3 6.3-.9 1.1-3 1.8-6.2 1.9l-5 .3.3-5c.2-2.7.5-5.3.7-5.6.6-1 8.1.6 9.9 2.1zM144.3 505.6c8 .8 9 2.1 8 10.4-.5 4.2-.9 5-2.2 4.4-3.6-1.5-5.8-1.5-7 0-.8.9-2.1 1.6-2.9 1.6-1.1 0-.6-1 1.6-3.3 3.8-3.9 3.9-4.7 1.1-4.7-1.5 0-1.9-.4-1.5-1.5l1.2-3c.8-2.1-1.4-1.9-8.3.5-4.7 1.6-6.3 1.8-9.9.9-2.4-.6-4.4-1.5-4.4-1.9 0-2.5 8.3-5.1 14-4.5l10.3 1.1zM172.3 513.8a17 17 0 0 0 5.7 1.5c3.3.4 5.1 1.3 6.7 3.4 2.7 3.3 1.5 4.1-3 2-1.8-.8-4.8-1.8-6.7-2.2-4.5-.9-11-4.5-11-6.1 0-1.3 6.1-.3 8.3 1.4zM118.9 512.6c4 .8 3.9 1.9 0 3.3-3.5 1.2-11.9 1.5-11.9.4 0-.3.7-1.5 1.7-2.5 1.7-1.9 4.8-2.2 10.2-1.2z" fill="none" stroke="#fb0000"/>
  <path d="M136.8 515.7c.4 2.5-3.6 5.7-6.5 5.1-3-.6-2.8-4.5.4-6.2 3.6-2 5.7-1.6 6.1 1.1zM160 516.9c0 1 1.3 4.7 3 8.2 1.9 4.1 2.7 7.2 2.3 8.7-.8 3.4-2.5 2.3-5.5-3.9-4.4-8.8-4.9-14.9-1.3-14.9.8 0 1.5.8 1.5 1.9zM176.2 522.5c7.7 1.4 11.5 8.7 6.3 12.1-4.2 2.7-8.4.3-12.4-7.2-2.8-5.1-2.7-6.8.2-6.1 1.2.3 3.9.9 5.9 1.2zM150 533.7c-.6 2.9-1.5 5.3-1.9 5.3l-4 .6c-2.5.5-3.1.3-3.1-1.1a41 41 0 0 1 8.3-14.8c1.7-.6 2.1 3.9.7 10zM137.5 525c1.5 2.4-3.1 11.7-5 9.9-1.6-1.7-1.4-5.8.5-8.2 2.3-2.9 3.5-3.3 4.5-1.7zM159 540.9c0 3.2-1.6 5.1-4.5 5.1-3.9 0-4.7-2-2-5.2a10 10 0 0 0 2.5-5.1c.1-2.2.1-2.2 2 .2a9 9 0 0 1 2 5z" fill="none" stroke="#fb0000"/>
  <path d="M929.6 486.1c-3.5 1-6.5 3.6-7.7 6.8-.7 1.7-1.4 2.1-2.7 1.6-.9-.4-3.9-1-6.7-1.5a14 14 0 0 0-10.1 1.4c-5.1 2.4-10.4 7.1-10.4 9.3 0 1.7 5.2 4.3 8.5 4.3 1.4 0 3.6 1.1 4.8 2.3 3.1 3.4 6 4.7 10.1 4.7 2 0 3.6.2 3.6.4l-1.5 4.6c-3.1 8.9-.5 15 6.4 15 4 0 6.3-1.8 9.7-7.8 2.1-3.7 3-4 3.9-1.2.3 1.1 2.7 3.7 5.2 5.7l4.6 3.8-.5 22.1c-.3 12.2-.2 22.7.1 23.2 1.2 2 3.3-.5 4.1-4.9.5-2.4 1.2-12.4 1.6-22.2.5-12.2 1-17.7 1.8-17.4 1.6.5 2 21.4.6 32.8-1.3 10.2-.8 13.9 1.6 13.9 1 0 1.4-1.2 1.4-3.9 0-2.1.6-5.4 1.4-7.2.9-2.3 1.5-10.1 2-23.3.3-11 .8-20.2 1.1-20.5.3-.3 2.9.3 5.9 1.3 2.9 1 6.1 1.7 7.1 1.5 2.6-.6 3.9-3.2 3.1-6.2-.8-3.2-6-9.4-8.7-10.2-2.2-.7-2.5-3-.5-3.8 1.9-.8 10.1 1.5 15.3 4.1 5.2 2.7 9.4 2.8 11.6.4 2.1-2.3 2.2-7.1.2-10-2.6-3.6-10.2-7.4-16.3-8.1-5.3-.6-5.6-.8-6.4-3.8a9.5 9.5 0 0 0-3.1-4.7 60.2 60.2 0 0 0-24.5-.5c-2.3.7-3.7.8-4.5 0-2.1-1.7-9-2.8-12.1-2z" stroke="#ffffff" fill="none"/>
  <path d="M938.5 492c3.3 3.4 4 3.6 6.1 1.5 2.4-2.3 8.8-3.6 16.7-3.3l7.2.3.3 4c.4 5.2 1.3 6 7 6 5.4 0 10.7 2.2 14.5 6.1 2.6 2.5 3.6 5.4 1.9 5.4-.4 0-3.9-1.2-7.7-2.7-8.6-3.2-24.4-4.4-26.4-1.9-1.7 2.1-1 3 6.8 8.1a30 30 0 0 1 7.5 6c1 2.8.7 4.5-.9 4.5-2.7 0-10.9-4.7-13.9-7.9-3.2-3.3-7.6-4.2-7.6-1.6 0 .9.9 3.4 2.1 5.6 2.8 5.6 2.3 8.3-1.7 8.7-4.4.4-8.1-3.1-10.4-9.8-1.8-5.4-1.8-5.5.1-7.6 2-2.1 2.6-6.4.9-6.4-.5 0-1.5 1-2.1 2.2-.7 1.3-1.8 2.6-2.5 3.1-.7.4-2 3.1-2.8 6-2.1 7.3-6.2 12.9-8.9 12.5-2-.3-2.2-.8-2-5.8.5-9.8.8-11.5 2.3-12.7 2.5-1.9.7-2.4-5.8-1.5-6.4.9-8.2.3-8.2-2.9 0-.9.7-2.2 1.5-2.9 1.8-1.5.9-3.4-1.3-2.5-.8.3-3.8.8-6.6 1.1-2.8.3-5.3.7-5.6.9-1.2.7-3.2-1.3-2.5-2.5 1.3-2.2 10.9-6 15-6 2.2 0 5.8.7 8 1.5 5.7 2 6.5 1.9 6.5-1.4 0-3.4 3.9-7.1 7.4-7.1 1.2 0 3.5 1.3 5.1 3z" stroke="#fb0000" fill="none"/>
  <path d="M938.1 499.6c-1.9.8-4.3 1.2-5.3.8-2.7-.8-2.1 2.5.7 4a9 9 0 0 1 2.9 2.5c.8 1.2 1 1.2 2 0a9 9 0 0 1 10.2-2.7c3.1 1.1 3.6 1 5.6-.9 1.8-1.8 1.9-2.4.8-3.7-1.6-2.1-12.2-2.1-16.9 0zM924 503c0 .5.9 1 2 1s2-.5 2-1c0-.6-.9-1-2-1s-2 .4-2 1zM932 508c0 .5.4 1 .9 1 .6 0 1.3-.5 1.6-1 .3-.6-.1-1-.9-1-.9 0-1.6.4-1.6 1z" stroke="#fb0000" fill="none"/>
  <path d="M1023 514.4c0 .8.5 1.8 1 2.1.6.3 1-.3 1-1.4 0-1.2-.4-2.1-1-2.1-.5 0-1 .6-1 1.4zM1024 525.9c0 5.7 1.9 7.1 2.2 1.6l.2-4.7c.1-.6-.5-1.3-1.1-1.6-.9-.2-1.3 1.1-1.3 4.7zM1023 547c0 .5.5 1 1.1 1 .5 0 .7-.5.4-1-.3-.6-.8-1-1.1-1-.2 0-.4.4-.4 1zM1017.5 549c.3.5.8 1 1.1 1 .2 0 .4-.5.4-1 0-.6-.5-1-1.1-1-.5 0-.7.4-.4 1z" stroke="#ffffff" fill="none"/>
  <path d="M236 565.8c0 2.8.5 4.2 1.7 4.6 2.4 1 3.5-.7 3.1-4.5-.2-2.6-.8-3.5-2.5-3.7-2.1-.3-2.3.1-2.3 3.6zM237 576c0 .5.7 1 1.5 1s1.5-.5 1.5-1c0-.6-.7-1-1.5-1s-1.5.4-1.5 1zM236 584c0 .5.5 1 1.1 1 .5 0 .7-.5.4-1-.3-.6-.8-1-1.1-1-.2 0-.4.4-.4 1z" fill="none" stroke="#fb0000"/>
  <path d="M947.6 585.6c-.4 1.1-.1 1.4 1.1 1.2.9-.2 1.8-.9 2.1-1.6.6-1.8-2.5-1.5-3.2.4z" stroke="#ffffff" fill="none"/>
  <path d="M832 592c-.7 1.6-1.6 3-2.1 3s-.9.4-.9.8c0 1.5 4.9 3.2 9 3.2 5.3 0 5.3-2.6.1-6.8a30.6 30.6 0 0 0-4.4-3.2c-.3 0-1 1.3-1.7 3z"/>
  <path d="M1007 594.5c-1.3 1.6-.6 3.5 1.5 3.5 1.5 0 2.8-2.7 1.9-4.1-.8-1.3-2-1.1-3.4.6zM955 595c0 .5.5 1 1 1 .6 0 1-.5 1-1 0-.6-.4-1-1-1a1 1 0 0 0-1 1zM946.6 600.9c-.4.7-.5 1.5-.2 1.8.9.9 1.9-.4 1.4-1.8-.4-1.1-.6-1.1-1.2 0zM1001.9 602.6c-1.1 1.4-1 1.5 1.1 1.2 1.3-.1 2.5-.9 2.8-1.6.5-1.7-2.3-1.5-3.9.4zM954 603.6c0 .8.5 1.2 1 .9.6-.3 1-1 1-1.6 0-.5-.4-.9-1-.9-.5 0-1 .7-1 1.6zM215.3 608.2c-.7.7-1.6 2.5-2.2 4-.8 2-1.9 2.8-5.1 3.3-3.7.6-13.5 6.4-15.2 8.8-.3.6-.1 2.1.5 3.5 1 2.1.8 2.7-1.3 4.3-6.9 5.1-8 6.2-8.6 8.5-.7 2.7 1.8 6.4 4.3 6.4 2.2 0 1.5 1.8-1.8 4.2-6.2 4.6-6.8 9.9-1.5 13.4 2.5 1.6 5 1.5 8.9-.1 1.4-.6 1.7-.2 1.7 2.3 0 5.7 5 8.2 12.6 6.3 4.3-1.1 9.9-.1 16.3 2.8 2.7 1.3 5.2 10.3 5.7 21.1.8 14.8 2.7 28.3 4.2 28.8 2.8.9-.1-34.1-3.7-44.7-2.1-6.1-1.8-9.3.7-7.7 2.2 1.3 7.7 27.7 6.9 33-.2 1.7.2 7.4.9 12.6.7 5.2 1.1 10.4.8 11.5-.2 1.1-.6 6.9-.9 13-.2 6-.8 15-1.3 20-.5 4.9-.7 9.2-.5 9.5 1 1.1 3.3-3.5 3.8-7.9.3-2.5 1.1-7.8 1.8-11.6.7-3.9 1-9 .6-11.4a34 34 0 0 1 .4-9c.6-3.1.6-7.6-.2-13.8-.6-5-1.1-12-1.1-15.5 0-3.6-1.1-10.6-2.5-15.9-1.3-5.1-2.5-12-2.5-15.2 0-5.5.1-5.7 2-4.7 2.9 1.6 8.5.9 8.5-1 0-1-1.4-1.7-4.2-2.1-2.7-.3-5.8-1.7-8.3-3.8-4.5-3.6-5.9-3.6-3.8-.1 1 1.8 1 2.4.1 2.7-.7.3-1.3 1.1-1.3 1.9 0 2.8-3.9 5.4-8 5.4-3.2 0-4.8-.7-7.9-3.5-4.3-4-6.6-4.5-5.6-1.5.5 1.5 0 2.2-2 3-6.1 2.3-7.8.1-6.2-7.7.6-2.9.8-5.5.5-5.8-.3-.4-2.7 1-5.3 2.9-5.9 4.5-9.5 4.8-9.5.7 0-2.1 1.5-4.5 6-9.2 3.3-3.5 6-6.7 6-7.1 0-.5-2-.8-4.5-.8s-4.5-.3-4.5-.6c0-1.9 2.6-4.7 6-6.4 2.2-1.1 4-2.4 4-2.8 0-.4 1-1.2 2.3-1.7 2.8-1.3 2.8-2.7-.1-4-1.2-.5-2.1-1.4-1.9-2 .4-1.2 8.8-4.4 14.2-5.4 2.5-.5 3.9-1.2 3.7-2-.8-3.5.9-5.1 5.4-5.1 4.6 0 4.7.1 5.8 5.2.7 3 3 3.7 4 1.3.3-.9 2-2.2 3.8-2.9 8.1-3.3 9.7-2.9 10.7 3 .7 4.2 4.1 6.3 4.1 2.6 0-1.1.6-2.4 1.3-3 2-1.7 15.7-3.6 16.9-2.4 1.8 1.8 0 4.3-4.2 6-2.2.9-4 2.2-4 2.7 0 .6 3.2 1.8 7.2 2.8 4 .9 7.9 2.3 8.7 3.1 1.3 1.4 1.2 1.8-1.3 4-1.4 1.4-3.5 3-4.6 3.6-2.6 1.4-2.5 2.7 0 3.5 2.4.8 5 5.4 5 8.8 0 2-1.1 3.1-5.1 5.2a17.3 17.3 0 0 1-11.3 2.3c-5.6-.3-6.1-.1-6.1 1.8 0 1.1-.6 2.8-1.4 3.8-1.6 1.9-.9 3.1 1.4 2.3.8-.4 1.5-1.6 1.5-2.8 0-2 .3-2.1 6-1.4 5.6.6 6.4.5 11.7-2.6 8.9-4.9 9.4-6.6 5.2-15.1-2.3-4.5-2.4-5.8-.4-5.8.8 0 2.4-.9 3.6-2.1 3.6-3.6.2-10.9-5.1-10.9-3.8 0-4.2-.8-1.9-4 2-2.6 2-2.9.5-5.9-1.6-3-1.9-3.1-7.7-3.1-3.3 0-8 .5-10.4 1.1-3.9 1-4.6.9-7.4-1.2-2.9-2.1-3.5-2.2-9.4-1.2-5.5.9-6.5.8-8.8-.9-3.4-2.6-14-3.6-15.6-1.6z" stroke="#ffffff" fill="none"/>
  <path d="M220.3 625c0 2.6.3 2.9 2.1 2.4 3-.9 3.1-1.2 1.1-3.4-2.5-2.7-3.2-2.5-3.2 1zM231.4 624.4c.4 1.5 0 2.8-.9 3.6-.8.7-1.5 1.8-1.5 2.4 0 .7-1.1 2.2-2.5 3.4-1.4 1.2-2.5 2.6-2.5 3.2 0 .5-.6 1-1.4 1-.7 0-1.6 1-2 2.2-1 3.8-.7 4.2 1.4 2.3 1.3-1.2 2.9-1.6 5.1-1.3 1.7.3 5.8-.1 9.1-.7 5-1.1 6-1.1 6.5.1 1 2.6 3.3 1.5 3.3-1.6 0-2.6.4-3 2.6-3 3.4 0 2.6-2.4-.9-2.8-3-.4-4.8-4.5-2.8-6.5 2.9-2.9.1-3.6-4.8-1.1-3.4 1.7-6.1.7-6.1-2.2 0-.8-.7-1.4-1.6-1.4-1.2 0-1.5.6-1 2.4zM253 626c0 .5.7 1 1.6 1 .8 0 1.2-.5.9-1-.3-.6-1-1-1.6-1-.5 0-.9.4-.9 1z" fill="none" stroke="#fb0000"/>
  <path d="M248 628c0 .5.7 1 1.5 1s1.5-.5 1.5-1c0-.6-.7-1-1.5-1s-1.5.4-1.5 1z" fill="none" stroke="#fb0000"/>
  <path d="M940.5 635c-.8 1.3.4 3.2 1.6 2.5 1.2-.8 1.2-3.5 0-3.5-.6 0-1.3.4-1.6 1z" stroke="#ffffff" fill="none"/>
  <path d="M253.5 636c-.3.6.1 1.3 1 1.6 1.9.8 3 0 2-1.5-.8-1.4-2.2-1.4-3-.1zM259 638c0 .6 1.1 1.5 2.4 2 1.3.5 2.7 1.4 3.1 1.9.9 1.6 2.5 1.3 2.5-.4 0-.8-1.6-2.2-3.6-3-4.3-1.8-4.4-1.8-4.4-.5z" fill="none" stroke="#fb0000"/>
  <path d="M384 638.4c-1.4 1.8-.6 5 1.3 4.4 1.5-.6 2.2-3.7 1-4.9-.6-.6-1.5-.4-2.3.5z" fill="none" stroke="#ffffff"/>
  <path d="M199 640.5c0 .8.7 1.5 1.5 1.5s1.5-.7 1.5-1.5-.7-1.5-1.5-1.5-1.5.7-1.5 1.5zM212.5 644c-.3.5.1 1 1 1s1.3-.5 1-1c-.3-.6-.8-1-1-1-.2 0-.7.4-1 1zM231 646c0 1.6.5 3 1 3 .6 0 1-1.4 1-3 0-1.7-.4-3-1-3-.5 0-1 1.3-1 3zM248 646c0 .5.7 1 1.5 1s1.5-.5 1.5-1c0-.6-.7-1-1.5-1s-1.5.4-1.5 1zM214 650.6c0 1.7 2.2 1.4 2.8-.4.2-.7-.3-1.2-1.2-1.2-.9 0-1.6.7-1.6 1.6zM252.5 651c-.7 1.2.2 3 1.6 3 1.2 0 1.2-2.7 0-3.5-.5-.3-1.2-.1-1.6.5z" fill="none" stroke="#fb0000"/>
  <path d="M360.5 651c-.7 1.2.2 3 1.6 3 .5 0 .9-.9.9-2 0-2.1-1.5-2.7-2.5-1zM350.3 653.5c-.3.9-.3 1.8 0 2.2 1 1 3.7-.6 3.7-2.2 0-2-2.9-2-3.7 0zM387 657.1c0 .5.5.7 1 .4.6-.3 1-.8 1-1.1 0-.2-.4-.4-1-.4-.5 0-1 .5-1 1.1zM353.5 661c-.4.6-.3 1.6.3 2.2.6.6 1.2.6 1.7-.2.4-.6.3-1.6-.3-2.2-.6-.6-1.2-.6-1.7.2zM304.3 664.6c-.3.8.1 2.3 1 3.2 1.5 1.4 1.7 1.4 2.3-.1.8-2.1-.1-4.7-1.6-4.7-.6 0-1.3.7-1.7 1.6zM311.4 668.4c-.9 2.2.2 4.6 2.1 4.6 1.2 0 1.5-.8 1.3-2.7-.3-3-2.5-4.2-3.4-1.9zM307 678.5c0 .8.5 1.5 1 1.5.6 0 1-.7 1-1.5s-.4-1.5-1-1.5c-.5 0-1 .7-1 1.5zM315.6 681.7c-.4.9-.3 2 .2 2.5 1.1 1.1 4.7-1.6 3.8-3-1.1-1.7-3.3-1.5-4 .5zM389 681.6c0 .8.5 1.2 1 .9.6-.3 1-1 1-1.6 0-.5-.4-.9-1-.9-.5 0-1 .7-1 1.6zM360.7 690.6c-.7.8.4 4.4 1.4 4.4 1.2 0 1.2-3.7 0-4.4-.4-.3-1.1-.3-1.4 0zM320 692.6c0 .8.5 1.2 1 .9.6-.3 1-1 1-1.6 0-.5-.4-.9-1-.9-.5 0-1 .7-1 1.6zM312.5 703c-.3.6.1 1.3 1 1.6 1.9.8 3 0 2-1.5-.8-1.4-2.2-1.4-3-.1z" fill="none" stroke="#ffffff"/>
  <path d="M873.2 705.6c.1.9.9 1.9 1.6 2.2.9.3 1.3-.2 1-1.4-.1-.9-.9-1.9-1.6-2.2-.9-.3-1.3.2-1 1.4z" stroke="#fb0000"/>
  <path d="M327.5 715c.3.5.8 1 1.1 1 .2 0 .4-.5.4-1 0-.6-.5-1-1.1-1-.5 0-.7.4-.4 1z" fill="none" stroke="#ffffff"/>
  <path d="M875 716.4c0 .9.5 1.6 1 1.6.6 0 1-.4 1-.9 0-.6-.4-1.3-1-1.6-.5-.3-1 .1-1 .9z" stroke="#fb0000"/>
  <path d="M439.7 723.6c-1.4 1.5-.6 3.4 1.4 3.4 1.4 0 1.9-.5 1.7-1.7-.3-1.8-2-2.7-3.1-1.7zM441.7 732.6c-1.4 1.5-.6 3.4 1.4 3.4 1.4 0 1.9-.5 1.7-1.7-.3-1.8-2-2.7-3.1-1.7zM232 741c0 .5.5 1 1 1 .6 0 1-.5 1-1 0-.6-.4-1-1-1a1 1 0 0 0-1 1zM444 742.4c0 1 .9 1.6 2.1 1.6 2.4 0 2.1-2.3-.4-2.8-1-.2-1.7.3-1.7 1.2z" fill="none" stroke="#ffffff"/>
  <path d="M879 744.1c0 .5.5.7 1 .4.6-.3 1-.8 1-1.1 0-.2-.4-.4-1-.4-.5 0-1 .5-1 1.1z" stroke="#fb0000"/>
  <path d="M446 754c0 1.3.5 2 1.3 1.7a2 2 0 0 0 1.2-1.7c0-.7-.6-1.5-1.2-1.8-.8-.2-1.3.5-1.3 1.8z" fill="none" stroke="#ffffff"/>
  <path d="M506 755.6c0 .9.5 1.4 1.2 1.2 1.8-.6 2.1-2.8.4-2.8-.9 0-1.6.7-1.6 1.6zM549 757.5c0 .8.5 1.5 1 1.5.6 0 1-.7 1-1.5s-.4-1.5-1-1.5c-.5 0-1 .7-1 1.5zM877.5 758c.3.5.8 1 1.1 1 .2 0 .4-.5.4-1 0-.6-.5-1-1.1-1-.5 0-.7.4-.4 1z"/>
  <path d="M461 767c0 1.1.5 2 1 2 .6 0 1-.9 1-2s-.4-2-1-2c-.5 0-1 .9-1 2zM448.2 766.9c.2.7.7 1.2 1.1 1.2 1.2-.1.9-1.5-.3-2-.7-.2-1.1.2-.8.8zM180 767.5c0 .8 4.3 5.5 5.1 5.5.9 0 1.7-3.2 1.2-4.8-.4-1.1-6.3-1.8-6.3-.7zM225.6 775.7c-1.1 1.1-.6 2.3.9 2.3.8 0 1.5-.4 1.5-.9 0-1.3-1.6-2.2-2.4-1.4z" fill="none" stroke="#ffffff"/>
  <path d="M498.2 777.6c.4 2.1 2.2 2.3 2.6.1.2-1-.3-1.7-1.3-1.7s-1.5.6-1.3 1.6zM499 784c0 .5.5 1 1.1 1 .5 0 .7-.5.4-1-.3-.6-.8-1-1.1-1-.2 0-.4.4-.4 1zM540 789.1c0 .5.5.7 1 .4.6-.3 1-.8 1-1.1 0-.2-.4-.4-1-.4-.5 0-1 .5-1 1.1z"/>
  <path d="M222.8 791.2c.9.9 1.5.9 2.4 0 .9-.9.7-1.2-1.2-1.2s-2.1.3-1.2 1.2zM464.2 792.4c.1 1 .8 1.7 1.3 1.7 1.5-.1 1.2-2.4-.3-2.9-.9-.3-1.3.2-1 1.2zM456 792.9c0 .6.5 1.3 1 1.6.6.3 1-.1 1-.9 0-.9-.4-1.6-1-1.6-.5 0-1 .4-1 .9zM463 803c0 1.1.6 2 1.3 2 1.9 0 2.7-1 2-2.6-.8-2.1-3.3-1.7-3.3.6z" fill="none" stroke="#ffffff"/>
  <path d="M493 802.5c0 .8.5 1.5 1 1.5.6 0 1-.7 1-1.5s-.4-1.5-1-1.5c-.5 0-1 .7-1 1.5zM506 802c0 .5.5 1 1.1 1 .5 0 .7-.5.4-1-.3-.6-.8-1-1.1-1-.2 0-.4.4-.4 1z"/>
  <path d="M213.9 808.2a11 11 0 0 1-3.1 3.6c-2.1 1.6-2.4 3.2-.4 3.2 1.8 0 7.8-6.8 7.1-8.1-1-1.5-2.4-1-3.6 1.3zM466.2 812.9c.2.7.7 1.2 1.1 1.2 1.2-.1.9-1.5-.3-2-.7-.2-1.1.2-.8.8zM470 826c0 1.3.5 2 1.3 1.7a2 2 0 0 0 1.2-1.7c0-.7-.6-1.5-1.2-1.8-.8-.2-1.3.5-1.3 1.8z" fill="none" stroke="#ffffff"/>
  <path d="M551.6 845.9c-.4.5-.2 1.2.3 1.5.5.4 1.2.2 1.5-.3.4-.5.2-1.2-.3-1.5-.5-.4-1.2-.2-1.5.3zM551.5 859c.3.5.8 1 1.1 1 .2 0 .4-.5.4-1 0-.6-.5-1-1.1-1-.5 0-.7.4-.4 1zM546.7 864.7c-.8.7-1 4.3-.3 4.3 2 0 5.6-2.2 5.6-3.5 0-1.5-4-2.2-5.3-.8z"/>
</svg>
