<svg version="1.0" xmlns="http://www.w3.org/2000/svg" width="1537.333" height="962.667" viewBox="0 0 1153 722"><path d="M988 76.4c-2.5 1.3-6.3 2.9-8.5 3.6-2.2.7-5.1 2-6.5 2.8-4.3 2.6-12 10.5-12 12.3 0 3.4-1.2 4.9-4.5 5.5-2.9.5-3.8.1-7.9-4-3-3.1-5.4-4.6-7.1-4.6-3.5 0-13.2 9.2-14.3 13.4-.7 2.9-1.5 3.4-10 6.2-12.2 4.2-15.6 7.2-11.6 10.5 1.1.9 4.4 1.4 9.8 1.4h8.1l1.7 3.5c2.7 5.6 2.4 7-1.8 7-2 0-6.7.7-10.4 1.6l-6.8 1.7-4.3-4.5-4.4-4.5-12.1-.6c-13.4-.6-22.1.8-25.8 4.1-4.3 3.9-4.6 3.7-3.9-2.7.7-7-.4-9.1-4.9-9.1-3.3 0-15 8.1-18.5 12.8-11.9 16.1-10.9 40.3 2.2 54.3l4.6 4.9-.3 10.7c-.3 10.7-.3 10.8-2.8 10.8-2 0-2.5-.6-3.2-4-.5-2.2-2.7-8.5-5-14-9.9-23.4-24.7-40-44.5-49.9-8.7-4.4-15.6-6.3-26.8-7.5-10.4-1.1-11.8-.9-24.1 2.9-5 1.6-12 3.4-15.6 4-3.6.7-7.9 2.1-9.6 3.3-24.6 17.9-33.4 32.2-37.1 59.9-1.9 13.9 2.3 34.8 10 50 3 5.9 13.4 16.5 16.9 17.2 4.3.8 6 4.7 3.6 8.6-1.6 2.8-1.6 3.1.5 8 2.8 6.5 6.5 9.5 13.4 11.1 3.1.7 5.8 1.6 6.1 2.1 1 1.7-7.6 15.6-11 17.7-3.3 2.1-6.5 7.5-7 12.1-.3 3.7-1.2 4.7-4.5 5.3-8.3 1.7-6.3 22.4 2.8 28.4 5.5 3.7 9.7 3.1 15.9-2.3 3.4-3 5.2-5.3 5.2-6.8 0-2.7 5.1-10 8-11.6 2.8-1.5 7-8.4 7-11.4 0-2.6 3.6-5.8 8-7.1 1.4-.4 3.9-1.3 5.5-2 4.6-2 9.6-3.5 11.5-3.5 1 0 3.4 1.6 5.3 3.5s4.2 3.5 5.1 3.5c.9 0 1.6.6 1.6 1.4 0 1.3-2.6 3.3-13 9.7-4.8 3-10.7 7.3-30.3 22.6-2.6 2-5 4.7-5.3 6-.7 2.6.3 4.4 1.4 2.7.9-1.4 6.2-2.7 6.2-1.5 0 .5-2.4 2.6-5.2 4.7-2.9 2.1-5.5 4.1-5.8 4.4-1.1 1.4-16.8 11.9-20.7 13.9-6.7 3.4-9.3 2.3-5.8-2.3.8-1.1 1.5-2.7 1.5-3.6 0-2.2-3.2-5-5.7-5s-6.3-8.4-6.3-13.9c0-3.8-3.3-11.3-7.6-17.1-1.5-2.1-2.4-4.4-2.1-5.7.4-2.4-.1-2.7-4.3-2.3-3.3.3-9.6 3.6-10.3 5.4-.3.8-.3 3 0 4.9.4 2.7.1 3.6-1.3 4.2-2.2.9-26.4 2-26.4 1.2 0-.3 2.4-1.7 5.3-3.2 12.4-6.5 23-16.3 28-26.1 3.6-7 2.2-21.4-2.9-29.4-1.2-1.9-4.8-6.1-8.1-9.2-7.3-7.1-14.5-9.4-26-8.4-6.9.6-7.3.6-7.3-1.3 0-1.2-.4-4-1-6.3-.5-2.4-1.4-7.5-2-11.3-1.5-8.9-4.8-15.9-10-21-3.9-3.8-4.3-4-10.3-3.9-6.5.2-20.4 4.9-29.7 10.2-6.8 3.9-17.7 12.3-25.5 19.7l-7 6.7-6-1.2c-22.9-4.6-44.7-2.1-51.6 5.8-2.3 2.6-2.9 4.2-2.9 7.8 0 5.2 2 10.5 4.6 12.5 1.1.8 4.4 4.3 7.5 7.9 3.1 3.6 10.2 10.5 15.7 15.4l10.1 8.9-2.1 4.1c-3.5 6.9-3.9 9.6-2.1 12.7 1 1.6 2.1 2.9 2.5 2.9.4 0 .8 1.6.8 3.6 0 4.3 2.4 8.8 5.7 10.5 1.3.7 4.6 1.2 7.3 1.2 4.9-.1 6.5.9 3.4 2.1-.9.3-5.1.6-9.5.6-13.6 0-20.2-4.4-19.7-13.2.3-4.3.3-4.3-2.8-4.1-2.5.2-3.3-.2-3.8-2-.9-3.3-.8-3.7.9-3.7 3.1 0 6.5-4.7 6.5-8.7 0-4.7-1.8-7.4-7.3-11.1-8.6-5.7-18.6-9-34.1-11.1-4.4-.6-8.4-1.5-9-1.9-.6-.4-13-.5-27.6-.2-14.6.3-27 .3-27.7 0-3.6-1.6-12.1-19.5-14.9-31.6-.8-3.7-2.5-8.5-3.6-10.8-4.7-9.3-29.9-29.8-44.4-36.2-7.3-3.2-15.8-4.1-20.5-2.1-4.4 1.8-18.6 12-21.7 15.6-1.3 1.4-3.1 4.2-4 6.1-1 1.9-4.4 8.4-7.6 14.3-4.5 8.4-6.6 13.8-9.2 23.9-3.8 14.4-4.1 20.7-1.9 31.3.8 3.8 1.5 7.5 1.5 8.1 0 .6-5.2 2.3-11.5 3.8-24.8 5.8-49.8 17.3-56 25.6-8.1 11-3.9 22.2 10.2 26.9 6.8 2.3 23.4 2.9 32.3 1.1 2.5-.4 4.8-.6 5.2-.4.4.2 0 2.4-.8 4.8-1.3 3.9-2 4.5-5.2 5.2-4.4.9-63.2 1.2-63.2.3 0-.4.9-1.8 2-3.2 6.9-8.7 7.9-23.3 1.6-24.5-4.7-1-12.6 4.2-12.6 8.3 0 1.2-.6 2.5-1.4 2.8-.8.3-3.8 5.1-6.7 10.7-5.8 11.1-5.8 11.1-16.7 13.6-8.3 1.9-19.2 6.4-19.2 8 0 2.3 2.9 3.6 6.7 3 11.3-1.8 13.3-1.9 13.8-.4.4.9-.6 5.2-2 9.7l-2.6 8.1h-7c-9.8 0-13.3 2.4-10.7 7.3 1.5 3.1 2.7 3.7 7.1 3.7 2.6 0 3.7.4 3.7 1.5 0 .8-2 7-4.4 13.8-7.3 20.2-9.4 27.7-12.6 43.8-4 20.1-4.5 25.3-3 32.2 1.8 8.7 5.6 7 9-4.2 1-3.4 2.8-7.7 3.9-9.7 1.2-1.9 2.1-4.2 2.1-5 0-1.8 6.5-16.7 13-29.9 2.7-5.5 7.8-16.2 11.5-23.8 3.6-7.6 7.2-14 7.9-14.3.8-.3 2.8.2 4.5 1 4.3 2.3 4.6 2.1 7.6-2.9 3.4-5.9 2.7-8-3.6-10.2-2.7-1-4.9-2-4.8-2.3.1-1.2 12.4-10 14-10 .9 0 3.5-1.8 5.7-4 3.6-3.6 4.5-4 8.8-4 2.7.1 8 .5 11.7.9 5.9.8 7.3 1.4 11 4.8 2.4 2.2 7 5.3 10.2 6.9 5.5 2.7 6.9 2.9 17.1 2.9 9.1 0 11.7.3 14.8 2 3.5 1.9 3.7 2.2 3.1 5.5-.7 3.7 0 3.6 1.9-.2.9-1.8 2.1-2.4 5.8-2.6 3.9-.3 4.9 0 5.8 1.8l1.1 2.1 1.7-2.1c1.1-1.4 3.7-2.4 7.7-3 8.1-1.3 7.8-1.4 9.8 2.1 2 3.6 2.2 5.5.5 6.6-1.8 1.1-7.2 8.2-9.2 12-.9 1.8-2.1 3.3-2.6 3.3-1.2 0-8.3-3.3-9-4.2-.3-.4-5.1-.5-10.6-.3-7.2.2-11.2.8-14 2.1-5.2 2.5-14.3 11.5-19 18.9-2 3.3-5.9 9-8.6 12.6-4.3 6-4.8 7.2-4.8 11.9 0 3.5.7 6.5 2.1 9 2 3.5 2 4 .6 5.4-.8.9-1.8 1.6-2 1.6-.6 0-8.7-7.5-16.7-15.5-13.1-13.1-19.8-12.2-28.1 3.5-2.1 3.9-2.4 5.9-2.4 15.5 0 7.7.5 12.3 1.7 15.3 2.8 7.4 8.1 15.5 14.4 21.7 3.3 3.4 7.6 8.9 9.4 12.4 4.3 8.1 9 12.5 15.9 15 9.4 3.3 10.6 3.4 15.6 1.2 2.6-1.2 5.3-2.1 6-2.1 1.5 0 5.9-5.6 6.9-8.7.4-1.2.2-3-.5-4.1-1-1.6-.9-2.9.5-6.6 2.1-5.4 10.3-15.6 12.6-15.6.9 0 2.9 1.4 4.5 3 1.6 1.7 4.6 3.5 6.6 4.2 5.9 1.7 10.8-1.4 26.8-17 15.7-15.5 18.8-20.3 19.8-30.7.6-7.1-.6-13.2-4.4-20.7-1.2-2.6-2.3-5.2-2.3-5.7 0-1.4 8.7-5.6 18-8.6 11.9-3.9 26.2-4 37-.3 4.1 1.4 10 3.1 13 3.8 12.7 2.8 18.9 5.1 18.3 6.7-.5 1.3-.3 1.3 1.6.4 2.9-1.6 3.5.2 2.7 8.8-.6 5.6-.3 7.8 1.5 12.6 2.3 6.2 8.8 13.5 12 13.5 4.1 0 1 7.4-5.7 13.6-2.4 2.3-4.4 5-4.4 6.1 0 1.4-2.5 3.1-9.7 6.7-5.4 2.7-10.7 5.6-11.8 6.6-1.1 1-4.5 3-7.5 4.5s-7.3 4-9.5 5.5c-2.2 1.4-8.4 5-13.7 7.8-5.4 2.8-12.8 7-16.5 9.3-9 5.5-37.5 21.9-38.1 21.9-.3 0-8.2 4.4-17.6 9.7-16 9.1-29.8 16.3-31.5 16.3-.3 0-5.4 2.5-11.2 5.5-9.4 4.8-31.8 13.1-40.6 15-1.8.3-3.6 1.1-3.9 1.7-.8 1.2 1.2.9 9.6-1.7 3-.9 6.9-1.9 8.5-2.2 21.5-3.6 29.1-5.5 33.8-8.2 2.9-1.6 9-3.9 13.7-5.1 4.7-1.2 13.2-3.7 19-5.5 16.7-5.4 29.6-8.7 31.6-8.3 1.6.4 1.3 1-2 3.9-7.4 6.4-11.6 10.7-11.6 11.7 0 .6.9 2 2 3 3.6 3.4 17 2.5 27.5-1.8 1.7-.7 4.6-1.6 6.5-2 1.9-.4 8.7-3.1 15-5.8 13.9-6.1 18.7-7.2 19.6-4.6 1.3 4.4 2 4.9 6.3 4.5 6.9-.5 26.4-8.9 35.6-15.3 12.2-8.6 16-11 25.7-16.6 5.9-3.4 11.5-6.2 12.5-6.2s4.3-1.8 7.3-3.9c14.8-10.5 38.6-24.7 57.7-34.7 16.3-8.4 18.1-9.7 16.5-11.6-.9-1.2-.1-2 5.1-4.4 3.4-1.6 6.6-3.5 7-4.2 1.1-1.6 13.7-7.6 14.4-6.8.3.3 0 1.2-.7 2.1-2 2.4-.6 4.3 2.6 3.7 3.7-.7 18.2-9.7 21.4-13.2 2.7-3 44.9-31.4 52.1-35.1 6.6-3.3 11.9-8.1 11.9-10.7 0-1.5-.6-2.2-2-2.2-3.5 0-2.1-2.4 4.3-7.1 5.3-3.9 6.7-4.6 9.7-4.2 5.3.7 7.5-2.2 7.4-9.9l-.1-6 7.6-6c9.5-7.6 21-15.3 21.6-14.6 1 1 3.5 18.4 3.5 24.8.1 12.3 3.9 11.8 6.5-.9.9-4.2 1.6-12.8 1.6-20.6l.1-13.5 3.5-2.1c1.9-1.2 4.7-3.3 6.1-4.6 3.4-3.1 15.7-11.3 17-11.3.5 0 1.5-.6 2.1-1.4.7-.8 2.9-2.3 4.9-3.4 2-1.1 9.9-6.3 17.4-11.6 9.9-7.1 13.9-10.5 14.7-12.7.5-1.6 2.1-4 3.5-5.4 3.9-3.9 3.3-4.8-2.3-4-6.9.9-7.2-.8-.9-4.8 5.3-3.3 19.2-10.7 20.2-10.7.4 0 .6 1.3.6 2.8 0 2.6 3.1 7.2 4.8 7.2.3 0 2.6-.8 5-1.7 3.8-1.4 4.8-2.5 7.1-7.2 1.6-3.3 4-6.5 6.2-8.1 2-1.4 6-4.4 9-6.8C830 318 835.4 314 836.2 314c.5 0 .8 9.6.7 22.5-.1 12.4.1 22.8.3 23.1 1 1 3.9-.9 5.2-3.5.8-1.4 1.7-4.9 2.1-7.6.4-2.8 1.8-12 3.1-20.5s2.4-17.1 2.4-19c0-2.9.6-3.8 3.5-5.5 3.7-2.1 20.8-14.5 28.7-20.8 7.5-5.9 5.7-8.3-3.9-5.2-4.5 1.4-2.1-1.2 6.3-7 4.8-3.3 10.1-7.2 11.8-8.6 4.6-3.9 13-8 17.5-8.6 3.3-.5 4.1-.2 5 1.6 1.5 2.6 2.6 2.6 9.8-.1 3.7-1.4 7.5-3.8 10.4-6.7 13.7-13.6 32.6-30.9 36.2-33.2 5-3.1 7.1-5.4 6.2-6.9-.9-1.4-3.3-1.3-8.7.7-2.6.9-5.1 1.4-5.4 1-.4-.3 1.8-3.7 4.8-7.4 3.1-3.7 6.3-8.2 7.1-9.8 2-3.6 14.6-16.9 20.3-21.3 2.3-1.8 4.5-4.3 4.8-5.6.3-1.4 1.5-2.8 2.6-3.1 1.1-.4 2-1.5 2-2.6s1.3-3.4 3-5.2c2-2.1 3-4.2 3-6.3 0-2.1 1-4 3.4-6.3 4.2-4 6.2-3.8 13.1 1.5 5.5 4.1 7.5 3.9 7.5-1 0-3.9-2.3-6.7-7.1-8.6-1.6-.7-2.9-1.7-2.9-2.3 0-.6 2.1-3.2 4.6-5.8 2.6-2.6 4.3-5.2 4-5.8-1.1-1.8-4.4-1.3-5.1.8-.7 2.4-6.5 8.1-8.1 8.1-.7 0-2.4-1.1-3.8-2.5-1.8-1.8-3.6-2.5-6.5-2.5-2.2 0-4.3-.5-4.6-1-1-1.6 4.4-3.1 13-3.7 12.9-.9 14.9-4.4 9.5-16.6-1.2-2.6-2.7-4.7-3.5-4.7-1.9 0-3.5 3.1-3.5 6.7 0 5.6-2.9 7.1-13.6 7.3-10.6.2-10.3.3-6.7-2 5.3-3.2 6.9-6.7 6.5-14.3-.1-1.8-1.8-4.5-4.6-7.5-2.4-2.6-4.6-6-5-7.5-.6-2.5-5.6-6.7-8.1-6.7-.6 0-3 1.1-5.5 2.4zm9.8 4.9c.5 4.2-2.6 12.4-5.6 14.7-2 1.6-3.7 2-8 1.8-6.8-.4-7.7-2.1-5.3-9.3 1.4-4.5 2.2-5.3 7.1-7.8 7.1-3.6 11.4-3.4 11.8.6zm-23 9.3c0 1.9.6 4.8 1.2 6.5.7 1.6 1.1 3.2.8 3.4-.3.3-3.2.2-6.6-.1-4.8-.5-6.2-1.1-6.2-2.3 0-3.4 6.7-11 9.7-11.1.6 0 1.1 1.5 1.1 3.6zm30.2.9c3.4 3.6 3.4 10.4 0 14-3.1 3.4-7.9 5.5-12.4 5.5-3.2 0-3.5-.2-3.4-2.9.1-3.8-.7-4.9-4.5-5.9l-3.2-.9 4-.7c6.5-1.1 10.8-3.7 12.8-7.9 2.2-4.3 3.5-4.6 6.7-1.2zm-59.2 6.1c3.5 2.4 2.6 4.3-3 6.9-5.9 2.8-10.8 3.3-10.8 1.1 0-2 7.7-9.6 9.8-9.6 1 0 2.8.7 4 1.6zM985 105c1.2.6 2 1.7 1.7 2.3-.5 1.7-9.6 4.4-20.7 6.1-5.2.9-14.4 2.5-20.5 3.6-19.7 3.7-37.5 4.6-37.5 1.8 0-1.2 7.5-4.3 13.9-5.7 4.6-1 5.7-.9 7.1.4 1 .9 3.5 1.5 6.1 1.5 4.9 0 15.8-2.6 17.4-4.1.5-.5 1.7-.9 2.7-.9 2.1 0 2.4-2 .6-3.8-1-1-1-1.5.2-2.3 2-1.4 26.1-.4 29 1.1zm-33.2 2.1c.4 2.4-6.2 5.2-13.5 5.7-5.2.4-6.3.2-6.3-1.1 0-1.1 1.9-2.1 6-3.3 3.3-.9 6.3-2.1 6.6-2.6 1-1.5 6.9-.5 7.2 1.3zm77.8 1.6c-1 1-1.9-.5-1-1.8.6-1.1.8-1.1 1.2 0 .2.7.1 1.5-.2 1.8zm1.4 4.7c0 2-.6 2.3-8.2 3.1-4.5.4-6.8.3-6.8-.4 0-.5 1.7-1.3 3.8-1.6 2-.4 4.6-1 5.7-1.5 3.1-1.3 5.5-1.1 5.5.4zm-47 .7c0 .7 1.4.8 4 .4 4.6-.8 5.2.3 1.9 3.6l-2.1 2.1-2.2-2.1c-2.8-2.6-8.1-2.8-9.5-.4-.7 1.4-1.2 1.5-2.2.6-1.6-1.6-.5-4.1 2.3-4.6 4.5-.8 7.8-.7 7.8.4zm26.8 2c-1.8 1.2-6.5 1.1-7.3 0-.6-1 5-1.9 7.3-1.2 1.1.3 1.1.5 0 1.2zm-48.4 1.8c1 1.6-.6 4.2-3 5.1-1.7.7-2.8 2.4-3.9 6.4-2.2 7.6-3.6 8.5-6.9 4.4l-2.6-3.3-2 2.5c-1.6 2.1-2.2 2.3-3.7 1.4-1.4-.9-1.7-2.3-1.6-5.8.2-3.4-.1-4.8-1.2-5.2-2.1-.9-.8-2.4 2-2.4 1.3 0 2.8.8 3.4 1.7.8 1.4 1.3 1.5 3.5.5 1.8-.8 2.5-.8 2.3 0-.1.6.4 1.3 1.1 1.5.9.4 1.1-.2.7-2-.8-2.9.3-3.8 5.5-4.8 5.1-1 5.8-1 6.4 0zm4.9 1.5c-.3 1.3 0 2.7.6 3 2 1.2 1.2 2.6-1.5 2.6-2.4 0-2.5-.2-1.9-3.3.9-3.8 1.3-4.7 2.4-4.7.5 0 .6 1.1.4 2.4zm35.5.1c1.2 1.2-.9 1.7-4.3 1.1-4.7-.9-4.7-3.1.1-2.3 2 .3 3.9.9 4.2 1.2zm-30.4 2.1c.9 2.2-.3 3.2-1.4 1.4-1.2-1.9-1.2-3-.1-3 .5 0 1.2.7 1.5 1.6zm12.3-1c-.3.3-1.2.4-1.9.1-.8-.3-.5-.6.6-.6 1.1-.1 1.7.2 1.3.5zm9.3 2.4c0 .5-1.1 1-2.5 1s-2.5-.5-2.5-1c0-.6 1.1-1 2.5-1s2.5.4 2.5 1zm-141.2 3.2c.2 1.3-.4 4.2-1.2 6.4-7.2 19.3-7.8 21.1-7.8 27.6 0 10.1 2.7 14.3 11.6 18.6 18.9 9.1 41.6 7.6 49.8-3.2 2.3-3.2 4.2-15.5 4-26.2-.1-8.8-.1-9.1 2.4-10.5 6.2-3.3 19.3-.8 22.9 4.4 2.4 3.4 2 13.2-.9 19.3-2.8 6.1-14.2 18.5-20.2 22-11.8 6.9-29.3 10.6-47.9 9.9-10.8-.3-14.6-1.5-17-5.2-1.3-2-2.2-2.3-4.8-1.8-2.7.5-3.7.1-6.4-2.7-8.1-8.4-11.1-21.7-7.9-35.1 2.1-9.1 4.4-13.2 10.8-19.4 7.6-7.5 12-8.9 12.6-4.1zM1006 124c0 .5-.9 1-2 1s-2-.5-2-1c0-.6.9-1 2-1s2 .4 2 1zm-74.4 1.7c1.3 1.7 1.3 1.7 1.4 0 0-.9.6-1.7 1.3-1.7 1 0 1.3 1.8 1.3 6.5 0 4.6-.3 6.5-1.3 6.5-1.4 0-4.6-5.8-5.7-10.3-.7-3.1.9-3.7 3-1zm47 3.9c.9 6.4-1.2 23.6-4 32.5-1.3 4.1-2.7 8.9-3.1 10.6-.5 2.7-1.1 3.3-3.3 3.3-3.3 0-5.1-3.3-5.8-10.5-.6-5.8 2.8-18.9 7.7-29.5 5.7-12.3 7.4-13.6 8.5-6.4zm23.7-2.3c8.3 2 5.5 3.2-7.8 3.2-11.2.1-12.5-.1-12.5-1.6 0-1 .8-2 1.8-2.2 3.3-.9 13.7-.5 18.5.6zm14.2-.3c2.3.9 2.5 1.3 1.5 2.5-1.7 2-4.3 1.9-6.4-.4-1.3-1.5-1.4-2-.4-2.4 2-.8 2.5-.8 5.3.3zm-46.5 1.9c0 1.2-2.9 2.3-4.1 1.5-1.8-1-.9-2.4 1.6-2.4 1.4 0 2.5.4 2.5.9zm-70.4 6.6c4.3 4.7 6.4 10.2 6.4 16.9 0 2.7-1 4.8-4.3 8.8-5 6.1-8.3 7.3-21.2 7.2-9.5 0-16.9-2.9-22.8-8.8-3.4-3.4-3.7-4.1-3.7-9.4 0-4.7.6-6.7 2.8-10.3 5.1-7.9 7.4-8.7 25.1-8.8l13.5-.1 4.2 4.5zm60.4-1.6c0 3.1-4.8 8.1-7.8 8.1-1.2 0-1-.6 1-2.8 1.5-1.5 3.1-3.9 3.7-5.5 1.4-3.6 3.1-3.5 3.1.2zm62.5-.9c.3.5-.1 1-.9 1s-1.8-.5-2.1-1c-.3-.6.1-1 .9-1s1.8.4 2.1 1zm-55.5.9c0 2.4-2.1 6.1-3.5 6.1-1.8 0-2-4.1-.3-5.8 1.4-1.4 3.8-1.6 3.8-.3zm39 .1c0 .5-.3 1-.7 1-.5.1-3.1.2-5.9.3-3.7.2-6.2 1-9.1 3-2.1 1.5-4.9 2.7-6.2 2.7-1.9 0-2.2-.4-1.9-3.3.3-3 .6-3.2 4.8-3.8 7.7-1 19-1 19 .1zm8.4 5.2c-3.1 3.2-6.1 3.4-7.8.5-.9-1.5-.6-2.2 1.6-4.2 2.6-2.2 2.9-2.3 5.9-.8l3.1 1.5-2.8 3zm16.1-2.8c3.2 1.4 4.8 3.6 2.6 3.6-1.4 0-7.1-3.4-7.1-4.3 0-1 .6-.9 4.5.7zm-81.1 2.1c-.2 1.8-5.4 3.7-8.4 3-3.2-.7-3.1-2.1.4-3.5 2.7-1.2 8.1-.8 8 .5zm50.1-.5c-.3.5-1.3 1-2.1 1s-1.4-.5-1.4-1c0-.6.9-1 2.1-1 1.1 0 1.7.4 1.4 1zm4.6 3c2.4 1.3 2.5 3.6.2 4.8-2.2 1.1-7.6-.2-9.3-2.3-1.3-1.6-1-1.8 3.5-2.8 3.3-.8 3.6-.7 5.6.3zm-11.6 2c.4.6-.9 1-3.2 1-2.8 0-3.4-.3-2.3-1 2-1.3 4.7-1.3 5.5 0zM770 146.3c8.6 2.7 11.3 4.1 19 9.1 5.3 3.5 17 14.3 17 15.6 0 .4 2.3 3.5 5 7 7.6 9.4 15 25.2 15 32v3.6l-7.2 1.1c-6.9 1.1-7.4 1-9.6-1-1.7-1.5-3.5-2.1-7.3-2.1-6 0-8.8 2.4-11.7 9.9-2 5.6-11.8 20.9-15.1 24l-2.2 1.9.7-10.5c.7-11.5-.3-15.7-3.4-14.4-.9.4-2.2.9-2.9 1.2-.6.2-2.1-1.3-3.2-3.6-1.2-2.2-3.8-5.6-5.8-7.7-5.7-5.6-10.5-7.4-19.7-7.4-7.5 0-8.3.2-16.9 4.7-10.5 5.6-16.6 11.8-22.4 22.7-4 7.6-4.6 11.3-4.5 26l.1 7.9-3.5-3.4c-4.9-4.7-7.7-9.8-11.2-20.4-4.6-13.6-5.7-22.8-4.3-33.3 2.8-20.7 7.6-31.4 20.2-44.6 7-7.4 9.3-9.1 18.2-13.5 7.9-4 12.2-5.4 19.2-6.6 12.4-2 26.8-1.3 36.5 1.8zm192.2-1.4c.9.8-1.2 7.2-3.1 9.5-3.2 3.9-18.2-.2-18.9-5.2-.3-1.9.2-2.2 3-2.2 1.8-.1 5.6-.9 8.3-1.9 4.6-1.6 9-1.7 10.7-.2zm49.5 2.7c.8 2.2-.8 3.3-3.6 2.3-1.9-.8-2.1-1.2-1.1-2.4 1.6-2 3.9-1.9 4.7.1zm-26.9 2.3c.3 2.1-1.1 4-3 4.1-.5 0-.8-1.6-.8-3.6 0-2.8.3-3.5 1.8-3.2.9.2 1.9 1.4 2 2.7zm17.2.7c0 .8-.2 1.4-.4 1.4s-1.1.3-1.9.6c-1 .3-1.8-.5-2.5-2.5-1-2.9-1-2.9 1.9-1.9 1.6.5 2.9 1.6 2.9 2.4zm-149.7 7.9c2.2 4.4 5.4 7 12.2 10.1 4.9 2.3 7.4 2.8 14 2.9 12 0 19-1.2 22.4-4.1 4-3.3 4.8-1.5 1.9 4.4-3.3 6.7-9.5 9.7-19.8 9.7-9.7 0-30.2-6.4-32.7-10.1-1.8-2.8-2.9-13.9-1.8-18.1l.8-2.8.7 2.5c.4 1.4 1.4 3.9 2.3 5.5zm137.7-3.2c0 1.4-4 3.7-6.5 3.7s-1.7-1.6 1.8-3.3c4-2 4.7-2 4.7-.4zm-43 2.3c1.9.7 4.3 1.3 5.3 1.4 2.6 0 2.1 1.2-2.3 5.5l-3.9 3.8-4.1-2.7c-3.8-2.5-4.1-3-3.4-5.9.9-4.4 1.3-4.9 3.3-4.1.9.4 3.2 1.3 5.1 2zm49-.3c0 1.9-2.1 3.7-4.4 3.7-1.8 0-1.8-.1.4-2.5 2.6-2.8 4-3.2 4-1.2zm4.5 6.7c0 4.1-2.1 5-3.6 1.6-.9-2-.9-2.9.1-4.1 2-2.4 3.5-1.2 3.5 2.5zm-16.1-1.5c3.2 1.3 3.5 1.8 2.6 3.5-.6 1-2.7 3.1-4.8 4.7-2 1.5-4.3 3.4-4.9 4.2-2.2 2.6-2.5.5-.8-6 2.4-9.1 2.1-8.8 7.9-6.4zm-26.1 4.2c.4 2.7.9 5.8 1.3 7 .6 2 .3 2.3-2.5 2.3-2.4 0-3.1.4-3.1 2 0 1.3.9 2.2 2.5 2.6 3.3.8 3.3 3.4 0 3.4-1.8 0-2.8.7-3.5 2.5-.5 1.4-2 2.9-3.2 3.4-2.4.8-14.2 0-15.3-1.1-.3-.3-.3-1.7 0-3.1.5-1.8 1.6-2.8 3.5-3.2 3.3-.7 7.5-5 8.3-8.6.7-2.7 8.6-11.9 10.4-11.9.6 0 1.3 2.1 1.6 4.7zm-18.8 2.1c2.7 2 3.5 4 2.5 6.6-.9 2.5-4 3.7-4 1.5 0-.5-1.3-1.5-3-2-3.4-1.2-3.7-2.4-1.3-5.1 1.7-1.9 4.1-2.3 5.8-1zm-5.8 9.8c.3.8-.1 2.3-1 3.1-1.6 1.6-4.7 1.2-4.7-.6 0-.5.7-1.7 1.6-2.5 2-2 3.3-2 4.1 0zm35.3 4.3c0 2.9-2.1 6.1-4 6.1-2.6 0-3.5-2.2-2-4.9 1.1-2.1 6-3 6-1.2zm-42.9 2.3c4.8 2.7 4.9 3.8.6 3.8-3.6 0-7.4-3-6.2-4.9.9-1.5 1.2-1.4 5.6 1.1zm31.9 4.3c0 .8.6 1.6 1.3 1.6.6.1 1.7.2 2.2.4.6.1 2.2.3 3.8.3 2.8.2 3.6 2.3 1.8 5.1-.7 1.1-2.1 1.1-8 .1-7.8-1.3-8.8-2.6-4.9-6.7 2.5-2.7 3.8-2.9 3.8-.8zm-111.5 8c.8 5.9.3 16.1-.8 17.1-.3.4-1.3.4-2.2 0-1.4-.5-1.6-2.2-1.4-10.8.2-11.2.3-11.8 2.4-11.8.9 0 1.6 1.9 2 5.5zm99.2-3.4c5.2 2 1.3 2.7-16.9 3.2-10.6.3-20.5.8-22 1.2-2.1.6-2.8.4-2.8-.7 0-1.9 2.9-4.5 5.5-5 3.3-.8 33.8.3 36.2 1.3zm-48.7 2.3c0 4-11.2 12.1-20.8 14.9-4.1 1.3-5.2 1.3-7.5.1-1.8-1-2.7-2.3-2.7-3.9 0-3.1 3.2-4.1 8.5-2.6 4.8 1.3 5.6.8 4.4-3.1-.5-1.7-.6-3.4-.3-3.7.6-.7 11.6-2.7 15.7-3 1.7 0 2.7.4 2.7 1.3zm-39 6.1c2.2 3 4 5.8 4 6.3 0 2.1 4.1 6 6.9 6.5 3.9.8 4.8 4.1 3.1 11.6-1.5 6.4-3.4 10.5-6.1 13.4-1 1.1-2.5 3.9-3.3 6.3-1.4 4-1.3 4.5.6 6.9 2.2 2.8 1.9 5.8-.9 10.2-1.3 1.9-2.3 2.3-5.1 2.1-3-.2-3.7-.8-4.3-3.2-.4-1.5-1.6-3.7-2.5-4.7-1.5-1.6-1.6-3.3-1-12 .5-7.9 1-10.5 2.3-11.4 2-1.5 2-7.6-.1-12.7-1.8-4.5-1-24.8 1-24.8.7 0 3.2 2.5 5.4 5.5zm16-3.6c0 .5-.8.7-1.9.4-1-.3-2.2 0-2.5.6-.4.6-1.6 1.1-2.7 1.1-1.9 0-2.5-1.1-1.2-2.3 1-1 8.3-.8 8.3.2zm56.4 1c.7 1-3.1 1.7-13.4 2.6-5.3.4-6 .3-4-.6 2.2-1 9.7-2.3 15.2-2.8.9 0 1.9.3 2.2.8zm21.6 1c0 .6-3.5 3.1-7.7 5.8-7.2 4.4-14.3 10.6-18.5 16.1-1.4 1.7-2.8 2.2-6.3 2.2-4 0-4.6-.3-6.1-3.1-2.4-4.6-.8-7.3 5.6-9.4 3.6-1.2 5.7-2.6 6.8-4.5 1.1-1.8 3.1-3.2 5.7-4 2.2-.7 4.9-1.8 6-2.6 2.2-1.6 14.5-2 14.5-.5zm-52.7 2.4c-.3 1.5.4 3.4 2.1 5.4 1.4 1.7 2.6 3.6 2.6 4.1 0 .6-1.6 2.3-3.6 3.9-3 2.2-4.9 2.8-10.6 3.1-7.5.5-13.1-1.1-12.6-3.6.2-.8 2.6-2.3 5.4-3.3 2.8-1.1 7.4-4.1 10.5-6.9 3-2.7 5.7-4.9 6-5 .3 0 .4 1 .2 2.3zm24.1 3.2c-.8 1.9-2.8 2.4-9 2.4-9.4-.1-9.7-2.5-.4-3.2 9.9-.8 10-.8 9.4.8zm-181.8 4.2c2.7 2.8 4.4 7.9 4.4 13.5 0 7.9 2.1 9.7 4.3 3.8.3-.9.6-.3.6 1.2.1 1.5-1 6.2-2.4 10.3-2.8 8.6-3.6 20.6-1.6 24.3 1.3 2.4 3.5 2.8 7.5 1.2 2.4-.9 2.6-.7 2.6 1.9 0 4.2-3.4 11.5-6.4 13.9-1.4 1.1-6 3.2-10.1 4.7-6.6 2.4-8.3 2.7-14.9 2-5.2-.4-8.4-1.3-10.7-2.9-2.9-2-3.3-2.8-3.5-7.7-.1-3 0-6.2.3-7.2.7-2.5 6.2-4.7 11.4-4.7 3.6 0 4.8.6 8 4 4.4 4.6 5.9 5 5.9 1.5s-3.7-10.5-5.5-10.5c-.8 0-3.5-2.3-6.1-5-2.6-2.8-5.1-5-5.5-5-.5 0-.6 1.8-.3 4 1.1 6.7-4.1 10.5-8.1 6-2.7-3-2-10.3 1.9-18 .9-1.8 1.6-3.9 1.6-4.6 0-1.8-3.7-3.7-4.5-2.4-.8 1.2-4.5 1.3-6.5 0-1.2-.7-.5-2.2 3.5-7.9 5.5-8.1 11.4-12.4 21.5-15.8 7.9-2.7 10.3-2.8 12.6-.6zm9.4 4.8c0 3.5-1.6 3.1-2.9-.6-1.4-4.2-1.4-4.1.9-2.9 1.2.6 2 2.1 2 3.5zm53.8 1.1c1.2.8 2.2 1.9 2.2 2.4s-2.9 3-6.5 5.5c-6.4 4.6-11 9.3-10 10.3.3.3 1.8-.6 3.3-2 11-10.1 31.1-18.8 30-13.1-.2 1-1.9 2.6-3.8 3.5-1.9 1-6.8 3.4-10.9 5.3-8.6 4.2-18.7 10.1-24.8 14.7-2.4 1.7-4.6 2.9-4.9 2.5-.3-.3.9-2.5 2.8-4.9 4.3-5.3 11.8-18.2 12.7-21.6.5-1.6 1.7-2.9 3.2-3.3 3.7-1.1 4.3-1 6.7.7zm39.2 3.1c2.8 1.6 6.5 8.7 5.4 10.4-.3.5-1.6.6-2.9.3-1.6-.4-2.6 0-3.2 1.1-.9 1.5-1.3 1.2-3.1-1.9-1.2-2-3.6-4.5-5.3-5.4-5.2-2.9-6.2-3.9-5.5-5 1.1-1.8 11.3-1.5 14.6.5zm62-.6c0 2.2-6.6 7.4-11.6 9.2-6.4 2.3-9.9 2.2-12.5-.4-2.6-2.6-1.9-4.5 1.5-4.1 3.9.4 13.4-1.7 17.6-3.9 4.1-2.1 5-2.3 5-.8zm-149.6 11.4c-3.4 8.5-4.4 6.9-1.4-2.1 1.4-4.1 2.6-6.2 3.2-5.6.6.6-.1 3.5-1.8 7.7zm156.3-2.6c1.3 2.7.3 5.8-2.3 6.8-1.6.6-11-3.5-10.1-4.4 2.5-2.4 7.6-5.2 9.2-5 1.1.1 2.5 1.3 3.2 2.6zm-87.7-1c0 2.5-9 11.4-15 14.7-2.1 1.2-5.4 3.7-7.4 5.7-1.9 2-6.6 5.2-10.3 7.3-11.6 6.3-19.6 11.5-25.8 16.8-7.3 6.2-7.6 6.6-6.9 9.1.9 2.8.9 2.8 3.8.9 4-2.5 4.6-.6.8 2.7-2.5 2.3-4.2 2.9-7.7 2.9-3.7 0-4.5-.3-4.5-1.8 0-1 1.1-2.9 2.6-4.2 1.4-1.4 3.3-4.3 4.3-6.5 1.7-3.9 3.3-5.6 17.6-18.7 13.5-12.4 34.9-26.7 40-26.8 1.1-.1 3.1-.7 4.5-1.5 2.9-1.7 4-1.8 4-.6zm-62.5 4.1c.3 1.1 1.3 2 2.1 2 .7 0 1.9-.9 2.6-2 2.3-3.6 3.1-2.1 2.5 4.7-.6 8.8-2.6 14.5-5.4 15.8-1.2.5-3 2.6-3.9 4.7-1.5 3.4-3.3 5-3.4 3 0-.4-.7-1.6-1.5-2.6-1.3-1.7-1.7-1.7-3.1-.5-1.6 1.3-1.7 1.1-1.2-2.6.5-3.3 6.7-20.9 8.5-23.8.8-1.3 2.2-.7 2.8 1.3zm75.5 6.2c0 2.2.4 4.7 1 5.7 1.6 3.2 0 9-2.9 10.4-2.1 1-2.5 1.8-2.3 4.2.2 1.7 1.2 3.9 2.3 5 1.2 1.3 1.6 2.8 1.2 4.3-.3 1.3-.1 2.2.6 2.2s1.1 3.4 1.1 10.2v10.3l-9.3 6.2c-9.5 6.3-19.7 12.1-27.9 16l-4.6 2.1-2.2-2.3c-1.2-1.3-3.8-2.7-5.9-3.2-4.8-1.1-5.7-4.9-1.4-5.9 1.5-.4 4.5-1.5 6.6-2.6 2.1-1 4.2-1.6 4.7-1.3 1.7 1.1 6.4-2.2 14.5-10.2 5.8-5.7 8.9-9.7 11.2-14.5 5-10.2 8.3-23 9-34.1.6-9.4.7-9.7 2.5-8.1 1.1 1.1 1.8 3.1 1.8 5.6zm40.7-5.7c.8.9 2.8 1.9 4.4 2.2 1.7.3 2.9 1.2 2.9 2.1 0 1.2-1 1.3-6.2.8-3.5-.4-6.4-.9-6.6-1-.1-.2.2-1.5.7-3 1.2-3 2.6-3.3 4.8-1.1zm-49.7 3.7c0 4.8-1.8 16.4-3.5 23-2.5 9.8-7.1 18.3-13.3 24.6-4.8 4.9-7.4 6.5-16.7 10.5-15.6 6.6-15.5 6.6-20.5 2.1-4-3.7-4.1-3.9-3.5-8.3 1.3-9 1.2-8.9 8.4-11.1 13.4-4.1 30.8-14.3 37.3-21.9 3.6-4.2 5.8-9.8 5.8-14.7 0-2.6 3.3-7.4 5.2-7.4.4 0 .8 1.5.8 3.2zm92.5.2c1.1 3.3.1 5.2-4.5 8.3-4.1 2.8-5.2 2.9-6.8.3-1.1-1.8-.7-2.6 3.4-7 2.6-2.8 5.2-4.9 5.8-4.7.6.2 1.5 1.6 2.1 3.1zm-20.5.1c5.3 2.7 4.1 5.2-7.5 15.4-5.8 5.1-10.5 9.6-10.5 10.1 0 1.3-7.5 8.1-7.8 7.1-.7-2.1 4.1-10.8 6.9-12.3 3.3-1.9 5.9-7.5 5.9-12.7 0-4.1.5-5.1 4-7.4 3-2.1 5.2-2.1 9-.2zm-570.6 7.2c15.8 6.4 33.5 20.1 40.4 31.4 2.2 3.7 5.5 15.6 4.6 17.1-.3.4-3.1.8-6.2.8-24.4.1-64.4 9.7-86.6 20.6-4.9 2.5-9.7 4.3-10.5 4.2-1.3-.3-1.5-1.6-1.3-6.8.6-11.2 5.8-27.6 12.9-40.2 4.2-7.5 7.3-11.5 14.3-18.2 12.1-11.7 14.1-12.8 20.9-12 3 .4 8.2 1.8 11.5 3.1zm514.6 1c0 2.8-.3 3.4-1 2.3-1.3-2-1.3-6 0-6 .6 0 1 1.7 1 3.7zm36.4-2.1c1.7 1.7 2.2 7.9.7 8.9-.5.3-4.1.2-8-.1-8-.8-8.5-1.5-5-7 1.8-3 2.6-3.4 6.4-3.4 2.6 0 5 .6 5.9 1.6zm-64.4 3.9c-1.8 4.7-4.4 7.7-10.7 12.5-7.8 5.9-21.9 13-27.3 13.7-8 1.1-3.7-3.2 13.2-13.2 6-3.5 13.5-8.4 16.9-10.9 7-5.3 9.4-5.9 7.9-2.1zm111-1.5c0-1.2 6.7-1.4 7.4-.1.4.5.4 1.6.1 2.3-.7 1.7-8.8 5.8-11.4 5.8-2.7 0-4.4-2.6-3.7-5.4.7-2.7 3.2-3.7 5.9-2.4 1 .5 1.7.5 1.7-.2zm-324.4 3.1c9 5.5 12.9 28.2 6.9 39.9-1.4 2.7-2 3-4.5 2.5-3.8-.8-5 1.3-2.1 3.6 2.5 2.1 6 1.3 9.8-2.3 1.3-1.2 2.6-1.8 3-1.4 2 2 1.8 24.4-.2 26.4-1.1 1.1-11.5 0-22-2.5-20.8-4.8-38.7-16.6-42-27.7-1.6-5.2-1.9-11.5-.9-15.3 1.5-5.5 26.7-20.7 39.2-23.8 7.8-1.8 9-1.8 12.8.6zM705 249c1 0 1.5 11 .8 18.2-.1 1.3.1 4.1.5 6.3.7 3.7.6 3.9-.8 2.1-2.1-2.8-5.5-12.1-6.2-17.2-.7-5.2 1.2-10.8 3.4-10 .8.4 1.9.6 2.3.6zm167.8 8.2c1.8 1.8 1.5 4.8-.5 4.8-3.3 0-4.6-1.5-3.4-3.9 1.3-2.4 2.2-2.6 3.9-.9zm-119.1 2.4c.9 2.3-1.1 3.8-2.6 2-1.3-1.6-.7-3.6 1-3.6.5 0 1.2.7 1.6 1.6zm87.7-1c1.7.6 2.2 2.4.8 2.4-.5 0-1.7-.7-2.8-1.5-1.9-1.5-.8-2 2-.9zm29.6 8.3c0 2.4-2.3 4.3-4.4 3.5-1.6-.6-2.2-3.5-.9-4.7.3-.4 1.7-.7 3-.7 1.6 0 2.3.6 2.3 1.9zm-25.1 17.7c.1 14.6-.5 21.4-1.8 21.4-.3 0-.6-2.6-.5-5.8.1-3.1.2-12.2.3-20.2.3-19.2 1.9-15.5 2 4.6zm11.6-13.6c.3.5 2.4 1.4 4.5 2 4.1 1.1 5.4 3.5 2.4 4.7-2.2.8-8.5-2.8-9.5-5.5-.6-1.6-.5-2.2.6-2.2.7 0 1.7.4 2 1zm-5.1 5.5c1.9 2.9 1.2 5.3-1 3.4-1.2-1-2.1-5.9-1-5.9.2 0 1.1 1.1 2 2.5zm-306.1 4.3c.5 6.6 2.3 10.5 6.9 15.8 6.3 7.1 20.2 16.2 29 18.9 8.6 2.7 22.8 5.5 27.5 5.5 4.7 0 5.1.6 2.8 5s-6.6 5.3-22.4 4.7c-16.7-.6-24-2.7-36.6-10.4-11.7-7.2-13.2-8.6-16.6-15.8-4.2-8.7-4.5-11.7-1.9-16.2 2.8-4.9 9.2-13.3 10.1-13.3.3 0 .9 2.6 1.2 5.8zm-20.8-.3c3.3.9 6.1 1.8 6.4 2 .2.3-.8 2.8-2.3 5.5-2.6 4.8-2.7 5.4-1.6 10.3 1.7 6.9 5.3 13.9 9.3 17.9 4.8 4.9 20.1 13.4 29.2 16.5 7.4 2.5 9.3 2.7 25.5 2.7 14.4.1 18.2-.2 21.3-1.6 3-1.4 3.7-2.2 3.7-4.5 0-1.6.4-3.3.9-3.9 2.5-2.5 5.4-14.5 6-24.9l.6-11 7.4.3c9 .3 12.6 1.9 20.1 8.9 4.4 4.1 6.3 6.7 8.1 11.5 2.9 7.8 3.2 17.8.5 22.7-7.9 14.7-30.1 26.3-53.3 27.8-15.2 1-45.5-5.3-59.3-12.2-12.4-6.3-29.9-18-40.9-27.4-13-11.1-24.7-23.6-25.7-27.5-1.1-4.4 0-8.8 2.6-10.8 3.7-2.7 9.6-3.5 11.8-1.5 1.6 1.5 1.9 1.5 3-.3s2.4-2 11-2c5.6 0 12.3.7 15.7 1.5zm181.5 7c0 1.4-.4 2.5-.9 2.5-1 0-2.1-3.6-1.3-4.4 1.2-1.3 2.2-.5 2.2 1.9zm59 2.4c0 1-2.4 4.1-5.4 6.8-8.7 8-20.4 10.5-29.3 6.2-4.7-2.3-8.3-6.2-8.3-9 0-1.6.8-1.9 5.1-1.9 2.8 0 7.6-.7 10.6-1.6 4.3-1.2 6.1-1.4 8-.5 3.3 1.5 11.1 1.3 14.8-.4 4.1-1.8 4.5-1.8 4.5.4zm-49.1 2.7c2.2 2.8 2.8 5.4 1.2 5.4-1.3 0-5.1-5-5.1-6.6 0-2.2 1.7-1.6 3.9 1.2zm-341 3.5c1.7.6 3.1 1.7 3.1 2.5 0 2 7.2 16.4 8.2 16.4.4 0 .8.4.8.9 0 1-1.7 1.3-19.5 3.1-23.3 2.4-50.4 6.6-73.5 11.2-8.5 1.7-16.4 3.1-17.5 3.2-2.3.1-4.7-4.1-4.9-8.7-.1-2.7.4-3.2 3.2-4 1.7-.6 3.2-1.4 3.2-1.8 0-3.1 23.8-12.6 39.5-15.8 2.2-.5 8.7-1.9 14.5-3.1 20.7-4.4 37.1-5.9 42.9-3.9zm400 7.6c5.3 5.9 6.3 9.2 3.7 12.5-.9 1.3-2.7 1.8-6.2 1.8-2.7 0-6.6.5-8.7 1.1-2.2.6-4.1.8-4.4.6-.2-.3.9-2.9 2.5-5.8 1.7-3 3.7-7.8 4.7-10.7.9-2.8 2-5.2 2.5-5.2s3.1 2.6 5.9 5.7zm-13.3-.6c-1 5.2-6.7 15.8-9.8 18.4-5.8 4.9-15.4 2.7-21-4.8-2.6-3.4-5.3-9.5-4.6-10.2.2-.2 2.8.3 5.8 1.2 7.4 2.2 17.1.5 23.8-4.2 6-4.2 6.6-4.2 5.8-.4zm82.3 8.7c0 2-.4 5.7-.8 8.2-.7 3.9-.9 3.4-1-4.3-.1-5.7.3-8.6.9-8.2.6.3 1 2.3.9 4.3zm-119.5 4.4c2.5 3.5 2 4.4-1.9 4-3.5-.4-4.1-1.4-2.9-4.6.9-2.3 3-2 4.8.6zm60.1 4.8c-2.2 4.3-7.1 6.5-11 4.9l-3-1.2 4.8-1.5c2.8-.9 6-2.9 7.5-4.7 3.1-3.6 4.1-2.1 1.7 2.5zm-329.1 1.4c6.5.9 13.2 2.3 14.9 3.1 1.6.8 4 1.5 5.1 1.5 3 0 13.6 5.2 16.9 8.3 2.9 2.8 3.5 6.8 1.3 8.6-1.9 1.6-13.8 3.8-21.6 4.1-3.6.1-14.4-.4-24-1.1-13.8-.9-17.9-1.6-19.5-2.9-4-3.5-21.2-13-27-15-12.8-4.6-47.1-3.3-82 3-36.4 6.5-47.8 9-52.2 11.3-3.8 2-7.3 8.2-7.3 12.8 0 2.2-1.1 4.6-3.7 7.7-4.3 5.2-6.7 13-5.3 16.8.6 1.4 1 2.7 1 2.9 0 .2-2.6 1.3-5.7 2.5-5.2 1.9-7.4 2.1-19.8 1.8-12-.3-14.6-.7-18.1-2.5-5.1-2.7-6.4-4.3-7.4-9-1.8-7.6 3.2-13.3 17.7-20.6 19.1-9.5 70.1-22.6 106.8-27.3 6.1-.7 16-2.1 22-2.9 6.1-.9 12.4-1.7 14-2 3.5-.4 30.2-2.4 39-2.9 12.1-.7 43.3.3 54.9 1.8zm337.6-.9c0 3.2-4 9.5-6.5 10.1-4.2 1-4.9-.6-1.7-4 1.6-1.7 3.5-4.1 4.1-5.4 1.3-2.5 4.1-3 4.1-.7zm-68.6 3.9c4.6 1.9 6.6 5.1 6.6 10.8 0 5.5-1 6-4 1.8-2.6-3.7-8.6-5.4-15.7-4.6-4.6.5-5.3.4-5.3-1.1.1-6.3 10.5-10.2 18.4-6.9zm-325.7 7.9c6.7 2.4 20.5 10.6 28.8 17.2 5.9 4.8 12.9 8.6 18.3 9.9 3.8 1 4.6 1.6 4.4 3.2-.7 3.7-4.3 7.3-9.9 10-5.4 2.5-6.2 2.6-18.2 2.2-14.1-.6-23.6-3-35.9-9.4-8-4.1-10.1-4.2-14.1-.9-4 3.4-13.3 5.8-19.1 5-13.3-1.9-19-5.1-29.1-16.6-3.5-4-7.9-8.7-9.8-10.5-1.8-1.8-3.1-3.9-2.8-4.6 1-2.6 27.2-6.5 53.2-7.8 19.6-1 25.8-.6 34.2 2.3zm398.3.6c0 5.9-4.8 13.7-7.1 11.4-1.9-1.9 0-10.1 2.9-12.3 3.4-2.7 4.2-2.5 4.2.9zm-77 4.1c1.1.7.5 1-2.3 1-2.1 0-5.4.7-7.4 1.5-4.3 1.8-4.3 1.8-4.3 0 0-.7.8-1.9 1.8-2.4 2.2-1.3 10.2-1.4 12.2-.1zm-195.1 4c3.6 2.2 7.7 4.9 9.1 6.1l2.5 2.1-2.5-.6c-1.4-.3-3.3-.6-4.3-.6-.9 0-2.2-1.1-2.9-2.4-1.1-2.7-3.4-4-4.9-3-.6.3-.5 1.1.2 2 .6.8 1 1.5.8 1.7-5.5 3.1-7.7 3.5-9.7 1.5-1.6-1.6-1.5-3.1.2-7.3.9-2.1 2.2-3.5 3.2-3.5s4.7 1.8 8.3 4zm-218 0c1.1.6 4.7 4.5 7.9 8.8 5.8 7.6 14.3 16.1 19.2 19.4 2.6 1.7 2.4 2-3 3.2-4.4 1-13.6 9.1-16.1 14.3-1.9 3.8-2.3 6.2-2.2 11.8.1 3.8.9 8.9 1.7 11.2 1.3 3.7 1.3 4.4-.2 7.4-2.3 4.4-11 10.1-20.2 13.2-10.1 3.4-13.7 4.1-14.5 2.7-.5-.8-1-.8-2 0-.7.6-3.5 1-6.2.8l-4.8-.3.2-3.5.3-3.5-1.6 2.7c-1.9 3.5-3.4 3.5-7.6.1-4.2-3.5-4.7-4.3-4.1-6 .3-.7-.1-1.3-.9-1.3s-2-1.1-2.6-2.5c-1.4-3-1.6-7.5-.4-7.5.5 0 1.7-.7 2.8-1.6 1.8-1.5 1.8-1.5-.8-.9-2.7.5-2.8.4-2.8-3.5 0-3.4.4-4 2.5-4.6 2.3-.6 2.4-.8.9-1.9-2-1.4-1.5-4.3 1.5-9.2 1.5-2.3 3-3.4 5.8-3.9 2.1-.4 6.4-2 9.5-3.5 6.8-3.4 7.9-3.5 13.2-.9 4.9 2.4 8 6.8 9.4 13.5 1 4.6.9 5.4-1.4 9.9-1.3 2.7-2.3 5.1-2.1 5.3 1 1 4.1-1.4 7.8-6 3.4-4.3 4-5.7 3.4-8.2-.3-1.6-.8-4.5-1.2-6.3-.4-2.4-1-3.2-2.6-3.2-1.1 0-3.5-1.8-5.4-4-2.5-2.8-4.7-4.3-7.8-5.1-3.2-.8-4.5-1.7-4.7-3.2-.5-3.4-2.6-3-5.3 1.1-2.9 4.4-6.1 6.2-11 6.2-3.8 0-7.5-2.9-7.5-5.8.1-3.3 3.7-9.8 7.5-13.1 3.4-3 4.3-3.3 8-2.8 2.3.4 4.5.3 4.9 0 1.3-1.4-1.9-3.3-5.5-3.3-3.8 0-3.9-.1-3.9-3.8 0-6.9 3.5-8.9 22-13.1 5.3-1.2 17-.7 19.9.9zm412.1 2c2.3 2.3 2.7 6.8.6 7.6-1.8.7-9.5-3.2-10.3-5.3-.8-2 2.2-4.3 5.4-4.3 1.3 0 3.2.9 4.3 2zm-15.9 3.5c1.3 1.9 4.3 4.5 6.6 5.7 5 2.7 6.3 6.8 2.9 9.9-7.1 6.7-15.4.2-15.6-12.2 0-8.1 2.1-9.3 6.1-3.4zM469.6 352h12.1l.6 3.6c.5 2.8.1 4.4-1.4 6.5-2.3 3.3-1.9 8.3 1.2 13.7 2.3 4 1.9 4.9-2.6 5.8-4.5.8-6 2.6-4.5 5.3.8 1.5 2.1 2.1 4.7 2.1h3.6l-.6 7.2c-.7 7.7.6 18 3 23.5 1.5 3.7 3.3 4.4 3.3 1.2 0-2.2 1.7-6 3.2-7 .4-.3 1.8-3.2 2.9-6.5 1.1-3.2 2.5-6.4 3.1-7.1.5-.7.8-3 .7-5.3-.3-3.6 0-4.3 2.8-5.9 3.4-2.1 11.1-1.8 11.9.4.3.7-.5 4.1-1.6 7.6-2.6 7.5-2.7 15.6-.4 20 1.6 3.2 1.6 3.2-.8 2.4-1.2-.4-3.8-.8-5.7-.8-6.8-.1-10.7 8.5-10.3 22.2.2 9.2 1.4 11.9 8.5 19.4 2.5 2.7 4.3 3.7 6.5 3.7 2.7 0 3.4.6 5.2 4.6 1.1 2.6 2 4.9 2 5.3 0 .3-2.8 1.7-6.2 3.1-5.9 2.3-6.2 2.4-7.2.6-6.4-10.9-11-16.3-14.6-17.1-3.7-.8-9-8.5-9-13.1 0-3.5-3.2-11.8-4.9-12.9-.5-.3-.9-4.1-.8-8.4.2-8.7-.6-10.5-6-12.8-2.8-1.1-3.8-1.1-6.7.1-2.7 1.1-3.5 2.1-4.1 5.2-1.3 7.2-4 10.9-9.4 13.3-4.9 2.1-13.5 2.8-15.7 1.3-.6-.4-1.3-3.3-1.6-6.4-.6-7.8-4.1-12.4-10.2-13.3l-4.4-.7-.4-6.4c-.7-12-5-14.8-24.8-16.4-12.5-1.1-13.7-1.4-17.7-4.3-4-2.8-4.3-3.3-4.3-7.8 0-4.3.3-4.9 3.4-6.8 4.4-2.8 5.1-2.7 13.7 1.4 4.1 1.9 11.5 4.6 16.4 6 7.9 2.3 10.5 2.6 21 2.3 11.3-.3 12.5-.5 18.7-3.6 3.6-1.8 8.2-5 10.2-7.3 3.2-3.5 3.7-4.6 3.4-8.1-.3-4.1-.4-4.1-6.3-6-3.3-1.1-6.7-2.6-7.5-3.5-1.4-1.4-.7-1.5 7-.9 4.7.3 14 .6 20.6.6zm74.9 1.2c2.5 1.2 4.5 2.7 4.5 3.2 0 .6-2.8 2.6-6.2 4.5-5 2.7-7.7 3.5-13.4 3.9-6.5.4-7.3.2-9.3-1.9-1.5-1.6-2.1-3.4-1.9-5.4.3-2.5 1-3.2 4.5-4.4 3.5-1.3 4.7-1.3 8.3-.1 2.2.7 4.5 2 4.9 2.8 1.3 2.3 3.2.4 2.5-2.4-.8-3 .2-3 6.1-.2zm126.9 0c1.2 2 1 2.3-2.5 3.1-2.1.5-2.8.2-3.7-1.7-.6-1.3-.8-2.7-.4-3 1.1-1.2 5.5-.1 6.6 1.6zm-181.2 1.3c.3 1.4.1 2.8-.3 3.1-1.5.9-2.9-.6-2.9-3.2 0-3.2 2.6-3.1 3.2.1zm66.8 4.4c0 .9-5.2 2.2-6 1.5-.7-.7 2.3-2.4 4.3-2.4.9 0 1.7.4 1.7.9zm120.7 5c1.3 1.9 2.3 4.6 2.3 6.2 0 2.3-.6 2.9-3.5 3.9-2.7.9-3.5 1.7-3.5 3.6 0 3-.7 3-3.6.3-1.6-1.5-4.2-2.3-9.1-2.9-6.6-.6-11.1-.5-44.8 2-8.8.6-19.6.9-24 .5-10.3-.8-17.9-4.2-20.3-9.1-2.3-4.9-.8-6.1 6-4.6 11.2 2.4 23.6 3.4 31 2.3 4-.5 16.4-1 27.6-1 15.7.1 21.4-.3 25-1.5 2.6-.8 6.1-2 7.7-2.5 4.7-1.5 6.7-.9 9.2 2.8zm-186.5-1.7c.9.7 2 3.4 2.3 5.9.7 4.4.6 4.7-2.2 5.6-4.4 1.5-6.2.6-7.3-3.8-1.5-5.3-1-7.2 2-8 3.6-1 3.5-1 5.2.3zm74.3 4.8c3 8.8 3.5 8-4.4 8-6.2 0-21.7 1.8-30.6 3.6l-3 .6 3.4-3.5c5.6-5.9 22.4-12.9 30-12.4 2.9.2 3.6.7 4.6 3.7zm-65.5 5c.6 3.2.4 4.6-1.1 6.3-1.4 1.7-2 1.9-3 1-.9-.9-.8-1.7.5-3.7.9-1.4 1.6-4 1.6-5.7 0-4.2 1.1-3.1 2 2.1zm-135.2 4.7c.2.7-.3 1.6-1.1 1.9-2 .7-9.7-1.4-9.7-2.7 0-1.5 10.3-.7 10.8.8zm159-.2c.9.7-1.3 3.4-3.3 3.9-1.4.4-2.9 1.5-3.5 2.6-1.3 2.4-2.5 2.5-8.7.4-6.1-2-6.6-2.5-5.7-5.8l.6-2.6 10.2.6c5.5.4 10.2.8 10.4.9zm158.8 4.1c1.8 4.2 1.5 6.8-.7 7.2-1.2.2-2-1-2.8-4.3-1.8-7.1.8-9.3 3.5-2.9zm-499.5-.5c1.8 3.5.4 8.4-5.7 19.2-8 14.2-9.3 16.9-10.5 22.7-.6 2.8-2.2 6.4-3.6 8.1-1.9 2.3-2.4 3.7-1.9 5.9.5 3 .5 3-4.3 3-6.4 0-8.1-.7-8.1-3.5 0-3.4 3.4-12.6 6.3-16.8 1.4-2.1 2.9-4.8 3.3-6 1.1-3.7 15.6-30 17.7-32.5 2.6-2.8 5.3-2.8 6.8-.1zm158.1-1c15.7 3.3 26.3 8.6 39.9 20.1 15.5 13 25.4 18.6 35.1 19.7 3.1.4 6.3 1.3 7.1 1.9 4.7 4 .2 21.9-6.2 24.7-.8.3-4-1-7-2.8-7-4.3-13.1-7.4-24.6-12.3-22.1-9.4-35.6-19.9-49.7-38.6-4-5.2-5.8-11.6-3.6-12.9 1.7-1.1 2.7-1.1 9 .2zM577 381c1.9.5 7.9 1.4 13.3 2 5.4.5 11.1 1.7 12.7 2.5 2.8 1.5 6 5.1 6 6.9 0 .9-4.7.4-14.5-1.4-2.7-.5-12.9-1.2-22.5-1.6-17.9-.7-26.3-.1-44.2 3.3-4.9.9-9.1 1.4-9.4 1-.3-.3.2-1.9 1.1-3.5 2.2-3.6 14.1-9 22.9-10.2 7-1 29.4-.4 34.6 1zm90.9 3.2c1.4 1.8 3.4 3.9 4.3 4.7 2.5 2.1 2.2 3.6-.8 6-1.8 1.4-4.1 2.1-7.1 2.1-4.7 0-7.7 1.4-23.6 10.9-11.7 7.1-15.5 6.9-21.1-1.4-2.5-3.5-4-7.1-4.6-10.9-.5-3.2-1.8-7.2-2.9-9-1.2-1.8-1.8-3.6-1.4-3.9.3-.4 4.5-.8 9.2-.8 4.7-.1 11.5-.5 15.1-.9 3.6-.5 11.9-.7 18.4-.5l12 .4 2.5 3.3zm-341.3.5c1.9 6.7 6.7 13.5 16.3 23.3 13.9 14 29.9 24.6 46.4 30.5 5.2 1.9 6.3 3.5 2 2.8-32.6-5.4-52.9-12.6-64.2-22.8-9.4-8.5-12-26.8-4.8-33.5 2.6-2.5 3.6-2.5 4.3-.3zm159.4.3c-3.6 1.2-6 1.2-6 0 0-.6 1.9-1 4.3-.9 3.6.1 3.8.2 1.7.9zm13.6-.1c-.3.5-1.5.7-2.6.4-2.8-.7-2.5-1.3.6-1.3 1.4 0 2.3.4 2 .9zm-6.5 4.1c1.2 0 1.2 10.7-.1 11.5-.5.3-1 1.9-1 3.4s-.6 3.6-1.4 4.6c-1.3 1.8-1.4 1.8-2.5-.3-.6-1.1-1.1-5.6-1.1-9.9 0-8 1.1-10.9 3.8-9.8.8.3 1.8.5 2.3.5zm190.4 4.5c-7.9 3.9-7.8 3.9-7 2.5 1-1.6 9.7-5.9 12-5.9 1.1-.1-1.1 1.5-5 3.4zm-279.2 2.4c3.4 1.3 5.7 5 6.4 10.1.5 3.6.4 4-1.6 4-3.1 0-7.5-2.4-15.3-8.3-9.1-6.8-9-8.2.6-7.4 4 .4 8.5 1.1 9.9 1.6zm174-.9c6.4.5 13.6 1.4 16 1.9 2.3.6 5.5 1.2 7 1.6 5 1 1.8 2.4-5.6 2.4-3.9 0-14.2.7-22.7 1.6-8.5.8-17.6 1.5-20.2 1.5-2.6 0-5 .4-5.3 1-.3.5-1.9 1-3.4 1s-6.1.9-10.2 1.9c-4.1 1-10 2.2-13.2 2.6-6.5.8-7.4 0-6.3-6.1.8-4 2.1-4.7 13.1-7.1 14.9-3.3 30.5-4 50.8-2.3zm112.2 9.8c.3 2.6 1 5.5 1.5 6.4.5.9 1.2 3.6 1.5 6 .5 4 .4 3.9-1.9-2.2-1.3-3.6-3.1-8.5-4-10.9-.9-2.4-1.6-5.3-1.6-6.5.1-2.1.1-2.1 2 .2 1 1.3 2.2 4.4 2.5 7zm-482.2 6.7c1.5 3.1 2.7 5.8 2.7 6 0 .3-4.7.4-10.5.3-5.8-.1-10.5-.5-10.5-1 0-2.1-2.7-.4-4.5 2.9-1.3 2.6-3.5 4.5-6.5 5.9-2.5 1.2-5.8 3.6-7.4 5.3-2.7 2.8-6.6 4.2-6.6 2.3 0-.4 1.6-2.4 3.6-4.3 5.2-4.9 6.8-8.3 5.2-10.9-1.1-1.7-1-2.6.7-5.8 1.7-3.1 2.8-3.9 7-4.8 2.8-.7 9.3-1.3 14.5-1.3l9.6-.1 2.7 5.5zm405.6-3c7.3 8 8 25.3 1.3 30.5-3 2.4-10.6 2.7-15.7.6-1.9-.8-8.4-6.1-14.3-11.8-7.6-7.2-12.9-11.3-17.5-13.6-6.3-3.1-7.2-3.3-13.2-2.7-4.3.5-6.5.4-6.5-.3 0-2.4 25.9-5 48.3-4.9 14.5.1 15.9.3 17.6 2.2zm-393.3.1c-.3.9-.6 3.4-.6 5.7v4l-2.6-2.4c-2.3-2.2-5.4-6.9-5.4-8.4 0-.3 2.1-.5 4.6-.5 3.8 0 4.5.3 4 1.6zm25-.1c1.2 3-.7 6.5-4.7 9.1-2.3 1.4-3.8 2.8-3.5 3.1.3.3 2.1-.5 4-1.7l3.6-2.2 1 2.9c.6 1.5 1.5 4 2.1 5.6 1.6 3.8-.2 5.7-5.5 5.7-5.1 0-13.9-4-16.1-7.4-1.7-2.6-3.6-13.1-2.8-15.4.8-1.9 21.2-1.7 21.9.3zm-92 3.6c1.2 2-1.6 3.3-7.9 3.4-3.4.1-7.3.7-8.6 1.4-2.4 1.3-4.1.7-2.5-.9.9-.9 14.4-4.8 17.1-4.9.6-.1 1.5.4 1.9 1zm392.3 3c3.3 1.3 7.8 5.5 9.7 9.1 3.4 6.5.4 18-5 19.4-3.4.8-4.2.1-5.4-4.9-2.4-9.3-13.3-17.3-20.3-14.8-4.3 1.5-6.6 1.4-7.2-.3-1-2.5 3.2-6.5 8.1-8 5.5-1.6 16.4-1.9 20.1-.5zm16.6 1.5c1.4.9 2.5 2 2.5 2.4 0 1.3-4.6 3.9-5.6 3.2-1.3-.9-5.4-6.8-5.4-7.7 0-1.2 5.7.3 8.5 2.1zm-94.1 2c1 1 1.6 3.3 1.6 6.5v5l-5.2-.3-5.3-.3.2-4.2c.1-2.3.7-5.1 1.3-6.2 1.3-2.5 5.2-2.8 7.4-.5zm111.2 11.1c7.6 7.5 7.7 7.7 5.6 9.2-1.2.9-8.7 5.9-16.7 11.1-13.9 9.1-16.9 12-14.7 14.2 1.5 1.5 9.3-.6 17.2-4.8 12.1-6.3 19-7.9 19-4.5 0 1.4-2.5 3.5-8.2 7.1-10.1 6.2-44.5 23.6-48.6 24.5-4.4.9-4.9-1.1-1.2-4.8 1.7-1.7 3.8-4.4 4.6-6.1.8-1.7 2.5-4.9 3.9-7.1 1.8-3 2.5-5.4 2.5-9.6 0-6.7 1-8.2 8-11.7 6.4-3.2 9.5-7.3 11-14.7.6-3 2-6.5 3.1-7.9 3.4-4.3 5.9-3.4 14.5 5.1zm-69.7-3.3c1.2 1.8 2.1 4.1 2.1 5 0 .9.4 1.6.9 1.6.4 0 2.9 3 5.5 6.7 2.5 3.8 7.3 9.9 10.6 13.8 6.6 7.8 8.2 12.1 5.7 15.9-1.8 2.7-6.3 3.9-9.2 2.4-2.4-1.3-6.4-5.9-6.5-7.4 0-.6.7-1.7 1.5-2.4 2.6-2.1 1.7-3-2.4-2.4-5.4.9-10.4-1-14.4-5.6-3.1-3.4-3.6-4.6-4.2-11.4-.7-7.6.5-15.6 2.7-18.3 2-2.4 5.5-1.5 7.7 2.1zm-179.6 1.4c2.3 1.6 7.4 4.3 11.2 6.1l7 3.3-4.9 2.5c-2.7 1.4-8.6 3.6-13 5-13.3 4-23.1 2-28.8-5.9-1.8-2.7-2-3.3-.7-4 .8-.5 4.8-2.9 8.9-5.3 9.3-5.6 14-5.9 20.3-1.7zm202.8 2.5c4.2 2.8 7.9 9.1 7.9 13.5 0 3.8-2.6 5.5-4.5 2.9-.6-.9-3.9-4.6-7.3-8.2-5.9-6.2-7.1-8.3-5.5-9.8 1.4-1.4 6.1-.6 9.4 1.6zM251 431c0 .5-.4 1-1 1-.5 0-1-.5-1-1 0-.6.5-1 1-1 .6 0 1 .4 1 1zm392.5 4.9c3.9 3.3 5.4 5.7 6.6 10.8 1.6 6.8.9 8.5-2.8 7.3-2.8-.9-9.7-1.8-14-1.9l-2.2-.1 2.5-6c1.3-3.3 2.4-7.2 2.4-8.8 0-1.6.3-3.2.7-3.5.9-1 4.4.2 6.8 2.2zm-175.1.9c4.9 1.9 6.5 5.6 5.8 13.5-.7 8.5-2.9 9.5-20.9 9.7-3.7 0-4.2.3-5.2 3-1.2 3.7-2.5 4-1.8.4.6-3.1-.9-9.3-2.7-11.2-.7-.7-5.2-1.9-10-2.7-4.9-.7-9-1.6-9.3-1.9-.3-.3 1-2.6 2.8-5.1l3.3-4.6 5.1.6c5.2.7 15.8-1.6 17.1-3.6.8-1.3 10.7-.1 15.8 1.9zm156.6-.3c0 3.4-6.9 9.5-10.8 9.5-3.3 0-2.6-1.3 1.9-3.4 2.2-1 4.7-2.9 5.6-4.2 1.3-2.1 3.3-3.2 3.3-1.9zm-261.9 4.9c7.5 2.3 12 3.4 22.4 5 5.5.9 13.6 2.3 18 3.2 4.4.9 10.3 1.7 13 1.9 2.8.2 7.5.9 10.5 1.5 14.9 3.3 16.2 4.4 14.1 11.2-.7 2.4-1.4 5.4-1.5 6.8-.2 1.4-.4 2.8-.5 3.2-.2 1.1-4.5 1-7.7-.2-3.5-1.4-5.8-.6-7.4 2.6-1.1 2-1.2 2.9-.2 4.4 1.9 3.1 1.5 3.7-3.8 5-5.4 1.3-7.6 1-15.5-2-17.6-6.6-23-8.4-32-10.6-5.5-1.4-11.8-3-14-3.5-10.9-2.9-34.9 1.6-47.9 9-3.1 1.8-6 3.1-6.4 2.9-.5-.2-3.9-3.6-7.7-7.6-7.8-8.3-7.8-7.7 0-18 5.2-6.9 6.3-7.3 13.6-4.6 8.3 3 24-.6 37.4-8.6 5.6-3.3 9-3.7 15.6-1.6zM153.5 444c15.6 1.4 19 2.1 19 4 0 1.7-.6 1.7-12-.4-4.4-.8-12.7-1.8-18.5-2.1-5.8-.4-11.2-.9-12-1.3-1.7-.6 6.3-2 9.5-1.6 1.1.1 7.4.8 14 1.4zm.3 6.9c2.3.5 4.5 1 4.7 1.3.3.2-2.6 6.6-6.3 14-14 28.2-19.8 40.9-26.3 57.3-4.2 10.6-5.9 13.3-5.9 9.8 0-5 5.4-33.7 8.1-43.3 5.6-19.8 11.2-36.3 13.2-38.8 1.1-1.4 6.2-1.5 12.5-.3zm468.8 0c-.8 1.2-5.5 2-6.1 1-.3-.4.7-1 2.2-1.2 1.6-.2 3.2-.5 3.6-.6.5 0 .6.3.3.8zm-142 10.5c2.6 4.1 4 14.8 2.7 21.1-2.6 12-9.8 22.6-19.6 28.9-5.1 3.2-10.7 5.3-10.7 3.9 0-.3 2.2-3.2 4.9-6.3 8.7-10 14.1-23.9 15.7-40 .4-5.1 1.2-7.9 2.3-8.7 2.3-1.8 2.8-1.6 4.7 1.1zm-21.1 3.6c.3.5-.9 4.3-2.7 8.5-2.3 5.2-3.8 7.5-5.1 7.5-3.1 0-8.7-2.8-8.7-4.5 0-2.2 9.2-11.2 12.1-11.8 1.3-.2 2.7-.5 3.1-.6.4 0 1 .3 1.3.9zm9.9.8c1 3-3.4 23.2-5.1 23.2-1.3 0-6.3-4.6-6.3-5.8 0-1.8 5.8-16.2 7.2-17.9 1.5-1.8 3.6-1.6 4.2.5zm-195.6.4c16.1 4 33.2 26.3 33.2 43.3 0 8.8-2.2 13.8-10.5 23.4-4.3 5-9.6 10.5-11.9 12.2-4.6 3.3-3.9 4-7.1-6.1-4-12.3-9.7-21.1-21.1-32.5-6-6-12.3-9.5-20.6-11.6-5.3-1.3-5.8-2.4-3.1-6.7 6.6-10.1 15.9-20.2 20.8-22.2 3-1.3 15-1.2 20.3.2zm219.9 4.5c4 5.8 3.5 6.8-.9 1.8s-5.2-6.5-3.6-6.5c.7 0 2.8 2.1 4.5 4.7zm.3 9.5c7.2 9.7 13.3 19.6 18.8 30.6 6 11.7 6.2 12.5 5.6 17.5-.4 2.8-1.1 5.8-1.7 6.5-.5.7-1 2.5-1.1 4-.1 1.9-.8 2.9-2.8 3.6-6.3 2.2-17-4.6-21.8-13.9-3.4-6.6-10.6-13.4-15.7-14.7-2.4-.6-4.3-1.3-4.3-1.6 0-.2 1.7-2.4 3.8-4.8 8.2-9.5 12.5-17 13.7-23.9 1.3-7.8 1.9-8.1 5.5-3.3zm-51.7 2.9c2.3 1.1 3.3 1.7 2.2 1.3-1.1-.3-4.2-.9-6.8-1.3-2.7-.5-5.4-1.4-6-2.1-1.7-1.8 5.1-.5 10.6 2.1zm-10.3 5.1c0 .7-.7 2.6-1.6 4.3-.9 1.6-3.9 7.5-6.6 13-2.8 5.5-5.6 10.3-6.2 10.7-6.6 4.5-16.3-8.8-15.4-20.9.3-2.9.7-5.6 1.1-5.9.3-.4 2-.1 3.8.5 4.9 1.7 12.9 1.3 16.9-.8 4.1-2.2 8-2.6 8-.9zm11.9 1.9c4 1.4 3.9 2.9-.9 10.9-2.2 3.6-4.5 7.6-5.2 9-.7 1.4-2.5 4.4-4 6.7s-2.8 4.7-2.8 5.3c0 .5-2 5-4.6 9.8-13.5 26-26.8 45.3-41.8 60.9-8.4 8.8-10.1 9.3-9.2 2.6.7-5.3 3.5-11.5 7.4-16.7 5.5-7.2 12.8-17 15.9-21.4 1.8-2.5 4.6-5.8 6.4-7.4 2.4-2.2 3-3.4 2.5-5.3s0-2.9 2.4-4.7c2.3-1.6 6.2-8.6 15.2-26.5 12.8-25.7 12.5-25.4 18.7-23.2zm10.6 6.9c1 1.1 2.6 2 3.7 2 1 0 1.8.3 1.8.6s-2 3.1-4.4 6.3c-4.5 5.8-15 14-16.3 12.7-.7-.6 1.4-5.1 7.5-16.1 4.7-8.7 4.8-8.7 7.7-5.5zm102.5 1.4c0 .3-.4.8-1 1.1-.5.3-1 .1-1-.4 0-.6.5-1.1 1-1.1.6 0 1 .2 1 .4zm-316.7 4.9c14.9 6.9 31.8 30.3 32.1 44.3l.1 5.9-3.3.3c-2.9.3-4-.3-7.3-3.9-3.7-4-4-4.2-6.5-2.8-4.2 2.2-12.8 11.1-14.7 15.1-1 2.1-2.2 3.8-2.6 3.8-.5 0-3-6-5.6-13.3-2.6-7.2-6-16.1-7.5-19.6l-2.7-6.5 5-5.3c2.8-2.9 5.9-5.3 7-5.3 3.4 0 1.1-2.5-2.6-2.8-2.9-.3-4-.9-5.2-3.2-1.5-3-2-8.2-.8-9.3 1.6-1.6 8-.5 14.6 2.6zm-46.5 1.6c4.2 2.2 7 5.5 12.9 15.6 4.1 6.9 5 9.4 11.3 30.5 1.7 5.8 4.9 15.2 7.1 21 2.2 5.8 4.1 11.2 4.2 12 .2 1.8-2.2 1.7-10-.6-6.5-1.9-10.6-5.7-15-14-1.8-3.3-4.9-7.6-6.9-9.5-10.7-10.1-18.4-25.7-18.4-37.2 0-7.2 2-14.9 4.6-17.8 2.2-2.4 5.5-2.4 10.2 0zm350.7 6.1c-.3.5-1.2 1-1.8 1-.7 0-.6-.4.3-1 1.9-1.2 2.3-1.2 1.5 0zm-17.5 9.4c0 .2-.7.6-1.5 1-.8.3-1.5.1-1.5-.4 0-.6.7-1 1.5-1s1.5.2 1.5.4zm-304.1 17.4c7.7 24.2 11.5 35.1 13.2 37.8 2 3.3 2.5 6.4 1 6.4-1.3 0-4.6-4.4-5.9-7.7-1.7-4.8-5.2-16.8-5.2-18.1 0-.7-2.2-8.1-5-16.3-2.7-8.2-5-15.3-5-15.7.1-2 5 7.7 6.9 13.6zM469 531c0 .5-.5 1-1.1 1-.5 0-.7-.5-.4-1 .3-.6.8-1 1.1-1 .2 0 .4.4.4 1zm-5.5 8c-.3.5-1.2 1-1.8 1-.7 0-.6-.4.3-1 1.9-1.2 2.3-1.2 1.5 0zm24.4 17.4c-.9.8-11.3 5.8-10.6 5 1.4-1.5 8.2-5.2 9.6-5.3.8-.1 1.2.1 1 .3zm-18.2 2.2c-.3.3-1.2.4-1.9.1-.8-.3-.5-.6.6-.6 1.1-.1 1.7.2 1.3.5zM362.5 600c-.3.5-1.4 1-2.3 1-1.5 0-1.5-.2-.2-1 2-1.3 3.3-1.3 2.5 0z"/><path d="M728.2 230c-3.3 3.1-7.7 4-8.5 1.7-.9-2.4-2.8.9-2.2 3.6 1 3.9 3.2 5.4 5.6 3.9 2.5-1.6 3.7-.9 4.7 3.1s4.5 4.9 6.2 1.7c.9-1.6.9-2.5.1-3.3-.6-.6-1.1-1.7-1.1-2.5s-.8-2.1-1.7-2.8c-1.6-1.2-1.6-1.5-.3-2.4.8-.6 3-.8 4.7-.5 2.5.4 3.1.3 2.8-.8-.5-1.1-5.6-4.8-6.7-4.7-.1 0-1.8 1.4-3.6 3zM716.3 267.5c-1.8.8-3.3 2.1-3.3 3 0 .9.3 1.5.8 1.3.4-.2 2.4-1.2 4.5-2.1 6.3-2.9 4.4-5-2-2.2zM292.7 349.1c-4.6 3-4.9 3.1-6.2 1.3-1.3-1.8-1.4-1.8-2.5.7-1.5 3.3.1 6.9 3.1 6.9 1.1 0 2.9.5 4 1 1.5.9 2.3.7 3.6-.5 1.5-1.6 3.8-1.6 7.6 0 2.7 1.1 2.1-1.9-.7-3.5-1.6-.8-3.8-1-6.1-.6-3.4.7-3.6.6-2.5-1.3 1.4-2.7 4.2-4.1 8-4.1 4.1 0 3.5-2.4-.6-2.8-2-.2-4.5.7-7.7 2.9zM295.4 362.1c-1 1.7 2.3 4.6 3.7 3.2.7-.7.9-1.9.6-2.7-.7-1.8-3.3-2.1-4.3-.5z"/></svg>