<svg version="1.0" xmlns="http://www.w3.org/2000/svg" width="680" height="1196" viewBox="0 0 510 897"><path d="M197 34.9c0 .5.9 1.3 2 1.6 1.7.6 2 1.5 2 7.5 0 7.9-.6 10-2.8 10-1.2 0-1.3.3-.5 1.1 1.5 1.5 11.6 1.5 12.1.1.2-.7-.3-1.2-1.1-1.2-2.4 0-3.9-6.2-1.8-7.4 1.4-.9 4.1.4 4.1 2 0 .8.5 1.4 1 1.4.6 0 1-2 1-4.5 0-4.9-.4-5.3-3.1-2.9-2.3 2.1-3.9 1-3.9-2.6 0-5.4 4.3-4.9 10.5 1.4 3.4 3.4 4 4.7 3.8 7.6-.2 1.9-.8 3.9-1.3 4.4-1.7 1.7-1.1 2.5 2.4 3.2 4.7.8 5.8 0 4-3.4-.7-1.5-1.4-4.6-1.4-6.9 0-4-.2-4.2-3.2-4.5-2.9-.3-3.3-.7-3.3-3.2 0-2-.6-3.1-2-3.7-2.8-1.1-18.5-1.1-18.5 0zM220.7 34.7c-1.5 1.4-.7 4.3 1.2 4.3 2.6 0 3.6-1.7 2.1-3.5-1.4-1.6-2.3-1.9-3.3-.8zM265 37c0 .5.8 1.3 1.7 1.8.9.6 3.1 5 4.7 9.8 1.9 5.4 3.6 8.9 4.5 8.9.8 0 2.5-3.3 4.2-8 1.8-4.9 4-8.8 5.5-10.1 1.5-1.2 2.2-2.4 1.8-2.7-1.5-.8-22.4-.6-22.4.3zm14.5 2.4c1.7 1.2 1.7 1.6.3 5-.8 2.1-1.8 3.7-2.3 3.7-1.1 0-3.6-8.1-2.9-9.3.8-1.2 2.8-1 4.9.6zM291 37.5c0 .8.7 1.5 1.5 1.5 2.9 0 2.3 13.7-.6 16-2.8 2.2-1.4 3 5.3 3 5.5 0 7.6-1.1 4.3-2.4-1.2-.4-1.5-2.4-1.5-8.6 0-6.4.3-8 1.5-8 .8 0 1.5-.7 1.5-1.5 0-1.2-1.3-1.5-6-1.5s-6 .3-6 1.5zM230.6 43.8c-.9 1.1-1.7 4.1-1.9 7.5-.2 3.1-.6 6-1 6.3-1.4 1.4-.7 4.3 1.2 5.4 1.1.5 3.6 1 5.6 1 4.9 0 7.5-1.6 7.5-4.5 0-3.3-2.6-5.5-6.5-5.5-1.9 0-3.6-.4-4-.9-.3-.5.9-.9 2.7-.9 2.3.1 3.7-.6 5.3-2.5 1.1-1.5 2.6-2.7 3.2-2.7 1.4 0 2.3-2.4 1.5-3.7-.4-.6-3.2-1.1-6.3-1.2-4.2 0-6.1.4-7.3 1.7zm5.4 3.7c0 3.2-1.6 4-3 1.5-.9-1.6-.8-2.5 0-3.6 1.6-1.8 3-.9 3 2.1zm2.5 12.5c0 2.3-6.9 2-7.3-.3-.3-1.6.2-1.8 3.5-1.5 2.6.2 3.8.8 3.8 1.8zM248.1 52.3c-1.1 1.4-.6 4.7.8 4.7 1.7-.1 3.3-1.9 2.9-3.5-.4-2.4-2.2-2.9-3.7-1.2zM306.4 54.5c-.8 1.9.3 3.5 2.6 3.5 1.9 0 3.4-2.5 2.4-4.1-.8-1.4-4.4-1-5 .6zM228.5 90.7c-24.4 2.6-39 6.1-58.6 13.8-20.5 8-33.7 14.9-43.8 22.7-3.4 2.7-6.5 4.8-7 4.8-1.4 0-18.7 17.5-23.4 23.7-2.3 3-5.5 7.6-7.2 10.2-1.6 2.5-4.1 5.8-5.5 7.2-2.3 2.4-11.7 20.2-15.3 28.9-8 19.2-11.3 46.7-8.4 69.5 2.5 19.4 4.3 27.4 10 44.2 2.3 6.7 3.9 12.5 3.5 12.8-.4.4-2.2.1-4.1-.5-2.1-.8-5.1-1-7.9-.6-4.1.6-4.8 1.1-6.4 4.4-1 2-1.7 5-1.6 6.7.5 6.4 3.5 20.3 5.8 26.2 1.3 3.5 3.6 9.3 5 13 1.4 3.8 3.8 9.4 5.4 12.5 1.7 3.5 2.6 6.6 2.3 7.9-.4 1.6-.2 2 .8 1.7.8-.3 2 .7 2.7 2.1 2.1 3.8 6.2 17 6.8 21.6 3 23.4 5.6 28.5 13.5 27.3 3.9-.5 3.5-2.8-.5-2.8-5.7 0-8.2-5.2-9.6-20-1.3-13.9-5.1-24.4-14.2-38.9-1.5-2.5-2.8-5.1-2.8-5.8 0-.7-1.4-4.3-3.1-8-4.1-8.8-8.9-28-8.9-35.2 0-9.6 3.9-12.4 13.5-9.7l5.2 1.6 2.4 7.2c1.2 4 2.6 8 3 8.8 1.7 3.3 12 47 12.5 52.5l.4 6-2.4-8.5c-3.2-11.2-7.1-24.8-9.7-33.5-2.5-8.3-7.4-18.8-10.7-22.7-1.7-1.9-3.3-2.8-5.4-2.8h-3.1l.6 7.2c.3 4 1.4 10.2 2.6 13.8 1.1 3.6 3.1 10.2 4.5 14.8 2.6 8.3 5.2 14.2 6.2 14.2 1.1 0-.9-8.7-4.3-18.5-6.2-18.2-8-27.5-5.3-27.5 1.2 0 8 10.6 9 14 .5 1.4 2.2 7 3.8 12.5 1.7 5.5 4.6 14.5 6.5 20 1.9 5.5 3.8 12.1 4.1 14.7.6 3.6 1.2 4.8 2.5 4.8 1.4 0 1.9 1.7 3 11.2 1.9 17.1 5 39.6 6.2 45.8 1.5 7.5 3 14.2 3.6 16 5.2 14.2 7.7 21.3 8.8 24.8 3.9 11.7 18.3 35.6 26.7 44 3.3 3.3 3.8 4.4 2.9 5.6-.8.9-1.3 9.4-1.5 27.2-.4 33-.6 33.5-14.5 47.4-6.9 6.8-11.6 10.5-16.7 13.1-3.9 2-10.3 5.5-14.3 7.8-4 2.2-7.8 4.1-8.4 4.1-.7 0-6.6 3.3-13.2 7.3l-12 7.3.1 8c0 4.3.8 15.1 1.7 23.9.9 8.8 1.5 18 1.5 20.5-.2 8.4 1.3 60.5 1.8 62.7.4 2.1.6 2.1 23.1 2 23.7-.2 60.9 2.2 73.3 4.8 3.6.7 9.2 1.6 12.5 1.9 6.7.8 24.6 4.3 41.2 8.1 26.9 6.2 30.8 6.7 46.8 6.2 18-.7 43-3 54-5 4.4-.8 10.9-1.8 14.5-2.2 3.6-.3 14.2-1.7 23.6-3 26.3-3.7 59.5-2.7 80.8 2.4 2.1.5 4.4.7 5.1.5 1-.4 1.3-5.4 1.4-20.2.2-34.5 1.5-55.1 4.6-75.2.8-5.2 1.9-13.5 2.5-18.3.5-4.9 1.2-9.3 1.5-9.7 1-1.6-2.6-3.9-7.3-4.5-2.6-.4-8.1-2.2-12.2-4-4.1-1.9-10.2-4.4-13.5-5.6-8.6-3.2-25.5-16-25.5-19.4 0-.2.8-.1 1.9.2 2.4.6 3-1.2 2.2-6.2-.6-3.6-.9-4-3.9-4.3-3.2-.3-3.2-.3-3.2 3.9v4.3l-3.4-3.3c-1.9-1.8-4.2-4.9-5.2-6.9-1.1-2-2.9-5.3-4-7.2-2.1-3.3-5.7-12.9-9.9-26.1-1.5-5-1.7-7.8-.9-25 .4-10.7.7-19.9.6-20.6-.2-.7 1.9-4.3 4.5-8 11-15.6 22.8-37.1 26.3-47.8 1.3-3.9 2.9-8.4 3.7-10.2 1.6-3.7 2.5-7.9 6-26.8 1.4-7.7 2.7-14.2 2.9-14.4.2-.2 1.3.4 2.4 1.4 3 2.7 3.2 1.5.5-4l-2.5-5 1.6-14c1.6-14 3.4-23.5 7.4-39.5 2.3-9.5 8.9-30.5 11.4-36.3 1.5-3.6 1.8-3.8 4.8-3.2 4.8 1 7.1 4.1 6.3 8.4-.6 3.4-1.1 4.4-5.8 12.2-9.1 15.2-13.9 27.1-17.2 42.9-.9 4.1-1.8 8.5-2.1 9.7-.3 1.6 0 2.3 1 2.3s1.7-1.4 2.1-3.8c1.2-8.1 4-18 6.7-23.7 1.5-3.3 2.8-6.6 2.8-7.4 0-.8.7-2.2 1.5-3.1 1.8-2 6.7-10.8 10.5-18.8 4-8.5 4.1-15.2.4-18.5-1.4-1.2-3.5-2.4-4.7-2.7-3-.8-3.1-3.6-.4-9 2.4-4.9 4.3-5.7 10.3-4.5 2 .3 4.1 1.6 5 3 3.4 5.1 5 16.7 3.2 22.4-1.2 3.8-7.7 15.1-8.7 15.1-.7 0-4.1 5.3-4.1 6.4 0 3 8-6.3 13.3-15.6 2.3-4 2.8-6 2.9-13 .1-4.6-.4-10-1.1-12-1.8-5.3-7.2-9.8-11.9-9.8-5.8 0-6.3-1.1-3.9-8.8 1.1-3.7 2.6-8.1 3.3-9.7 1.8-4.3 5.2-17.9 6.4-25.5 2-12.4 2.3-38.5.7-51-.9-6.4-2.2-12.9-2.8-14.5l-1.3-3-.4 2.8c-.2 1.6.1 4.2.7 5.9.6 1.7 1.1 5.5 1.1 8.4 0 4.6-.3 5.3-2.2 5.6-3.2.5-3.3 2.6-.1 3 2.8.3 2.8.3 3.3 9.3.6 11-1.1 30.5-3.9 44-2.3 11-2.5 11.6-10.4 34.8-5.3 15.4-7.4 19.7-8.4 16.9-.6-1.6-3.3-1.6-3.3.1 0 .7.6 2.2 1.4 3.3 1.8 2.5 1.4 4.1-4.7 21.5-2.4 6.9-4.7 14.3-5.1 16.5-.4 2.1-1.1 5.7-1.6 7.9-2.3 10.9-5 28.5-5 32.5 0 8.7-6.3 44-9.5 53.5-.8 2.2-2.4 7.4-3.7 11.5-1.2 4.1-3.3 9-4.5 10.9-1.3 1.9-2.3 3.8-2.3 4.3 0 1.5-10.2 22.1-13.2 26.5-1.5 2.3-2.8 4.6-2.8 5.2 0 .6-.4 1.1-.8 1.1s-1.6 1.5-2.6 3.2c-1.1 1.8-3.2 4.9-4.8 6.8-7.7 9.4-19.2 22.8-22.1 25.7-7.6 7.5-12.5 12.1-16.9 15.7-4.6 3.6-5.9 5.6-3.9 5.6 1.1 0 5.3-3.5 13.3-10.9 3.2-3 6.1-5.1 6.5-4.8.7.8-1.3 16.4-3.3 25.7-6.5 29.5-14.6 46.1-34.1 69.5-3.2 3.8-7.6 9.7-9.9 13.1-2.2 3.3-4.9 6.9-5.8 8-2.4 2.6-16.6 23-16.6 23.8 0 .4-1.1 2.4-2.5 4.6-2.5 4-3.3 6.6-1.6 5.6.5-.4 3.8-5.2 7.2-10.9 3.5-5.6 7.3-11.1 8.5-12.2 1.2-1.1 4.8-5.4 7.9-9.5 3.1-4.1 9-11.9 13.1-17.2 4-5.4 8.1-11.2 8.9-12.9.9-1.7 3.2-5.1 5.1-7.6 1.9-2.4 6.1-9.9 9.4-16.6 8.4-17.2 12.7-32.7 15.3-55.8 1.3-11.2 1.5-11.8 5.3-16.5 4.4-5.5 11.5-12.4 12.7-12.4.8 0 .6 9.8-.8 41.5-1 24.2-3 38.9-6.1 46.3-.8 1.8-1.4 3.9-1.4 4.7 0 3.6-9.1 26.7-12.9 32.5-.5.8-3.6 7.1-6.9 14-3.3 6.9-8.6 16.1-11.7 20.5-6.6 9.1-7.4 10.8-5.1 9.9.9-.3 1.6-1 1.6-1.4 0-.4 1.8-3 4.1-5.6 2.2-2.7 5.1-7 6.4-9.6 1.4-2.5 2.8-4.8 3.3-5 .5-.1 2.2-3 3.8-6.3 1.7-3.3 5.8-11.2 9.2-17.5 5.5-10.4 6.6-13.4 10.7-30.5 4.8-19.7 6.9-30.7 8.1-43.5l.7-7.5 2.8 8.2c1.5 4.5 3.4 9.5 4.2 11 .8 1.5 3 5.9 4.8 9.6 1.9 3.8 5.2 8.7 7.5 11 2.2 2.3 4.7 5.2 5.5 6.3 4.7 7 23.1 18 41.4 24.9 15 5.6 14.5 5.3 9.5 5.2-8.7-.2-30.3 3.2-36.9 5.8-3.6 1.4-7.1 2.5-7.9 2.5-1.2 0-9.2 3.2-18.9 7.6-6.9 3.1-24.3 16.3-21.7 16.4.6 0 2.9-1.2 5-2.6 7.1-4.9 18.2-11.4 19.4-11.4.6 0 3.8-1.3 7.3-2.9 3.4-1.6 11.6-4.5 18.2-6.5 10.7-3.2 17.7-4.4 36.3-6.3l5.2-.5v5c0 2.7-.6 8.5-1.4 12.8-4.3 23.8-4.9 30.8-6.1 68.9-.4 10.4-.9 19.7-1.2 20.5-.4.8-.5 2.3-.4 3.3.1 1-.3 2.5-.9 3.3-.9 1-.9 1.4-.1 1.4.6 0 1.1.5 1.1 1.1 0 .6-.8.8-1.7.5-1.8-.6-2.7-.7-21.8-3.1-9.6-1.2-40.7-1.3-49-.1-1.1.2-5.6.6-10 1S343.8 796 338 797c-17.4 3.2-49 6.5-71 7.6-14.6.6-30.5-.6-38.5-2.9-2.7-.9-9.7-2.5-15.5-3.7-5.8-1.1-13.2-2.7-16.5-3.5-3.3-.7-10.9-2.1-17-3-6-.9-15.7-2.3-21.5-3.1-15.3-2.3-34.2-3.5-62.5-3.9l-25-.3-.8-23.4c-.4-12.8-.9-29.4-1.1-36.8-.4-12.1-.8-18.1-3.2-42.2-.6-5.9-.5-6.8 1.1-7.4 2.5-1 39 5.1 49.5 8.2 9.2 2.7 20 6.9 29.5 11.5 5.3 2.6 8.5 4.3 20.8 11.4 4.4 2.5 4.3 1.1 0-1.6-2.1-1.3-4-2.6-4.3-2.9-2.4-2.8-20.4-11.9-33.5-17.1-11.3-4.3-34.9-9.3-54.8-11.4-9.6-1.1-8.3-2.1 23-17.6 19.7-9.8 20.5-10.3 28.4-18.4 4.4-4.5 10.2-11.3 12.7-15.1 3.5-5.2 4.7-6.4 5-4.9.4 2.6 4.1 15.4 5.2 18 .5 1.1 1.6 4.5 2.4 7.6 2 7 12.5 27.6 17.8 34.7 2.2 3 6.7 8.3 9.9 11.9 3.2 3.6 5.9 6.9 5.9 7.4 0 .4 1.9 2.7 4.3 5.1 2.3 2.4 5.9 6.3 8 8.7 2 2.5 4 4.2 4.3 3.8.9-.8-1.2-3.9-8.1-11.7-3.1-3.6-6.8-8.2-8.1-10.3-1.3-2-2.8-3.7-3.3-3.7-.4 0-2.8-2.8-5.2-6.1-2.4-3.4-5.4-7.4-6.7-9-1.2-1.5-4.8-7.6-7.9-13.6-3.1-5.9-6.4-11.9-7.5-13.2-1-1.3-1.8-2.9-1.8-3.5 0-.7-1.1-4.1-2.5-7.6-3.8-9.7-5.9-34.2-5-57.7.4-10.1 1-18.3 1.4-18.3.4 0 4.2 3.8 8.5 8.5s10.9 11.1 14.7 14.1c3.8 3 6.7 5.9 6.4 6.5-.3.5.3 4.2 1.3 8.1 1.1 4 2.5 11.6 3.2 16.8 1.4 11 7.5 33.2 12 44 1.7 4.1 3.4 8.4 3.7 9.5.3 1.1 1.1 2.7 1.8 3.5.7.8 4.4 6.9 8.3 13.5 3.9 6.6 9.3 15.1 12.1 19 7 9.9 20.3 33 22.4 39 1 2.7 2.9 10.2 4.3 16.5 3 14.2 3.3 15 4.6 15 1.3 0 .4-6.6-2.7-18.5-3.8-15.1-9.8-27.8-20.3-43.3-15.6-23-29.7-48.3-34.7-62.2-3.1-8.7-6.2-21.6-9.4-39.5-1.1-6.1-2.3-12.7-2.7-14.8-.4-2-.3-3.7.2-3.7s3.2 1.5 5.9 3.3c2.8 1.9 8.6 5.3 13 7.7 4.4 2.4 9.6 5.2 11.5 6.4 9.9 5.7 19.1 10 24 11.3 22 5.8 43.1 4.2 61.7-4.8 5.6-2.8 11.9-6.4 14-8 2.1-1.7 5.1-3.7 6.6-4.5 1.5-.8 2.5-1.9 2.2-2.4-.7-1.2-6 1.3-7.2 3.4-.4.7-3.5 2.8-6.8 4.5-3.3 1.8-6.7 3.6-7.5 4.1-6.4 3.8-14.9 6.4-26 8.1-12.2 2-40-2.4-47.2-7.3-1.4-1-2.9-1.8-3.3-1.8-.4 0-2-.9-3.6-2-1.5-1.2-4.3-2.6-6.1-3.2-1.7-.6-7.3-3.7-12.3-6.9-4.9-3.1-11-7-13.5-8.5-6.2-3.9-19.9-16-29.8-26.3-7.4-7.6-20.3-25.3-25.5-35.1-1-1.9-3.1-5.5-4.5-8-5-8.5-9.9-19.5-13.1-29.5-1.8-5.5-3.6-10.9-4.1-12-1-2.1-5.1-21.9-6.9-32.5-.6-3.6-1.8-13.7-2.6-22.5-2-20.3-2.2-21.7-3.9-29.5-.9-3.6-2.4-10.6-3.6-15.5-3.5-15.7-9.3-34.7-15-50-1.1-2.8-4-12.6-6.5-21.9-2.5-9.3-4.7-17.2-4.9-17.5-1-1.6-2.8-29.4-2.9-44.1-.2-20.4 1.3-27.1 6.6-28.8 3.2-1 3.2-1 .5-1.1-1.6-.1-2.8-.4-2.8-.9.1-2.3 4.4-13.9 7.4-19.9 2-3.9 3.6-7.3 3.6-7.7 0-.4 1.7-3.3 3.9-6.4 2.1-3.1 4.1-6.6 4.5-7.7.3-1.2 2.9-4.5 5.6-7.5 2.8-3 5-6.1 5-6.9 0-.8 1.5-2.9 3.3-4.7 1.7-1.8 5.7-5.8 8.7-8.9 9.4-9.7 28.7-23.2 31.6-22.1.7.3 1.9-.6 2.8-1.9 1.5-2.3 12.6-8.8 17-9.9 2-.5 2.3-.3 1.9 1.4-.7 2.5 1.5 2.7 3.3.3 1.7-2.4 2.9-1 1.4 1.6-.8 1.7-.8 2.1.3 2.1 4.2 0 4.5-6.5.4-7.3-2.1-.3-2.1-.4-.2-1.1 1.1-.4 3.6-1.4 5.5-2.3 4.8-2.2 22.7-7.4 27.3-8 3-.4 4.1-.1 5.2 1.3.9 1.2 1.5 1.4 1.6.6.1-.6.2-1.6.3-2.1.2-1.7 1-1.9 13.6-3.6 21.9-3 48.8-2.3 84 2.2 14.9 1.8 17.5 2.6 16.5 5.1-.5 1.4-.4 1.5.6.4 1.9-1.8 4.4-1.5 14.4 1.7 17.2 5.5 44.7 20 45.8 24.2.3 1 1.4 1.9 2.4 1.9 2.1 0 8 3.8 13.9 8.9 3.6 3.2 10 8.7 12.9 11 2 1.6 13.8 15.2 16.6 19.1 1.7 2.3 2.9 5.3 2.9 7 0 2.2.5 3 1.8 3 .9 0 2.2.8 2.9 1.8 1.7 2.7 8.8 19.8 10.8 25.9 1.6 5 2.7 6.3 3.9 4.5 1.7-2.8-11.8-32.6-20.2-44.4-4.1-5.8-21.5-23.6-30.5-31.2-5.2-4.5-15.3-11.6-16.3-11.6-.2 0-4.3-2.5-9.1-5.6-4.7-3-10.9-6.4-13.7-7.5-2.8-1.2-7.4-3.1-10.4-4.5-2.9-1.3-5.6-2.4-6-2.4-.4 0-4.3-1.4-8.6-3-11.3-4.4-28.5-7.7-52.1-10-9-.9-46.5-1.1-54-.3z"/><path d="M254.2 99.9c0 2.2-.5 4.9-1.1 5.9-1.2 2.3-.5 3.2 2.3 3.2 1.9 0 2.1-.6 2.1-6.2 0-5-.4-6.3-1.7-6.6-1.2-.2-1.6.6-1.6 3.7zM267 98.7c0 1.2-.4 2.4-.9 2.7-1.2.8-1.9 7.6-.9 8.2 1.5 1 4-1.9 3.4-3.9-.2-1.1.1-2.8.7-3.8.9-1.5.8-2.2-.6-3.6-1.6-1.6-1.7-1.6-1.7.4zM262.5 98.9c-.7 1.2 1.2 2.4 2.5 1.6 1.1-.7.4-2.5-1-2.5-.5 0-1.1.4-1.5.9zM206 105.3c0 .7.7 2.2 1.5 3.3 1.4 1.8 1.4 1.8 1.5-.7 0-1.5-.7-2.9-1.5-3.3-.9-.3-1.5 0-1.5.7zM260 106.4c0 2.1 2.1 3.1 3.1 1.5 1.4-2.2 1.1-2.9-1.1-2.9-1.1 0-2 .6-2 1.4zM319.2 107.8c-1.6 2.8-1.2 4.5.6 3.3.8-.5 1.2-1.9 1-3.2l-.3-2.4-1.3 2.3zM178.2 110.9c1 1.6.9 2.3-.5 3.9-2.2 2.4-2.3 6.5-.1 6 1.3-.2 5.4-8.6 5.4-11.1 0-.4-1.4-.7-3-.7-2.7 0-2.9.2-1.8 1.9zM209.9 113.4c-.7.7-.1 12.4.7 13.7.9 1.5 2.4 0 2.4-2.7 0-1.3.9-2.9 2-3.6 1.1-.7 2-1.6 2-2 0-.5-.9-.8-2-.8s-2-.4-2-.8c0-1.3-2.5-4.4-3.1-3.8zM340.7 113.7c-1.5 1.5-.5 2.5 1.8 1.9 3.6-.9 3 .5-1.6 3.7-3.8 2.6-6.8 7.1-5.6 8.3.3.3 2.5.8 4.9 1.1 4.2.5 4.7-1.1.5-1.9-3.3-.6-1.7-2.3 2.3-2.3 2.1-.1 4.2-.4 4.6-.7 1-1.1-.5-2.8-2-2.2-.8.3-1.7.1-2.1-.5-.3-.6.1-1.1.9-1.1 2.7 0 4.7-2.9 3.6-5.1-1-1.9-5.9-2.7-7.3-1.2zM317.4 115.1c-.7.8-1.4 2.3-1.6 3.4-.3 1.8-1 2-5.7 1.6-5.9-.3-6.4 1.2-.8 2.7 2.8.8 3.2 1.3 3 4.1-.1 3.9 2 3.7 2.5-.2.3-2.2.9-2.6 4-2.9l3.7-.4-2.8-1.2c-2.4-1-2.6-1.5-1.7-3.2.6-1.2 1-2.8.8-3.7-.3-1.4-.5-1.4-1.4-.2zM233.7 116.6c-1.6 1.7-.5 2.5 3.1 2.2 2-.2 3.7-.8 3.7-1.3 0-1.2-5.7-1.9-6.8-.9zM245 116.9c0 1.6 1.7 2.1 4.9 1.5 4.4-.9 3.8-2.4-.9-2.4-2.2 0-4 .4-4 .9zM257 117c0 1.1 6.5 2.4 7.9 1.5 2.4-1.4.9-2.5-3.4-2.5-2.5 0-4.5.4-4.5 1zM269.7 116.7c-1.6 1.5-.5 2.3 3.2 2.3 4.9 0 6.2-1.5 2-2.4-3.9-.8-4.4-.8-5.2.1zM355.8 119.5c-2.8 3.3-3.6 5.5-1.9 5.5 1.1 0 6.1-6.5 6.1-7.9 0-1.9-1.4-1.1-4.2 2.4zM221 118.5c0 1.6 4.3 2.1 7.4.9 3.1-1.2 1.6-2.4-2.9-2.4-3.3 0-4.5.4-4.5 1.5zM281 117.9c0 1.2 4.5 2.2 6.4 1.5.9-.3 1.3-1 1-1.5-.7-1.2-7.4-1.2-7.4 0zM160.5 119.8c-1.3 1.3-.2 2.2 2.9 2.2 1.8 0 3.9-.6 4.5-1.4 1.1-1.2.6-1.5-2.8-1.4-2.2 0-4.2.3-4.6.6zM198.2 119.7c-2.6.5-2.5 2.8.1 2.7 7-.3 7.7-.5 7.7-1.9 0-1.5-2.7-1.8-7.8-.8zM295 120c2 1.3 7 1.3 7 0 0-.6-1.9-1-4.2-1-3.2 0-3.9.3-2.8 1zM188.3 121.3c-3.6 1.1-4.5 3.7-1.4 3.7 3.2 0 7.3-1.9 6.9-3.2-.6-1.6-1.8-1.8-5.5-.5zM176.7 124.3c-3.3 1.3-3 3.3.4 2.9 2.6-.4 4.9-1.9 4.9-3.3 0-1.1-1.7-1-5.3.4zM325.2 124.2c.5 1.5 5.8 2.4 5.8 1 0-1.1-2.4-2.2-4.7-2.2-.8 0-1.3.6-1.1 1.2zM138 127.4c0 .8-.3 2.1-.6 3-.4 1.1-.1 1.6 1 1.6s1.6-.9 1.6-3c0-1.7-.4-3-1-3-.5 0-1 .6-1 1.4zM166.8 127.2c-2.1.6-3.8 1.6-3.8 2.4 0 1.8 1.2 1.8 5.6-.1 2-.8 3.3-1.9 2.9-2.5-.3-.5-.7-1-.8-.9-.1.1-1.9.6-3.9 1.1zM347 129.9c0 1.2 5.9 3 7.8 2.3 2-.7.1-2-4-2.7-2.5-.5-3.8-.3-3.8.4zM155.5 131.2c-2.8 1.5-2.8 1.5-2.1 2.6.8 1.4 6.6-.9 6.6-2.5s-1.8-1.6-4.5-.1zM210.7 131.7c-.4.3-.7 2.2-.7 4 0 4.7 2.4 3.8 2.8-1 .3-3.4-.5-4.6-2.1-3zM358 133.3c0 1.2 5.2 3.7 7.8 3.7 2.4 0 1.1-1.6-2.8-3.3-4.8-2-5-2.1-5-.4zM384 134.4c0 2.4 1.6 4.3 2.6 3.3.8-.7-.7-5.7-1.7-5.7-.5 0-.9 1.1-.9 2.4zM312 137.5c0 1.9.5 3.5 1 3.5.6 0 1-1.6 1-3.5s-.4-3.5-1-3.5c-.5 0-1 1.6-1 3.5zM137.7 135.7c-.4.3-.7 1.9-.7 3.5 0 2.2-.8 3.3-3.5 4.9-4.1 2.5-4.2 3.1-1 8.4 2.6 4.1 3.5 2.7 1.3-2-1.1-2.4-.9-2.8 2.5-5.6 2.2-1.8 3.7-3.9 3.7-5.2 0-2.6-1.4-5-2.3-4zM145.1 136.1c-1.8.7-2.2 1.2-1.3 2.1 1.3 1.3 6.2-.4 6.2-2.2 0-1.2-1.7-1.2-4.9.1zM371.9 140c1.3 1.1 3.3 2 4.5 2 2.1-.1 2.1-.1-.3-2-1.3-1.1-3.3-2-4.5-2-2.1.1-2.1.1.3 2zM209.4 143.4c-.8 2.2 0 6.9 1.2 7.3 1.2.4 2.5-5.3 1.7-7.5-.7-1.6-2.2-1.5-2.9.2zM386 143.4c0 .9-.8 1.2-2.5.8-3.4-.6-3.1.9.6 3 4.8 2.8 5.8 2.4 4.5-1.7-1.1-3.5-2.6-4.7-2.6-2.1zM311.6 145.6c-1 2.5-.7 7.4.4 7.4.6 0 1-2 1-4.5 0-4.7-.4-5.5-1.4-2.9zM391 152.1c0 1.1-.5 2.9-1.1 4-.5 1.1-.9 2.8-.7 3.7.3 1.3.8.9 2.1-1.6 1.7-3.1 1.8-3.2 4.2-1.6 4.4 2.8 5.1.4 1-3.3-4.3-3.8-5.5-4.1-5.5-1.2zM122.5 153c-1 1.1-1.5 2-1.1 2 1.4 0 4.6-2.1 4.6-3 0-1.6-1.6-1.1-3.5 1zM208.8 158c-.2 2.8 0 4 .9 4 .8 0 1.3-1.4 1.3-4 0-2.2-.4-4-.9-4s-1.1 1.8-1.3 4zM115.6 159.1c-2.8 2.2-3.4 3.9-1.3 3.9 1.9 0 6.1-4.7 4.9-5.4-.5-.3-2.1.4-3.6 1.5zM250.3 158.7c-1.8.7-1.6 3.3.2 3.3.9 0 1.8-.7 2.1-1.5.4-.8 1-1.2 1.5-.9 1.6 1 1 2.4-1.6 3.6-3 1.3-3.3 2.8-.6 2.8 2.6 0 3.6 1.7 2.1 3.5-1.7 2-2.7 1.9-3.3-.5-.7-2.6-3.7-2.6-3.7 0 0 2.1 2.7 4 5.9 4 2.5 0 5.4-4.1 4.5-6.4-.3-.9-.1-2.3.6-3.1 2.1-2.5.3-5.5-3.3-5.4-1.8 0-3.8.3-4.4.6zM263.2 160.1c-.5 1.3-1.2 4.1-1.6 6.2-.6 3.1-.4 3.8 1.1 4.4 1 .4 2.1 1.1 2.4 1.6.4.5 1.5.4 2.8-.3 1.7-.9 2-1.5 1.1-2.4-.5-.8-.8-2.1-.4-3 .8-2.2-1.2-2.1-2.5.1-1.6 2.9-2.5.5-1.3-3.4 1.3-4.3-.1-7.2-1.6-3.2zM310 162.5c0 4.5 1.3 6.1 2.3 2.6.6-2.5-.3-7.1-1.4-7.1-.5 0-.9 2-.9 4.5zM136.8 159.6c-1 1 2.1 6.6 3.2 5.9.6-.4 1-1 1-1.4 0-1.5-3.5-5.3-4.2-4.5zM401 160.3c0 2 5.7 7 7 6.2.8-.5.1-1.8-2.1-4.1-3.5-3.6-4.9-4.2-4.9-2.1zM185.3 161c-3.4 1.4-2.8 7 .7 7 2.4 0 3.3 1.5 2.5 4-.8 2.6-2.5 2.6-2.5 0 0-1.1-.7-2-1.6-2-1.1 0-1.4.8-1.2 2.7.2 2.1.9 2.9 2.7 3.1 5.1.8 7.4-8 2.6-9.8-1.4-.5-2.5-1.2-2.5-1.5 0-.3 1.1-1 2.5-1.5s2.5-1.4 2.5-2c0-1.2-2.7-1.2-5.7 0zM174.2 162.6c-1.4 1-2.2 2.6-2.2 4.4 0 2.4.5 2.9 2.8 3.2 2.7.3 3.8 2.8 1.5 3.5-.7.3-1.3-.2-1.3-1.1 0-1-.8-1.6-2.1-1.6-1.4 0-1.9.5-1.7 1.6.5 2.5 3.1 3.8 6.2 3 2.4-.6 2.7-1.1 2.5-3.9-.1-1.8.1-4.2.5-5.5.8-2.4-.7-5.2-2.8-5.2-.6 0-2.2.7-3.4 1.6zm2.8 2.8c0 .3-.4.8-1 1.1-.5.3-1 .1-1-.4 0-.6.5-1.1 1-1.1.6 0 1 .2 1 .4zM385.6 165.6c-.3.9-.6 2.3-.6 3.2.1 1.5.3 1.4 1.5-.2 1.7-2.2 2-4.6.6-4.6-.5 0-1.2.7-1.5 1.6zM333 167c0 2.1 1.5 2.7 2.5 1 .7-1.1 2.5-.4 2.5 1 0 .4-1.2 1.3-2.7 1.8-2.7 1-2.8 1.1-.5 1.7 1.2.4 2.2 1.5 2.2 2.6 0 2-1.5 2.6-2.5.9-1.1-1.7-3.5-1.1-3.5.9 0 2.8 4.7 3.7 7.2 1.4 1.5-1.3 1.9-2.6 1.5-5-.4-2.5-.2-3.3.9-3.3 2.1 0 1.7-2.8-.5-4-3.4-1.8-7.1-1.3-7.1 1zM106.7 167.8c-2 2.2-2.2 4.2-.4 4.2 1.3 0 3.6-2.1 5.1-4.8 1.1-1.9-2.9-1.5-4.7.6zM208.7 166.7c-1 1-.9 6.3.2 6.3s2.2-5.3 1.2-6.3c-.4-.4-1-.4-1.4 0zM345.7 166.7c-.4.3-.7 1.9-.7 3.5 0 2.1.5 2.8 2 2.8s2 .7 2 2.5c0 1.4-.4 2.5-1 2.5-.5 0-1-.5-1-1 0-.6-.9-1-2-1-3.3 0-2.3 2.7 1.3 3.4 2.6.5 3.5.2 5-1.5 2.4-3 2.1-5.4-.8-6.7-3-1.4-3.3-3.2-.5-3.2 1.1 0 2-.5 2-1 0-1.1-5.3-1.4-6.3-.3zM95 168.9c0 1.1.5 2.3 1 2.6.6.4 1-.5 1-1.9s-.4-2.6-1-2.6c-.5 0-1 .9-1 1.9zM410 169.4c0 1.6 3.8 6.6 5.1 6.6 1.5 0 1-1.9-1.3-5-2.3-3.2-3.8-3.8-3.8-1.6zM142.5 171.7c.4 1 1 2.6 1.2 3.5.3 1 1.2 1.8 1.9 1.8 1.8 0 1.7-.4-.1-4-1.7-3.2-4.2-4.2-3-1.3zM309 172.5c-1.2 3.2-1.3 7.5-.2 7.5 1.2 0 3.1-8.9 2.1-9.6-.5-.3-1.4.7-1.9 2.1zM380.2 176.5c-1.5 3.2-1.5 4.5-.2 4.5.8 0 4-5.1 4-6.5 0-1.6-2.8-.1-3.8 2zM101.6 175.9c-.3.5-1.5.7-2.6.4-2.3-.6-2.4-.4-1 3.3l1.1 2.7 2.4-2.3c2.5-2.4 3.3-5 1.6-5-.6 0-1.2.4-1.5.9zM208 181.5c0 3.4 1.2 4.6 2.5 2.4.9-1.4-.3-5.9-1.5-5.9-.6 0-1 1.6-1 3.5zM418 180.3c0 1.4 3.1 4.7 4.4 4.7.3 0 0-1.4-.9-3-1.6-3.1-3.5-4-3.5-1.7zM148 182.2c.1 1.7 3.9 6.2 4.6 5.5.8-.7-2.4-6.7-3.6-6.7-.6 0-1 .6-1 1.2zM427.6 184.5c-.4 1.4-1.3 2.5-2.2 2.5-2.5 0-2.7 2.7-.3 5.9 3 4 3.7 3.9 3.7-.7 0-2 .3-5.2.7-7 .9-3.8-1-4.5-1.9-.7zM306.5 187c-.4 2.3-.4 4.4-.1 4.8 1.1 1 2.4-1.2 2.8-4.7.5-5-1.9-5.1-2.7-.1zM95.2 186.5c-.7 1.5-.8 2.5-.2 2.5 1.3 0 3.2-3.8 2.1-4.4-.4-.3-1.3.6-1.9 1.9zM374.7 187c-1.7 2.8-1.6 5 .2 5 .9 0 3.1-4.5 3.1-6.5 0-2.4-1.4-1.7-3.3 1.5zM209.6 189.9c-.9 1.3 1.1 6.1 2.5 6.1.6 0 .8-.7.5-1.6-.3-.9-.6-2.4-.6-3.5 0-2-1.5-2.6-2.4-1zM155 192.7c0 1.1 4.4 7.3 5.3 7.3 1.4 0 .7-2.7-1.4-5.4-1.9-2.5-3.9-3.4-3.9-1.9zM90 194.4c-.6.9-1 2.1-.8 2.8.3.8.9.4 1.7-1 1.5-2.8.9-3.9-.9-1.8zM369.2 196.3c-2.4 2.5-2.9 4.7-1.1 4.7 1.4 0 4.8-4.1 4.9-5.8 0-1.9-1.4-1.5-3.8 1.1zM112 196.5c-1.8 2.2-.8 4.1 1.2 2.1 1.8-1.7 3.8-2.1 3.8-.8 0 .5-.9 1.7-2 2.8-6 5.6-6.2 6.6-1.5 7 3 .2 5.5-1 5.5-2.7 0-.5-1-.9-2.1-.9-2.1 0-2.1-.1.5-2.5 1.7-1.6 2.6-3.2 2.2-4.1-.3-.9-.6-1.8-.6-2 0-1.1-5.9-.2-7 1.1zM123.6 197.8c-1.5 2.9-1.2 6.5.7 8.9 2.9 3.7 8-1.4 7.5-7.5-.3-3.4-.6-3.7-3.5-4-2.7-.3-3.4.2-4.7 2.6zm5.4 3.1c0 2.7-.5 4.1-1.7 4.5-2.1.9-3.4-1.2-2.6-4.4.8-3.4 1.2-4 2.9-4 1 0 1.4 1.2 1.4 3.9zM303.5 198.3c-1.9 4.5-1.9 5.3-.1 3.8 1.5-1.3 3-6 2.2-6.9-.3-.3-1.3 1.1-2.1 3.1zM429.5 199.2c-.6 1.6 2.3 9.3 3.2 8.5.8-.8-.7-8.6-1.8-9.3-.5-.3-1.2.1-1.4.8zM213.2 202.2c.2 2.5-.2 3.4-2 4.4-3.4 1.7-.9 2.8 3.3 1.4 4-1.3 4.2-2 1.8-6.1-2.3-3.8-3.4-3.7-3.1.3zM394.5 200.3c-2.5 1.9-1.1 4.1 1.6 2.6 3.5-1.8 3.2-.2-.5 3.2-2 1.8-3.6 3.8-3.6 4.5 0 1.2 5.7 2.3 7.9 1.6 1.7-.6 1.3-3.2-.4-3.2-2.1 0-1.9-1.7.5-3 2.2-1.2 2.6-4 .8-5.8-1.6-1.6-4-1.5-6.3.1zM406.8 201.7c-3.7 4.3-3.3 11.3.7 11.3 3 0 6.8-5.8 6.3-9.7-.4-3.5-4.5-4.4-7-1.6zm4.2 3.1c0 3.5-2.3 7.1-3.4 5.3-.5-.7-.5-2.8-.2-4.7.8-4.2 3.6-4.7 3.6-.6zM84 204.5c-.7 1.4-1 2.8-.6 3.2.9.9 3.6-2.5 3.6-4.4 0-2.1-1.6-1.5-3 1.2zM160.7 204.8c-2.7 3-2.2 4.7.9 2.7 2.5-1.6 2.8-1.6 5.6.5 3.7 2.7 4.8 1.8 2.1-1.8-2.5-3.3-6.3-4-8.6-1.4zM362.6 205.5c-2.8 2.9-3.9 5.5-2.2 5.5.8 0 1.8-.5 2.1-1 1.1-1.7 4.2-1.1 5.7 1.1.8 1.2 2 2 2.6 1.8.8-.3-.2-2.1-2.6-4.7-3.6-4-4.1-4.2-5.6-2.7zM295.9 208.9c-1.3 1.1-2.1 2.3-1.7 2.7.4.4 1.4.1 2.3-.6.9-.8 3-1.1 5.5-.7 2.9.4 4 .1 4-.8 0-3-6.7-3.4-10.1-.6zM221 209c0 1.3 4.8 3.6 5.7 2.6.9-.8-.6-2.2-3.4-3.1-1.4-.4-2.3-.2-2.3.5zM201 211.9c-1.9 1.6-3.2 3.3-2.8 3.6.8.8 7.8-4.3 7.8-5.6 0-1.5-1.4-1-5 2zM309.6 210.9c-.5.8 3.5 3.1 5.4 3.1 1.9 0 1-1.7-1.5-2.8-3.1-1.4-3.2-1.4-3.9-.3zM151.7 214c-1.7 1.8-2.3 3.1-1.6 3.5 1.2.8 5.9-3.3 5.9-5.2 0-2-1.2-1.5-4.3 1.7zM173 211.9c0 1.5 4.9 6.1 6.5 6.1 2.4 0 1.8-1.7-1.8-4.4s-4.7-3.2-4.7-1.7zM433.7 211.6c-.3.4.1 2 .9 3.6 1.9 3.6 2.8 3.1 1.9-1.1-.6-3-1.5-3.8-2.8-2.5zM80.3 213.1c-.7.7-1.3 1.9-1.3 2.7 0 .9-.7 1.1-2 .7-2.9-.9-2.5 1 .5 2.3 3.5 1.6 5 1.6 3.6-.1-.7-1-.7-1.7 0-2.4.6-.6.9-1.8.7-2.8-.2-1.3-.5-1.4-1.5-.4zM231.2 213.1c.4 1.3 5.8 3.2 6.7 2.4.8-.9-1.3-2.3-4.3-3.1-2.2-.5-2.8-.4-2.4.7zM283.8 214.2c-3.8 1.3-3.8 4.3-.1 3.3 3.4-.8 5.5-2.4 4.7-3.6-.6-1.1-1.1-1-4.6.3zM353 216.6c-1.3 1.3-2 2.4-1.5 2.4 1.2-.1 5.5-3.5 5.5-4.4 0-1.2-1.6-.4-4 2zM244.6 216.9c1.4 1.4 7.4 2.4 7.4 1.3 0-1.3-2.5-2.2-5.8-2.2-1.6 0-2.2.4-1.6.9zM320.6 216.9c-.6.9 3.9 5.1 5.5 5.1s.8-1.5-2.1-3.8c-1.6-1.2-3.1-1.8-3.4-1.3zM255.6 217.9c-.9 1.4 2.1 2.1 5.7 1.4 3.1-.7 3.1-.7.7-1.4-3.6-1-5.8-1-6.4 0zM269.5 218c-.4.6.8 1 2.9 1 1.9 0 3.8-.5 4.1-1 .4-.6-.8-1-2.9-1-1.9 0-3.8.4-4.1 1zM374 217.5c0 1.2 3.6 4.5 4.9 4.5 1 0 .8-.7-.9-2.5-2.2-2.3-4-3.2-4-2zM191.1 221.5c-2.7 4.6-1 5.4 2.3 1.1 3-4 3.1-4.6 1.2-4.6-.8 0-2.3 1.6-3.5 3.5zM143.8 221.4c-3 2.3-3.5 3.6-1.5 3.6 2-.1 6.1-4 5.1-5-.5-.5-2 .1-3.6 1.4zM86.5 222c-.3.5.9 1.7 2.7 2.6l3.3 1.7-2.4-2.7c-2.8-2.9-2.8-2.9-3.6-1.6zM184 222c0 .5.5 1 1 1 .6 0 1-.5 1-1 0-.6-.4-1-1-1-.5 0-1 .4-1 1zM437 222.7c0 2.2 1.7 4.9 2.5 4.1.8-.8-.5-5.8-1.6-5.8-.5 0-.9.8-.9 1.7zM342.6 223.5c-1.1.8-1.5 1.5-.9 1.5 1.9 0 4.3-1.2 4.3-2.1 0-1.3-1.2-1.1-3.4.6zM382 225.6c0 1 4.5 4.3 5.9 4.4 1 0 .7-.8-.9-2.5-2.1-2.3-5-3.4-5-1.9zM132 228.5c-3.6 1.8-4.1 2.5-2.8 3 2 .8 9.1-3.2 8.2-4.6-.6-1.1 0-1.3-5.4 1.6zM328.8 226.5c-.8.8 2.2 7.5 3.3 7.5.4 0 1-.9 1.4-1.9.3-1.1 1.2-2.2 2-2.5.8-.3 1.5-1.1 1.5-1.8 0-.9-.3-.9-1.2 0-1.7 1.7-3.9 1.5-5.2-.4-.6-.8-1.5-1.2-1.8-.9zM96 230.3c0 .7 1.4 2.1 3 3 3.6 2.2 3.9 1.1.6-2.1-2.7-2.5-3.6-2.8-3.6-.9zM187.5 230.2c-.9 2.8-1 6.3 0 6.7 1.2.5 2.5-6.8 1.3-7.5-.4-.3-1 .1-1.3.8zM439.4 233.6c.6 2.7.3 3.5-2.1 5.2-3.5 2.5-2.7 3.6 1.6 2.1 3.1-1.1 3.3-1.4 2.7-4.7-.3-1.9-1-4-1.7-4.6-.8-.8-.9-.3-.5 2zM121.3 233.3c-2.8 1-4.7 3.3-2.5 3.1 2.8-.2 6.2-1.8 6.2-3 0-.8-.1-1.4-.2-1.3-.2 0-1.8.6-3.5 1.2zM391.6 234.4c.7 1.8 5.2 4.1 6.1 3.2.9-.8-3.6-4.5-5.4-4.6-.7 0-1 .6-.7 1.4zM107.3 238c-3 1.2-2.9 2.1.9 5.6 3 2.8 3.1 2.6 1.2-2.2-.5-1 0-1.7 1.5-2.1 1.1-.3 2.1-.9 2.1-1.4 0-1.1-2.8-1.1-5.7.1zM149.3 238.7c-1.9.7-1.6 2.6.7 4.6 2.3 1.9 2.4 2.6.9 4.7-.8 1.1-1.2 1.2-1.6.2-.7-1.7-3.3-1.5-3.3.3 0 1.9 3.6 3.8 6 3 2.3-.7 2.1-.4 2.6-6.7.2-3.9-.1-5-1.6-5.8-1-.5-2-1-2.2-.9-.2 0-.9.3-1.5.6zM158 239.8c0 .5.9 1.2 2 1.5 1.7.4 1.9 1.1 1.4 3.9-.4 1.8-1.3 3.8-2 4.4-2.3 1.8-1.6 2.4 2.6 2.4 2.2 0 4-.5 4-1 0-.6-.5-1-1.1-1-.6 0-.9-2-.8-5.3.3-5.2.3-5.2-2.9-5.5-1.8-.2-3.2.1-3.2.6zM332.7 239.7c-.5 1.2-.1 7.2.6 8 .4.3.7-1.5.7-4 0-4.4-.4-5.7-1.3-4zM400 240c0 .8 7 5 8.5 5 1.6 0 .1-2.3-2.7-4-3.6-2.2-5.8-2.6-5.8-1zM245.2 241.2c-.8.8-.9 1.5 0 2.5.9 1.1 1.4 1.1 2.9-.3 1.7-1.5 1.9-1.5 1.9-.1 0 .9-.4 1.9-1 2.2-.5.3-.7 1.9-.3 3.5.6 3.3-1 4.1-2.6 1.3-.7-1.4-1.2-1.5-2.4-.4-2.5 2-.9 4.1 3.2 4.1 3 0 4-.5 5.1-2.4.7-1.4 1-3.2.6-4.2-.3-.9-.1-2.3.5-3 2.6-3.2-4.9-6.2-7.9-3.2zM257.7 241.7c-.3.5-.8 2.7-1.2 5.1-.8 4.7.5 7.2 3.6 7.2 3.9 0 6.7-8.8 3.7-11.8-1.3-1.3-5.4-1.6-6.1-.5zm4.8 2.3c1 1.7-.5 7-2 7-2.1 0-2.6-1.5-1.4-4.9 1.1-3.2 2.3-3.9 3.4-2.1zM187 245.5c0 1.9.5 3.5 1 3.5.6 0 1-1.6 1-3.5s-.4-3.5-1-3.5c-.5 0-1 1.6-1 3.5zM374 244c0 .6.6 1.3 1.4 1.6 2 .8-.1 8.1-2.7 9.5-1.6.9-1.7 1.3-.6 2 .8.5 2.4.9 3.6.9 1.9 0 2.2-.5 2.2-3.3-.1-1.7.4-4.5 1-6 1.8-4.6 1.4-5.7-1.9-5.7-1.6 0-3 .5-3 1zM428.8 244.1c-2.7 1.5-4.3 4.9-2.4 4.9 1.4 0 6.6-4.4 6.6-5.5 0-.8-2.4-.5-4.2.6zM362 245.5c0 1.8 1.2 1.9 2.8.3.6-.6 1.5-.8 1.9-.4.4.4-.3 1.5-1.6 2.5-2.2 1.7-2.3 1.9-.6 2.8 2.1 1.2 1.4 4.3-1 4.3-.9 0-1.3-.5-1-1 .9-1.5-2.4-2.5-3.7-1.2-.9.9-.7 1.7.7 3.2 3.8 4.2 8.5 1.4 9.5-5.7.4-2.7.6-5.1.3-5.6-.2-.4-2-.7-3.9-.7-2.4 0-3.4.5-3.4 1.5zM412 247.4c0 1.7 1.9 3.3 4.5 3.8 1.5.3 1.9 1 1.7 3.1-.4 3.4 1.7 3.6 4.7.3 2.4-2.5 2.1-4.6-.5-4.6-.8 0-3.2-.9-5.4-2-4.7-2.4-5-2.4-5-.6zM114 250.5c0 1.4 3.1 6.5 4 6.5 1.6 0 1.2-1-1.5-4.2-1.4-1.6-2.5-2.7-2.5-2.3zM188.5 255c.6 2.6.4 3-1.5 3-1.2 0-1.8.4-1.5 1 .6 1 8.5 1.5 8.5.6 0-.3-.9-2.1-2.1-4-2.6-4.4-4.3-4.7-3.4-.6zM330.1 255c-.8 1.3-2 3.1-2.8 3.8-.7.7-1.3 1.8-1.3 2.3 0 1.3 1.7 1.1 2.6-.2.3-.6 2.1-.9 3.8-.6 3.5.5 5.6 0 5.6-1.4 0-.5-1.3-.9-2.9-.9-2.5 0-3-.4-3.3-2.8l-.3-2.7-1.4 2.5zM175.5 259.1c-.4.6-.5 1.2-.3 1.5.8.7 6.8-.8 6.8-1.7 0-1.3-5.8-1.1-6.5.2zM413.2 261.3c-2.5 2.6-2.9 5.7-.8 5.7 1.5 0 4-5.2 3.4-7-.2-.6-1.3-.1-2.6 1.3zM342.6 260.9c-.3.4.6 1.3 2 2 3.3 1.5 4.9 1.4 3.2-.2-1.8-1.8-4.6-2.8-5.2-1.8zM121.7 264.5c.9 1.9 2.3 3.5 3 3.5 1 0 .9-.8-.4-3.5-.9-1.9-2.3-3.5-3-3.5-1 0-.9.8.4 3.5zM168.2 263.2c-1.4 1.4-1.6 3.8-.4 3.8 1.2 0 3.2-2.3 3.2-3.7 0-1.6-1.2-1.7-2.8-.1zM198.5 266c1.5 1.6 3.2 2.7 3.7 2.4 1.2-.8-3.1-5.4-5.1-5.4-1 0-.6.9 1.4 3zM318.4 267.4c-2.1 1.8-2.4 2.5-1.3 2.6 1.7 0 5.6-3.7 4.7-4.6-.3-.3-1.9.6-3.4 2zM351 268.2c0 3.8 1.2 6.8 2.6 6.8 2.1 0 2.3-1.3.7-5.3-1.7-4.1-3.3-4.9-3.3-1.5zM96.2 269.6c-2.3 1.6-3 4.4-1.2 4.4.6 0 1.3-.7 1.6-1.5.7-1.7 3.4-2.1 3.4-.4 0 .6-1.3 2.4-3 4.1-4 3.9-3.9 5.5.4 5.3 5.9-.4 7.5-3.5 1.8-3.5h-2.7l3.3-2.1c3.5-2.3 4-4 1.6-6.3-1.9-2-2.4-2-5.2 0zM404.7 270.8c-3.2 3.3-3.4 4.2-.9 4.2 2 0 5.2-2.9 5.2-4.8 0-2.3-1.8-2-4.3.6zM83.1 270.9c-1.4 2.5.3 3.8 2.5 2 1.4-1.1 1.5-1 1.3.6-.2 1.1 0 2.6.5 3.3.5.8.4 1.8-.3 2.5-.8.8-1.5.6-2.5-.9-1.7-2.2-4.1-.8-3 1.9.9 2.5 4.2 3.1 6.9 1.3 2.2-1.4 2.4-2.3 2.2-6.9-.2-5.1-.3-5.2-3.4-5.5-2.3-.2-3.4.2-4.2 1.7zM164.7 272.1c-.7 2.5.2 5.1 1.4 4.3 1.2-.7 1.2-6.4 0-6.4-.5 0-1.1.9-1.4 2.1zM205 270.9c0 .5.9 1.3 2 1.6 1.1.3 3.2 2.6 4.6 5.1 2.4 4.2 4.4 5.7 4.4 3.4 0-.6-.7-2.2-1.6-3.5-.9-1.3-1.3-2.8-1-3.4.4-.5-.8-1.7-2.5-2.5-3.6-1.8-5.9-2.1-5.9-.7zM307.2 272.5c-3.7 2-4.9 3.5-2.9 3.5 2.2 0 7.9-3.5 7-4.3-.8-.9-1.3-.8-4.1.8zM127.5 274.7c.8 3.3 3.4 6.5 4.7 5.7 1-.6-3.1-8.4-4.5-8.4-.5 0-.6 1.2-.2 2.7zM185.7 276.9c-.7 2.6.9 3.7 2.1 1.5.5-.9 1.5-1.5 2.2-1.2.9.3.1 1.8-2.5 4.7-2.6 2.9-3.5 4.5-2.8 5.2 1.4 1.4 7.5.7 8.1-.9.3-.9-.3-1.1-2.1-.7-3.7 1-4.2-1.2-.7-3 2.5-1.3 3.1-2.2 2.8-4.3-.2-2.2-.9-2.8-3.4-3-2.5-.2-3.3.1-3.7 1.7zM196.5 275.8c-1.3 1.3-.4 4.3 1.3 4.1 3.2-.3 3.4.1 1.3 2.7-2.4 3-2.7 5.4-.8 5.4 1.3-.1 7.7-9.7 7.7-11.7 0-1.1-8.4-1.6-9.5-.5zM217.6 275.9c-.3.5.8 1.4 2.6 2 3.8 1.3 5.8 1.4 5.8.2 0-.9-.8-1.2-6.2-2.7-.9-.3-1.9-.1-2.2.5zM296 277c-1.1.7-.7 1 1.8 1 1.7 0 3.2-.5 3.2-1 0-1.3-3-1.3-5 0zM316 279.5c-1.4 1.7 0 2.1 1.7.4 1.3-1.3 3.6-.3 2.8 1.2-.7 1 .8 1.2 1.8.2S321 278 319 278c-1 0-2.3.7-3 1.5zM326.7 278.7c-.4.3-.7 1.5-.7 2.6 0 1.9.1 1.9 1.8.4 1-1 2.3-1.3 3.1-.8 1 .6.6 1.5-1.4 3.7-3.8 4-4.9 6.4-3.2 6.4 1.5 0 8.7-9.8 8.7-11.8 0-1.3-7.2-1.7-8.3-.5zM353.8 278.6c-.5.4-.8 1.8-.8 3 0 1.3-.4 2.6-1 2.9-1.4.9-1.2 4.7.2 4.3.7-.3 1.6-1.9 2.1-3.7.9-3.7.6-7.7-.5-6.5zM397.5 280.6c-1.4 2.2-1.5 2.8-.4 3.5 1.5 1 4.9-2.3 4.9-4.7 0-2.3-2.7-1.6-4.5 1.2zM229 279.9c0 1 3.5 2.1 6.5 2.1 2-.1 2-.1.1-1.5-2.2-1.6-6.6-2-6.6-.6zM283 279.7c-1.4.3-2.9.9-3.5 1.5-1.4 1.4 7.4.3 8.8-1.1 1.2-1.2-.4-1.3-5.3-.4zM299.9 281.7c-1.3 1.6-1.2 1.7.4.4 1.6-1.3 2.1-2.1 1.3-2.1-.2 0-1 .8-1.7 1.7zM166 282.3c0 .7.7 2.2 1.5 3.3 1.2 1.6 1.4 1.7 1.5.2 0-2.3-1.1-4.8-2.1-4.8-.5 0-.9.6-.9 1.3zM241.6 281.9c-.7 1.1 1.8 2.1 5.5 2.1 3.9 0 3.7-1.6-.2-2.4-4.1-.8-4.7-.8-5.3.3zM266.3 281.7c-2.3.9-1.4 2.3 1.5 2.3 3.7 0 7.2-1 7.2-2.1 0-.9-6.6-1.1-8.7-.2zM254 282.9c0 1.3 1.9 1.8 5.1 1.3 1.6-.2 2.6-.8 2.3-1.3-.7-1.2-7.4-1.2-7.4 0zM417.9 283.6c-1.1 1.4-1.1 1.8.2 2.8 2.8 2.1 3.4 7.6.8 7.6-.4 0-.6-.6-.3-1.4.6-1.6-2.5-3.1-3.9-1.7-1.7 1.7 1.1 5.1 4.2 5.1 3.5 0 5.4-2.1 5.3-5.8 0-1.5.4-3.2.9-3.8 1.2-1.5-1.5-4.4-4-4.4-1 0-2.5.7-3.2 1.6zM428 284.5c-1.1 2-1.1 2.8-.1 3.8 1 .9 1.6.7 3.1-1.3 1.1-1.4 2-2 2-1.4 0 .7-1.9 3.1-4.2 5.4-4.6 4.6-4.1 6.4 1.7 5.3 4.2-.8 5.3-2.1 2.5-3.1l-2.4-.9 2.7-1.8c4.4-2.8 3.1-8.5-1.8-8.5-1.3 0-2.7 1-3.5 2.5zM315.8 285.6c-4.1 2.6-5.1 5-1.8 4.1 1.1-.3 2.3-.1 2.6.4.7 1.2 4.4 1.2 4.4 0 0-.5-1.2-1.2-2.7-1.6l-2.8-.7 2.4-1.9c3.5-2.9 2.2-3-2.1-.3zM134 286.4c0 .9 1 3.4 2.1 5.6 2.5 4.9 1.3 7.8-1.5 3.6-1.8-2.9-3.6-3.4-3.6-1.1 0 .8.5 1.5 1 1.5.6 0 1.6 1.1 2.2 2.5 1.6 3.7 4.3 3.1 6.6-1.4 2.1-4 2-5.3-.3-4.5-.8.4-2-.9-3-3-2-4.1-3.5-5.5-3.5-3.2zM217 285.4c0 1.5 3.2 7.6 4 7.6 1.5 0 1.2-2.8-.6-5.5-1.4-2.1-3.4-3.4-3.4-2.1zM391.8 288.5c-.6 1.4-.8 2.8-.5 3.2.9.9 5.8-3.8 5.1-4.8-1-1.7-3.5-.9-4.6 1.6zM148.1 288.9c-2.8.7-4.1 3.1-1.7 3.1 2.7 0 6.7-2 6.1-3-.7-1.1-.9-1.1-4.4-.1zM156.8 288.7c-3.1.7-1.9 2.3 1.7 2.3 1.9 0 3.5-.2 3.5-.5 0-.9-3.6-2.1-5.2-1.8zM292.4 291.4c-.9 1.5-1.4 2.9-1.1 3.2.3.3 1.3-.6 2.3-2 .9-1.5 1.4-2.9 1.1-3.2-.3-.3-1.3.6-2.3 2zM170 291.1c0 .6.5 1.9 1 2.9 1.6 3-.7 3.4-2.6.5-1.6-2.5-4.4-3.4-4.4-1.5 0 .5.6 1 1.4 1 .8 0 1.6 1.1 2 2.3.5 2.2 1 2.4 7.1 2.3 6.6-.1 8.6-1.8 2.8-2.4-2.3-.2-3.4-1-4.3-3.3-1.2-2.8-3-4-3-1.8zM123.6 292.5c-1.6 1.2-1.7 1.5-.4 1.5 2.6 0 4.8-1.1 4.2-2.1-.7-1.2-1.6-1.1-3.8.6zM345.8 296.9c-1.5 2.7-2.4 5.2-2.1 5.5 1.2 1.2 7.1.6 8.3-.9.7-.8 1.9-1.5 2.6-1.5.8 0 1.4-.5 1.4-1 0-.6-.9-1-1.9-1-1.1 0-2.3.4-2.6 1-.9 1.4-4.5 1.2-4.5-.3 0-.6.7-2.1 1.5-3.1 1.6-2.2 1.9-3.6.8-3.6-.5 0-2 2.2-3.5 4.9zM386.7 295.7c-1.1 1-.8 4.3.3 4.3.9 0 3-3.1 3-4.4 0-.8-2.5-.7-3.3.1zM223 297.7c0 1.1.9 3.1 2.1 4.4l2 2.4-.6-3c-.3-1.7-1.3-3.7-2.1-4.5-1.2-1.2-1.4-1.2-1.4.7zM358.5 297c-.3.5 0 1.3.9 1.6 2.1.8 6.1.1 6.1-1.1 0-1.4-6.2-1.9-7-.5zM113 299.5c-1.7 1.8-2.1 2.8-1.3 3.6.7.7 1.7 0 3.1-2.5 2.5-4.2 1.6-4.7-1.8-1.1zM368.5 299c.3.5 1.3 1 2.1 1s1.2-.5.9-1c-.3-.6-1.3-1-2.1-1s-1.2.4-.9 1zM186 300c0 1.6 4.1 3.3 5.3 2.1.7-.7.2-1.3-1.7-2.1-3.4-1.2-3.6-1.2-3.6 0zM248.6 300.3c-1.2.9-1.7 2-1.3 3.1.9 2.2 2.4 2 3.2-.4.3-1.1 1.3-2 2.1-2 2.2 0 1.7 1.1-2.8 5.7-4.7 4.8-4.3 6.7 1.2 6.1 3.7-.3 5.5-2.8 2.1-2.8-2.8 0-2.7-.5 1.2-4 2.6-2.4 3-3.2 2.1-4.7-1.4-2.3-5.3-2.8-7.8-1zM260.2 300.2c-.7.7-1.2 1.8-1.2 2.5 0 1.6 2.2 1.7 3.8.1.9-.9 1.2-.9 1.2.1 0 .8-1.7 2.8-3.7 4.6-4.2 3.7-3.8 5.4 1.4 5.2 3.5-.2 6.2-2.7 2.9-2.7-2.3 0-2-1.3.9-3.8 1.4-1.2 2.5-2.8 2.5-3.5 0-1.9-2.1-3.7-4.5-3.7-1.2 0-2.6.5-3.3 1.2zM286.1 302.2c-.6 1.7-.9 3.3-.7 3.6.9.8 2.4-.9 3.4-3.8.9-2.4.8-3-.3-3-.7 0-1.8 1.4-2.4 3.2zM335 302c-.8.5-1.1 1.2-.8 1.6 1 .9 5.8-.4 5.8-1.6 0-1.3-3-1.3-5 0zM169.7 302.6c-1 1.1-.9 5.2.3 5.9.6.3 1.3-.1 1.6-1 .8-1.9-.8-6-1.9-4.9zM193.7 303.6c-.3.4 0 1.8.7 3.3.8 1.4 1.6 4.3 1.9 6.4.6 4.5 1.4 5.6 2.3 3.3.4-1 .1-2.9-.5-4.2-1.4-3.2-.6-4.7 1.9-3.2 1.1.7 2.2.9 2.6.6.9-1-.5-2.8-2.3-2.8-.9 0-2.6-.9-3.8-2-1.2-1.1-2.4-1.7-2.8-1.4zM137 305.4c0 .8.5 1.8 1 2.1.6.3 1-.3 1-1.4 0-1.2-.4-2.1-1-2.1-.5 0-1 .6-1 1.4zM326.5 306c-2.2 1.5-2.5 2-1.2 2 2.3 0 5.7-1.8 5.7-3 0-1.5-1.2-1.2-4.5 1zM376.6 306c.5 1.4.8 4.2.7 6.2-.1 4.5.5 4.7 3.7 1.2 2.1-2.1 2.2-2.7 1-3.5-1.1-.8-1.2-1.2-.2-1.6.6-.2 1.2-1.4 1.2-2.5 0-2-.1-2-1.8-.5s-1.9 1.5-3.6-.1c-1.7-1.6-1.8-1.6-1 .8zM346.1 306.8c-1.4 2.7-1.4 3.2.3 3.2 1.8 0 3-3 1.7-4.3-.6-.6-1.3-.1-2 1.1zM390.3 306.6c-1.8.8-3.3 1.6-3.3 1.9 0 .9 5.4.5 7-.5 2.7-1.7-.3-2.8-3.7-1.4zM104 309c-3.1 2.6-3.3 2.9-1.4 3 1.3 0 3-1.2 4-2.8l1.9-2.7.5 4.5c.6 5.3 2.6 5.6 2.4.3-.1-3-1.5-5.2-3.4-5.3-.3 0-2.1 1.3-4 3zM397.7 306.6c-1.4 1.5-.6 2.3 2.9 3 3.1.6 6.6-.7 5.3-2-.9-.9-7.5-1.7-8.2-1zM159.1 309.9c-2.4 2.4-2.9 9.9-.9 11.9 2.8 2.8 7.8-.2 7.8-4.6 0-2.3-3.4-4.7-5.2-3.6-.7.4-.8.3-.4-.4s1.8-1.2 3.2-1.2c1.9 0 2.5-.5 2.2-1.8-.5-2.5-4.3-2.7-6.7-.3zm4.5 9c-.8 1.3-3.6 1.5-3.6.3 0-.4.5-1.3 1.2-2 1.4-1.4 3.4 0 2.4 1.7zM227.6 310.2c1.5 5.1 2.4 6.8 3.4 6.8 1.4 0 1.2-2.2-.6-5.8-1.8-3.7-3.9-4.3-2.8-1zM146.5 311.2c-1.4 2.1-1.4 2.4.2 3.6 1.5 1 1.8 1 2.1 0 1-3.9 1.3-4.1 2.4-3 .9.9.7 1.7-.8 3.4-2.2 2.5-5.4 7.4-5.4 8.3 0 .3 1.8.5 3.9.5 2.5 0 4.1-.5 4.5-1.5.3-1-.1-1.5-1.3-1.5-3.2 0-3.2-1.3.1-4 3-2.5 3.1-3 2-5.4-1.5-3.3-5.4-3.5-7.7-.4zM282.7 309.7c-1.1 2.1-1.6 6.2-.8 6.8 1.2.7 3.1-2.6 3.1-5.4 0-2-1.5-2.9-2.3-1.4zM178.3 310.7c-1.5.6-1.7 5.3-.3 5.3.6 0 1.3-.7 1.6-1.5.7-1.8 2.4-2 2.4-.3-.1 1.9-5.7 7.8-7.5 7.8-1.7 0-2 3.2-.5 6.1 1.4 2.5 3.4 2.5 2.7-.1-.6-2.2 1.7-4 5.2-4 1.2 0 2.1-.7 2.1-1.5 0-1-1-1.5-2.7-1.5h-2.8l3.3-2.6c1.7-1.4 3.2-3.3 3.2-4.3 0-3.2-3.2-4.9-6.7-3.4zM187.1 313.1c-1.4 4.1-1.4 3.9.8 3.9 2.4 0 3.5 1.5 2.7 3.7-.6 1.5-.8 1.5-1.9 0-.8-1.2-1.6-1.4-2.7-.7-1.3.8-1.3 1.1.2 2.7 1.4 1.3 2.3 1.5 4.5.7 2.3-.8 2.9-1.6 3.1-4.7.3-3.1 0-3.7-1.7-3.7-2.8 0-3.6-1.8-.9-2.2 3-.4 2.6-2.2-.6-2.6-1.9-.3-2.6.3-3.5 2.9zM206.5 311c-.3.5.8 1.6 2.4 2.5 3.3 1.7 5.1 1.9 5.1.7 0-1.3-6.9-4.2-7.5-3.2zM318 311.1c-.8.5-3 .9-4.7.9-1.8 0-3.3.4-3.3 1 0 .5.9 1 2 1 1.3 0 2 .7 2 2 0 2.9 1.4 2.5 4.4-1.4 2.6-3.4 2.4-5.3-.4-3.5zM170.4 312.4c-.8 2.2.7 7.1 2.1 6.7 1.2-.3.8-6.2-.5-7.5-.6-.6-1.2-.3-1.6.8zM407 312.2c.1 1.8 3.9 6.2 4.7 5.4 1.1-1.1-1.2-6.1-3-6.4-.9-.2-1.7.2-1.7 1zM350.6 313.9c-1.8 2-1.8 2.1-.1 2.7 1.1.5 2.1.1 2.7-.9 1.1-2 2.8-2.2 2.8-.3 0 .7-1.8 2.5-4 4-2.2 1.4-4 3.1-4 3.6v1.7c0 .3 1.8.8 4 1 3 .3 4 0 4-1.1 0-.8-.4-1.8-1-2.1-1.6-1-1.2-2.1 1.5-3.5 1.9-1 2.5-2.1 2.3-3.9-.4-3.5-5.5-4.2-8.2-1.2zM139.5 316.5c.8 4.7 1.3 5.7 2.5 5 1-.6-.7-6.4-2.3-8-.6-.7-.7.4-.2 3zM301.3 314.3c-2.5 1.1-3.1 2.7-1 2.7 1.9 0 5.2-2.6 4.1-3.2-.5-.3-1.9-.1-3.1.5zM361.8 314.7c-2.3 2.5-3.3 8.9-1.8 10.8 1.7 2 4.3 1.9 6.3-.3 2.4-2.6 2.1-5.1-.8-6.4-3.1-1.4-2.4-2.7 1.1-2 2.1.4 2.5.1 2.2-1.4-.4-2.6-4.9-3-7-.7zm3 8c-.5 2.5-2.8 2.8-2.8.4 0-1.2.6-2.1 1.6-2.1.9 0 1.4.7 1.2 1.7zM330.9 316.6c-1.2 3.2-.7 4 1.3 2.1.8-.8 2.4-1.8 3.6-2.1 3.2-1.1 2.7-2.6-.8-2.6-2.4 0-3.3.6-4.1 2.6zM343 314.9c0 .5-.3 1.6-.6 2.5-1 2.6 1.2 1.8 2.4-.9 1-2.1.9-2.5-.3-2.5-.8 0-1.5.4-1.5.9zM95.7 317.6c-2.5 3.3-1.1 4.6 1.3 1.4 1.1-1.4 2-2.8 2-3.3 0-1.4-1.5-.6-3.3 1.9zM320.2 316.2c-1.6 1.6-1.5 4.5.1 5.2.8.3.5 1.1-1 2.4-3.4 3-2.9 4.4 1.4 4 4-.3 5.9-2.8 2.1-2.8-2.1 0-2.1-.1.8-1.9 3.7-2.2 4.5-3.9 3.2-6.4-1-2-4.8-2.3-6.6-.5zm3.8 3.8c-1.8 1.1-2.4.6-1.6-1.6.5-1.4.9-1.5 1.9-.5.9.9.9 1.4-.3 2.1zM130.4 317c-2.9 1.1-3.7 2.6-3 5.6.5 1.7 1.3 2.4 3.1 2.4 1.5 0 2.5.6 2.5 1.5s-.8 1.4-2.2 1.2c-3.1-.3-3 2.7 0 3.1 3.1.5 5-1.3 5.8-5.3 1.1-6.2-1.8-10.1-6.2-8.5zm2.2 4.6c-.5 1.3-1 1.4-1.8.6-.6-.6-.8-1.8-.4-2.8.5-1.3 1-1.4 1.8-.6.6.6.8 1.8.4 2.8zM118.6 319.2c-1.8 2.6-2 4.4-.6 5.3.6.3 1.5-.6 2-2 1-2.5 3-2.7 3-.2-.1 1.8-6.8 8.7-8.6 8.7-1.1 0-1.4.6-.8 2.2 1.1 3.9 3.4 7.8 4.4 7.8 1.4 0 1.2-1.6-.5-5-.9-1.7-1.2-3.1-.8-3.1.5-.1 2.1-.2 3.7-.3 3.5-.1 4.9-2.6 1.5-2.6-2.2 0-2.2-.1.9-3.3 3.6-3.7 4-5.8 1.6-8.1-2.1-2.2-4-2-5.8.6zM217 318c0 .5.7 1 1.6 1 .8 0 1.2-.5.9-1-.3-.6-1-1-1.6-1-.5 0-.9.4-.9 1zM291.6 319.5c-1.1.8-1.6 1.8-1.3 2.2.8.8 5.7-1.7 5.7-2.9 0-1.3-2.3-.9-4.4.7zM110 321.8c0 3.7.9 6.2 2.2 6.2 1.4 0 .5-8.3-.9-8.8-.9-.2-1.3.7-1.3 2.6zM221 319.6c0 1.3 1.8 3.9 2.4 3.4.2-.3-.2-1.4-1-2.4-.8-1.1-1.4-1.6-1.4-1zM334 320.1c0 .5.5.7 1 .4 1.3-.8 1.3 1.5 0 3.5-.8 1.3-1.1 1.2-2.3-.4-1.6-2.2-3.7-1.4-3.7 1.4 0 3.8 5.8 3.2 8-1 1.6-3 1.2-5-1-5-1.1 0-2 .5-2 1.1zM373.5 321.1c-.4 1.1-.4 2.3 0 2.7.7.7 2.5-1.7 2.5-3.6 0-2-1.8-1.4-2.5.9zM232 321.9c0 2.6 1 5.1 2.1 5.1 1 0 1.2-3.1.3-5.4-.9-2.2-2.4-2-2.4.3zM278.2 323.3c-1.4 3.9-1.5 5.7-.4 5.7s3.2-4.6 3.2-7c0-3.1-1.5-2.4-2.8 1.3zM411.2 321.2c-1.2 1.2-1.7 8.8-.6 8.8.4 0 1.3-.8 2-1.8 1.2-1.6 1.4-1.6 3.6.5 3.1 2.9 4.1 2.9 3.2.1-.7-2.3-5.5-8.8-6.4-8.8-.4 0-1.1.5-1.8 1.2zM198.6 321.9c-.7 1.1 0 8 .9 8.9 1.2 1.2 2.4-1.3 1.8-4.1-.8-4.4-1.8-6.3-2.7-4.8zM310.3 324c-.6 1.6-.7 3.2-.3 3.5 1.1.7 4.2-5 3.3-5.9-1.2-1.1-1.9-.6-3 2.4zM339.6 325.2c-.3 1.3-.6 2.7-.6 3.3.1 1.5 3-2.7 3-4.2 0-2.2-1.7-1.5-2.4.9zM382.2 324.2c-.7.7-1.2 1.8-1.2 2.5 0 1.7 2.7 1.7 3.3 0 .2-.6.7-.9 1-.6.4.3-1.3 2.5-3.8 5-2.5 2.4-4.5 4.7-4.5 5.1 0 1.2 7.8.4 9.2-1 .9-.9.6-1.3-1.3-2.1l-2.4-.9 2.7-1.2c3.1-1.4 4.1-3.4 3.3-6.1-.7-2.2-4.5-2.5-6.3-.7zM393 325.7c-2 2.6-1.9 3.4.7 6.5 1.3 1.5 1.3 1.6-.6 1.1-1.5-.4-2.1-.1-2.1 1.1 0 2.3 2.6 3.1 5.5 1.8 3-1.4 5.4-8.4 3.6-10.6-2.2-2.6-5-2.6-7.1.1zm5 1.8c0 1.6-2.7 3.2-3.7 2.2-.3-.4-.3-1.3 0-2.2.8-2 3.7-2 3.7 0zM208.8 325.1c-2 1.1-2.4 3.9-.7 3.9.7 0 1.7-.7 2.3-1.5.8-1 1.6-1.2 2.6-.5 1.2.8 1 1.4-1.3 3.8-3.1 3.2-2.3 5 1 2.7 2.7-1.9 3.4-4.9 1.6-7.4-1.6-2.3-2.9-2.6-5.5-1zM219 326.5c-.5 1.4-1.3 4.4-1.6 6.5-.5 3.3-.3 4.1 1.2 4.7 1.1.3 2.2 1.1 2.7 1.7.5.7 1.1.5 1.8-.7.5-.9 1.9-1.7 2.9-1.7 2.3 0 2.6-1.5.7-2.7-.8-.4-1.7-1.7-2.1-2.8-.8-1.9-.8-1.9-1.9.2-.5 1.3-1.4 2.3-1.9 2.3-1 0-1-.5.1-5.3 1-4.4-.4-6.1-1.9-2.2zM289.2 325.6c-1.2.8-2.2 2.2-2.2 3 0 1.6 1.6 1.9 2.5.4.9-1.4 2.5-1.2 2.5.2 0 .7-1.6 2.3-3.5 3.6-4.6 2.9-4.6 5.2-.1 5.2 3.8 0 5.7-1.6 3.2-2.6-2.3-.9-2-1.9.9-3.2 1.7-.8 2.5-2 2.5-3.6 0-3.4-3-5-5.8-3zM297.6 328c-2.8 6.9-1.9 9.8 2.5 8.2 1.5-.6 2.3-1.7 2.3-3.5.2-3.2-.2-3.3-2-1-1.8 2.5-1.8 0 .1-3.6 1.3-2.7 1.1-4.1-.6-4.1-.4 0-1.4 1.8-2.3 4zM88.6 327.2c-1.8 2.5-2 3.8-.8 3.8 1 0 3.5-5 2.8-5.7-.2-.2-1.1.6-2 1.9zM143 326.4c0 2.9 2.1 6.9 3 6 .6-.6.5-2.2-.2-4.2-1.3-3.3-2.8-4.3-2.8-1.8zM229.2 331.1c3.4 5.6 5.7 6.4 2.6.8-1.3-2.3-3-4.5-3.8-4.7-.9-.3-.4 1.1 1.2 3.9zM369.5 330.2c-.7 1.8-1.2 3.5-1 3.7.8.7 2.4-1.1 3.3-3.9 1.5-4.2-.5-3.9-2.3.2zM235 333.4c0 .8.5 1.8 1 2.1.6.3 1-.3 1-1.4 0-1.2-.4-2.1-1-2.1-.5 0-1 .6-1 1.4zM307 334c-.6 1.2-.9 2.4-.7 2.7.3.2 1.1-.5 1.7-1.7.6-1.2.9-2.4.7-2.7-.3-.2-1.1.5-1.7 1.7zM275.7 333.7c-.3.5-.8 2.3-1.2 4-.9 4.4 1.4 4.4 3.8.1 1.4-2.5 1.5-3.3.5-3.9-1.6-1.1-2.6-1.1-3.1-.2zM406.2 336.2c-2.2 3.4-2 5.7.3 3.8 1.4-1.1 2.9-5.9 2.2-6.7-.3-.2-1.4 1.1-2.5 2.9zM177.6 336.5c.6 2.5.6 2.5-6.3 2.5-3.9 0-9.2.7-11.9 1.5-6.3 1.9-6 2-8.1-1.5-.9-1.7-2.1-3-2.5-3-1.4 0-.9 2.3.9 4.3 1.7 1.8 1.7 2-.2 3.4-1.1.8-4 2.6-6.5 4-2.5 1.5-5.7 3.7-7.1 5.1-2.3 2-3 2.2-4.8 1.2-2.8-1.5-4.4-.5-3.1 2 .5 1 .7 2.6.3 3.6-.5 1.5-.2 1.6 3.1 1.1 2.8-.4 5.2.1 10 2.2 20.3 9.2 40.6 9.9 55.8 2.2 4.6-2.4 8.5-3.7 9.7-3.4 1.4.4 2.4-.3 3.5-2.5 1.5-2.9 1.3-6.2-.4-6.2-.4 0-1.4-1.5-2-3.3-1-2.4-1.4-2.7-1.7-1.5-.6 2.4-1.6 2.3-5.2-.8-3.4-2.8-13.9-7.4-17.1-7.4-1.3 0-2.8-1.2-3.8-3-2.1-3.6-3.5-3.9-2.6-.5zm4.3 8.4c2.2 1.4 2.6 9.5.7 14.5-1.2 3.2-2.6 4.9-5 6-4.8 2.2-7.6 2-12.3-1.1-3.2-2-4.4-3.6-5.2-6.8-1.1-4.4.1-11.3 2.3-12.7 1.6-1.1 17.8-1 19.5.1zm14.4 5c.6.6 1.6 1.1 2.2 1.1.5 0 2.1.9 3.5 2s3.3 2 4.3 2c.9 0 1.7.7 1.7 1.5s-.7 1.5-1.6 1.5c-.8 0-4.5 1.5-8.2 3.4-3.7 1.9-8.3 3.8-10.2 4.4-1.9.6-4.5 1.3-5.7 1.7-3.3.9-2.9-.8 1.2-5.2 3.9-4.3 5.3-9.2 3.6-13-.6-1.3-.9-2.8-.6-3.3.6-.9 7.9 2 9.8 3.9zm-40.3 3.3c0 5.6.3 6.5 3.2 9.5 1.7 1.8 2.9 3.5 2.7 3.7-1.2 1.2-23.9-7.8-23.9-9.4 0-.6 16.2-10 17.3-10 .4 0 .7 2.8.7 6.2z"/><path d="M163 349.5c-1.7 2-.5 3.2 1.5 1.5.8-.7 1.5-1 1.6-.6.4 2.4.2 6.5-.4 7.9-.5 1.5-.3 1.6 1.2.7 1.8-.9 3.3-7.1 2.3-9.8-.6-1.7-4.7-1.5-6.2.3zM172.5 348.9c-.7 1.2 1.2 2.4 2.5 1.6 1.1-.7.4-2.5-1-2.5-.5 0-1.1.4-1.5.9zM178.3 350.1c-.7.7-1.3 2.5-1.3 4s-.5 3.1-1.2 3.5c-.7.4-.8.3-.4-.5.4-.6 0-1.4-.9-1.7-2.1-.9-2.8 0-2 2.5.4 1.5 1.5 2.1 3.6 2.1 3.5 0 4.1-1.3 3.7-6.9-.2-3.4-.5-4-1.5-3z"/><path d="M161.4 356.5c-.3.8-.3 1.9.1 2.5 1.1 1.8 2.5 1.1 2.5-1.5 0-2.7-1.7-3.4-2.6-1zM201 334.6c0 .6.5 2.5 1.1 4.3 1.1 3.1 2.4 4 3.1 2 .2-.6 2.1-1.2 4.3-1.2 5-.2 5.5-1.9 1-3.3-2.8-.9-3.7-.8-4.7.3-1 1.2-1.4 1.1-3-.9-.9-1.3-1.8-1.8-1.8-1.2zM336.2 336.4c-.9 2.1-1.9 2.6-4.7 2.6-4.6 0-14.3 4-19.2 7.8-2.1 1.7-5.5 3.4-7.5 3.7-3.3.6-3.8 1.1-3.8 3.4 0 1.5.5 3.2 1.2 3.9.9.9.9 1.2-.2 1.2-.8 0 0 1.3 1.9 3.1 3.4 3 5.7 3.4 2.7.4-3.9-4 .7-3.7 7.4.4 14 8.4 25.4 9.8 47.5 5.5 11.2-2.2 18.5-4.4 18.5-5.6 0-1.4-3.7-6.2-9.3-12-4.6-4.7-4.8-5.1-3.8-8 1.3-3.8 1.4-5.8.2-5.8-.5 0-1.5 1.6-2.1 3.5-.6 1.9-1.5 3.5-1.9 3.5-.4 0-3.5-1.1-6.9-2.5-3.4-1.4-8.1-2.5-10.5-2.5-4.4 0-7.1-1.4-7.9-3.9-.2-.8-.8-.3-1.6 1.3zm12.2 8.6l6.8 1.3-.4 7.3c-.5 7.9-1.8 10.3-7 13-5.6 2.9-13 .7-16.2-4.7-1.6-2.7-2.1-11.3-1-15.6.5-1.6 1.5-2.3 4.3-2.6 4-.4 3.7-.4 13.5 1.3zm-19-.2c-2 1.3-3.5 7.8-2.8 12.1.5 3.2 1.5 4.9 4 6.9 1.9 1.5 3.4 3.1 3.4 3.6 0 2.2-14.1-2.7-17.6-6.1-.8-.8-3.6-2.3-6.1-3.2-4.8-1.7-6.9-4.1-3.6-4.1 1 0 3.8-1.2 6.3-2.6 6.8-4 21.1-9.7 16.4-6.6zm39.8 11.3c4.6 3.9 5.8 6.2 4 7.3-1.2.7-19.2 4.6-21.2 4.6-1.2-.1-1.1-.4.5-1.8 4.1-3.5 5.9-7.5 5.8-12.9l-.1-5.2 3.1 1.9c1.7 1.1 5.3 3.8 7.9 6.1z"/><path d="M335 350.5c-1.7 2-.4 3.2 1.8 1.8 1.6-1 1.8-.6 1.7 3-.1 2.2-.6 4.2-1.3 4.5-.7.2-1.2-.3-1.2-1.2 0-.9-.8-1.6-2-1.6-2.2 0-2.6 2-.8 3.8 1.7 1.7 5.3 1.5 7-.6 1.7-1.9 2-8 .5-10-1.3-1.7-4.2-1.5-5.7.3zM345 350.5c-.7.9-1 1.9-.6 2.3.4.4 1.4-.2 2.2-1.2 1.7-2.3 3.3-1.2 1.8 1.2-.8 1.3-.8 2.3.3 3.9s1.1 2.3.2 2.8c-.6.5-1.6.1-2.1-.9-1.3-2.4-3-2-2.6.6.5 3.5 5 3.7 6.8.3 1-1.9 1.1-2.8.2-3.7-.8-.8-.8-1.7-.1-3 .5-1 .7-2.3.4-2.8-.9-1.5-5.1-1.2-6.5.5zM421 334.9c0 1.4 3.8 5.7 4.4 5 1.1-1.1-1.3-5.9-2.9-5.9-.8 0-1.5.4-1.5.9zM84.2 336.2c-.6.8-1.5 2.9-1.8 4.6-.9 4.4 1.1 4.1 2.6-.3 1.4-4.2 1-6.4-.8-4.3zM102.4 338.5c-1.2 1.8-1.3 2.9-.6 3.8.6.7 1 2.6.9 4.1-.3 4.3 2.6 5.7 5.7 2.7 2-1.9 2.4-3 2.1-6.9-.6-6.5-4.9-8.5-8.1-3.7zm5.4 1.8c.2 1-.3 1.7-1.2 1.7-1.8 0-2.9-1.6-2.1-3.1.9-1.4 2.9-.6 3.3 1.4zm.5 6.2c.1.5-.6 1.1-1.5 1.3-1.1.2-1.8-.3-1.8-1.3 0-1.7 3-1.8 3.3 0zM91.2 338.2c-1.7 1.7-1.5 5.8.2 5.8.8 0 1.6-1 1.8-2.2.4-2.8 2.8-3.6 2.8-.9 0 1.1-1.3 3.5-3 5.3-4.1 4.5-3.9 6 .7 5.6 4.8-.4 6-3.5 1.6-4l-2.8-.4 2.7-1.3c3.6-1.8 4.5-4.7 2.2-7.2-2-2.2-4.4-2.5-6.2-.7zM234.2 340.2c1.6 6 4.3 12.8 5.1 12.8.9 0 .1-11.5-.9-13.2-.8-1.3-4.6-.9-4.2.4zM400.3 344.5c-2.4 2.3-3 4.5-1.3 4.5 1.5 0 5-3.8 5-5.5 0-2-1-1.7-3.7 1zM407.7 343.7c-.4.3-.7 1.5-.7 2.5 0 2.1 2 2.4 3.9.5 1.1-1 1.3-.9.9.3-.3.8-1.5 2-2.8 2.7-2.4 1.2-5.9 5.1-6 6.6 0 1.3 9.3.3 9.8-1.1.2-.7-.6-1.2-2-1.2-2.2 0-2.1-.2 1-2.6 1.7-1.4 3.2-3.4 3.2-4.4 0-2.8-5.4-5.3-7.3-3.3zM120 344.7c0 1.1 4.4 7.3 5.3 7.3 1.4 0 .7-2.7-1.4-5.4-1.9-2.5-3.9-3.4-3.9-1.9zM419.2 345.6c-1.5 1-2.2 2.4-2 3.9.1 1.2-.3 2.9-1 3.8-1.6 1.9-.8 3.5 2.2 4.7 3.1 1.2 5.6-.6 5.6-4 0-1.7.5-3 1-3 1.4 0 1.3-4.3-.2-5.8-1.6-1.6-2.9-1.5-5.6.4zm4.3 2.4c.3.6-.1 1.3-1 1.6-1.9.8-3 0-2-1.5.8-1.4 2.2-1.4 3-.1zm-2.5 7.5c0 .8-.4 1.5-1 1.5-.5 0-1-.7-1-1.5s.5-1.5 1-1.5c.6 0 1 .7 1 1.5zM272.6 347.3c-.3 1.2-.6 3.1-.6 4.1 0 2.6 1.6.9 2.4-2.6.7-3.2-.9-4.7-1.8-1.5zM279.7 348.8c-2 2.1-2.2 4.2-.5 4.2.7 0 .6.6-.4 1.7-.8 1-1.8 2.6-2.1 3.5-.5 1.5 0 1.8 2.8 1.8 3.8 0 5.9-1.9 2.3-2.1-1.3-.1-2.7-.1-3.3 0-1.1.2 3.2-3.8 6.1-5.5 1.5-1 1.7-1.6.8-3-1.5-2.6-3.7-2.8-5.7-.6zm3.1 1.9c-.5 2.5-2.8 2.8-2.8.4 0-1.2.6-2.1 1.6-2.1.9 0 1.4.7 1.2 1.7zM290.3 347.7c-.7.2-1.3 1.2-1.3 2.1 0 1.2.3 1.3 1.2.4 1.6-1.6 2.8-1.5 2.8.3 0 .8-.5 1.5-1 1.5-.7 0-.9 1.5-.6 3.7.3 2.1.3 3 0 2-.7-2.3-3.4-2.2-3.4.2 0 2.7 2.9 3.5 5.2 1.4 1.3-1.2 1.7-2.5 1.3-4.1-.3-1.3-.1-3 .6-3.8 2.4-2.9-.8-5.4-4.8-3.7zM229.1 351.3c-1.7 1.7-1.3 2.9.9 2.2 1.5-.5 1.8-.3 1.4.9-.3.8-1.4 1.8-2.5 2.1-1.3.4-1.9 1.6-1.9 3.5 0 2.3.5 3.1 2.5 3.6 3.4.8 5.8-1.3 5.2-4.5-.3-1.4-.1-3.3.3-4.1.5-.9.6-2.1.2-2.6-1.1-1.6-4.9-2.3-6.1-1.1zM216.4 353.6c-.5 1.7-.3 2.9.4 3.2.6.2.8 1 .5 1.8-.5 1.3-.1 1.3 2.8.1 2.8-1.1 3.4-1.9 3.4-4.3 0-2.5-.4-2.9-3.2-3.2-2.8-.3-3.3 0-3.9 2.4zM393 352.9c-1.6 3-1.2 3.6 1 1.6 2.1-1.9 2.6-3.5 1-3.5-.5 0-1.4.9-2 1.9zM239 360.4c0 2 .5 3.6 1 3.6.6 0 1-1.3 1-2.9 0-1.7-.4-3.3-1-3.6-.6-.4-1 .8-1 2.9zM270.9 357.7c0 .5-.2 1.8-.5 3-.2 1.3.1 2.3.6 2.3.6 0 1-1.4 1-3 0-2.6-.9-4.4-1.1-2.3zM384.4 359.5c-1.5 1.1-1.6 1.4-.3 1.5.8 0 2.4-.7 3.5-1.5 1.5-1.1 1.6-1.4.3-1.5-.8 0-2.4.7-3.5 1.5zM215 362.6c0 1.1.9 1.4 3.7 1.2 5.2-.4 5.6-2.8.4-2.8-3 0-4.1.4-4.1 1.6zM195.4 370.1c-.8 1.4 1.1 3.3 2.5 2.5 1.6-1 1.3-3.6-.3-3.6-.8 0-1.8.5-2.2 1.1zM239.1 374c.2 3.4.7 5 1.6 5 .7 0 1.3-.5 1.3-1 0-.6-.5-1-1.1-1-.8 0-.8-.4-.1-1.3 1.2-1.4.4-6.7-1-6.7-.5 0-.8 2.2-.7 5zM269 369.7c0 .5-.5 6-1 12.3-1.8 19.4-1.3 47.1 1 58 .5 2.5 1.1 8.8 1.4 14 .3 8.4.1 10.2-2.1 15.8-3.2 7.9-6 9.6-13.8 8.7-7.3-1-11.2-3.5-12.1-8-.3-1.9-1-3.8-1.5-4.1-.5-.3-.9-4.7-1-9.7-.1-7.9-.2-8.7-1.1-5.7-1 3.5-.6 14.4.8 19 .8 2.5.7 2.5-1.7.7-4.2-3-9.2-4.9-14.9-5.6-3-.4-6.1-1-6.8-1.5-2.3-1.4-3.3-5.6-2.6-11 .9-6.3 4.8-10.6 11.4-12.5 7.9-2.3 9-3.2 3.3-2.7-6.3.6-12.4 3.5-14.9 7.3-1.4 2.2-1.8 4.7-1.9 11.7v8.9l3.7 1.9c2.1 1.1 7.2 2.8 11.4 3.9 4.2 1 10.1 3.3 13 5 5 2.8 5.4 3.3 5.4 6.8 0 2.1-.9 6.4-2 9.6-2.4 6.9-2.4 7.1-.7 5.6.8-.6 1.9-3 2.6-5.3.7-2.4 1.7-5.3 2.2-6.6.5-1.3.9-3.2.9-4.4 0-1.9.4-2 4.6-1.4 2.6.3 5.7.6 6.9.6 1.9 0 2.3.7 2.8 5 .6 4.8 6.7 16 8.7 16 .5 0-.3-2.8-1.7-6.2-1.4-3.4-2.5-8.2-2.6-10.6 0-3.7.5-4.8 2.9-6.8 4-3.3 14.3-8.4 16.9-8.4 1.3 0 4.2-.7 6.5-1.5 2.4-.8 4.4-1.4 4.4-1.3.1.2 1 3 2.1 6.3 1 3.3 3.5 8.7 5.4 12 3 5 3.7 5.6 3.9 3.7.2-1.3-1.4-5.8-3.4-10-3.6-7.3-3.8-8.3-4-17.7-.1-11.2-1.3-15-6.6-20.6-3.8-4.1-7.6-5.9-12.1-5.9-4.4 0-7.4 1.9-3.2 2.1 1.7 0 5.3.8 8 1.8 4.3 1.5 5.5 2.5 8.3 7.1 6.5 10.8 3.7 17-8.8 19.6-4.1.8-9.2 2.6-11.2 4-2.1 1.3-4 2.4-4.2 2.4-.3 0 .2-1.9 1.1-4.3 2.1-5.9 2-14-.5-30.2-2.4-15.7-3.3-43.8-1.8-59.3.6-6.6.5-9.2-.3-9.2-.6 0-1.1.3-1.1.7zM142.6 371.9c-.4.7-.5 1.5-.2 1.8.9.9 1.9-.4 1.4-1.8-.4-1.1-.6-1.1-1.2 0zM319.6 371.8c-.3.6-.1 1.4.5 1.7 1.5 1 2.5-.3 1.2-1.6-.7-.7-1.3-.7-1.7-.1zM146 373.5c0 1.6 1.6 2 2.4.6.3-.5-.1-1.1-.9-1.5-.9-.3-1.5 0-1.5.9zM191.5 374c.3.5 1.1 1 1.6 1 .6 0 .7-.5.4-1-.3-.6-1.1-1-1.6-1-.6 0-.7.4-.4 1zM371 374c0 .5.5 1 1 1 .6 0 1-.5 1-1 0-.6-.4-1-1-1-.5 0-1 .4-1 1zM150 375.5c0 .8.7 1.5 1.5 1.5s1.5-.4 1.5-.9-.7-1.1-1.5-1.5c-.9-.3-1.5 0-1.5.9zM187 376c0 .5.5 1 1 1 .6 0 1-.5 1-1 0-.6-.4-1-1-1-.5 0-1 .4-1 1zM155 377c0 .5.7 1 1.6 1 .8 0 1.2-.5.9-1-.3-.6-1-1-1.6-1-.5 0-.9.4-.9 1zM178 377.4c0 .9.7 1.6 1.6 1.6.9 0 1.4-.5 1.2-1.2-.6-1.8-2.8-2.1-2.8-.4zM183 377c0 .5.7.7 1.5.4.8-.4 1.5-.8 1.5-1 0-.2-.7-.4-1.5-.4s-1.5.4-1.5 1zM329.8 376.7c.7.3 1.6.2 1.9-.1.4-.3-.2-.6-1.3-.5-1.1 0-1.4.3-.6.6zM333 377c0 .5.7 1 1.6 1 .8 0 1.2-.5.9-1-.3-.6-1-1-1.6-1-.5 0-.9.4-.9 1zM173.5 378c-.3.5.1 1 .9 1 .9 0 1.6-.5 1.6-1 0-.6-.4-1-.9-1-.6 0-1.3.4-1.6 1zM338.5 378c-.3.5.1 1 .9 1 .9 0 1.6-.5 1.6-1 0-.6-.4-1-.9-1-.6 0-1.3.4-1.6 1zM343 378c0 .5.7 1 1.6 1 .8 0 1.2-.5.9-1-.3-.6-1-1-1.6-1-.5 0-.9.4-.9 1zM169.8 378.7c.7.3 1.6.2 1.9-.1.4-.3-.2-.6-1.3-.5-1.1 0-1.4.3-.6.6zM239.5 382c-.3.5.1 1 1 1s1.3-.5 1-1c-.3-.6-.8-1-1-1-.2 0-.7.4-1 1zM437.5 387.7c-4.1 8.9-8.7 23.3-9.1 28.3-.2 2.5-.6 8.1-.8 12.5-.9 16.7-1.7 19.4-5.7 20.2-3.3.6-2.9 2.3.5 2.3 5.2 0 5.8-1.5 6.7-18.1 1-16.8 3.9-29.3 9.9-42.7 1.8-3.9 2.7-6.9 2.1-7.5-.5-.5-2 1.5-3.6 5zM240 386c0 .5.5 1 1 1 .6 0 1-.5 1-1 0-.6-.4-1-1-1-.5 0-1 .4-1 1zM239 391c0 .5.7 1 1.5 1s1.5-.5 1.5-1c0-.6-.7-1-1.5-1s-1.5.4-1.5 1zM77 393c0 .8.5 2.2 1 3 .9 1.3 1 1.3 1 0 0-.8-.5-2.2-1-3-.9-1.3-1-1.3-1 0zM240 395c0 .5.5 1 1 1 .6 0 1-.5 1-1 0-.6-.4-1-1-1-.5 0-1 .4-1 1zM240 399c0 .5.5 1 1 1 .6 0 1-.5 1-1 0-.6-.4-1-1-1-.5 0-1 .4-1 1z"/><path d="M240 412c0 .5.5 1 1 1 .6 0 1-.5 1-1 0-.6-.4-1-1-1-.5 0-1 .4-1 1zM240.7 414.7c-.4.3-.7 1.1-.7 1.7 0 .6.5.5 1.2-.2.6-.6.9-1.4.7-1.7-.3-.3-.9-.2-1.2.2zM240 420.1c0 .5.5.7 1 .4.6-.3 1-.8 1-1.1 0-.2-.4-.4-1-.4-.5 0-1 .5-1 1.1zM240 424c0 .5.5 1 1 1 .6 0 1-.5 1-1 0-.6-.4-1-1-1-.5 0-1 .4-1 1zM239.5 436c-.3.5.1 1 1 1s1.3-.5 1-1c-.3-.6-.8-1-1-1-.2 0-.7.4-1 1zM239 444.6c0 .8.5 1.2 1 .9.6-.3 1-1 1-1.6 0-.5-.4-.9-1-.9-.5 0-1 .7-1 1.6zM210 470.6c-.6 1.6-1.6 3.9-2.2 5.2-.9 1.7-.9 2.5 0 3.4 1.2 1.2 1.1 1.5 3.2-6 1.3-5 .6-6.9-1-2.6zM200.7 500.7c-.3.5-.8 3.5-1.1 6.8-.7 6.7-1.7 11-4 17-.8 2.2-1.5 4.8-1.6 5.7 0 3.5 1.8 1.7 3.7-3.5l1.9-5.2 10.4.3c6.6.2 14-.4 19.8-1.4 8.5-1.5 9.9-1.5 16-.1 11.6 2.7 13.3 2.7 22.1 1.1 8.7-1.6 18.5-1.4 20.4.5.6.6.5 2.2-.2 4.4-.9 2.7-2.2 4-5.5 5.5-3.9 1.9-6.1 2-26.7 1.8-25-.2-26.6-.5-32.3-7.3-4.5-5.4-4.3-2.9.3 3.1 3 4.1 5.1 5.8 7.8 6.5 4.8 1.4 16.5 1.4 22.2 0 3.1-.7 6-.6 10 .2 6.2 1.3 14.9 1.3 18.4 0 4.1-1.6 8.7-7.2 8.7-10.7 0-3 .2-3.1 5.3-3.8 10.4-1.2 11.2-1 13.3 3.4 1.9 3.9 3.4 5.2 3.4 2.7 0-.7-.9-4.5-2-8.5-1.1-3.9-2-8.5-2-10.1 0-4-.9-6.1-2.7-6.1-1 0-1.2.6-.8 2 1.2 3.7-.5 10-2.9 11.1-2.9 1.3-12.1-1.8-17.4-5.9-6.4-4.9-9.2-5.6-21-4.8-6.6.4-12.1.2-14.2-.4-7.8-2.4-12.3-1.5-22.6 4.4-7.8 4.5-10.8 5.6-16 6.1-8.9 1-9.7.2-8.8-8.7.4-4.6.3-6.8-.4-6.8-.6 0-1.3.3-1.5.7zm62.3 6.8h13.5l6.1 3.7c3.4 2.1 7.7 4.4 9.5 5.3 4.7 2 1.1 2-7.7-.1-5.1-1.1-9.4-1.3-18.4-.8-7.9.4-12.8.3-15.2-.5-5.3-1.8-15.7-1.6-20.2.3-2.1.9-6.4 1.9-9.5 2.1l-5.6.6L227 512c11.2-5.9 11.6-6 17-5.3 3 .4 11.6.7 19 .8zM251.5 551.9c-5.5.8-18 5.5-20.7 7.9-1 .8-1.8 2.2-1.8 3 0 1.3.2 1.3 1.8 0 .9-.8 5.1-2.9 9.2-4.7 6.8-3 8.4-3.3 17.5-3.4 10.6-.1 15.7 1.5 21.2 6.6 1.3 1.1 2.6 1.7 3 1.3 1.2-1.2-8.3-9-12.6-10.4-4.3-1.3-9.3-1.4-17.6-.3zM223.6 566.7c-.3 1-.9 2.4-1.2 3-.3.7-.1 1.3.5 1.3s1.1-.6 1.1-1.4c0-.8.7-1.6 1.5-2 1.9-.7 2-2.6.1-2.6-.7 0-1.6.8-2 1.7zM219.2 574.1c.2.6.8 1 1.3 1s1.1-.4 1.3-1c.2-.6-.4-1.1-1.3-1.1s-1.5.5-1.3 1.1zM288 573.9c0 .5.5 1.3 1 1.6.6.3 1 .2 1-.4 0-.5-.4-1.3-1-1.6-.5-.3-1-.2-1 .4zM446.3 608.2c.2.7 1.2 1.3 2.2 1.3 1 0 2-.6 2.3-1.3.2-.7-.6-1.2-2.3-1.2-1.7 0-2.5.5-2.2 1.2zM77.5 700.9c-.3.6 0 1.3.7 1.5.7.3 3.1 1 5.2 1.6 2.1.7 8.4 3.4 14 6s17.8 7.8 27.1 11.5c9.4 3.7 18.8 7.5 21 8.5 2.2 1 7.6 3.5 12 5.5s10.9 5.6 14.5 7.9c3.6 2.4 9.9 6.3 14 8.7 4.1 2.4 8.4 4.9 9.5 5.6 2.6 1.7 14.3 7.3 15 7.3 1.7 0-1.2-2.2-7.3-5.6-3.7-2-9.2-5.3-12.2-7.3-6.8-4.5-8.9-5.7-11.9-7.1-1.3-.6-4-2.3-6-3.9-4.1-3.1-22.7-12.3-34.4-17-4.3-1.7-8.8-3.8-10-4.6-1.2-.8-3.1-1.5-4.2-1.5-2.2 0-21.5-7.4-28.1-10.8-2.2-1.1-6.5-2.9-9.5-4s-6.1-2.3-7-2.7c-1-.3-2-.2-2.4.4zM430.1 708c-1.8.4-4.3 1.3-5.5 1.9-1.1.6-7 2.7-13.1 4.7-6 2-14.2 5.1-18.2 7-3.9 1.9-7.4 3.4-7.7 3.4-.4 0-2.5 1.2-4.8 2.6l-4.2 2.7-2.3-2.7c-1.8-2.2-2.3-2.3-2.1-.9.5 5.9-1.4 7.8-15.4 15.1-2.6 1.4-6.2 3.9-8 5.5-5.2 4.8-16.3 13.2-29.6 22.4-4.6 3.1-7.9 5.9-7.4 6.1 1.7.5 9.3-3.8 17-9.7 4-3.1 8.7-6.6 10.5-7.8 1.7-1.2 4.1-3 5.2-3.9 1-1 4.1-3.3 6.9-5.2 2.7-1.8 6.5-4.6 8.3-6.3 1.9-1.6 4-2.9 4.8-2.9.7 0 2.6-1 4.2-2.3 1.5-1.2 5.5-3.6 8.8-5.2 3.3-1.6 7.1-3.6 8.5-4.6 1.4-.9 5-2.5 8-3.5 3-.9 7.3-2.7 9.5-4 2.2-1.2 7.4-3.2 11.5-4.5 4.1-1.2 8-2.5 8.5-2.9.6-.4 3.8-1.5 7.3-2.5 4.1-1.2 5.8-2.1 5-2.7-.7-.4-1.5-.7-1.8-.7-.3.1-2 .5-3.9.9zM363 727.5c0 2.4.5 3.5 1.5 3.5s1.5-1.1 1.5-3.5-.5-3.5-1.5-3.5-1.5 1.1-1.5 3.5zM312.8 733.2c-3 4.1-4.1 5.8-3.4 5.8.8 0 6.9-8.1 6.4-8.6-.3-.2-1.6 1-3 2.8z"/><path d="M383.6 731.8c-.3.6-.1 1.4.5 1.7 1.4.9 2 .2 1-1.4-.6-.8-1.1-.9-1.5-.3zM263.6 739.9c-1.4 3.2-2.6 6.6-2.6 7.5 0 1-.4 2.6-1 3.6-.5 1-1.4 4.7-2 8.2-.5 3.5-1.3 7.5-1.6 9-.5 2.4-.3 2.8 1.4 2.8 2.4 0 3-1.6 3.1-9 .1-4.6 4-20.2 6.6-26.3.4-.9.3-1.7-.3-1.7-.5 0-2.1 2.6-3.6 5.9zM383.5 837.3c-.4 1-.5 2.1-.1 2.4 1 1 1.8-.4 1.3-2.4-.4-1.7-.4-1.7-1.2 0zM414.8 839.2c.4 2.8.6 3 1.3 1.3 1.2-3 1-4.5-.4-4.5-1 0-1.2 1-.9 3.2zM493 837c0 .5.4 1 .9 1 .6 0 1.3-.5 1.6-1 .3-.6-.1-1-.9-1-.9 0-1.6.4-1.6 1zM428 851c0 .5.5 1 1 1 .6 0 1-.5 1-1 0-.6-.4-1-1-1-.5 0-1 .4-1 1z"/></svg>